%TF.GenerationSoftware,KiCad,Pcbnew,7.0.10*%
%TF.CreationDate,2024-05-20T03:00:15+05:30*%
%TF.ProjectId,nico-ch32v003-v1,6e69636f-2d63-4683-9332-763030332d76,1.0.1*%
%TF.SameCoordinates,Original*%
%TF.FileFunction,Copper,L2,Bot*%
%TF.FilePolarity,Positive*%
%FSLAX46Y46*%
G04 Gerber Fmt 4.6, Leading zero omitted, Abs format (unit mm)*
G04 Created by KiCad (PCBNEW 7.0.10) date 2024-05-20 03:00:15*
%MOMM*%
%LPD*%
G01*
G04 APERTURE LIST*
G04 Aperture macros list*
%AMRoundRect*
0 Rectangle with rounded corners*
0 $1 Rounding radius*
0 $2 $3 $4 $5 $6 $7 $8 $9 X,Y pos of 4 corners*
0 Add a 4 corners polygon primitive as box body*
4,1,4,$2,$3,$4,$5,$6,$7,$8,$9,$2,$3,0*
0 Add four circle primitives for the rounded corners*
1,1,$1+$1,$2,$3*
1,1,$1+$1,$4,$5*
1,1,$1+$1,$6,$7*
1,1,$1+$1,$8,$9*
0 Add four rect primitives between the rounded corners*
20,1,$1+$1,$2,$3,$4,$5,0*
20,1,$1+$1,$4,$5,$6,$7,0*
20,1,$1+$1,$6,$7,$8,$9,0*
20,1,$1+$1,$8,$9,$2,$3,0*%
G04 Aperture macros list end*
%TA.AperFunction,ComponentPad*%
%ADD10RoundRect,0.225000X1.025000X0.225000X-1.025000X0.225000X-1.025000X-0.225000X1.025000X-0.225000X0*%
%TD*%
%TA.AperFunction,ComponentPad*%
%ADD11RoundRect,0.225000X-0.225000X1.025000X-0.225000X-1.025000X0.225000X-1.025000X0.225000X1.025000X0*%
%TD*%
%TA.AperFunction,ComponentPad*%
%ADD12RoundRect,0.225000X-1.025000X-0.225000X1.025000X-0.225000X1.025000X0.225000X-1.025000X0.225000X0*%
%TD*%
%TA.AperFunction,SMDPad,CuDef*%
%ADD13R,1.500000X2.000000*%
%TD*%
%TA.AperFunction,SMDPad,CuDef*%
%ADD14R,3.800000X2.000000*%
%TD*%
%TA.AperFunction,ViaPad*%
%ADD15C,0.800000*%
%TD*%
%TA.AperFunction,Conductor*%
%ADD16C,0.500000*%
%TD*%
%TA.AperFunction,Conductor*%
%ADD17C,0.250000*%
%TD*%
%TA.AperFunction,Conductor*%
%ADD18C,0.200000*%
%TD*%
G04 APERTURE END LIST*
D10*
%TO.P,J3,1,Pin_1*%
%TO.N,GND*%
X93706000Y-75820000D03*
%TO.P,J3,2,Pin_2*%
%TO.N,+5V*%
X93686000Y-74510000D03*
%TO.P,J3,3,Pin_3*%
%TO.N,PC0*%
X93686000Y-73240000D03*
%TO.P,J3,4,Pin_4*%
%TO.N,+3.3V*%
X93686000Y-71970000D03*
%TO.P,J3,5,Pin_5*%
%TO.N,PD0*%
X93716000Y-70660000D03*
%TO.P,J3,6,Pin_6*%
%TO.N,GND*%
X93716000Y-69390000D03*
%TO.P,J3,7,Pin_7*%
%TO.N,OSCO*%
X93716000Y-68120000D03*
%TO.P,J3,8,Pin_8*%
%TO.N,OSCI*%
X93716000Y-66850000D03*
%TO.P,J3,9,Pin_9*%
%TO.N,PD7*%
X93716000Y-65580000D03*
%TO.P,J3,10,Pin_10*%
%TO.N,PD6*%
X93716000Y-64310000D03*
%TO.P,J3,11,Pin_11*%
%TO.N,DFZ*%
X93716000Y-63040000D03*
%TO.P,J3,12,Pin_12*%
%TO.N,D-*%
X93716000Y-61770000D03*
%TD*%
D11*
%TO.P,J4,1,Pin_1*%
%TO.N,+3.3V*%
X102880000Y-76550000D03*
%TO.P,J4,2,Pin_2*%
%TO.N,PD1*%
X101610000Y-76550000D03*
%TO.P,J4,3,Pin_3*%
%TO.N,PD6*%
X100340000Y-76550000D03*
%TO.P,J4,4,Pin_4*%
%TO.N,GND*%
X99070000Y-76550000D03*
%TD*%
D12*
%TO.P,J2,1,Pin_1*%
%TO.N,D+*%
X108336000Y-61720000D03*
%TO.P,J2,2,Pin_2*%
%TO.N,PD2*%
X108356000Y-63030000D03*
%TO.P,J2,3,Pin_3*%
%TO.N,PD1*%
X108356000Y-64300000D03*
%TO.P,J2,4,Pin_4*%
%TO.N,PC7*%
X108356000Y-65570000D03*
%TO.P,J2,5,Pin_5*%
%TO.N,PC6*%
X108326000Y-66880000D03*
%TO.P,J2,6,Pin_6*%
%TO.N,PC5*%
X108326000Y-68150000D03*
%TO.P,J2,7,Pin_7*%
%TO.N,PC4*%
X108326000Y-69420000D03*
%TO.P,J2,8,Pin_8*%
%TO.N,PC3*%
X108326000Y-70690000D03*
%TO.P,J2,9,Pin_9*%
%TO.N,PC2*%
X108326000Y-71960000D03*
%TO.P,J2,10,Pin_10*%
%TO.N,PC1*%
X108326000Y-73230000D03*
%TO.P,J2,11,Pin_11*%
%TO.N,+3.3V*%
X108326000Y-74500000D03*
%TO.P,J2,12,Pin_12*%
%TO.N,GND*%
X108326000Y-75770000D03*
%TD*%
D13*
%TO.P,U2,1,GND*%
%TO.N,GND*%
X98636800Y-60376800D03*
%TO.P,U2,2,VO*%
%TO.N,+3.3V*%
X100936800Y-60376800D03*
D14*
X100936800Y-66676800D03*
D13*
%TO.P,U2,3,VI*%
%TO.N,+5V*%
X103236800Y-60376800D03*
%TD*%
D15*
%TO.N,+5V*%
X97039200Y-55804800D03*
X103236800Y-58446400D03*
%TO.N,GND*%
X104151200Y-71756000D03*
X96480400Y-66625200D03*
X100114400Y-72416400D03*
X98715600Y-71857600D03*
X105420000Y-75470000D03*
X104964000Y-55855600D03*
X98461600Y-58395600D03*
X97110000Y-75210000D03*
X105420000Y-61480000D03*
X101814400Y-70216400D03*
%TO.N,+3.3V*%
X99782400Y-68454000D03*
%TO.N,PD1*%
X106200000Y-64110000D03*
%TO.N,PD6*%
X99614392Y-63509257D03*
%TD*%
D16*
%TO.N,+5V*%
X95630400Y-73506428D02*
X94619129Y-74517699D01*
X95630400Y-65539600D02*
X95630400Y-73506428D01*
X97039200Y-55804800D02*
X100595200Y-55804800D01*
X100595200Y-55804800D02*
X103236800Y-58446400D01*
X103236800Y-60726800D02*
X102136800Y-61826800D01*
X103236800Y-60376800D02*
X103236800Y-60726800D01*
X99343200Y-61826800D02*
X95630400Y-65539600D01*
X102136800Y-61826800D02*
X99343200Y-61826800D01*
D17*
X103236800Y-60376800D02*
X103236800Y-58446400D01*
D16*
X94619129Y-74517699D02*
X94503790Y-74517699D01*
D17*
%TO.N,GND*%
X98636800Y-60376800D02*
X98636800Y-58570800D01*
D18*
X99324442Y-62809257D02*
X104090743Y-62809257D01*
X104090743Y-62809257D02*
X105420000Y-61480000D01*
D17*
X98636800Y-58570800D02*
X98461600Y-58395600D01*
D18*
X96480400Y-66625200D02*
X96480400Y-65653299D01*
X96480400Y-65653299D02*
X99324442Y-62809257D01*
D16*
%TO.N,+3.3V*%
X102790000Y-71520000D02*
X102790000Y-75697000D01*
X105723118Y-71463118D02*
X105723118Y-74530000D01*
X102790000Y-75697000D02*
X102880000Y-75787000D01*
X100936800Y-67299600D02*
X99782400Y-68454000D01*
X104285000Y-70025000D02*
X102790000Y-71520000D01*
X105723118Y-74530000D02*
X107525006Y-74530000D01*
X100936800Y-66676800D02*
X105723118Y-71463118D01*
D18*
%TO.N,PD1*%
X106200000Y-64110000D02*
X100060000Y-64110000D01*
X100008696Y-74220000D02*
X100950000Y-74220000D01*
X101610000Y-74880000D02*
X101610000Y-75937000D01*
X98015600Y-72226904D02*
X100008696Y-74220000D01*
X98015600Y-66154400D02*
X98015600Y-72226904D01*
X100060000Y-64110000D02*
X98015600Y-66154400D01*
X100950000Y-74220000D02*
X101610000Y-74880000D01*
%TO.N,PD6*%
X97615600Y-65508049D02*
X97615600Y-72392590D01*
X100340000Y-75116990D02*
X100340000Y-75937000D01*
X97615600Y-72392590D02*
X100340000Y-75116990D01*
X99614392Y-63509257D02*
X97615600Y-65508049D01*
%TD*%
%TA.AperFunction,Conductor*%
%TO.N,GND*%
G36*
X96929791Y-65404089D02*
G01*
X96985724Y-65445961D01*
X97009396Y-65504085D01*
X97014039Y-65539350D01*
X97015100Y-65555536D01*
X97015100Y-72345102D01*
X97014039Y-72361287D01*
X97009918Y-72392588D01*
X97009918Y-72392590D01*
X97015100Y-72431950D01*
X97015100Y-72431951D01*
X97030555Y-72549350D01*
X97030556Y-72549352D01*
X97091064Y-72695431D01*
X97187318Y-72820872D01*
X97187319Y-72820873D01*
X97212369Y-72840094D01*
X97224564Y-72850789D01*
X98962094Y-74588319D01*
X98995579Y-74649642D01*
X98990595Y-74719334D01*
X98948723Y-74775267D01*
X98883259Y-74799684D01*
X98874415Y-74800000D01*
X98796693Y-74800000D01*
X98796676Y-74800001D01*
X98697392Y-74810144D01*
X98536518Y-74863452D01*
X98536507Y-74863457D01*
X98392271Y-74952424D01*
X98392267Y-74952427D01*
X98272427Y-75072267D01*
X98272424Y-75072271D01*
X98183457Y-75216507D01*
X98183452Y-75216518D01*
X98130144Y-75377393D01*
X98120000Y-75476677D01*
X98120000Y-75912500D01*
X98100315Y-75979539D01*
X98047511Y-76025294D01*
X97996000Y-76036500D01*
X94381748Y-76036500D01*
X94314709Y-76016815D01*
X94268954Y-75964011D01*
X94257748Y-75912808D01*
X94257206Y-75694308D01*
X94276725Y-75627220D01*
X94329415Y-75581334D01*
X94381206Y-75570000D01*
X95455999Y-75570000D01*
X95455999Y-75546692D01*
X95455998Y-75546677D01*
X95445855Y-75447392D01*
X95392547Y-75286518D01*
X95392542Y-75286507D01*
X95348041Y-75214360D01*
X95329600Y-75146968D01*
X95348042Y-75084164D01*
X95355381Y-75072267D01*
X95373003Y-75043697D01*
X95426349Y-74882708D01*
X95434480Y-74803114D01*
X95460876Y-74738423D01*
X95470148Y-74728045D01*
X96116042Y-74082152D01*
X96129657Y-74070386D01*
X96148930Y-74056038D01*
X96180783Y-74018076D01*
X96188071Y-74010122D01*
X96191990Y-74006205D01*
X96211211Y-73981895D01*
X96213494Y-73979092D01*
X96215835Y-73976303D01*
X96261702Y-73921642D01*
X96261703Y-73921639D01*
X96265672Y-73915607D01*
X96265723Y-73915640D01*
X96269769Y-73909288D01*
X96269717Y-73909256D01*
X96273505Y-73903111D01*
X96273511Y-73903105D01*
X96305229Y-73835083D01*
X96306769Y-73831904D01*
X96340440Y-73764861D01*
X96340443Y-73764845D01*
X96342910Y-73758072D01*
X96342968Y-73758093D01*
X96345443Y-73750974D01*
X96345385Y-73750955D01*
X96347655Y-73744105D01*
X96347656Y-73744101D01*
X96362831Y-73670599D01*
X96363586Y-73667195D01*
X96380900Y-73594149D01*
X96380900Y-73594147D01*
X96380901Y-73594143D01*
X96381739Y-73586976D01*
X96381797Y-73586982D01*
X96382564Y-73579484D01*
X96382504Y-73579479D01*
X96383133Y-73572288D01*
X96380952Y-73497317D01*
X96380900Y-73493711D01*
X96380900Y-65901828D01*
X96400585Y-65834789D01*
X96417214Y-65814152D01*
X96798777Y-65432589D01*
X96860099Y-65399105D01*
X96929791Y-65404089D01*
G37*
%TD.AperFunction*%
%TA.AperFunction,Conductor*%
G36*
X104328333Y-71145547D02*
G01*
X104372680Y-71174048D01*
X104936299Y-71737667D01*
X104969784Y-71798990D01*
X104972618Y-71825348D01*
X104972618Y-74504554D01*
X104972408Y-74511764D01*
X104968786Y-74573933D01*
X104968787Y-74573935D01*
X104979600Y-74635263D01*
X104980645Y-74642396D01*
X104987875Y-74704249D01*
X104987879Y-74704264D01*
X104991712Y-74714795D01*
X104997304Y-74735664D01*
X104999251Y-74746708D01*
X104999252Y-74746710D01*
X105012362Y-74777102D01*
X105023919Y-74803896D01*
X105026577Y-74810585D01*
X105047880Y-74869116D01*
X105054042Y-74878484D01*
X105064297Y-74897504D01*
X105068738Y-74907799D01*
X105068742Y-74907806D01*
X105105932Y-74957760D01*
X105110058Y-74963652D01*
X105144288Y-75015696D01*
X105152448Y-75023395D01*
X105166808Y-75039531D01*
X105173508Y-75048530D01*
X105215975Y-75084164D01*
X105221220Y-75088565D01*
X105226609Y-75093362D01*
X105271896Y-75136090D01*
X105271898Y-75136090D01*
X105271900Y-75136092D01*
X105281607Y-75141696D01*
X105299313Y-75154094D01*
X105307904Y-75161302D01*
X105307905Y-75161302D01*
X105307907Y-75161304D01*
X105363556Y-75189251D01*
X105369882Y-75192661D01*
X105423837Y-75223812D01*
X105434581Y-75227028D01*
X105454662Y-75235006D01*
X105464685Y-75240040D01*
X105478428Y-75243297D01*
X105525292Y-75254405D01*
X105532254Y-75256270D01*
X105591908Y-75274130D01*
X105603096Y-75274781D01*
X105624490Y-75277914D01*
X105635397Y-75280500D01*
X105697673Y-75280500D01*
X105704882Y-75280709D01*
X105767053Y-75284331D01*
X105778095Y-75282384D01*
X105799627Y-75280500D01*
X106460772Y-75280500D01*
X106527811Y-75300185D01*
X106573566Y-75352989D01*
X106584130Y-75417102D01*
X106576000Y-75496675D01*
X106576000Y-75520000D01*
X107649756Y-75520000D01*
X107716795Y-75539685D01*
X107762550Y-75592489D01*
X107773756Y-75644084D01*
X107773586Y-75896084D01*
X107753856Y-75963110D01*
X107701021Y-76008829D01*
X107649586Y-76020000D01*
X106559524Y-76020000D01*
X106534497Y-76033666D01*
X106508139Y-76036500D01*
X103954499Y-76036500D01*
X103887460Y-76016815D01*
X103841705Y-75964011D01*
X103830499Y-75912500D01*
X103830499Y-75476662D01*
X103830498Y-75476644D01*
X103820349Y-75377292D01*
X103820348Y-75377289D01*
X103812296Y-75352989D01*
X103767003Y-75216303D01*
X103766999Y-75216297D01*
X103766998Y-75216294D01*
X103677970Y-75071959D01*
X103677967Y-75071955D01*
X103576819Y-74970807D01*
X103543334Y-74909484D01*
X103540500Y-74883126D01*
X103540500Y-71882228D01*
X103560185Y-71815189D01*
X103576815Y-71794551D01*
X104197318Y-71174047D01*
X104258641Y-71140563D01*
X104328333Y-71145547D01*
G37*
%TD.AperFunction*%
%TA.AperFunction,Conductor*%
G36*
X98785690Y-68118752D02*
G01*
X98786159Y-68117496D01*
X98794467Y-68120594D01*
X98794469Y-68120596D01*
X98817612Y-68129227D01*
X98873544Y-68171097D01*
X98897962Y-68236561D01*
X98896406Y-68259175D01*
X98897406Y-68259281D01*
X98896727Y-68265740D01*
X98896726Y-68265744D01*
X98876940Y-68454000D01*
X98896726Y-68642256D01*
X98896727Y-68642259D01*
X98955218Y-68822277D01*
X98955221Y-68822284D01*
X99049867Y-68986216D01*
X99125756Y-69070499D01*
X99176529Y-69126888D01*
X99329665Y-69238148D01*
X99329670Y-69238151D01*
X99502592Y-69315142D01*
X99502597Y-69315144D01*
X99687754Y-69354500D01*
X99687755Y-69354500D01*
X99877044Y-69354500D01*
X99877046Y-69354500D01*
X100062203Y-69315144D01*
X100235130Y-69238151D01*
X100388271Y-69126888D01*
X100514933Y-68986216D01*
X100609579Y-68822284D01*
X100664922Y-68651955D01*
X100695169Y-68602597D01*
X101084148Y-68213617D01*
X101145471Y-68180133D01*
X101171829Y-68177299D01*
X101324569Y-68177299D01*
X101391608Y-68196984D01*
X101412250Y-68213618D01*
X103135950Y-69937318D01*
X103169435Y-69998641D01*
X103164451Y-70068333D01*
X103135950Y-70112680D01*
X102304358Y-70944272D01*
X102290729Y-70956051D01*
X102271469Y-70970390D01*
X102239632Y-71008331D01*
X102232346Y-71016284D01*
X102228407Y-71020224D01*
X102209176Y-71044545D01*
X102206902Y-71047337D01*
X102158694Y-71104790D01*
X102154729Y-71110819D01*
X102154682Y-71110788D01*
X102150630Y-71117147D01*
X102150679Y-71117177D01*
X102146889Y-71123321D01*
X102115192Y-71191294D01*
X102113623Y-71194536D01*
X102079957Y-71261572D01*
X102077488Y-71268357D01*
X102077432Y-71268336D01*
X102074960Y-71275450D01*
X102075015Y-71275469D01*
X102072743Y-71282325D01*
X102057573Y-71355788D01*
X102056793Y-71359304D01*
X102039499Y-71432279D01*
X102038661Y-71439454D01*
X102038601Y-71439447D01*
X102037835Y-71446945D01*
X102037895Y-71446951D01*
X102037265Y-71454140D01*
X102039448Y-71529128D01*
X102039500Y-71532735D01*
X102039500Y-74160903D01*
X102019815Y-74227942D01*
X101967011Y-74273697D01*
X101897853Y-74283641D01*
X101834297Y-74254616D01*
X101827819Y-74248584D01*
X101408199Y-73828964D01*
X101397503Y-73816767D01*
X101378286Y-73791722D01*
X101378283Y-73791720D01*
X101378282Y-73791718D01*
X101252841Y-73695464D01*
X101106762Y-73634956D01*
X101106760Y-73634955D01*
X100989361Y-73619500D01*
X100950000Y-73614318D01*
X100918697Y-73618439D01*
X100902513Y-73619500D01*
X100308793Y-73619500D01*
X100241754Y-73599815D01*
X100221112Y-73583181D01*
X98652419Y-72014488D01*
X98618934Y-71953165D01*
X98616100Y-71926807D01*
X98616100Y-68232190D01*
X98635785Y-68165151D01*
X98688589Y-68119396D01*
X98757747Y-68109452D01*
X98785690Y-68118752D01*
G37*
%TD.AperFunction*%
%TA.AperFunction,Conductor*%
G36*
X106406339Y-46603585D02*
G01*
X106452094Y-46656389D01*
X106463300Y-46707900D01*
X106463300Y-57942943D01*
X106462245Y-57959087D01*
X106458266Y-57989388D01*
X106468085Y-58063794D01*
X106468087Y-58063832D01*
X106468090Y-58063832D01*
X106478320Y-58141539D01*
X106478361Y-58141689D01*
X106478367Y-58141705D01*
X106478368Y-58141706D01*
X106508017Y-58213222D01*
X106508025Y-58213260D01*
X106508032Y-58213258D01*
X106537111Y-58283462D01*
X106537114Y-58283467D01*
X106555717Y-58307711D01*
X106564708Y-58321163D01*
X107767338Y-60402640D01*
X107783971Y-60464757D01*
X107783850Y-60645583D01*
X107764121Y-60712609D01*
X107711286Y-60758329D01*
X107659850Y-60769500D01*
X107262662Y-60769500D01*
X107262644Y-60769501D01*
X107163292Y-60779650D01*
X107163289Y-60779651D01*
X107002305Y-60832996D01*
X107002294Y-60833001D01*
X106857959Y-60922029D01*
X106857955Y-60922032D01*
X106738032Y-61041955D01*
X106738029Y-61041959D01*
X106649001Y-61186294D01*
X106648996Y-61186305D01*
X106595651Y-61347290D01*
X106585500Y-61446647D01*
X106585500Y-61993337D01*
X106585502Y-61993352D01*
X106595650Y-62092707D01*
X106595651Y-62092710D01*
X106648996Y-62253694D01*
X106648997Y-62253697D01*
X106693665Y-62326115D01*
X106712106Y-62393505D01*
X106693666Y-62456307D01*
X106669001Y-62496296D01*
X106668996Y-62496305D01*
X106615651Y-62657290D01*
X106605500Y-62756647D01*
X106605500Y-63122446D01*
X106585815Y-63189485D01*
X106533011Y-63235240D01*
X106463853Y-63245184D01*
X106455720Y-63243737D01*
X106449325Y-63242377D01*
X106294646Y-63209500D01*
X106105354Y-63209500D01*
X106072897Y-63216398D01*
X105920197Y-63248855D01*
X105920192Y-63248857D01*
X105747270Y-63325848D01*
X105747265Y-63325851D01*
X105594135Y-63437106D01*
X105594128Y-63437112D01*
X105565891Y-63468473D01*
X105506405Y-63505121D01*
X105473742Y-63509500D01*
X100631528Y-63509500D01*
X100564489Y-63489815D01*
X100518734Y-63437011D01*
X100508207Y-63398462D01*
X100500066Y-63321001D01*
X100441571Y-63140973D01*
X100346925Y-62977041D01*
X100220263Y-62836369D01*
X100172431Y-62801617D01*
X100129767Y-62746288D01*
X100123788Y-62676674D01*
X100156394Y-62614879D01*
X100217233Y-62580522D01*
X100245318Y-62577300D01*
X102073095Y-62577300D01*
X102091065Y-62578609D01*
X102114823Y-62582089D01*
X102164169Y-62577771D01*
X102174976Y-62577300D01*
X102180504Y-62577300D01*
X102180509Y-62577300D01*
X102211356Y-62573693D01*
X102214830Y-62573339D01*
X102289597Y-62566799D01*
X102289605Y-62566796D01*
X102296666Y-62565339D01*
X102296678Y-62565398D01*
X102304043Y-62563765D01*
X102304029Y-62563706D01*
X102311049Y-62562041D01*
X102311055Y-62562041D01*
X102381579Y-62536372D01*
X102384917Y-62535212D01*
X102456134Y-62511614D01*
X102456142Y-62511608D01*
X102462682Y-62508560D01*
X102462708Y-62508616D01*
X102469490Y-62505332D01*
X102469463Y-62505278D01*
X102475913Y-62502038D01*
X102475917Y-62502037D01*
X102538637Y-62460784D01*
X102541532Y-62458940D01*
X102605456Y-62419512D01*
X102605462Y-62419505D01*
X102611125Y-62415029D01*
X102611163Y-62415077D01*
X102617000Y-62410322D01*
X102616961Y-62410275D01*
X102622491Y-62405633D01*
X102622496Y-62405630D01*
X102673984Y-62351054D01*
X102676431Y-62348535D01*
X103111349Y-61913618D01*
X103172672Y-61880133D01*
X103199030Y-61877299D01*
X104034671Y-61877299D01*
X104034672Y-61877299D01*
X104094283Y-61870891D01*
X104229131Y-61820596D01*
X104344346Y-61734346D01*
X104430596Y-61619131D01*
X104480891Y-61484283D01*
X104487300Y-61424673D01*
X104487299Y-59328928D01*
X104480891Y-59269317D01*
X104430684Y-59134706D01*
X104430597Y-59134471D01*
X104430593Y-59134464D01*
X104344347Y-59019255D01*
X104344344Y-59019252D01*
X104229135Y-58933006D01*
X104229130Y-58933003D01*
X104158849Y-58906790D01*
X104102916Y-58864918D01*
X104078499Y-58799454D01*
X104084252Y-58752290D01*
X104122474Y-58634656D01*
X104142260Y-58446400D01*
X104122474Y-58258144D01*
X104063979Y-58078116D01*
X103969333Y-57914184D01*
X103842671Y-57773512D01*
X103842670Y-57773511D01*
X103689534Y-57662251D01*
X103689529Y-57662248D01*
X103516607Y-57585257D01*
X103516602Y-57585255D01*
X103451469Y-57571411D01*
X103389987Y-57538218D01*
X103389569Y-57537802D01*
X101170929Y-55319161D01*
X101159149Y-55305530D01*
X101144810Y-55286270D01*
X101106851Y-55254419D01*
X101098886Y-55247118D01*
X101094980Y-55243211D01*
X101070643Y-55223968D01*
X101067847Y-55221690D01*
X101010414Y-55173498D01*
X101004380Y-55169529D01*
X101004412Y-55169480D01*
X100998053Y-55165428D01*
X100998022Y-55165479D01*
X100991880Y-55161691D01*
X100991878Y-55161690D01*
X100991877Y-55161689D01*
X100923888Y-55129984D01*
X100920647Y-55128415D01*
X100889730Y-55112888D01*
X100853633Y-55094760D01*
X100853631Y-55094759D01*
X100853630Y-55094759D01*
X100846845Y-55092289D01*
X100846865Y-55092233D01*
X100839749Y-55089759D01*
X100839731Y-55089815D01*
X100832874Y-55087543D01*
X100759410Y-55072373D01*
X100755893Y-55071593D01*
X100682918Y-55054299D01*
X100675747Y-55053461D01*
X100675753Y-55053401D01*
X100668255Y-55052635D01*
X100668250Y-55052695D01*
X100661060Y-55052065D01*
X100586070Y-55054248D01*
X100582463Y-55054300D01*
X97578537Y-55054300D01*
X97511498Y-55034615D01*
X97505652Y-55030618D01*
X97491934Y-55020651D01*
X97491929Y-55020648D01*
X97319007Y-54943657D01*
X97319002Y-54943655D01*
X97173201Y-54912665D01*
X97133846Y-54904300D01*
X96944554Y-54904300D01*
X96912097Y-54911198D01*
X96759397Y-54943655D01*
X96759392Y-54943657D01*
X96586470Y-55020648D01*
X96586465Y-55020651D01*
X96433329Y-55131911D01*
X96306666Y-55272585D01*
X96212021Y-55436515D01*
X96212018Y-55436522D01*
X96153527Y-55616540D01*
X96153526Y-55616544D01*
X96133740Y-55804800D01*
X96153526Y-55993056D01*
X96153527Y-55993059D01*
X96212018Y-56173077D01*
X96212021Y-56173084D01*
X96306667Y-56337016D01*
X96433329Y-56477688D01*
X96586465Y-56588948D01*
X96586470Y-56588951D01*
X96759392Y-56665942D01*
X96759397Y-56665944D01*
X96944554Y-56705300D01*
X96944555Y-56705300D01*
X97133844Y-56705300D01*
X97133846Y-56705300D01*
X97319003Y-56665944D01*
X97491930Y-56588951D01*
X97493976Y-56587464D01*
X97505652Y-56578982D01*
X97571458Y-56555502D01*
X97578537Y-56555300D01*
X100232970Y-56555300D01*
X100300009Y-56574985D01*
X100320651Y-56591619D01*
X102324028Y-58594995D01*
X102354278Y-58644358D01*
X102389347Y-58752290D01*
X102391342Y-58822131D01*
X102355262Y-58881964D01*
X102314750Y-58906790D01*
X102244470Y-58933003D01*
X102244469Y-58933003D01*
X102161111Y-58995406D01*
X102095647Y-59019823D01*
X102027374Y-59004972D01*
X102012489Y-58995406D01*
X101929130Y-58933003D01*
X101929128Y-58933002D01*
X101794282Y-58882708D01*
X101794283Y-58882708D01*
X101734683Y-58876301D01*
X101734681Y-58876300D01*
X101734673Y-58876300D01*
X101734664Y-58876300D01*
X100138929Y-58876300D01*
X100138923Y-58876301D01*
X100079316Y-58882708D01*
X99944471Y-58933002D01*
X99944469Y-58933004D01*
X99860694Y-58995718D01*
X99795230Y-59020135D01*
X99726957Y-59005284D01*
X99712072Y-58995718D01*
X99628888Y-58933446D01*
X99628886Y-58933445D01*
X99494179Y-58883203D01*
X99494172Y-58883201D01*
X99434644Y-58876800D01*
X98886800Y-58876800D01*
X98886800Y-60502800D01*
X98867115Y-60569839D01*
X98814311Y-60615594D01*
X98762800Y-60626800D01*
X97386800Y-60626800D01*
X97386800Y-61424644D01*
X97393201Y-61484172D01*
X97393203Y-61484179D01*
X97443445Y-61618886D01*
X97443449Y-61618893D01*
X97529609Y-61733987D01*
X97529612Y-61733990D01*
X97644706Y-61820150D01*
X97644713Y-61820154D01*
X97779420Y-61870396D01*
X97779427Y-61870398D01*
X97838955Y-61876799D01*
X97838972Y-61876800D01*
X97932469Y-61876800D01*
X97999508Y-61896485D01*
X98045263Y-61949289D01*
X98055207Y-62018447D01*
X98026182Y-62082003D01*
X98020150Y-62088481D01*
X95678180Y-64430450D01*
X95616857Y-64463935D01*
X95547165Y-64458951D01*
X95491232Y-64417079D01*
X95466815Y-64351615D01*
X95466499Y-64342784D01*
X95466499Y-64036656D01*
X95456349Y-63937292D01*
X95403003Y-63776303D01*
X95380670Y-63740096D01*
X95362229Y-63672707D01*
X95380670Y-63609903D01*
X95403003Y-63573697D01*
X95456349Y-63412708D01*
X95466500Y-63313345D01*
X95466499Y-62766656D01*
X95465477Y-62756655D01*
X95456349Y-62667292D01*
X95456348Y-62667289D01*
X95438981Y-62614879D01*
X95403003Y-62506303D01*
X95380670Y-62470096D01*
X95362229Y-62402707D01*
X95380670Y-62339903D01*
X95403003Y-62303697D01*
X95456349Y-62142708D01*
X95466500Y-62043345D01*
X95466499Y-61496656D01*
X95465224Y-61484179D01*
X95456349Y-61397292D01*
X95456348Y-61397289D01*
X95439780Y-61347290D01*
X95403003Y-61236303D01*
X95402999Y-61236297D01*
X95402998Y-61236294D01*
X95313970Y-61091959D01*
X95313967Y-61091955D01*
X95194044Y-60972032D01*
X95194040Y-60972029D01*
X95049705Y-60883001D01*
X95049699Y-60882998D01*
X95049697Y-60882997D01*
X95049694Y-60882996D01*
X94888709Y-60829651D01*
X94789352Y-60819500D01*
X94789345Y-60819500D01*
X94369432Y-60819500D01*
X94302393Y-60799815D01*
X94256638Y-60747011D01*
X94245432Y-60695411D01*
X94245481Y-60626800D01*
X94245584Y-60484127D01*
X94260150Y-60425907D01*
X94358649Y-60241060D01*
X94360689Y-60237388D01*
X94424584Y-60126800D01*
X97386800Y-60126800D01*
X98386800Y-60126800D01*
X98386800Y-58876800D01*
X97838955Y-58876800D01*
X97779427Y-58883201D01*
X97779420Y-58883203D01*
X97644713Y-58933445D01*
X97644706Y-58933449D01*
X97529612Y-59019609D01*
X97529609Y-59019612D01*
X97443449Y-59134706D01*
X97443445Y-59134713D01*
X97393203Y-59269420D01*
X97393201Y-59269427D01*
X97386800Y-59328955D01*
X97386800Y-60126800D01*
X94424584Y-60126800D01*
X95438500Y-58371946D01*
X95447478Y-58358515D01*
X95466086Y-58334267D01*
X95495167Y-58264057D01*
X95524832Y-58192506D01*
X95524832Y-58192498D01*
X95524877Y-58192332D01*
X95524881Y-58192324D01*
X95535109Y-58114632D01*
X95544934Y-58040189D01*
X95540955Y-58009887D01*
X95539900Y-57993743D01*
X95539900Y-46707900D01*
X95559585Y-46640861D01*
X95612389Y-46595106D01*
X95663900Y-46583900D01*
X106339300Y-46583900D01*
X106406339Y-46603585D01*
G37*
%TD.AperFunction*%
%TD*%
M02*
