%TF.GenerationSoftware,KiCad,Pcbnew,7.0.10*%
%TF.CreationDate,2024-05-20T03:00:15+05:30*%
%TF.ProjectId,nico-ch32v003-v1,6e69636f-2d63-4683-9332-763030332d76,1.0.1*%
%TF.SameCoordinates,Original*%
%TF.FileFunction,Copper,L1,Top*%
%TF.FilePolarity,Positive*%
%FSLAX46Y46*%
G04 Gerber Fmt 4.6, Leading zero omitted, Abs format (unit mm)*
G04 Created by KiCad (PCBNEW 7.0.10) date 2024-05-20 03:00:15*
%MOMM*%
%LPD*%
G01*
G04 APERTURE LIST*
G04 Aperture macros list*
%AMRoundRect*
0 Rectangle with rounded corners*
0 $1 Rounding radius*
0 $2 $3 $4 $5 $6 $7 $8 $9 X,Y pos of 4 corners*
0 Add a 4 corners polygon primitive as box body*
4,1,4,$2,$3,$4,$5,$6,$7,$8,$9,$2,$3,0*
0 Add four circle primitives for the rounded corners*
1,1,$1+$1,$2,$3*
1,1,$1+$1,$4,$5*
1,1,$1+$1,$6,$7*
1,1,$1+$1,$8,$9*
0 Add four rect primitives between the rounded corners*
20,1,$1+$1,$2,$3,$4,$5,0*
20,1,$1+$1,$4,$5,$6,$7,0*
20,1,$1+$1,$6,$7,$8,$9,0*
20,1,$1+$1,$8,$9,$2,$3,0*%
G04 Aperture macros list end*
%TA.AperFunction,SMDPad,CuDef*%
%ADD10RoundRect,0.160000X0.160000X-0.197500X0.160000X0.197500X-0.160000X0.197500X-0.160000X-0.197500X0*%
%TD*%
%TA.AperFunction,ComponentPad*%
%ADD11RoundRect,0.225000X1.025000X0.225000X-1.025000X0.225000X-1.025000X-0.225000X1.025000X-0.225000X0*%
%TD*%
%TA.AperFunction,SMDPad,CuDef*%
%ADD12R,1.200000X1.400000*%
%TD*%
%TA.AperFunction,SMDPad,CuDef*%
%ADD13RoundRect,0.135000X0.135000X0.185000X-0.135000X0.185000X-0.135000X-0.185000X0.135000X-0.185000X0*%
%TD*%
%TA.AperFunction,SMDPad,CuDef*%
%ADD14RoundRect,0.100000X-0.637500X-0.100000X0.637500X-0.100000X0.637500X0.100000X-0.637500X0.100000X0*%
%TD*%
%TA.AperFunction,ComponentPad*%
%ADD15RoundRect,0.225000X-0.225000X1.025000X-0.225000X-1.025000X0.225000X-1.025000X0.225000X1.025000X0*%
%TD*%
%TA.AperFunction,ComponentPad*%
%ADD16RoundRect,0.225000X-1.025000X-0.225000X1.025000X-0.225000X1.025000X0.225000X-1.025000X0.225000X0*%
%TD*%
%TA.AperFunction,SMDPad,CuDef*%
%ADD17RoundRect,0.155000X0.155000X-0.212500X0.155000X0.212500X-0.155000X0.212500X-0.155000X-0.212500X0*%
%TD*%
%TA.AperFunction,ConnectorPad*%
%ADD18R,1.900000X8.000000*%
%TD*%
%TA.AperFunction,ConnectorPad*%
%ADD19R,2.000000X7.500000*%
%TD*%
%TA.AperFunction,SMDPad,CuDef*%
%ADD20RoundRect,0.135000X0.226274X0.035355X0.035355X0.226274X-0.226274X-0.035355X-0.035355X-0.226274X0*%
%TD*%
%TA.AperFunction,SMDPad,CuDef*%
%ADD21RoundRect,0.155000X-0.155000X0.212500X-0.155000X-0.212500X0.155000X-0.212500X0.155000X0.212500X0*%
%TD*%
%TA.AperFunction,SMDPad,CuDef*%
%ADD22RoundRect,0.218750X0.218750X0.256250X-0.218750X0.256250X-0.218750X-0.256250X0.218750X-0.256250X0*%
%TD*%
%TA.AperFunction,ViaPad*%
%ADD23C,0.800000*%
%TD*%
%TA.AperFunction,Conductor*%
%ADD24C,0.200000*%
%TD*%
%TA.AperFunction,Conductor*%
%ADD25C,0.250000*%
%TD*%
%TA.AperFunction,Conductor*%
%ADD26C,0.500000*%
%TD*%
%TA.AperFunction,Conductor*%
%ADD27C,0.770000*%
%TD*%
%TA.AperFunction,Conductor*%
%ADD28C,0.350000*%
%TD*%
G04 APERTURE END LIST*
D10*
%TO.P,R1,1*%
%TO.N,DFZ*%
X96480400Y-62904700D03*
%TO.P,R1,2*%
%TO.N,D-*%
X96480400Y-61709700D03*
%TD*%
D11*
%TO.P,J3,1,Pin_1*%
%TO.N,GND*%
X93706000Y-75820000D03*
%TO.P,J3,2,Pin_2*%
%TO.N,+5V*%
X93686000Y-74510000D03*
%TO.P,J3,3,Pin_3*%
%TO.N,PC0*%
X93686000Y-73240000D03*
%TO.P,J3,4,Pin_4*%
%TO.N,+3.3V*%
X93686000Y-71970000D03*
%TO.P,J3,5,Pin_5*%
%TO.N,PD0*%
X93716000Y-70660000D03*
%TO.P,J3,6,Pin_6*%
%TO.N,GND*%
X93716000Y-69390000D03*
%TO.P,J3,7,Pin_7*%
%TO.N,OSCO*%
X93716000Y-68120000D03*
%TO.P,J3,8,Pin_8*%
%TO.N,OSCI*%
X93716000Y-66850000D03*
%TO.P,J3,9,Pin_9*%
%TO.N,PD7*%
X93716000Y-65580000D03*
%TO.P,J3,10,Pin_10*%
%TO.N,PD6*%
X93716000Y-64310000D03*
%TO.P,J3,11,Pin_11*%
%TO.N,DFZ*%
X93716000Y-63040000D03*
%TO.P,J3,12,Pin_12*%
%TO.N,D-*%
X93716000Y-61770000D03*
%TD*%
D12*
%TO.P,Y1,1,1*%
%TO.N,OSCI*%
X101814400Y-72416400D03*
%TO.P,Y1,2,2*%
%TO.N,GND*%
X101814400Y-70216400D03*
%TO.P,Y1,3,3*%
%TO.N,OSCO*%
X100114400Y-70216400D03*
%TO.P,Y1,4,4*%
%TO.N,GND*%
X100114400Y-72416400D03*
%TD*%
D13*
%TO.P,R2,1*%
%TO.N,Net-(JP1-B)*%
X105730000Y-60310000D03*
%TO.P,R2,2*%
%TO.N,Net-(D1-A)*%
X104710000Y-60310000D03*
%TD*%
D14*
%TO.P,U1,1,PD4*%
%TO.N,D-*%
X98037500Y-62735000D03*
%TO.P,U1,2,PD5*%
%TO.N,DFZ*%
X98037500Y-63385000D03*
%TO.P,U1,3,PD6*%
%TO.N,PD6*%
X98037500Y-64035000D03*
%TO.P,U1,4,PD7*%
%TO.N,PD7*%
X98037500Y-64685000D03*
%TO.P,U1,5,PA1*%
%TO.N,OSCI*%
X98037500Y-65335000D03*
%TO.P,U1,6,PA2*%
%TO.N,OSCO*%
X98037500Y-65985000D03*
%TO.P,U1,7,VSS*%
%TO.N,GND*%
X98037500Y-66635000D03*
%TO.P,U1,8,PD0*%
%TO.N,PD0*%
X98037500Y-67285000D03*
%TO.P,U1,9,VDD*%
%TO.N,+3.3V*%
X98037500Y-67935000D03*
%TO.P,U1,10,PC0*%
%TO.N,PC0*%
X98037500Y-68585000D03*
%TO.P,U1,11,PC1*%
%TO.N,PC1*%
X103762500Y-68585000D03*
%TO.P,U1,12,PC2*%
%TO.N,PC2*%
X103762500Y-67935000D03*
%TO.P,U1,13,PC3*%
%TO.N,PC3*%
X103762500Y-67285000D03*
%TO.P,U1,14,PC4*%
%TO.N,PC4*%
X103762500Y-66635000D03*
%TO.P,U1,15,PC5*%
%TO.N,PC5*%
X103762500Y-65985000D03*
%TO.P,U1,16,PC6*%
%TO.N,PC6*%
X103762500Y-65335000D03*
%TO.P,U1,17,PC7*%
%TO.N,PC7*%
X103762500Y-64685000D03*
%TO.P,U1,18,PD1*%
%TO.N,PD1*%
X103762500Y-64035000D03*
%TO.P,U1,19,PD2*%
%TO.N,PD2*%
X103762500Y-63385000D03*
%TO.P,U1,20,PD3*%
%TO.N,D+*%
X103762500Y-62735000D03*
%TD*%
D15*
%TO.P,J4,1,Pin_1*%
%TO.N,+3.3V*%
X102880000Y-76550000D03*
%TO.P,J4,2,Pin_2*%
%TO.N,PD1*%
X101610000Y-76550000D03*
%TO.P,J4,3,Pin_3*%
%TO.N,PD6*%
X100340000Y-76550000D03*
%TO.P,J4,4,Pin_4*%
%TO.N,GND*%
X99070000Y-76550000D03*
%TD*%
D16*
%TO.P,J2,1,Pin_1*%
%TO.N,D+*%
X108336000Y-61720000D03*
%TO.P,J2,2,Pin_2*%
%TO.N,PD2*%
X108356000Y-63030000D03*
%TO.P,J2,3,Pin_3*%
%TO.N,PD1*%
X108356000Y-64300000D03*
%TO.P,J2,4,Pin_4*%
%TO.N,PC7*%
X108356000Y-65570000D03*
%TO.P,J2,5,Pin_5*%
%TO.N,PC6*%
X108326000Y-66880000D03*
%TO.P,J2,6,Pin_6*%
%TO.N,PC5*%
X108326000Y-68150000D03*
%TO.P,J2,7,Pin_7*%
%TO.N,PC4*%
X108326000Y-69420000D03*
%TO.P,J2,8,Pin_8*%
%TO.N,PC3*%
X108326000Y-70690000D03*
%TO.P,J2,9,Pin_9*%
%TO.N,PC2*%
X108326000Y-71960000D03*
%TO.P,J2,10,Pin_10*%
%TO.N,PC1*%
X108326000Y-73230000D03*
%TO.P,J2,11,Pin_11*%
%TO.N,+3.3V*%
X108326000Y-74500000D03*
%TO.P,J2,12,Pin_12*%
%TO.N,GND*%
X108326000Y-75770000D03*
%TD*%
D17*
%TO.P,C2,1*%
%TO.N,GND*%
X98766400Y-70850300D03*
%TO.P,C2,2*%
%TO.N,OSCO*%
X98766400Y-69715300D03*
%TD*%
D18*
%TO.P,J1,1,VBUS*%
%TO.N,+5V*%
X97191600Y-50931500D03*
D19*
%TO.P,J1,2,D-*%
%TO.N,D-*%
X99701600Y-51181500D03*
%TO.P,J1,3,D+*%
%TO.N,D+*%
X102301600Y-51181500D03*
D18*
%TO.P,J1,4,GND*%
%TO.N,GND*%
X104811600Y-50931500D03*
%TD*%
D20*
%TO.P,JP1,1,A*%
%TO.N,D+*%
X107070000Y-60580000D03*
%TO.P,JP1,2,B*%
%TO.N,Net-(JP1-B)*%
X106666949Y-60176949D03*
%TD*%
D21*
%TO.P,C1,1*%
%TO.N,GND*%
X103186000Y-71747300D03*
%TO.P,C1,2*%
%TO.N,OSCI*%
X103186000Y-72882300D03*
%TD*%
D22*
%TO.P,D1,1,K*%
%TO.N,GND*%
X106227500Y-58980000D03*
%TO.P,D1,2,A*%
%TO.N,Net-(D1-A)*%
X104652500Y-58980000D03*
%TD*%
D23*
%TO.N,+5V*%
X97039200Y-55804800D03*
X103236800Y-58446400D03*
%TO.N,GND*%
X104151200Y-71756000D03*
X96480400Y-66625200D03*
X100114400Y-72416400D03*
X98715600Y-71857600D03*
X105420000Y-75470000D03*
X104964000Y-55855600D03*
X98461600Y-58395600D03*
X97110000Y-75210000D03*
X105420000Y-61480000D03*
X101814400Y-70216400D03*
%TO.N,+3.3V*%
X99782400Y-68454000D03*
%TO.N,PD1*%
X106200000Y-64110000D03*
%TO.N,PD6*%
X99614392Y-63509257D03*
%TD*%
D24*
%TO.N,D+*%
X107070000Y-61000000D02*
X107070000Y-60580000D01*
X106140000Y-62735000D02*
X106140000Y-61930000D01*
X106140000Y-61930000D02*
X107070000Y-61000000D01*
%TO.N,GND*%
X97320000Y-75000000D02*
X97110000Y-75210000D01*
X106227500Y-57119100D02*
X104964000Y-55855600D01*
X106227500Y-58980000D02*
X106227500Y-57119100D01*
%TO.N,Net-(D1-A)*%
X104652500Y-58980000D02*
X104652500Y-60252500D01*
X104652500Y-60252500D02*
X104710000Y-60310000D01*
%TO.N,Net-(JP1-B)*%
X105863051Y-60176949D02*
X105730000Y-60310000D01*
X106666949Y-60176949D02*
X105863051Y-60176949D01*
D25*
%TO.N,D+*%
X106140000Y-62735000D02*
X106673030Y-62735000D01*
X103762500Y-62735000D02*
X106140000Y-62735000D01*
D26*
%TO.N,+5V*%
X97191600Y-50931500D02*
X97191600Y-55652400D01*
X97191600Y-55652400D02*
X97039200Y-55804800D01*
%TO.N,GND*%
X98715600Y-70901100D02*
X98766400Y-70850300D01*
D24*
X104151200Y-72932362D02*
X103533762Y-73549800D01*
X104151200Y-71756000D02*
X104151200Y-72932362D01*
D25*
X98037500Y-66635000D02*
X96490200Y-66635000D01*
D26*
X98715600Y-71857600D02*
X98715600Y-70901100D01*
X104811600Y-50931500D02*
X104811600Y-55703200D01*
D24*
X100114400Y-72416400D02*
X99274400Y-72416400D01*
D25*
X100114400Y-72416400D02*
X100114400Y-72316400D01*
X96075000Y-68641000D02*
X95317885Y-69398115D01*
D26*
X103186000Y-71747300D02*
X104142500Y-71747300D01*
D24*
X100114400Y-72924400D02*
X100114400Y-72416400D01*
D25*
X100114400Y-72316400D02*
X101814400Y-70616400D01*
D24*
X100739800Y-73549800D02*
X100114400Y-72924400D01*
X97110000Y-73463200D02*
X97110000Y-75210000D01*
X103533762Y-73549800D02*
X100739800Y-73549800D01*
D25*
X95317885Y-69398115D02*
X94366096Y-69398115D01*
X96490200Y-66635000D02*
X96480400Y-66625200D01*
D26*
X100114400Y-72416400D02*
X100114400Y-72198300D01*
D24*
X98715600Y-71857600D02*
X97110000Y-73463200D01*
D26*
X104142500Y-71747300D02*
X104151200Y-71756000D01*
D25*
X96075000Y-67030600D02*
X96075000Y-68641000D01*
X96480400Y-66625200D02*
X96075000Y-67030600D01*
X101814400Y-70616400D02*
X101814400Y-70216400D01*
D24*
X99274400Y-72416400D02*
X98715600Y-71857600D01*
D26*
X104811600Y-55703200D02*
X104964000Y-55855600D01*
D25*
%TO.N,+3.3V*%
X96975000Y-68306188D02*
X96975000Y-70012262D01*
X99263400Y-67935000D02*
X98037500Y-67935000D01*
X96975000Y-70012262D02*
X95009237Y-71978025D01*
X99782400Y-68454000D02*
X99263400Y-67935000D01*
X95009237Y-71978025D02*
X94372493Y-71978025D01*
X97346188Y-67935000D02*
X96975000Y-68306188D01*
X98037500Y-67935000D02*
X97346188Y-67935000D01*
D27*
%TO.N,D-*%
X99701600Y-51181500D02*
X99701600Y-56806501D01*
D25*
X96480400Y-61709700D02*
X94439447Y-61709700D01*
X97505700Y-62735000D02*
X96480400Y-61709700D01*
D28*
X100392000Y-62053200D02*
X100392000Y-60982400D01*
D25*
X98037500Y-62735000D02*
X97505700Y-62735000D01*
D28*
X99710200Y-62735000D02*
X100392000Y-62053200D01*
D25*
X94439447Y-61709700D02*
X94369147Y-61780000D01*
X100392000Y-60982400D02*
X100540400Y-60834000D01*
D27*
X100540400Y-57645301D02*
X100540400Y-60834000D01*
D28*
X98037500Y-62735000D02*
X99710200Y-62735000D01*
D27*
X99701600Y-56806501D02*
X100540400Y-57645301D01*
%TO.N,D+*%
X102301600Y-51181500D02*
X102301600Y-56806501D01*
D28*
X101462800Y-61803200D02*
X101462800Y-60834000D01*
D25*
X106673030Y-62735000D02*
X107658607Y-61749423D01*
D28*
X103762500Y-62735000D02*
X102394600Y-62735000D01*
D27*
X101462800Y-57645301D02*
X101462800Y-60834000D01*
X102301600Y-56806501D02*
X101462800Y-57645301D01*
D28*
X102394600Y-62735000D02*
X101462800Y-61803200D01*
D25*
%TO.N,DFZ*%
X96960700Y-63385000D02*
X96480400Y-62904700D01*
X98037500Y-63385000D02*
X96960700Y-63385000D01*
X96480400Y-62904700D02*
X94514079Y-62904700D01*
X94514079Y-62904700D02*
X94368227Y-63050552D01*
%TO.N,OSCI*%
X98037500Y-65335000D02*
X98949400Y-65335000D01*
X94583349Y-66860550D02*
X94365468Y-66860550D01*
X102952787Y-70929895D02*
X101814400Y-72068282D01*
X101814400Y-72068282D02*
X101814400Y-72416400D01*
D26*
X101814400Y-72416400D02*
X102280300Y-72882300D01*
D25*
X96108899Y-65335000D02*
X94583349Y-66860550D01*
X102952787Y-69338387D02*
X102952787Y-70929895D01*
X98949400Y-65335000D02*
X102952787Y-69338387D01*
D26*
X102280300Y-72882300D02*
X103186000Y-72882300D01*
D25*
X98037500Y-65335000D02*
X96108899Y-65335000D01*
%TO.N,OSCO*%
X98037500Y-65985000D02*
X98963004Y-65985000D01*
X98963004Y-65985000D02*
X100507400Y-67529396D01*
D26*
X100114400Y-70216400D02*
X99613300Y-69715300D01*
D25*
X98037500Y-65985000D02*
X97952700Y-65900200D01*
X95625000Y-66455295D02*
X95625000Y-67319052D01*
X100507400Y-67529396D02*
X100507400Y-70361400D01*
X94814052Y-68130000D02*
X94364549Y-68130000D01*
X97952700Y-65900200D02*
X96180095Y-65900200D01*
D26*
X99613300Y-69715300D02*
X98766400Y-69715300D01*
D25*
X96180095Y-65900200D02*
X95625000Y-66455295D01*
X95625000Y-67319052D02*
X94814052Y-68130000D01*
%TO.N,PD2*%
X103762500Y-63385000D02*
X107332135Y-63385000D01*
X107332135Y-63385000D02*
X107657726Y-63059409D01*
D24*
%TO.N,PD1*%
X103762500Y-64035000D02*
X104540000Y-64035000D01*
D25*
X104540000Y-64035000D02*
X106125000Y-64035000D01*
X106200000Y-64110000D02*
X106275000Y-64035000D01*
X106275000Y-64035000D02*
X107362463Y-64035000D01*
X107362463Y-64035000D02*
X107656871Y-64329408D01*
X106125000Y-64035000D02*
X106200000Y-64110000D01*
%TO.N,PC7*%
X106315408Y-65599408D02*
X107656016Y-65599408D01*
X105401000Y-64685000D02*
X106315408Y-65599408D01*
X103762500Y-64685000D02*
X105401000Y-64685000D01*
%TO.N,PC6*%
X103762500Y-65335000D02*
X105101000Y-65335000D01*
X105101000Y-65335000D02*
X106675427Y-66909427D01*
X106675427Y-66909427D02*
X107655134Y-66909427D01*
%TO.N,PC5*%
X104865000Y-65985000D02*
X107059427Y-68179427D01*
X107059427Y-68179427D02*
X107654280Y-68179427D01*
X103762500Y-65985000D02*
X104865000Y-65985000D01*
%TO.N,PC4*%
X107400000Y-69450000D02*
X107653425Y-69450000D01*
X103762500Y-66635000D02*
X104585000Y-66635000D01*
X104585000Y-66635000D02*
X107400000Y-69450000D01*
%TO.N,PC3*%
X106459427Y-70719427D02*
X107652571Y-70719427D01*
X105690000Y-69950000D02*
X106459427Y-70719427D01*
X105690000Y-68521188D02*
X105690000Y-69950000D01*
X103762500Y-67285000D02*
X104453812Y-67285000D01*
X104453812Y-67285000D02*
X105690000Y-68521188D01*
%TO.N,PC2*%
X103762500Y-67935000D02*
X104453812Y-67935000D01*
X104960000Y-68441188D02*
X104960000Y-70180000D01*
X106769425Y-71989425D02*
X107651716Y-71989425D01*
X104453812Y-67935000D02*
X104960000Y-68441188D01*
X104960000Y-70180000D02*
X106769425Y-71989425D01*
%TO.N,PC1*%
X106729425Y-73259425D02*
X107650861Y-73259425D01*
X103762500Y-70292500D02*
X106729425Y-73259425D01*
D24*
X106656977Y-73331873D02*
X106729425Y-73259425D01*
D25*
X103762500Y-68585000D02*
X103762500Y-70292500D01*
%TO.N,PC0*%
X98037500Y-69586158D02*
X94375641Y-73248017D01*
X98037500Y-68585000D02*
X98037500Y-69586158D01*
%TO.N,PD0*%
X98037500Y-67285000D02*
X97346188Y-67285000D01*
X96525000Y-69431000D02*
X95287892Y-70668108D01*
X96525000Y-68106188D02*
X96525000Y-69431000D01*
X97346188Y-67285000D02*
X96525000Y-68106188D01*
X95287892Y-70668108D02*
X94369245Y-70668108D01*
%TO.N,PD7*%
X98037500Y-64685000D02*
X96122503Y-64685000D01*
X96122503Y-64685000D02*
X95216952Y-65590551D01*
X95216952Y-65590551D02*
X94366388Y-65590551D01*
D24*
%TO.N,PD6*%
X99088649Y-64035000D02*
X99614392Y-63509257D01*
D25*
X94652858Y-64035000D02*
X94367307Y-64320551D01*
X98037500Y-64035000D02*
X94652858Y-64035000D01*
D24*
X98037500Y-64035000D02*
X99088649Y-64035000D01*
%TD*%
%TA.AperFunction,Conductor*%
%TO.N,GND*%
G36*
X98196451Y-70619985D02*
G01*
X98242206Y-70672789D01*
X98253411Y-70723712D01*
X98254605Y-70975712D01*
X98235238Y-71042844D01*
X98182651Y-71088849D01*
X98130606Y-71100300D01*
X97956400Y-71100300D01*
X97956400Y-71128957D01*
X97959321Y-71166077D01*
X97959322Y-71166083D01*
X98005491Y-71324994D01*
X98005492Y-71324997D01*
X98089733Y-71467442D01*
X98089739Y-71467450D01*
X98206751Y-71584462D01*
X98209961Y-71586952D01*
X98211833Y-71589544D01*
X98212271Y-71589982D01*
X98212200Y-71590052D01*
X98250869Y-71643593D01*
X98257962Y-71684345D01*
X98264539Y-73071748D01*
X98266000Y-73380000D01*
X99026394Y-73381437D01*
X99093392Y-73401247D01*
X99125423Y-73431126D01*
X99157206Y-73473584D01*
X99157214Y-73473591D01*
X99272306Y-73559750D01*
X99272313Y-73559754D01*
X99407020Y-73609996D01*
X99407027Y-73609998D01*
X99466555Y-73616399D01*
X99466572Y-73616400D01*
X99864400Y-73616400D01*
X99864400Y-73507255D01*
X99884085Y-73440216D01*
X99936889Y-73394461D01*
X99988630Y-73383256D01*
X100240636Y-73383732D01*
X100307637Y-73403544D01*
X100353292Y-73456434D01*
X100364400Y-73507732D01*
X100364400Y-73616400D01*
X100762228Y-73616400D01*
X100762244Y-73616399D01*
X100821772Y-73609998D01*
X100821776Y-73609997D01*
X100920351Y-73573231D01*
X100990043Y-73568247D01*
X101007018Y-73573231D01*
X101106917Y-73610491D01*
X101106916Y-73610491D01*
X101113844Y-73611235D01*
X101166527Y-73616900D01*
X102110996Y-73616899D01*
X102139593Y-73620242D01*
X102164557Y-73626158D01*
X102192579Y-73632800D01*
X102192580Y-73632800D01*
X102199753Y-73633639D01*
X102199746Y-73633697D01*
X102207246Y-73634463D01*
X102207252Y-73634404D01*
X102214441Y-73635033D01*
X102214443Y-73635032D01*
X102214444Y-73635033D01*
X102289411Y-73632852D01*
X102293017Y-73632800D01*
X102619070Y-73632800D01*
X102682191Y-73650068D01*
X102768598Y-73701169D01*
X102768600Y-73701170D01*
X102768601Y-73701170D01*
X102768603Y-73701171D01*
X102927637Y-73747375D01*
X102927640Y-73747375D01*
X102927642Y-73747376D01*
X102964797Y-73750300D01*
X103407202Y-73750299D01*
X103444358Y-73747376D01*
X103603400Y-73701170D01*
X103745954Y-73616863D01*
X103863063Y-73499754D01*
X103947370Y-73357200D01*
X103993576Y-73198158D01*
X103996500Y-73161003D01*
X103996499Y-72603598D01*
X103993576Y-72566442D01*
X103947370Y-72407400D01*
X103929644Y-72377428D01*
X103912462Y-72309705D01*
X103929646Y-72251186D01*
X103946905Y-72222002D01*
X103946908Y-72221994D01*
X103993077Y-72063083D01*
X103993078Y-72063077D01*
X103995999Y-72025957D01*
X103996000Y-72025942D01*
X103996000Y-71997300D01*
X103680000Y-71997300D01*
X103612961Y-71977615D01*
X103567206Y-71924811D01*
X103556000Y-71873300D01*
X103556000Y-71621300D01*
X103575685Y-71554261D01*
X103628489Y-71508506D01*
X103680000Y-71497300D01*
X104031348Y-71497300D01*
X104098387Y-71516985D01*
X104119029Y-71533619D01*
X106052998Y-73467588D01*
X106079878Y-73507816D01*
X106132312Y-73634404D01*
X106132441Y-73634714D01*
X106228695Y-73760155D01*
X106354136Y-73856409D01*
X106500215Y-73916917D01*
X106500220Y-73916917D01*
X106508065Y-73919020D01*
X106507734Y-73920254D01*
X106564074Y-73945177D01*
X106602546Y-74003501D01*
X106603379Y-74073366D01*
X106601701Y-74078853D01*
X106585651Y-74127291D01*
X106575500Y-74226647D01*
X106575500Y-74773337D01*
X106575501Y-74773355D01*
X106585650Y-74872707D01*
X106585651Y-74872710D01*
X106638996Y-75033694D01*
X106638998Y-75033699D01*
X106661623Y-75070379D01*
X106680063Y-75137772D01*
X106661623Y-75200572D01*
X106639456Y-75236509D01*
X106639452Y-75236518D01*
X106586144Y-75397393D01*
X106576000Y-75496677D01*
X106576000Y-75520000D01*
X107649756Y-75520000D01*
X107716795Y-75539685D01*
X107762550Y-75592489D01*
X107773756Y-75644084D01*
X107773586Y-75896084D01*
X107753856Y-75963110D01*
X107701021Y-76008829D01*
X107649586Y-76020000D01*
X106559524Y-76020000D01*
X106534497Y-76033666D01*
X106508139Y-76036500D01*
X103954499Y-76036500D01*
X103887460Y-76016815D01*
X103841705Y-75964011D01*
X103830499Y-75912500D01*
X103830499Y-75476662D01*
X103830498Y-75476644D01*
X103820349Y-75377292D01*
X103820348Y-75377289D01*
X103767003Y-75216303D01*
X103766999Y-75216297D01*
X103766998Y-75216294D01*
X103677970Y-75071959D01*
X103677967Y-75071955D01*
X103558044Y-74952032D01*
X103558040Y-74952029D01*
X103413705Y-74863001D01*
X103413699Y-74862998D01*
X103413697Y-74862997D01*
X103413694Y-74862996D01*
X103252709Y-74809651D01*
X103153346Y-74799500D01*
X102606662Y-74799500D01*
X102606644Y-74799501D01*
X102507292Y-74809650D01*
X102507289Y-74809651D01*
X102346305Y-74862996D01*
X102346296Y-74863001D01*
X102310096Y-74885329D01*
X102242703Y-74903769D01*
X102179904Y-74885329D01*
X102155907Y-74870528D01*
X102143697Y-74862997D01*
X102143694Y-74862996D01*
X101982709Y-74809651D01*
X101883346Y-74799500D01*
X101336662Y-74799500D01*
X101336644Y-74799501D01*
X101237292Y-74809650D01*
X101237289Y-74809651D01*
X101076305Y-74862996D01*
X101076296Y-74863001D01*
X101040096Y-74885329D01*
X100972703Y-74903769D01*
X100909904Y-74885329D01*
X100885907Y-74870528D01*
X100873697Y-74862997D01*
X100873694Y-74862996D01*
X100712709Y-74809651D01*
X100613346Y-74799500D01*
X100066662Y-74799500D01*
X100066644Y-74799501D01*
X99967292Y-74809650D01*
X99967289Y-74809651D01*
X99806305Y-74862996D01*
X99806291Y-74863003D01*
X99769618Y-74885623D01*
X99702226Y-74904063D01*
X99639426Y-74885622D01*
X99603492Y-74863457D01*
X99603481Y-74863452D01*
X99442606Y-74810144D01*
X99343322Y-74800000D01*
X99320000Y-74800000D01*
X99320000Y-75912500D01*
X99300315Y-75979539D01*
X99247511Y-76025294D01*
X99196000Y-76036500D01*
X98944000Y-76036500D01*
X98876961Y-76016815D01*
X98831206Y-75964011D01*
X98820000Y-75912500D01*
X98820000Y-74799999D01*
X98796693Y-74800000D01*
X98796674Y-74800001D01*
X98697392Y-74810144D01*
X98536518Y-74863452D01*
X98536507Y-74863457D01*
X98392271Y-74952424D01*
X98392267Y-74952427D01*
X98272427Y-75072267D01*
X98272424Y-75072271D01*
X98183457Y-75216507D01*
X98183452Y-75216518D01*
X98130144Y-75377393D01*
X98120000Y-75476677D01*
X98120000Y-75912500D01*
X98100315Y-75979539D01*
X98047511Y-76025294D01*
X97996000Y-76036500D01*
X94381748Y-76036500D01*
X94314709Y-76016815D01*
X94268954Y-75964011D01*
X94257748Y-75912808D01*
X94257206Y-75694308D01*
X94276725Y-75627220D01*
X94329415Y-75581334D01*
X94381206Y-75570000D01*
X95455999Y-75570000D01*
X95455999Y-75546692D01*
X95455998Y-75546677D01*
X95445855Y-75447392D01*
X95392547Y-75286518D01*
X95392542Y-75286507D01*
X95348041Y-75214360D01*
X95329600Y-75146968D01*
X95348042Y-75084164D01*
X95355381Y-75072267D01*
X95373003Y-75043697D01*
X95426349Y-74882708D01*
X95436500Y-74783345D01*
X95436499Y-74236656D01*
X95435477Y-74226655D01*
X95426349Y-74137292D01*
X95426348Y-74137289D01*
X95382015Y-74003501D01*
X95373003Y-73976303D01*
X95350670Y-73940096D01*
X95332229Y-73872707D01*
X95350670Y-73809903D01*
X95373003Y-73773697D01*
X95426349Y-73612708D01*
X95436500Y-73513345D01*
X95436499Y-73123108D01*
X95456183Y-73056070D01*
X95472813Y-73035433D01*
X97871629Y-70636617D01*
X97932950Y-70603134D01*
X97959308Y-70600300D01*
X98129412Y-70600300D01*
X98196451Y-70619985D01*
G37*
%TD.AperFunction*%
%TA.AperFunction,Conductor*%
G36*
X102553503Y-59034714D02*
G01*
X102564443Y-59045448D01*
X102630929Y-59119288D01*
X102784065Y-59230548D01*
X102784070Y-59230551D01*
X102956992Y-59307542D01*
X102956997Y-59307544D01*
X103142154Y-59346900D01*
X103142155Y-59346900D01*
X103331444Y-59346900D01*
X103331446Y-59346900D01*
X103516603Y-59307544D01*
X103552099Y-59291739D01*
X103621348Y-59282454D01*
X103684625Y-59312082D01*
X103721839Y-59371216D01*
X103723785Y-59379050D01*
X103724561Y-59382677D01*
X103777450Y-59542284D01*
X103777455Y-59542295D01*
X103865716Y-59685387D01*
X103865719Y-59685391D01*
X103949640Y-59769312D01*
X103983125Y-59830635D01*
X103981035Y-59891588D01*
X103942335Y-60024791D01*
X103942334Y-60024797D01*
X103939500Y-60060811D01*
X103939500Y-60559169D01*
X103939501Y-60559191D01*
X103942335Y-60595205D01*
X103987129Y-60749388D01*
X103987131Y-60749393D01*
X104068863Y-60887595D01*
X104068869Y-60887603D01*
X104182396Y-61001130D01*
X104182400Y-61001133D01*
X104182402Y-61001135D01*
X104320607Y-61082869D01*
X104351885Y-61091956D01*
X104474791Y-61127664D01*
X104474794Y-61127664D01*
X104474796Y-61127665D01*
X104510819Y-61130500D01*
X104909180Y-61130499D01*
X104945204Y-61127665D01*
X105099393Y-61082869D01*
X105156882Y-61048869D01*
X105224602Y-61031688D01*
X105283117Y-61048869D01*
X105340607Y-61082869D01*
X105340610Y-61082869D01*
X105340612Y-61082871D01*
X105494791Y-61127664D01*
X105494794Y-61127664D01*
X105494796Y-61127665D01*
X105530819Y-61130500D01*
X105790903Y-61130499D01*
X105857941Y-61150183D01*
X105903696Y-61202987D01*
X105913640Y-61272146D01*
X105884615Y-61335701D01*
X105878583Y-61342180D01*
X105748965Y-61471798D01*
X105736775Y-61482489D01*
X105711716Y-61501718D01*
X105641343Y-61593432D01*
X105633155Y-61604104D01*
X105620494Y-61620604D01*
X105615462Y-61627162D01*
X105615461Y-61627163D01*
X105554957Y-61773234D01*
X105554955Y-61773239D01*
X105534318Y-61929998D01*
X105534318Y-61929999D01*
X105538439Y-61961301D01*
X105539500Y-61977487D01*
X105539500Y-61985500D01*
X105519815Y-62052539D01*
X105467011Y-62098294D01*
X105415500Y-62109500D01*
X104725179Y-62109500D01*
X104677726Y-62100061D01*
X104659974Y-62092708D01*
X104556762Y-62049956D01*
X104556760Y-62049955D01*
X104439370Y-62034501D01*
X104439367Y-62034500D01*
X104439361Y-62034500D01*
X104439354Y-62034500D01*
X103085636Y-62034500D01*
X102968246Y-62049953D01*
X102968238Y-62049956D01*
X102967981Y-62050062D01*
X102967442Y-62050169D01*
X102960392Y-62052059D01*
X102960268Y-62051596D01*
X102920532Y-62059500D01*
X102725764Y-62059500D01*
X102658725Y-62039815D01*
X102638083Y-62023181D01*
X102174619Y-61559717D01*
X102141134Y-61498394D01*
X102138300Y-61472036D01*
X102138300Y-61454739D01*
X102157985Y-61387700D01*
X102170152Y-61371765D01*
X102183131Y-61357351D01*
X102276201Y-61196149D01*
X102333721Y-61019120D01*
X102348300Y-60880411D01*
X102348300Y-59128427D01*
X102367985Y-59061388D01*
X102420789Y-59015633D01*
X102489947Y-59005689D01*
X102553503Y-59034714D01*
G37*
%TD.AperFunction*%
%TA.AperFunction,Conductor*%
G36*
X95745103Y-55075936D02*
G01*
X95780082Y-55126317D01*
X95797801Y-55173826D01*
X95797806Y-55173835D01*
X95884052Y-55289044D01*
X95884055Y-55289047D01*
X95999264Y-55375293D01*
X95999271Y-55375297D01*
X96095457Y-55411172D01*
X96151391Y-55453043D01*
X96175808Y-55518507D01*
X96170055Y-55565672D01*
X96153526Y-55616544D01*
X96133740Y-55804800D01*
X96153526Y-55993056D01*
X96153527Y-55993059D01*
X96212018Y-56173077D01*
X96212021Y-56173084D01*
X96306667Y-56337016D01*
X96399137Y-56439714D01*
X96433329Y-56477688D01*
X96586465Y-56588948D01*
X96586470Y-56588951D01*
X96759392Y-56665942D01*
X96759397Y-56665944D01*
X96944554Y-56705300D01*
X96944555Y-56705300D01*
X97133844Y-56705300D01*
X97133846Y-56705300D01*
X97319003Y-56665944D01*
X97491930Y-56588951D01*
X97645071Y-56477688D01*
X97771733Y-56337016D01*
X97866379Y-56173084D01*
X97924874Y-55993056D01*
X97944660Y-55804800D01*
X97941307Y-55772897D01*
X97941467Y-55745531D01*
X97942940Y-55732938D01*
X97942998Y-55732944D01*
X97943764Y-55725456D01*
X97943704Y-55725451D01*
X97944333Y-55718260D01*
X97942152Y-55643289D01*
X97942100Y-55639683D01*
X97942100Y-55555999D01*
X97961785Y-55488960D01*
X98014589Y-55443205D01*
X98066100Y-55431999D01*
X98189471Y-55431999D01*
X98189472Y-55431999D01*
X98249083Y-55425591D01*
X98378269Y-55377407D01*
X98447958Y-55372424D01*
X98464922Y-55377404D01*
X98555458Y-55411172D01*
X98592792Y-55425097D01*
X98594117Y-55425591D01*
X98653727Y-55432000D01*
X98692099Y-55431999D01*
X98759137Y-55451682D01*
X98804893Y-55504485D01*
X98816100Y-55555999D01*
X98816100Y-56727048D01*
X98814573Y-56746447D01*
X98812442Y-56759900D01*
X98815930Y-56826455D01*
X98816100Y-56832945D01*
X98816100Y-56852914D01*
X98818187Y-56872773D01*
X98818696Y-56879241D01*
X98822183Y-56945786D01*
X98825709Y-56958943D01*
X98829254Y-56978069D01*
X98830678Y-56991616D01*
X98830681Y-56991628D01*
X98851269Y-57054993D01*
X98853112Y-57061215D01*
X98870360Y-57125583D01*
X98876544Y-57137720D01*
X98883989Y-57155694D01*
X98888199Y-57168650D01*
X98918166Y-57220556D01*
X98921516Y-57226358D01*
X98924611Y-57232060D01*
X98954862Y-57291431D01*
X98954864Y-57291433D01*
X98954866Y-57291436D01*
X98963440Y-57302024D01*
X98974461Y-57318060D01*
X98981269Y-57329853D01*
X98981271Y-57329855D01*
X99025859Y-57379375D01*
X99030077Y-57384314D01*
X99042636Y-57399824D01*
X99042644Y-57399833D01*
X99056763Y-57413952D01*
X99061231Y-57418660D01*
X99105820Y-57468180D01*
X99105821Y-57468181D01*
X99116841Y-57476187D01*
X99131636Y-57488824D01*
X99618581Y-57975768D01*
X99652066Y-58037091D01*
X99654900Y-58063449D01*
X99654900Y-60880411D01*
X99657534Y-60905467D01*
X99669479Y-61019122D01*
X99669480Y-61019124D01*
X99684229Y-61064515D01*
X99705668Y-61130500D01*
X99710431Y-61145157D01*
X99716500Y-61183475D01*
X99716500Y-61722037D01*
X99696815Y-61789076D01*
X99680181Y-61809718D01*
X99466718Y-62023181D01*
X99405395Y-62056666D01*
X99379037Y-62059500D01*
X98879468Y-62059500D01*
X98839736Y-62051597D01*
X98839613Y-62052060D01*
X98832557Y-62050169D01*
X98832018Y-62050062D01*
X98831762Y-62049956D01*
X98831760Y-62049955D01*
X98714370Y-62034501D01*
X98714367Y-62034500D01*
X98714361Y-62034500D01*
X98714354Y-62034500D01*
X97741153Y-62034500D01*
X97674114Y-62014815D01*
X97653472Y-61998181D01*
X97337218Y-61681927D01*
X97303733Y-61620604D01*
X97300899Y-61594246D01*
X97300899Y-61458811D01*
X97294853Y-61392273D01*
X97294852Y-61392270D01*
X97294852Y-61392267D01*
X97247133Y-61239131D01*
X97247132Y-61239129D01*
X97164157Y-61101870D01*
X97164153Y-61101865D01*
X97050734Y-60988446D01*
X97050729Y-60988442D01*
X96913470Y-60905467D01*
X96913466Y-60905465D01*
X96760333Y-60857748D01*
X96760335Y-60857748D01*
X96733712Y-60855328D01*
X96693781Y-60851700D01*
X96693778Y-60851700D01*
X96267011Y-60851700D01*
X96200473Y-60857746D01*
X96200466Y-60857748D01*
X96047333Y-60905465D01*
X96047329Y-60905467D01*
X95910070Y-60988442D01*
X95910065Y-60988446D01*
X95850631Y-61047881D01*
X95789308Y-61081366D01*
X95762950Y-61084200D01*
X95357574Y-61084200D01*
X95290535Y-61064515D01*
X95269893Y-61047881D01*
X95194044Y-60972032D01*
X95194040Y-60972029D01*
X95049705Y-60883001D01*
X95049699Y-60882998D01*
X95049697Y-60882997D01*
X94973494Y-60857746D01*
X94888709Y-60829651D01*
X94789352Y-60819500D01*
X94789345Y-60819500D01*
X94369432Y-60819500D01*
X94302393Y-60799815D01*
X94256638Y-60747011D01*
X94245432Y-60695411D01*
X94245530Y-60559169D01*
X94245584Y-60484127D01*
X94260150Y-60425907D01*
X94358649Y-60241060D01*
X94360689Y-60237388D01*
X95438500Y-58371946D01*
X95447478Y-58358515D01*
X95466086Y-58334267D01*
X95495167Y-58264057D01*
X95524832Y-58192506D01*
X95524832Y-58192498D01*
X95524877Y-58192332D01*
X95524881Y-58192324D01*
X95535109Y-58114632D01*
X95544934Y-58040189D01*
X95540955Y-58009887D01*
X95539900Y-57993743D01*
X95539900Y-55169649D01*
X95559585Y-55102610D01*
X95612389Y-55056855D01*
X95681547Y-55046911D01*
X95745103Y-55075936D01*
G37*
%TD.AperFunction*%
%TA.AperFunction,Conductor*%
G36*
X105004639Y-50701185D02*
G01*
X105050394Y-50753989D01*
X105061600Y-50805500D01*
X105061600Y-55431500D01*
X105809428Y-55431500D01*
X105809444Y-55431499D01*
X105868972Y-55425098D01*
X105868979Y-55425096D01*
X106003686Y-55374854D01*
X106003693Y-55374850D01*
X106118787Y-55288690D01*
X106118790Y-55288687D01*
X106204950Y-55173593D01*
X106204954Y-55173586D01*
X106223118Y-55124887D01*
X106264989Y-55068953D01*
X106330453Y-55044536D01*
X106398726Y-55059387D01*
X106448132Y-55108792D01*
X106463300Y-55168220D01*
X106463300Y-57942943D01*
X106462245Y-57959087D01*
X106458266Y-57989388D01*
X106468085Y-58063794D01*
X106468087Y-58063832D01*
X106468090Y-58063832D01*
X106476439Y-58127244D01*
X106477500Y-58143430D01*
X106477500Y-59106000D01*
X106457815Y-59173039D01*
X106405011Y-59218794D01*
X106353500Y-59230000D01*
X106101500Y-59230000D01*
X106034461Y-59210315D01*
X105988706Y-59157511D01*
X105977500Y-59106000D01*
X105977500Y-58004999D01*
X105960856Y-58005000D01*
X105862415Y-58015057D01*
X105702927Y-58067906D01*
X105702922Y-58067908D01*
X105559919Y-58156114D01*
X105528033Y-58188000D01*
X105466709Y-58221485D01*
X105397018Y-58216499D01*
X105352673Y-58188000D01*
X105320392Y-58155719D01*
X105320387Y-58155716D01*
X105177295Y-58067455D01*
X105177289Y-58067452D01*
X105177287Y-58067451D01*
X105017685Y-58014564D01*
X105017683Y-58014563D01*
X104919181Y-58004500D01*
X104919174Y-58004500D01*
X104385826Y-58004500D01*
X104385818Y-58004500D01*
X104287316Y-58014563D01*
X104287312Y-58014564D01*
X104164929Y-58055118D01*
X104095101Y-58057520D01*
X104035059Y-58021788D01*
X104018541Y-57999415D01*
X103969333Y-57914184D01*
X103842671Y-57773512D01*
X103842670Y-57773511D01*
X103689534Y-57662251D01*
X103689529Y-57662248D01*
X103516607Y-57585257D01*
X103516602Y-57585255D01*
X103370801Y-57554265D01*
X103331446Y-57545900D01*
X103142154Y-57545900D01*
X103126191Y-57549293D01*
X103056524Y-57543975D01*
X103000791Y-57501836D01*
X102976688Y-57436256D01*
X102991867Y-57368055D01*
X103008263Y-57345030D01*
X103021931Y-57329852D01*
X103028739Y-57318060D01*
X103039762Y-57302019D01*
X103048334Y-57291436D01*
X103078593Y-57232046D01*
X103081682Y-57226358D01*
X103115001Y-57168650D01*
X103119211Y-57155690D01*
X103126650Y-57137729D01*
X103132839Y-57125585D01*
X103150096Y-57061177D01*
X103151918Y-57055027D01*
X103172521Y-56991621D01*
X103173945Y-56978069D01*
X103177490Y-56958943D01*
X103181016Y-56945787D01*
X103184503Y-56879231D01*
X103185012Y-56872773D01*
X103187100Y-56852912D01*
X103187100Y-56832945D01*
X103187270Y-56826455D01*
X103190758Y-56759902D01*
X103188627Y-56746447D01*
X103187100Y-56727048D01*
X103187100Y-55555999D01*
X103206785Y-55488960D01*
X103259589Y-55443205D01*
X103311100Y-55431999D01*
X103349471Y-55431999D01*
X103349472Y-55431999D01*
X103409083Y-55425591D01*
X103538985Y-55377140D01*
X103608673Y-55372157D01*
X103625649Y-55377141D01*
X103754223Y-55425097D01*
X103754227Y-55425098D01*
X103813755Y-55431499D01*
X103813772Y-55431500D01*
X104561600Y-55431500D01*
X104561600Y-50805500D01*
X104581285Y-50738461D01*
X104634089Y-50692706D01*
X104685600Y-50681500D01*
X104937600Y-50681500D01*
X105004639Y-50701185D01*
G37*
%TD.AperFunction*%
%TD*%
M02*
