%TF.GenerationSoftware,KiCad,Pcbnew,7.0.10*%
%TF.CreationDate,2024-05-25T00:15:11+05:30*%
%TF.ProjectId,bb-adaptor-V1,62622d61-6461-4707-946f-722d56312e6b,rev?*%
%TF.SameCoordinates,Original*%
%TF.FileFunction,Copper,L2,Bot*%
%TF.FilePolarity,Positive*%
%FSLAX46Y46*%
G04 Gerber Fmt 4.6, Leading zero omitted, Abs format (unit mm)*
G04 Created by KiCad (PCBNEW 7.0.10) date 2024-05-25 00:15:11*
%MOMM*%
%LPD*%
G01*
G04 APERTURE LIST*
G04 Aperture macros list*
%AMRoundRect*
0 Rectangle with rounded corners*
0 $1 Rounding radius*
0 $2 $3 $4 $5 $6 $7 $8 $9 X,Y pos of 4 corners*
0 Add a 4 corners polygon primitive as box body*
4,1,4,$2,$3,$4,$5,$6,$7,$8,$9,$2,$3,0*
0 Add four circle primitives for the rounded corners*
1,1,$1+$1,$2,$3*
1,1,$1+$1,$4,$5*
1,1,$1+$1,$6,$7*
1,1,$1+$1,$8,$9*
0 Add four rect primitives between the rounded corners*
20,1,$1+$1,$2,$3,$4,$5,0*
20,1,$1+$1,$4,$5,$6,$7,0*
20,1,$1+$1,$6,$7,$8,$9,0*
20,1,$1+$1,$8,$9,$2,$3,0*%
G04 Aperture macros list end*
%TA.AperFunction,ComponentPad*%
%ADD10R,1.700000X1.700000*%
%TD*%
%TA.AperFunction,ComponentPad*%
%ADD11O,1.700000X1.700000*%
%TD*%
%TA.AperFunction,ComponentPad*%
%ADD12RoundRect,0.225000X0.225000X-1.025000X0.225000X1.025000X-0.225000X1.025000X-0.225000X-1.025000X0*%
%TD*%
%TA.AperFunction,ComponentPad*%
%ADD13RoundRect,0.225000X-1.025000X-0.225000X1.025000X-0.225000X1.025000X0.225000X-1.025000X0.225000X0*%
%TD*%
%TA.AperFunction,Conductor*%
%ADD14C,0.250000*%
%TD*%
G04 APERTURE END LIST*
D10*
%TO.P,J3,1,Pin_1*%
%TO.N,Net-(J3-Pin_1)*%
X168402000Y-74930000D03*
D11*
%TO.P,J3,2,Pin_2*%
%TO.N,Net-(J3-Pin_2)*%
X168402000Y-77470000D03*
%TO.P,J3,3,Pin_3*%
%TO.N,Net-(J3-Pin_3)*%
X168402000Y-80010000D03*
%TO.P,J3,4,Pin_4*%
%TO.N,Net-(J3-Pin_4)*%
X168402000Y-82550000D03*
%TO.P,J3,5,Pin_5*%
%TO.N,Net-(J3-Pin_5)*%
X168402000Y-85090000D03*
%TO.P,J3,6,Pin_6*%
%TO.N,Net-(J3-Pin_6)*%
X168402000Y-87630000D03*
%TO.P,J3,7,Pin_7*%
%TO.N,Net-(J3-Pin_7)*%
X168402000Y-90170000D03*
%TO.P,J3,8,Pin_8*%
%TO.N,Net-(J3-Pin_8)*%
X168402000Y-92710000D03*
%TO.P,J3,9,Pin_9*%
%TO.N,Net-(J3-Pin_9)*%
X168402000Y-95250000D03*
%TO.P,J3,10,Pin_10*%
%TO.N,Net-(J3-Pin_10)*%
X168402000Y-97790000D03*
%TO.P,J3,11,Pin_11*%
%TO.N,Net-(J3-Pin_11)*%
X168402000Y-100330000D03*
%TO.P,J3,12,Pin_12*%
%TO.N,Net-(J3-Pin_12)*%
X168402000Y-102870000D03*
%TD*%
D10*
%TO.P,J6,1,Pin_1*%
%TO.N,Net-(J5-Pin_1)*%
X152146000Y-94488000D03*
D11*
%TO.P,J6,2,Pin_2*%
%TO.N,Net-(J5-Pin_2)*%
X154686000Y-94488000D03*
%TO.P,J6,3,Pin_3*%
%TO.N,Net-(J5-Pin_3)*%
X157226000Y-94488000D03*
%TO.P,J6,4,Pin_4*%
%TO.N,Net-(J5-Pin_4)*%
X159766000Y-94488000D03*
%TD*%
D10*
%TO.P,J1,1,Pin_1*%
%TO.N,Net-(J1-Pin_1)*%
X143002000Y-74990000D03*
D11*
%TO.P,J1,2,Pin_2*%
%TO.N,Net-(J1-Pin_2)*%
X143002000Y-77530000D03*
%TO.P,J1,3,Pin_3*%
%TO.N,Net-(J1-Pin_3)*%
X143002000Y-80070000D03*
%TO.P,J1,4,Pin_4*%
%TO.N,Net-(J1-Pin_4)*%
X143002000Y-82610000D03*
%TO.P,J1,5,Pin_5*%
%TO.N,Net-(J1-Pin_5)*%
X143002000Y-85150000D03*
%TO.P,J1,6,Pin_6*%
%TO.N,Net-(J1-Pin_6)*%
X143002000Y-87690000D03*
%TO.P,J1,7,Pin_7*%
%TO.N,Net-(J1-Pin_7)*%
X143002000Y-90230000D03*
%TO.P,J1,8,Pin_8*%
%TO.N,Net-(J1-Pin_8)*%
X143002000Y-92770000D03*
%TO.P,J1,9,Pin_9*%
%TO.N,Net-(J1-Pin_9)*%
X143002000Y-95310000D03*
%TO.P,J1,10,Pin_10*%
%TO.N,Net-(J1-Pin_10)*%
X143002000Y-97850000D03*
%TO.P,J1,11,Pin_11*%
%TO.N,Net-(J1-Pin_11)*%
X143002000Y-100390000D03*
%TO.P,J1,12,Pin_12*%
%TO.N,Net-(J1-Pin_12)*%
X143002000Y-102930000D03*
%TD*%
D12*
%TO.P,J5,1,Pin_1*%
%TO.N,Net-(J5-Pin_1)*%
X153670000Y-89408000D03*
%TO.P,J5,2,Pin_2*%
%TO.N,Net-(J5-Pin_2)*%
X154940000Y-89408000D03*
%TO.P,J5,3,Pin_3*%
%TO.N,Net-(J5-Pin_3)*%
X156210000Y-89408000D03*
%TO.P,J5,4,Pin_4*%
%TO.N,Net-(J5-Pin_4)*%
X157480000Y-89408000D03*
%TD*%
D13*
%TO.P,J2,1,Pin_1*%
%TO.N,Net-(J1-Pin_1)*%
X148346000Y-73874000D03*
%TO.P,J2,2,Pin_2*%
%TO.N,Net-(J1-Pin_2)*%
X148366000Y-75184000D03*
%TO.P,J2,3,Pin_3*%
%TO.N,Net-(J1-Pin_3)*%
X148366000Y-76454000D03*
%TO.P,J2,4,Pin_4*%
%TO.N,Net-(J1-Pin_4)*%
X148366000Y-77724000D03*
%TO.P,J2,5,Pin_5*%
%TO.N,Net-(J1-Pin_5)*%
X148336000Y-79034000D03*
%TO.P,J2,6,Pin_6*%
%TO.N,Net-(J1-Pin_6)*%
X148336000Y-80304000D03*
%TO.P,J2,7,Pin_7*%
%TO.N,Net-(J1-Pin_7)*%
X148336000Y-81574000D03*
%TO.P,J2,8,Pin_8*%
%TO.N,Net-(J1-Pin_8)*%
X148336000Y-82844000D03*
%TO.P,J2,9,Pin_9*%
%TO.N,Net-(J1-Pin_9)*%
X148336000Y-84114000D03*
%TO.P,J2,10,Pin_10*%
%TO.N,Net-(J1-Pin_10)*%
X148336000Y-85384000D03*
%TO.P,J2,11,Pin_11*%
%TO.N,Net-(J1-Pin_11)*%
X148336000Y-86654000D03*
%TO.P,J2,12,Pin_12*%
%TO.N,Net-(J1-Pin_12)*%
X148336000Y-87924000D03*
%TD*%
%TO.P,J4,1,Pin_1*%
%TO.N,Net-(J3-Pin_1)*%
X163078000Y-73834000D03*
%TO.P,J4,2,Pin_2*%
%TO.N,Net-(J3-Pin_2)*%
X163098000Y-75144000D03*
%TO.P,J4,3,Pin_3*%
%TO.N,Net-(J3-Pin_3)*%
X163098000Y-76414000D03*
%TO.P,J4,4,Pin_4*%
%TO.N,Net-(J3-Pin_4)*%
X163098000Y-77684000D03*
%TO.P,J4,5,Pin_5*%
%TO.N,Net-(J3-Pin_5)*%
X163068000Y-78994000D03*
%TO.P,J4,6,Pin_6*%
%TO.N,Net-(J3-Pin_6)*%
X163068000Y-80264000D03*
%TO.P,J4,7,Pin_7*%
%TO.N,Net-(J3-Pin_7)*%
X163068000Y-81534000D03*
%TO.P,J4,8,Pin_8*%
%TO.N,Net-(J3-Pin_8)*%
X163068000Y-82804000D03*
%TO.P,J4,9,Pin_9*%
%TO.N,Net-(J3-Pin_9)*%
X163068000Y-84074000D03*
%TO.P,J4,10,Pin_10*%
%TO.N,Net-(J3-Pin_10)*%
X163068000Y-85344000D03*
%TO.P,J4,11,Pin_11*%
%TO.N,Net-(J3-Pin_11)*%
X163068000Y-86614000D03*
%TO.P,J4,12,Pin_12*%
%TO.N,Net-(J3-Pin_12)*%
X163068000Y-87884000D03*
%TD*%
D14*
%TO.N,Net-(J1-Pin_10)*%
X146578000Y-85384000D02*
X144177000Y-87785000D01*
X147828000Y-85384000D02*
X146578000Y-85384000D01*
X144177000Y-96675000D02*
X143002000Y-97850000D01*
X144177000Y-87785000D02*
X144177000Y-96675000D01*
%TO.N,Net-(J1-Pin_11)*%
X146578000Y-86654000D02*
X144627000Y-88605000D01*
X144627000Y-98765000D02*
X143002000Y-100390000D01*
X147828000Y-86654000D02*
X146578000Y-86654000D01*
X144627000Y-88605000D02*
X144627000Y-98765000D01*
%TO.N,Net-(J1-Pin_12)*%
X145342000Y-90410000D02*
X145342000Y-100590000D01*
X147828000Y-87924000D02*
X145342000Y-90410000D01*
X145342000Y-100590000D02*
X143002000Y-102930000D01*
%TO.N,Net-(J3-Pin_10)*%
X164340052Y-85344000D02*
X167227000Y-88230948D01*
X167227000Y-96615000D02*
X168402000Y-97790000D01*
X167227000Y-88230948D02*
X167227000Y-96615000D01*
X163576000Y-85344000D02*
X164340052Y-85344000D01*
%TO.N,Net-(J3-Pin_11)*%
X166624000Y-88412000D02*
X166624000Y-98552000D01*
X164826000Y-86614000D02*
X166624000Y-88412000D01*
X163576000Y-86614000D02*
X164826000Y-86614000D01*
X166624000Y-98552000D02*
X168402000Y-100330000D01*
%TO.N,Net-(J3-Pin_12)*%
X163576000Y-87884000D02*
X166174000Y-90482000D01*
X166174000Y-100642000D02*
X168402000Y-102870000D01*
X166174000Y-90482000D02*
X166174000Y-100642000D01*
%TD*%
M02*
