M48
; DRILL file {KiCad 7.0.10} date Sat May 25 00:15:13 2024
; FORMAT={-:-/ absolute / inch / decimal}
; #@! TF.CreationDate,2024-05-25T00:15:13+05:30
; #@! TF.GenerationSoftware,Kicad,Pcbnew,7.0.10
; #@! TF.FileFunction,Plated,1,2,PTH
FMAT,2
INCH
; #@! TA.AperFunction,Plated,PTH,ComponentDrill
T1C0.0236
; #@! TA.AperFunction,Plated,PTH,ComponentDrill
T2C0.0394
%
G90
G05
T1
X5.84Y-3.1116
X5.84Y-3.1616
X5.84Y-3.2116
X5.84Y-3.2616
X5.84Y-3.3116
X5.84Y-3.3616
X5.84Y-3.4116
X5.84Y-3.4616
X5.8404Y-2.9084
X5.8412Y-2.96
X5.8412Y-3.01
X5.8412Y-3.06
X6.05Y-3.52
X6.1Y-3.52
X6.15Y-3.52
X6.2Y-3.52
X6.42Y-3.11
X6.42Y-3.16
X6.42Y-3.21
X6.42Y-3.26
X6.42Y-3.31
X6.42Y-3.36
X6.42Y-3.41
X6.42Y-3.46
X6.4204Y-2.9069
X6.4212Y-2.9584
X6.4212Y-3.0084
X6.4212Y-3.0584
T2
X5.63Y-2.9524
X5.63Y-3.0524
X5.63Y-3.1524
X5.63Y-3.2524
X5.63Y-3.3524
X5.63Y-3.4524
X5.63Y-3.5524
X5.63Y-3.6524
X5.63Y-3.7524
X5.63Y-3.8524
X5.63Y-3.9524
X5.63Y-4.0524
X5.99Y-3.72
X6.09Y-3.72
X6.19Y-3.72
X6.29Y-3.72
X6.63Y-2.95
X6.63Y-3.05
X6.63Y-3.15
X6.63Y-3.25
X6.63Y-3.35
X6.63Y-3.45
X6.63Y-3.55
X6.63Y-3.65
X6.63Y-3.75
X6.63Y-3.85
X6.63Y-3.95
X6.63Y-4.05
M30
