%TF.GenerationSoftware,KiCad,Pcbnew,7.0.10*%
%TF.CreationDate,2024-05-25T00:15:11+05:30*%
%TF.ProjectId,bb-adaptor-V1,62622d61-6461-4707-946f-722d56312e6b,rev?*%
%TF.SameCoordinates,Original*%
%TF.FileFunction,Soldermask,Bot*%
%TF.FilePolarity,Negative*%
%FSLAX46Y46*%
G04 Gerber Fmt 4.6, Leading zero omitted, Abs format (unit mm)*
G04 Created by KiCad (PCBNEW 7.0.10) date 2024-05-25 00:15:11*
%MOMM*%
%LPD*%
G01*
G04 APERTURE LIST*
G04 Aperture macros list*
%AMRoundRect*
0 Rectangle with rounded corners*
0 $1 Rounding radius*
0 $2 $3 $4 $5 $6 $7 $8 $9 X,Y pos of 4 corners*
0 Add a 4 corners polygon primitive as box body*
4,1,4,$2,$3,$4,$5,$6,$7,$8,$9,$2,$3,0*
0 Add four circle primitives for the rounded corners*
1,1,$1+$1,$2,$3*
1,1,$1+$1,$4,$5*
1,1,$1+$1,$6,$7*
1,1,$1+$1,$8,$9*
0 Add four rect primitives between the rounded corners*
20,1,$1+$1,$2,$3,$4,$5,0*
20,1,$1+$1,$4,$5,$6,$7,0*
20,1,$1+$1,$6,$7,$8,$9,0*
20,1,$1+$1,$8,$9,$2,$3,0*%
G04 Aperture macros list end*
%ADD10R,1.700000X1.700000*%
%ADD11O,1.700000X1.700000*%
%ADD12RoundRect,0.225000X0.225000X-1.025000X0.225000X1.025000X-0.225000X1.025000X-0.225000X-1.025000X0*%
%ADD13RoundRect,0.225000X-1.025000X-0.225000X1.025000X-0.225000X1.025000X0.225000X-1.025000X0.225000X0*%
G04 APERTURE END LIST*
D10*
%TO.C,J3*%
X168402000Y-74930000D03*
D11*
X168402000Y-77470000D03*
X168402000Y-80010000D03*
X168402000Y-82550000D03*
X168402000Y-85090000D03*
X168402000Y-87630000D03*
X168402000Y-90170000D03*
X168402000Y-92710000D03*
X168402000Y-95250000D03*
X168402000Y-97790000D03*
X168402000Y-100330000D03*
X168402000Y-102870000D03*
%TD*%
D10*
%TO.C,J6*%
X152146000Y-94488000D03*
D11*
X154686000Y-94488000D03*
X157226000Y-94488000D03*
X159766000Y-94488000D03*
%TD*%
D10*
%TO.C,J1*%
X143002000Y-74990000D03*
D11*
X143002000Y-77530000D03*
X143002000Y-80070000D03*
X143002000Y-82610000D03*
X143002000Y-85150000D03*
X143002000Y-87690000D03*
X143002000Y-90230000D03*
X143002000Y-92770000D03*
X143002000Y-95310000D03*
X143002000Y-97850000D03*
X143002000Y-100390000D03*
X143002000Y-102930000D03*
%TD*%
D12*
%TO.C,J5*%
X153670000Y-89408000D03*
X154940000Y-89408000D03*
X156210000Y-89408000D03*
X157480000Y-89408000D03*
%TD*%
D13*
%TO.C,J2*%
X148346000Y-73874000D03*
X148366000Y-75184000D03*
X148366000Y-76454000D03*
X148366000Y-77724000D03*
X148336000Y-79034000D03*
X148336000Y-80304000D03*
X148336000Y-81574000D03*
X148336000Y-82844000D03*
X148336000Y-84114000D03*
X148336000Y-85384000D03*
X148336000Y-86654000D03*
X148336000Y-87924000D03*
%TD*%
%TO.C,J4*%
X163078000Y-73834000D03*
X163098000Y-75144000D03*
X163098000Y-76414000D03*
X163098000Y-77684000D03*
X163068000Y-78994000D03*
X163068000Y-80264000D03*
X163068000Y-81534000D03*
X163068000Y-82804000D03*
X163068000Y-84074000D03*
X163068000Y-85344000D03*
X163068000Y-86614000D03*
X163068000Y-87884000D03*
%TD*%
M02*
