%TF.GenerationSoftware,KiCad,Pcbnew,7.0.10*%
%TF.CreationDate,2024-05-25T00:15:11+05:30*%
%TF.ProjectId,bb-adaptor-V1,62622d61-6461-4707-946f-722d56312e6b,rev?*%
%TF.SameCoordinates,Original*%
%TF.FileFunction,Legend,Top*%
%TF.FilePolarity,Positive*%
%FSLAX46Y46*%
G04 Gerber Fmt 4.6, Leading zero omitted, Abs format (unit mm)*
G04 Created by KiCad (PCBNEW 7.0.10) date 2024-05-25 00:15:11*
%MOMM*%
%LPD*%
G01*
G04 APERTURE LIST*
%ADD10C,0.200000*%
%ADD11C,0.301600*%
%ADD12C,0.075000*%
%ADD13C,0.120000*%
G04 APERTURE END LIST*
D10*
G36*
X146395733Y-93303294D02*
G01*
X146386879Y-93303177D01*
X146377940Y-93302774D01*
X146369198Y-93301998D01*
X146367732Y-93301820D01*
X146359053Y-93300379D01*
X146350853Y-93298113D01*
X146348994Y-93297399D01*
X146341708Y-93293139D01*
X146338678Y-93290030D01*
X146335428Y-93282150D01*
X146335309Y-93280135D01*
X146335309Y-93088335D01*
X145713592Y-93088335D01*
X145705342Y-93086085D01*
X145702855Y-93084335D01*
X145697542Y-93077624D01*
X145695065Y-93071703D01*
X145692844Y-93063476D01*
X145691236Y-93054886D01*
X145690223Y-93047701D01*
X145689409Y-93038694D01*
X145688909Y-93029680D01*
X145688644Y-93021016D01*
X145688540Y-93011626D01*
X145688539Y-93010226D01*
X145688619Y-93000723D01*
X145688861Y-92991925D01*
X145689335Y-92982733D01*
X145690119Y-92973494D01*
X145690223Y-92972540D01*
X145691510Y-92963793D01*
X145693326Y-92954872D01*
X145695065Y-92948749D01*
X145698732Y-92940720D01*
X145702855Y-92935906D01*
X145710711Y-92932353D01*
X145713592Y-92932116D01*
X146335309Y-92932116D01*
X146335309Y-92740317D01*
X146337365Y-92732134D01*
X146338678Y-92730211D01*
X146345369Y-92724811D01*
X146348994Y-92723053D01*
X146357258Y-92720474D01*
X146365600Y-92718921D01*
X146367732Y-92718632D01*
X146376265Y-92717792D01*
X146385016Y-92717332D01*
X146393700Y-92717164D01*
X146395733Y-92717158D01*
X146404808Y-92717274D01*
X146413953Y-92717677D01*
X146422873Y-92718453D01*
X146424366Y-92718632D01*
X146433283Y-92720072D01*
X146441499Y-92722339D01*
X146443315Y-92723053D01*
X146450897Y-92727465D01*
X146453421Y-92730211D01*
X146456468Y-92738165D01*
X146456579Y-92740317D01*
X146456579Y-93280135D01*
X146454494Y-93288335D01*
X146453421Y-93290030D01*
X146447008Y-93295624D01*
X146443315Y-93297399D01*
X146435104Y-93299978D01*
X146426572Y-93301531D01*
X146424366Y-93301820D01*
X146415664Y-93302659D01*
X146406716Y-93303120D01*
X146397819Y-93303288D01*
X146395733Y-93303294D01*
G37*
G36*
X145749173Y-93844796D02*
G01*
X145740014Y-93844679D01*
X145730852Y-93844276D01*
X145722009Y-93843500D01*
X145720540Y-93843322D01*
X145711998Y-93841881D01*
X145703868Y-93839615D01*
X145702013Y-93838901D01*
X145694726Y-93834641D01*
X145691697Y-93831532D01*
X145688650Y-93823652D01*
X145688539Y-93821637D01*
X145688539Y-93436774D01*
X145689262Y-93427458D01*
X145691433Y-93418879D01*
X145695052Y-93411036D01*
X145700118Y-93403931D01*
X145706816Y-93398128D01*
X145715329Y-93393983D01*
X145724268Y-93391716D01*
X145733037Y-93390783D01*
X145737804Y-93390667D01*
X146407313Y-93390667D01*
X146416592Y-93391133D01*
X146426127Y-93392856D01*
X146434272Y-93395848D01*
X146441877Y-93400822D01*
X146444999Y-93403931D01*
X146450065Y-93411036D01*
X146453684Y-93418879D01*
X146455855Y-93427458D01*
X146456579Y-93436774D01*
X146456579Y-93819321D01*
X146454322Y-93827726D01*
X146453631Y-93828795D01*
X146447110Y-93834195D01*
X146443315Y-93835953D01*
X146434893Y-93838532D01*
X146426501Y-93840085D01*
X146424366Y-93840374D01*
X146415804Y-93841214D01*
X146406725Y-93841674D01*
X146397498Y-93841842D01*
X146395312Y-93841848D01*
X146386458Y-93841732D01*
X146377518Y-93841329D01*
X146368777Y-93840553D01*
X146367311Y-93840374D01*
X146358768Y-93838934D01*
X146350639Y-93836667D01*
X146348784Y-93835953D01*
X146341206Y-93831541D01*
X146338467Y-93828795D01*
X146335386Y-93820940D01*
X146335309Y-93819321D01*
X146335309Y-93545622D01*
X146146668Y-93545622D01*
X146146668Y-93777213D01*
X146144444Y-93785414D01*
X146143299Y-93787109D01*
X146136608Y-93792703D01*
X146132983Y-93794477D01*
X146124398Y-93797193D01*
X146115910Y-93798709D01*
X146114456Y-93798899D01*
X146105753Y-93799738D01*
X146096805Y-93800198D01*
X146087908Y-93800367D01*
X146085822Y-93800372D01*
X146077375Y-93800280D01*
X146068815Y-93799956D01*
X146059709Y-93799244D01*
X146056768Y-93798899D01*
X146048261Y-93797458D01*
X146039793Y-93795017D01*
X146038452Y-93794477D01*
X146030965Y-93789974D01*
X146028346Y-93787109D01*
X146025470Y-93778898D01*
X146025398Y-93777213D01*
X146025398Y-93545622D01*
X145809808Y-93545622D01*
X145809808Y-93821637D01*
X145807584Y-93829837D01*
X145806439Y-93831532D01*
X145799833Y-93837126D01*
X145796123Y-93838901D01*
X145788017Y-93841480D01*
X145779726Y-93843033D01*
X145777596Y-93843322D01*
X145769108Y-93844161D01*
X145760226Y-93844622D01*
X145751283Y-93844790D01*
X145749173Y-93844796D01*
G37*
G36*
X145814229Y-94491566D02*
G01*
X145805029Y-94491467D01*
X145796127Y-94491131D01*
X145790228Y-94490724D01*
X145781553Y-94489703D01*
X145773175Y-94487987D01*
X145765049Y-94485388D01*
X145760963Y-94483355D01*
X145753850Y-94478593D01*
X145747699Y-94473881D01*
X145741627Y-94467951D01*
X145735807Y-94460953D01*
X145730751Y-94454174D01*
X145726856Y-94448617D01*
X145722077Y-94441301D01*
X145717372Y-94433409D01*
X145712741Y-94424939D01*
X145708184Y-94415891D01*
X145704443Y-94407911D01*
X145702223Y-94402930D01*
X145698697Y-94394319D01*
X145695356Y-94385326D01*
X145692200Y-94375954D01*
X145689229Y-94366201D01*
X145686443Y-94356068D01*
X145684348Y-94347688D01*
X145682854Y-94341243D01*
X145681028Y-94332522D01*
X145679446Y-94323623D01*
X145678107Y-94314547D01*
X145677012Y-94305294D01*
X145676160Y-94295862D01*
X145675551Y-94286253D01*
X145675186Y-94276466D01*
X145675064Y-94266502D01*
X145675160Y-94256719D01*
X145675446Y-94247057D01*
X145675923Y-94237514D01*
X145676591Y-94228092D01*
X145677449Y-94218790D01*
X145678499Y-94209608D01*
X145679739Y-94200545D01*
X145681170Y-94191603D01*
X145682791Y-94182781D01*
X145684604Y-94174079D01*
X145686607Y-94165498D01*
X145688802Y-94157036D01*
X145691187Y-94148694D01*
X145693762Y-94140472D01*
X145696529Y-94132371D01*
X145699486Y-94124389D01*
X145702633Y-94116542D01*
X145707704Y-94105048D01*
X145713198Y-94093888D01*
X145719113Y-94083060D01*
X145725450Y-94072566D01*
X145732209Y-94062405D01*
X145739390Y-94052576D01*
X145746993Y-94043081D01*
X145755017Y-94033919D01*
X145763464Y-94025090D01*
X145772332Y-94016594D01*
X145781625Y-94008446D01*
X145791342Y-94000661D01*
X145801486Y-93993238D01*
X145808485Y-93988491D01*
X145815672Y-93983905D01*
X145823049Y-93979481D01*
X145830616Y-93975217D01*
X145838371Y-93971115D01*
X145846315Y-93967174D01*
X145854449Y-93963394D01*
X145862772Y-93959776D01*
X145871284Y-93956318D01*
X145879985Y-93953022D01*
X145888875Y-93949887D01*
X145893391Y-93948380D01*
X145902564Y-93945525D01*
X145911922Y-93942853D01*
X145921466Y-93940367D01*
X145931196Y-93938064D01*
X145941112Y-93935945D01*
X145951213Y-93934011D01*
X145961501Y-93932261D01*
X145971974Y-93930695D01*
X145982634Y-93929313D01*
X145993479Y-93928116D01*
X146004510Y-93927103D01*
X146015727Y-93926274D01*
X146027129Y-93925629D01*
X146038718Y-93925168D01*
X146050492Y-93924892D01*
X146062453Y-93924800D01*
X146074631Y-93924902D01*
X146086638Y-93925208D01*
X146098474Y-93925718D01*
X146110140Y-93926432D01*
X146121634Y-93927349D01*
X146132956Y-93928471D01*
X146144108Y-93929797D01*
X146155089Y-93931327D01*
X146165899Y-93933060D01*
X146176538Y-93934998D01*
X146187005Y-93937139D01*
X146197302Y-93939485D01*
X146207427Y-93942034D01*
X146217382Y-93944788D01*
X146227165Y-93947745D01*
X146236778Y-93950907D01*
X146246209Y-93954250D01*
X146255450Y-93957756D01*
X146264500Y-93961422D01*
X146273359Y-93965249D01*
X146282027Y-93969238D01*
X146290504Y-93973388D01*
X146298791Y-93977699D01*
X146306887Y-93982171D01*
X146314792Y-93986805D01*
X146322506Y-93991599D01*
X146330029Y-93996555D01*
X146337362Y-94001672D01*
X146344504Y-94006951D01*
X146351455Y-94012390D01*
X146358215Y-94017991D01*
X146364784Y-94023752D01*
X146371161Y-94029668D01*
X146377341Y-94035730D01*
X146383326Y-94041938D01*
X146389115Y-94048293D01*
X146394708Y-94054794D01*
X146400105Y-94061442D01*
X146405307Y-94068236D01*
X146410313Y-94075176D01*
X146415123Y-94082263D01*
X146419738Y-94089496D01*
X146424157Y-94096876D01*
X146428380Y-94104401D01*
X146432407Y-94112074D01*
X146436239Y-94119892D01*
X146439875Y-94127857D01*
X146443315Y-94135969D01*
X146446553Y-94144205D01*
X146449582Y-94152545D01*
X146452402Y-94160989D01*
X146455013Y-94169536D01*
X146457415Y-94178187D01*
X146459608Y-94186942D01*
X146461593Y-94195800D01*
X146463369Y-94204762D01*
X146464935Y-94213827D01*
X146466293Y-94222996D01*
X146467442Y-94232269D01*
X146468382Y-94241645D01*
X146469113Y-94251125D01*
X146469635Y-94260709D01*
X146469949Y-94270396D01*
X146470053Y-94280187D01*
X146469919Y-94290126D01*
X146469519Y-94299941D01*
X146468850Y-94309633D01*
X146467915Y-94319202D01*
X146466712Y-94328648D01*
X146465242Y-94337970D01*
X146464579Y-94341664D01*
X146462847Y-94350828D01*
X146460940Y-94359765D01*
X146458858Y-94368477D01*
X146456602Y-94376962D01*
X146454170Y-94385221D01*
X146451564Y-94393254D01*
X146450473Y-94396404D01*
X146447132Y-94405700D01*
X146443585Y-94414641D01*
X146439829Y-94423227D01*
X146435867Y-94431458D01*
X146431697Y-94439333D01*
X146430262Y-94441880D01*
X146425439Y-94450138D01*
X146420297Y-94458145D01*
X146414984Y-94465328D01*
X146410682Y-94470092D01*
X146404165Y-94476125D01*
X146397207Y-94481040D01*
X146389131Y-94484231D01*
X146383101Y-94485671D01*
X146374512Y-94487216D01*
X146365946Y-94488181D01*
X146363100Y-94488408D01*
X146354612Y-94488888D01*
X146345730Y-94489151D01*
X146336787Y-94489247D01*
X146334678Y-94489251D01*
X146325953Y-94489172D01*
X146316925Y-94488894D01*
X146307870Y-94488351D01*
X146303729Y-94487987D01*
X146294906Y-94486931D01*
X146286259Y-94485026D01*
X146283096Y-94483987D01*
X146275256Y-94480042D01*
X146271516Y-94476829D01*
X146268025Y-94468974D01*
X146267937Y-94467355D01*
X146269912Y-94458691D01*
X146274234Y-94450583D01*
X146278254Y-94444827D01*
X146283662Y-94437485D01*
X146288631Y-94430240D01*
X146293823Y-94422229D01*
X146298449Y-94414753D01*
X146301623Y-94409457D01*
X146306350Y-94401108D01*
X146310900Y-94392166D01*
X146314556Y-94384263D01*
X146318088Y-94375949D01*
X146321497Y-94367223D01*
X146324782Y-94358086D01*
X146327815Y-94348460D01*
X146330334Y-94338270D01*
X146331978Y-94329710D01*
X146333294Y-94320789D01*
X146334281Y-94311505D01*
X146334939Y-94301860D01*
X146335268Y-94291853D01*
X146335309Y-94286714D01*
X146335146Y-94278234D01*
X146334423Y-94267199D01*
X146333120Y-94256473D01*
X146331238Y-94246057D01*
X146328778Y-94235949D01*
X146325738Y-94226151D01*
X146322119Y-94216662D01*
X146317922Y-94207482D01*
X146316782Y-94205236D01*
X146311900Y-94196452D01*
X146306518Y-94187998D01*
X146300636Y-94179872D01*
X146294254Y-94172076D01*
X146287372Y-94164609D01*
X146279991Y-94157470D01*
X146272109Y-94150660D01*
X146263726Y-94144180D01*
X146254871Y-94138104D01*
X146245568Y-94132403D01*
X146235817Y-94127077D01*
X146228211Y-94123329D01*
X146220353Y-94119791D01*
X146212243Y-94116465D01*
X146203881Y-94113349D01*
X146195268Y-94110445D01*
X146186403Y-94107751D01*
X146180354Y-94106073D01*
X146171086Y-94103740D01*
X146161600Y-94101636D01*
X146151896Y-94099763D01*
X146141973Y-94098118D01*
X146131832Y-94096703D01*
X146121473Y-94095518D01*
X146110896Y-94094562D01*
X146100100Y-94093835D01*
X146089085Y-94093338D01*
X146077852Y-94093070D01*
X146070243Y-94093019D01*
X146057807Y-94093141D01*
X146045686Y-94093508D01*
X146033880Y-94094118D01*
X146022388Y-94094973D01*
X146011211Y-94096072D01*
X146000348Y-94097416D01*
X145989800Y-94099004D01*
X145979567Y-94100835D01*
X145969648Y-94102912D01*
X145960044Y-94105232D01*
X145953816Y-94106915D01*
X145944768Y-94109624D01*
X145936019Y-94112540D01*
X145927571Y-94115664D01*
X145919422Y-94118994D01*
X145911573Y-94122532D01*
X145904024Y-94126278D01*
X145894425Y-94131594D01*
X145885359Y-94137278D01*
X145876825Y-94143331D01*
X145872759Y-94146496D01*
X145865064Y-94153134D01*
X145857876Y-94160102D01*
X145851195Y-94167398D01*
X145845020Y-94175024D01*
X145839352Y-94182978D01*
X145834191Y-94191261D01*
X145829536Y-94199874D01*
X145825388Y-94208815D01*
X145821736Y-94218062D01*
X145818572Y-94227592D01*
X145815894Y-94237405D01*
X145813703Y-94247501D01*
X145811999Y-94257880D01*
X145810782Y-94268542D01*
X145810051Y-94279486D01*
X145809808Y-94290714D01*
X145809972Y-94300905D01*
X145810466Y-94310741D01*
X145811288Y-94320222D01*
X145812440Y-94329347D01*
X145813920Y-94338118D01*
X145815729Y-94346533D01*
X145818454Y-94356552D01*
X145820335Y-94362296D01*
X145823737Y-94371560D01*
X145827231Y-94380402D01*
X145830818Y-94388822D01*
X145834497Y-94396821D01*
X145838269Y-94404399D01*
X145842917Y-94412935D01*
X145843705Y-94414299D01*
X145848432Y-94422157D01*
X145852981Y-94429468D01*
X145858065Y-94437304D01*
X145862906Y-94444395D01*
X145866864Y-94449880D01*
X145871851Y-94457197D01*
X145875729Y-94464782D01*
X145877180Y-94471355D01*
X145875531Y-94479654D01*
X145874864Y-94480829D01*
X145867808Y-94485970D01*
X145865811Y-94486724D01*
X145857108Y-94488992D01*
X145848368Y-94490166D01*
X145846863Y-94490303D01*
X145838429Y-94490969D01*
X145829467Y-94491358D01*
X145820411Y-94491536D01*
X145814229Y-94491566D01*
G37*
G36*
X145713171Y-95197919D02*
G01*
X145705039Y-95195669D01*
X145702645Y-95193919D01*
X145697513Y-95187208D01*
X145695065Y-95181287D01*
X145692844Y-95173129D01*
X145691236Y-95164707D01*
X145690223Y-95157707D01*
X145689409Y-95148800D01*
X145688909Y-95139849D01*
X145688644Y-95131218D01*
X145688540Y-95121842D01*
X145688539Y-95120441D01*
X145688619Y-95110692D01*
X145688861Y-95101709D01*
X145689335Y-95092379D01*
X145690119Y-95083079D01*
X145690223Y-95082124D01*
X145691510Y-95073398D01*
X145693326Y-95064555D01*
X145695065Y-95058543D01*
X145698732Y-95050843D01*
X145702855Y-95046122D01*
X145710711Y-95042569D01*
X145713592Y-95042332D01*
X146025398Y-95042332D01*
X146025398Y-94755580D01*
X145713592Y-94755580D01*
X145705342Y-94753567D01*
X145702855Y-94752001D01*
X145697315Y-94745037D01*
X145695065Y-94739579D01*
X145692844Y-94731387D01*
X145691236Y-94722881D01*
X145690223Y-94715789D01*
X145689409Y-94706849D01*
X145688909Y-94697813D01*
X145688644Y-94689064D01*
X145688540Y-94679529D01*
X145688539Y-94678103D01*
X145688619Y-94668599D01*
X145688861Y-94659801D01*
X145689335Y-94650610D01*
X145690119Y-94641371D01*
X145690223Y-94640416D01*
X145691510Y-94631670D01*
X145693326Y-94622748D01*
X145695065Y-94616626D01*
X145698672Y-94608597D01*
X145702645Y-94603783D01*
X145710303Y-94600230D01*
X145713171Y-94599993D01*
X146431946Y-94599993D01*
X146440386Y-94602306D01*
X146442473Y-94603783D01*
X146447605Y-94610675D01*
X146450052Y-94616626D01*
X146452238Y-94624818D01*
X146453763Y-94633324D01*
X146454684Y-94640416D01*
X146455600Y-94649526D01*
X146456162Y-94658602D01*
X146456460Y-94667299D01*
X146456577Y-94676702D01*
X146456579Y-94678103D01*
X146456498Y-94687750D01*
X146456256Y-94696611D01*
X146455783Y-94705776D01*
X146454998Y-94714860D01*
X146454894Y-94715789D01*
X146453718Y-94724535D01*
X146451981Y-94733457D01*
X146450263Y-94739579D01*
X146446655Y-94747489D01*
X146442683Y-94752001D01*
X146434665Y-94755454D01*
X146432577Y-94755580D01*
X146160142Y-94755580D01*
X146160142Y-95042332D01*
X146432577Y-95042332D01*
X146440688Y-95044645D01*
X146442683Y-95046122D01*
X146447815Y-95052849D01*
X146450263Y-95058543D01*
X146452600Y-95067305D01*
X146454097Y-95075886D01*
X146454894Y-95082124D01*
X146455709Y-95091283D01*
X146456209Y-95100488D01*
X146456473Y-95109362D01*
X146456577Y-95119002D01*
X146456579Y-95120441D01*
X146456488Y-95129924D01*
X146456216Y-95138662D01*
X146455683Y-95147735D01*
X146454800Y-95156778D01*
X146454684Y-95157707D01*
X146453508Y-95166342D01*
X146451771Y-95175184D01*
X146450052Y-95181287D01*
X146446445Y-95189256D01*
X146442473Y-95193919D01*
X146434814Y-95197669D01*
X146431946Y-95197919D01*
X145713171Y-95197919D01*
G37*
D11*
G36*
X149710428Y-89094869D02*
G01*
X149710428Y-89434709D01*
X149097134Y-89307214D01*
X149075994Y-89302889D01*
X149055437Y-89298819D01*
X149035465Y-89295004D01*
X149016076Y-89291442D01*
X148997271Y-89288134D01*
X148979050Y-89285081D01*
X148961413Y-89282282D01*
X148936053Y-89278559D01*
X148912006Y-89275409D01*
X148889273Y-89272830D01*
X148867853Y-89270823D01*
X148847747Y-89269389D01*
X148828956Y-89268526D01*
X148811224Y-89268389D01*
X148788579Y-89269578D01*
X148767074Y-89272332D01*
X148746710Y-89276653D01*
X148727487Y-89282540D01*
X148709403Y-89289993D01*
X148692460Y-89299013D01*
X148676657Y-89309598D01*
X148672884Y-89312489D01*
X148658871Y-89324930D01*
X148646726Y-89338510D01*
X148636449Y-89353231D01*
X148628041Y-89369093D01*
X148621502Y-89386094D01*
X148616831Y-89404236D01*
X148614028Y-89423518D01*
X148613094Y-89443941D01*
X148614062Y-89465435D01*
X148616968Y-89486613D01*
X148621811Y-89507475D01*
X148628591Y-89528021D01*
X148637308Y-89548252D01*
X148647962Y-89568166D01*
X148660554Y-89587764D01*
X148671269Y-89602255D01*
X148675083Y-89607046D01*
X148687020Y-89621116D01*
X148699421Y-89634475D01*
X148712285Y-89647124D01*
X148725613Y-89659061D01*
X148739405Y-89670287D01*
X148753661Y-89680802D01*
X148768380Y-89690607D01*
X148783563Y-89699700D01*
X148799210Y-89708082D01*
X148815320Y-89715753D01*
X148826318Y-89720473D01*
X148843828Y-89727318D01*
X148862892Y-89734172D01*
X148883509Y-89741033D01*
X148905679Y-89747902D01*
X148929403Y-89754778D01*
X148954680Y-89761663D01*
X148972394Y-89766257D01*
X148990799Y-89770854D01*
X149009894Y-89775455D01*
X149029679Y-89780059D01*
X149050155Y-89784667D01*
X149071321Y-89789278D01*
X149093177Y-89793892D01*
X149710428Y-89922266D01*
X149710428Y-90262106D01*
X148388000Y-89987332D01*
X148388000Y-89674311D01*
X148533080Y-89704646D01*
X148512104Y-89688089D01*
X148492482Y-89671281D01*
X148474213Y-89654223D01*
X148457297Y-89636914D01*
X148441735Y-89619354D01*
X148427526Y-89601544D01*
X148414670Y-89583483D01*
X148403167Y-89565171D01*
X148393018Y-89546608D01*
X148384221Y-89527795D01*
X148376778Y-89508731D01*
X148370689Y-89489416D01*
X148365952Y-89469850D01*
X148362569Y-89450034D01*
X148360539Y-89429967D01*
X148359863Y-89409649D01*
X148360539Y-89388390D01*
X148362569Y-89368138D01*
X148365952Y-89348892D01*
X148370689Y-89330652D01*
X148376778Y-89313418D01*
X148384221Y-89297191D01*
X148397923Y-89274738D01*
X148414670Y-89254548D01*
X148427526Y-89242347D01*
X148441735Y-89231151D01*
X148457297Y-89220962D01*
X148474213Y-89211780D01*
X148492482Y-89203604D01*
X148512104Y-89196434D01*
X148533080Y-89190270D01*
X147881538Y-89054422D01*
X147881538Y-88714583D01*
X149710428Y-89094869D01*
G37*
G36*
X148388000Y-90370696D02*
G01*
X150216890Y-90750982D01*
X150216890Y-91099175D01*
X148981070Y-91567388D01*
X150216890Y-91824576D01*
X150216890Y-92156942D01*
X148388000Y-91776655D01*
X148388000Y-91417472D01*
X149605355Y-90956293D01*
X148388000Y-90703062D01*
X148388000Y-90370696D01*
G37*
G36*
X149907385Y-92498540D02*
G01*
X150216890Y-92562727D01*
X150216890Y-92903006D01*
X149907385Y-92838819D01*
X149907385Y-92498540D01*
G37*
G36*
X148388000Y-92182441D02*
G01*
X149710428Y-92457214D01*
X149710428Y-92797493D01*
X148388000Y-92522720D01*
X148388000Y-92182441D01*
G37*
G36*
X149344650Y-94201254D02*
G01*
X149288376Y-93854820D01*
X149306330Y-93855012D01*
X149328933Y-93853813D01*
X149350012Y-93850952D01*
X149369565Y-93846429D01*
X149387594Y-93840243D01*
X149404097Y-93832395D01*
X149419076Y-93822884D01*
X149435655Y-93808658D01*
X149449967Y-93792017D01*
X149459670Y-93777097D01*
X149467820Y-93760748D01*
X149474418Y-93742970D01*
X149479463Y-93723764D01*
X149482957Y-93703128D01*
X149484897Y-93681064D01*
X149485334Y-93663578D01*
X149484491Y-93640030D01*
X149481964Y-93617030D01*
X149477753Y-93594579D01*
X149471856Y-93572676D01*
X149464275Y-93551322D01*
X149455009Y-93530517D01*
X149444059Y-93510261D01*
X149431423Y-93490553D01*
X149417103Y-93471394D01*
X149401099Y-93452784D01*
X149389493Y-93440682D01*
X149370391Y-93423223D01*
X149356398Y-93412060D01*
X149341399Y-93401279D01*
X149325393Y-93390879D01*
X149308381Y-93380860D01*
X149290363Y-93371222D01*
X149271338Y-93361966D01*
X149251307Y-93353091D01*
X149230270Y-93344597D01*
X149208226Y-93336484D01*
X149185176Y-93328753D01*
X149161120Y-93321403D01*
X149136057Y-93314434D01*
X149109988Y-93307846D01*
X149082913Y-93301639D01*
X149068997Y-93298679D01*
X149038355Y-93292612D01*
X149008856Y-93287379D01*
X148980502Y-93282981D01*
X148953290Y-93279418D01*
X148927223Y-93276689D01*
X148902299Y-93274795D01*
X148878519Y-93273735D01*
X148855883Y-93273510D01*
X148834391Y-93274120D01*
X148814042Y-93275564D01*
X148794837Y-93277843D01*
X148776776Y-93280956D01*
X148751829Y-93287192D01*
X148729455Y-93295305D01*
X148715969Y-93301757D01*
X148697584Y-93312796D01*
X148681007Y-93325142D01*
X148666239Y-93338793D01*
X148653279Y-93353751D01*
X148642128Y-93370014D01*
X148632785Y-93387584D01*
X148625250Y-93406459D01*
X148619523Y-93426641D01*
X148615605Y-93448129D01*
X148613496Y-93470922D01*
X148613094Y-93486844D01*
X148613592Y-93504774D01*
X148615808Y-93528044D01*
X148619795Y-93550586D01*
X148625555Y-93572399D01*
X148633087Y-93593485D01*
X148642392Y-93613842D01*
X148653469Y-93633471D01*
X148666318Y-93652372D01*
X148669807Y-93656983D01*
X148681246Y-93670583D01*
X148694129Y-93683851D01*
X148708458Y-93696786D01*
X148724233Y-93709390D01*
X148741452Y-93721660D01*
X148760116Y-93733599D01*
X148780226Y-93745205D01*
X148801780Y-93756479D01*
X148824780Y-93767420D01*
X148840916Y-93774530D01*
X148857695Y-93781492D01*
X148866325Y-93784918D01*
X148810051Y-94107172D01*
X148782615Y-94094579D01*
X148756031Y-94081419D01*
X148730298Y-94067692D01*
X148705418Y-94053399D01*
X148681389Y-94038539D01*
X148658211Y-94023112D01*
X148635886Y-94007118D01*
X148614413Y-93990558D01*
X148593791Y-93973431D01*
X148574021Y-93955737D01*
X148555103Y-93937477D01*
X148537036Y-93918650D01*
X148519822Y-93899256D01*
X148503459Y-93879296D01*
X148487948Y-93858768D01*
X148473289Y-93837674D01*
X148459554Y-93815995D01*
X148446705Y-93793711D01*
X148434742Y-93770822D01*
X148423665Y-93747329D01*
X148413474Y-93723231D01*
X148404170Y-93698529D01*
X148395752Y-93673223D01*
X148388219Y-93647311D01*
X148381573Y-93620796D01*
X148375813Y-93593676D01*
X148370940Y-93565951D01*
X148366952Y-93537622D01*
X148363850Y-93508688D01*
X148361635Y-93479150D01*
X148360306Y-93449008D01*
X148359863Y-93418260D01*
X148360575Y-93383682D01*
X148362713Y-93350288D01*
X148366277Y-93318080D01*
X148371266Y-93287056D01*
X148377680Y-93257218D01*
X148385520Y-93228564D01*
X148394785Y-93201095D01*
X148405475Y-93174811D01*
X148417591Y-93149713D01*
X148431132Y-93125799D01*
X148446099Y-93103070D01*
X148462491Y-93081526D01*
X148480308Y-93061167D01*
X148499551Y-93041993D01*
X148520219Y-93024004D01*
X148542312Y-93007200D01*
X148565719Y-92991758D01*
X148590219Y-92977854D01*
X148615811Y-92965489D01*
X148642494Y-92954663D01*
X148670271Y-92945376D01*
X148699139Y-92937627D01*
X148729100Y-92931417D01*
X148760152Y-92926746D01*
X148792297Y-92923614D01*
X148825535Y-92922020D01*
X148859864Y-92921965D01*
X148895286Y-92923449D01*
X148913406Y-92924768D01*
X148931800Y-92926471D01*
X148950466Y-92928560D01*
X148969406Y-92931033D01*
X148988619Y-92933890D01*
X149008104Y-92937133D01*
X149027863Y-92940760D01*
X149047895Y-92944771D01*
X149068169Y-92949165D01*
X149088161Y-92953827D01*
X149107871Y-92958758D01*
X149127297Y-92963957D01*
X149146442Y-92969426D01*
X149165304Y-92975163D01*
X149183883Y-92981169D01*
X149202180Y-92987444D01*
X149220194Y-92993987D01*
X149237926Y-93000799D01*
X149255376Y-93007880D01*
X149272543Y-93015230D01*
X149289427Y-93022849D01*
X149306029Y-93030736D01*
X149322348Y-93038892D01*
X149338385Y-93047317D01*
X149354139Y-93056010D01*
X149369611Y-93064973D01*
X149384801Y-93074204D01*
X149399708Y-93083704D01*
X149414332Y-93093472D01*
X149442733Y-93113816D01*
X149470004Y-93135234D01*
X149496146Y-93157728D01*
X149521157Y-93181297D01*
X149545038Y-93205940D01*
X149556555Y-93218665D01*
X149578595Y-93244753D01*
X149599214Y-93271470D01*
X149618410Y-93298815D01*
X149636184Y-93326788D01*
X149652537Y-93355391D01*
X149667467Y-93384621D01*
X149680976Y-93414481D01*
X149693062Y-93444968D01*
X149703727Y-93476085D01*
X149712970Y-93507830D01*
X149720790Y-93540203D01*
X149727189Y-93573205D01*
X149732166Y-93606836D01*
X149735721Y-93641095D01*
X149737854Y-93675982D01*
X149738387Y-93693662D01*
X149738565Y-93711498D01*
X149738183Y-93740336D01*
X149737040Y-93768267D01*
X149735134Y-93795291D01*
X149732465Y-93821408D01*
X149729034Y-93846618D01*
X149724840Y-93870922D01*
X149719884Y-93894319D01*
X149714165Y-93916809D01*
X149707684Y-93938392D01*
X149700440Y-93959069D01*
X149692434Y-93978839D01*
X149683665Y-93997702D01*
X149674134Y-94015659D01*
X149663840Y-94032708D01*
X149652784Y-94048851D01*
X149640965Y-94064087D01*
X149628422Y-94078482D01*
X149615082Y-94092101D01*
X149600945Y-94104943D01*
X149586011Y-94117009D01*
X149570280Y-94128298D01*
X149553752Y-94138812D01*
X149536428Y-94148549D01*
X149518307Y-94157510D01*
X149499388Y-94165695D01*
X149479673Y-94173104D01*
X149459162Y-94179736D01*
X149437853Y-94185592D01*
X149415747Y-94190672D01*
X149392845Y-94194976D01*
X149369146Y-94198503D01*
X149344650Y-94201254D01*
G37*
G36*
X148882009Y-94324210D02*
G01*
X148906916Y-94325156D01*
X148932361Y-94326862D01*
X148958346Y-94329326D01*
X148984870Y-94332549D01*
X149011934Y-94336532D01*
X149039537Y-94341273D01*
X149067678Y-94346774D01*
X149089396Y-94351650D01*
X149111024Y-94357154D01*
X149132563Y-94363286D01*
X149154012Y-94370047D01*
X149175372Y-94377437D01*
X149196643Y-94385455D01*
X149217825Y-94394102D01*
X149238917Y-94403377D01*
X149259920Y-94413281D01*
X149280834Y-94423814D01*
X149301658Y-94434975D01*
X149322393Y-94446764D01*
X149343039Y-94459182D01*
X149363595Y-94472229D01*
X149384063Y-94485904D01*
X149404441Y-94500207D01*
X149424473Y-94515090D01*
X149443905Y-94530391D01*
X149462735Y-94546112D01*
X149480965Y-94562251D01*
X149498593Y-94578810D01*
X149515621Y-94595787D01*
X149532047Y-94613184D01*
X149547872Y-94631000D01*
X149563096Y-94649234D01*
X149577719Y-94667888D01*
X149591741Y-94686960D01*
X149605162Y-94706452D01*
X149617982Y-94726363D01*
X149630201Y-94746693D01*
X149641819Y-94767442D01*
X149652836Y-94788609D01*
X149663217Y-94810054D01*
X149672928Y-94831632D01*
X149681970Y-94853344D01*
X149690342Y-94875190D01*
X149698044Y-94897171D01*
X149705077Y-94919285D01*
X149711439Y-94941533D01*
X149717132Y-94963915D01*
X149722156Y-94986431D01*
X149726509Y-95009081D01*
X149730193Y-95031864D01*
X149733207Y-95054782D01*
X149735551Y-95077834D01*
X149737225Y-95101020D01*
X149738230Y-95124339D01*
X149738565Y-95147793D01*
X149738375Y-95165868D01*
X149737806Y-95183659D01*
X149735529Y-95218389D01*
X149731733Y-95251982D01*
X149726420Y-95284438D01*
X149719588Y-95315757D01*
X149711239Y-95345939D01*
X149701371Y-95374984D01*
X149689985Y-95402892D01*
X149677081Y-95429664D01*
X149662659Y-95455299D01*
X149646718Y-95479796D01*
X149629260Y-95503157D01*
X149610283Y-95525381D01*
X149589789Y-95546468D01*
X149567776Y-95566419D01*
X149544245Y-95585232D01*
X149519553Y-95602665D01*
X149494058Y-95618473D01*
X149467759Y-95632656D01*
X149440656Y-95645215D01*
X149412749Y-95656149D01*
X149384039Y-95665459D01*
X149354525Y-95673144D01*
X149324207Y-95679204D01*
X149293085Y-95683640D01*
X149261160Y-95686451D01*
X149228431Y-95687638D01*
X149194898Y-95687200D01*
X149160562Y-95685138D01*
X149125422Y-95681451D01*
X149107551Y-95678998D01*
X149089478Y-95676139D01*
X149071205Y-95672874D01*
X149052731Y-95669203D01*
X149034146Y-95665165D01*
X149015760Y-95660801D01*
X148997574Y-95656111D01*
X148979586Y-95651095D01*
X148961798Y-95645752D01*
X148944209Y-95640083D01*
X148926819Y-95634088D01*
X148909629Y-95627767D01*
X148892638Y-95621119D01*
X148875846Y-95614145D01*
X148859253Y-95606845D01*
X148842859Y-95599218D01*
X148826665Y-95591265D01*
X148810669Y-95582986D01*
X148794873Y-95574380D01*
X148779277Y-95565448D01*
X148763879Y-95556190D01*
X148748681Y-95546606D01*
X148733681Y-95536695D01*
X148718881Y-95526458D01*
X148704281Y-95515895D01*
X148689879Y-95505005D01*
X148675677Y-95493789D01*
X148661674Y-95482247D01*
X148647870Y-95470378D01*
X148634265Y-95458184D01*
X148620859Y-95445663D01*
X148607653Y-95432815D01*
X148594646Y-95419642D01*
X148581838Y-95406142D01*
X148569230Y-95392315D01*
X148556820Y-95378163D01*
X148544703Y-95363792D01*
X148532970Y-95349312D01*
X148521622Y-95334721D01*
X148510658Y-95320021D01*
X148500079Y-95305211D01*
X148489885Y-95290290D01*
X148480076Y-95275260D01*
X148470651Y-95260120D01*
X148461611Y-95244870D01*
X148452956Y-95229510D01*
X148436799Y-95198461D01*
X148422181Y-95166972D01*
X148409102Y-95135043D01*
X148397562Y-95102675D01*
X148387560Y-95069867D01*
X148379097Y-95036620D01*
X148372173Y-95002933D01*
X148366787Y-94968806D01*
X148362940Y-94934239D01*
X148361657Y-94914785D01*
X148613094Y-94914785D01*
X148614079Y-94939510D01*
X148617035Y-94963894D01*
X148621962Y-94987938D01*
X148628859Y-95011643D01*
X148637727Y-95035007D01*
X148648565Y-95058031D01*
X148661374Y-95080716D01*
X148671009Y-95095650D01*
X148681519Y-95110432D01*
X148692905Y-95125064D01*
X148705166Y-95139545D01*
X148718304Y-95153874D01*
X148725201Y-95160982D01*
X148739666Y-95174944D01*
X148754925Y-95188363D01*
X148770977Y-95201240D01*
X148787822Y-95213574D01*
X148805461Y-95225365D01*
X148823893Y-95236613D01*
X148843118Y-95247319D01*
X148863137Y-95257482D01*
X148883950Y-95267103D01*
X148905555Y-95276181D01*
X148927955Y-95284716D01*
X148951147Y-95292708D01*
X148975133Y-95300158D01*
X148999913Y-95307065D01*
X149025485Y-95313430D01*
X149051852Y-95319251D01*
X149077577Y-95324261D01*
X149102547Y-95328408D01*
X149126762Y-95331693D01*
X149150220Y-95334117D01*
X149172924Y-95335678D01*
X149194871Y-95336377D01*
X149216063Y-95336214D01*
X149236499Y-95335188D01*
X149256180Y-95333301D01*
X149275105Y-95330551D01*
X149293274Y-95326940D01*
X149310688Y-95322466D01*
X149335392Y-95314139D01*
X149358395Y-95303873D01*
X149372787Y-95295951D01*
X149392900Y-95282841D01*
X149411035Y-95268573D01*
X149427192Y-95253145D01*
X149441370Y-95236558D01*
X149453570Y-95218812D01*
X149463792Y-95199907D01*
X149472035Y-95179843D01*
X149478300Y-95158619D01*
X149482586Y-95136236D01*
X149484894Y-95112694D01*
X149485334Y-95096355D01*
X149484345Y-95071623D01*
X149481377Y-95047216D01*
X149476431Y-95023133D01*
X149469507Y-94999374D01*
X149460604Y-94975940D01*
X149449723Y-94952831D01*
X149436864Y-94930046D01*
X149427192Y-94915037D01*
X149416640Y-94900172D01*
X149405210Y-94885451D01*
X149392900Y-94870874D01*
X149379711Y-94856441D01*
X149372787Y-94849279D01*
X149358385Y-94835319D01*
X149343207Y-94821905D01*
X149327253Y-94809037D01*
X149310523Y-94796715D01*
X149293017Y-94784939D01*
X149274734Y-94773710D01*
X149255675Y-94763026D01*
X149235840Y-94752889D01*
X149215228Y-94743298D01*
X149193841Y-94734252D01*
X149171677Y-94725753D01*
X149148737Y-94717800D01*
X149125020Y-94710393D01*
X149100528Y-94703533D01*
X149075259Y-94697218D01*
X149049214Y-94691450D01*
X149023167Y-94686389D01*
X148997893Y-94682197D01*
X148973392Y-94678874D01*
X148949663Y-94676420D01*
X148926708Y-94674834D01*
X148904525Y-94674118D01*
X148883115Y-94674271D01*
X148862478Y-94675293D01*
X148842613Y-94677184D01*
X148823522Y-94679943D01*
X148805203Y-94683572D01*
X148787657Y-94688070D01*
X148770884Y-94693437D01*
X148747173Y-94703116D01*
X148725201Y-94714750D01*
X148705166Y-94727938D01*
X148687102Y-94742277D01*
X148671009Y-94757768D01*
X148656886Y-94774411D01*
X148644733Y-94792204D01*
X148634552Y-94811149D01*
X148626341Y-94831246D01*
X148620100Y-94852494D01*
X148615831Y-94874894D01*
X148613532Y-94898445D01*
X148613094Y-94914785D01*
X148361657Y-94914785D01*
X148360632Y-94899233D01*
X148360055Y-94881565D01*
X148359863Y-94863787D01*
X148360182Y-94841826D01*
X148361140Y-94820126D01*
X148362738Y-94798687D01*
X148364974Y-94777509D01*
X148367848Y-94756591D01*
X148371362Y-94735935D01*
X148375514Y-94715540D01*
X148380306Y-94695406D01*
X148385736Y-94675533D01*
X148391805Y-94655921D01*
X148398513Y-94636571D01*
X148405860Y-94617481D01*
X148413845Y-94598652D01*
X148422470Y-94580084D01*
X148431733Y-94561777D01*
X148441635Y-94543732D01*
X148452209Y-94526179D01*
X148463377Y-94509351D01*
X148475139Y-94493247D01*
X148487495Y-94477868D01*
X148500445Y-94463214D01*
X148513990Y-94449285D01*
X148528129Y-94436081D01*
X148542862Y-94423601D01*
X148558189Y-94411846D01*
X148574110Y-94400815D01*
X148590626Y-94390509D01*
X148607736Y-94380928D01*
X148625440Y-94372072D01*
X148643738Y-94363941D01*
X148662630Y-94356534D01*
X148682117Y-94349852D01*
X148702170Y-94343966D01*
X148722763Y-94338840D01*
X148743894Y-94334473D01*
X148765565Y-94330865D01*
X148787776Y-94328016D01*
X148810525Y-94325926D01*
X148833814Y-94324595D01*
X148857642Y-94324023D01*
X148882009Y-94324210D01*
G37*
D12*
G36*
X147991025Y-89239945D02*
G01*
X147990996Y-89247179D01*
X147990910Y-89254195D01*
X147990767Y-89260994D01*
X147990567Y-89267575D01*
X147990309Y-89273939D01*
X147989994Y-89280085D01*
X147989622Y-89286013D01*
X147989193Y-89291724D01*
X147988706Y-89297218D01*
X147988162Y-89302494D01*
X147987561Y-89307553D01*
X147986903Y-89312393D01*
X147985808Y-89319247D01*
X147984585Y-89325611D01*
X147983697Y-89329582D01*
X147982382Y-89334936D01*
X147980938Y-89340191D01*
X147979367Y-89345347D01*
X147977668Y-89350404D01*
X147975841Y-89355361D01*
X147973886Y-89360219D01*
X147971803Y-89364978D01*
X147969592Y-89369638D01*
X147967254Y-89374198D01*
X147964788Y-89378660D01*
X147962193Y-89383022D01*
X147959471Y-89387284D01*
X147956622Y-89391448D01*
X147953644Y-89395512D01*
X147950539Y-89399478D01*
X147947305Y-89403343D01*
X147942987Y-89408256D01*
X147938522Y-89413010D01*
X147933909Y-89417606D01*
X147929147Y-89422043D01*
X147924238Y-89426322D01*
X147919181Y-89430443D01*
X147913976Y-89434405D01*
X147908623Y-89438209D01*
X147903122Y-89441855D01*
X147897474Y-89445342D01*
X147891677Y-89448671D01*
X147885733Y-89451841D01*
X147879641Y-89454853D01*
X147873401Y-89457707D01*
X147867013Y-89460402D01*
X147860477Y-89462939D01*
X147853823Y-89465334D01*
X147847051Y-89467575D01*
X147840161Y-89469662D01*
X147833152Y-89471594D01*
X147826025Y-89473371D01*
X147818780Y-89474994D01*
X147811416Y-89476463D01*
X147803935Y-89477776D01*
X147796334Y-89478936D01*
X147788616Y-89479940D01*
X147780779Y-89480790D01*
X147772824Y-89481486D01*
X147764751Y-89482027D01*
X147756559Y-89482413D01*
X147748249Y-89482645D01*
X147739821Y-89482722D01*
X147732637Y-89482670D01*
X147725556Y-89482512D01*
X147718577Y-89482250D01*
X147711702Y-89481883D01*
X147704930Y-89481410D01*
X147698261Y-89480833D01*
X147691695Y-89480151D01*
X147685233Y-89479364D01*
X147678873Y-89478472D01*
X147672616Y-89477475D01*
X147666462Y-89476373D01*
X147660411Y-89475166D01*
X147654464Y-89473854D01*
X147648619Y-89472437D01*
X147642877Y-89470916D01*
X147637239Y-89469289D01*
X147631712Y-89467595D01*
X147626305Y-89465841D01*
X147621019Y-89464027D01*
X147615852Y-89462153D01*
X147610806Y-89460218D01*
X147605880Y-89458224D01*
X147601075Y-89456169D01*
X147596389Y-89454054D01*
X147591824Y-89451880D01*
X147587379Y-89449645D01*
X147583054Y-89447350D01*
X147576792Y-89443794D01*
X147570801Y-89440104D01*
X147565080Y-89436278D01*
X147563233Y-89434973D01*
X147557847Y-89431022D01*
X147552680Y-89427000D01*
X147547732Y-89422908D01*
X147543003Y-89418744D01*
X147538493Y-89414510D01*
X147534202Y-89410205D01*
X147530130Y-89405829D01*
X147526276Y-89401382D01*
X147522642Y-89396864D01*
X147519227Y-89392276D01*
X147517071Y-89389177D01*
X147514005Y-89384415D01*
X147511081Y-89379470D01*
X147508298Y-89374343D01*
X147505657Y-89369033D01*
X147503157Y-89363541D01*
X147500800Y-89357866D01*
X147498584Y-89352009D01*
X147496509Y-89345969D01*
X147494576Y-89339747D01*
X147492785Y-89333343D01*
X147491670Y-89328971D01*
X147490121Y-89322285D01*
X147488723Y-89315413D01*
X147487479Y-89308357D01*
X147486386Y-89301116D01*
X147485743Y-89296187D01*
X147485167Y-89291175D01*
X147484659Y-89286081D01*
X147484219Y-89280905D01*
X147483846Y-89275647D01*
X147483541Y-89270307D01*
X147483304Y-89264885D01*
X147483135Y-89259381D01*
X147483033Y-89253795D01*
X147483000Y-89248127D01*
X147483000Y-89133089D01*
X147541618Y-89133089D01*
X147541618Y-89240556D01*
X147541655Y-89246700D01*
X147541765Y-89252676D01*
X147541948Y-89258485D01*
X147542205Y-89264125D01*
X147542536Y-89269598D01*
X147542940Y-89274902D01*
X147543418Y-89280039D01*
X147543969Y-89285008D01*
X147544933Y-89292146D01*
X147546062Y-89298907D01*
X147547357Y-89305289D01*
X147548817Y-89311294D01*
X147550443Y-89316922D01*
X147551021Y-89318713D01*
X147552852Y-89323925D01*
X147554818Y-89328934D01*
X147556919Y-89333742D01*
X147559156Y-89338348D01*
X147561527Y-89342752D01*
X147564034Y-89346955D01*
X147567587Y-89352244D01*
X147571381Y-89357175D01*
X147575414Y-89361747D01*
X147577521Y-89363898D01*
X147582178Y-89368248D01*
X147587127Y-89372413D01*
X147592368Y-89376394D01*
X147597900Y-89380190D01*
X147603725Y-89383801D01*
X147609842Y-89387228D01*
X147616250Y-89390470D01*
X147620685Y-89392529D01*
X147625249Y-89394506D01*
X147629943Y-89396401D01*
X147634767Y-89398214D01*
X147639720Y-89399944D01*
X147642246Y-89400779D01*
X147647396Y-89402391D01*
X147652681Y-89403899D01*
X147658101Y-89405303D01*
X147663655Y-89406603D01*
X147669344Y-89407798D01*
X147675167Y-89408890D01*
X147681125Y-89409878D01*
X147687217Y-89410762D01*
X147693444Y-89411542D01*
X147699805Y-89412218D01*
X147706301Y-89412790D01*
X147712931Y-89413258D01*
X147719696Y-89413622D01*
X147726595Y-89413882D01*
X147733629Y-89414038D01*
X147740798Y-89414090D01*
X147745784Y-89414065D01*
X147750696Y-89413988D01*
X147760303Y-89413684D01*
X147769618Y-89413176D01*
X147778640Y-89412464D01*
X147787371Y-89411550D01*
X147795810Y-89410432D01*
X147803957Y-89409111D01*
X147811811Y-89407587D01*
X147819374Y-89405860D01*
X147826645Y-89403929D01*
X147833624Y-89401795D01*
X147840312Y-89399458D01*
X147846707Y-89396918D01*
X147852810Y-89394175D01*
X147858621Y-89391228D01*
X147864140Y-89388078D01*
X147869418Y-89384798D01*
X147874473Y-89381430D01*
X147879306Y-89377975D01*
X147883917Y-89374431D01*
X147888305Y-89370800D01*
X147892471Y-89367081D01*
X147896414Y-89363274D01*
X147900136Y-89359380D01*
X147903635Y-89355397D01*
X147906912Y-89351327D01*
X147909966Y-89347169D01*
X147912798Y-89342924D01*
X147915408Y-89338590D01*
X147917796Y-89334169D01*
X147919961Y-89329660D01*
X147921904Y-89325064D01*
X147923781Y-89319761D01*
X147925473Y-89313884D01*
X147926981Y-89307431D01*
X147928304Y-89300403D01*
X147929083Y-89295398D01*
X147929781Y-89290137D01*
X147930396Y-89284620D01*
X147930929Y-89278848D01*
X147931381Y-89272820D01*
X147931750Y-89266537D01*
X147932037Y-89259998D01*
X147932242Y-89253203D01*
X147932365Y-89246152D01*
X147932406Y-89238846D01*
X147932406Y-89133089D01*
X147541618Y-89133089D01*
X147483000Y-89133089D01*
X147483000Y-89066410D01*
X147991025Y-89066410D01*
X147991025Y-89239945D01*
G37*
G36*
X147669355Y-89543097D02*
G01*
X147675011Y-89543235D01*
X147680587Y-89543467D01*
X147686082Y-89543791D01*
X147691496Y-89544207D01*
X147696829Y-89544716D01*
X147702081Y-89545318D01*
X147707253Y-89546012D01*
X147712343Y-89546798D01*
X147717353Y-89547678D01*
X147722282Y-89548649D01*
X147727130Y-89549714D01*
X147731897Y-89550870D01*
X147741189Y-89553462D01*
X147750157Y-89556423D01*
X147758802Y-89559755D01*
X147767123Y-89563457D01*
X147775121Y-89567529D01*
X147782796Y-89571971D01*
X147790147Y-89576783D01*
X147797175Y-89581966D01*
X147803879Y-89587518D01*
X147807110Y-89590433D01*
X147813291Y-89596467D01*
X147819074Y-89602720D01*
X147824458Y-89609194D01*
X147829443Y-89615888D01*
X147834029Y-89622803D01*
X147838216Y-89629938D01*
X147842005Y-89637293D01*
X147845395Y-89644869D01*
X147848386Y-89652665D01*
X147850978Y-89660682D01*
X147853171Y-89668919D01*
X147854966Y-89677376D01*
X147856362Y-89686054D01*
X147857359Y-89694952D01*
X147857957Y-89704071D01*
X147858157Y-89713410D01*
X147857958Y-89722449D01*
X147857361Y-89731278D01*
X147856366Y-89739897D01*
X147854974Y-89748306D01*
X147853183Y-89756505D01*
X147850995Y-89764495D01*
X147848409Y-89772274D01*
X147845425Y-89779844D01*
X147842044Y-89787203D01*
X147838264Y-89794353D01*
X147834087Y-89801293D01*
X147829511Y-89808023D01*
X147824538Y-89814543D01*
X147819167Y-89820854D01*
X147813399Y-89826954D01*
X147807232Y-89832844D01*
X147800705Y-89838464D01*
X147793854Y-89843721D01*
X147786680Y-89848615D01*
X147779182Y-89853147D01*
X147771361Y-89857316D01*
X147763217Y-89861123D01*
X147754749Y-89864567D01*
X147745957Y-89867649D01*
X147736843Y-89870368D01*
X147727405Y-89872725D01*
X147722564Y-89873767D01*
X147717643Y-89874719D01*
X147712641Y-89875580D01*
X147707558Y-89876350D01*
X147702394Y-89877030D01*
X147697149Y-89877619D01*
X147691824Y-89878118D01*
X147686418Y-89878526D01*
X147680930Y-89878843D01*
X147675362Y-89879069D01*
X147669713Y-89879205D01*
X147663983Y-89879251D01*
X147658980Y-89879216D01*
X147653604Y-89879135D01*
X147648513Y-89879036D01*
X147647131Y-89879006D01*
X147647131Y-89610339D01*
X147697933Y-89610339D01*
X147697933Y-89814038D01*
X147703853Y-89813460D01*
X147709584Y-89812765D01*
X147715127Y-89811953D01*
X147720480Y-89811023D01*
X147725644Y-89809976D01*
X147730620Y-89808811D01*
X147735406Y-89807530D01*
X147742232Y-89805387D01*
X147748633Y-89802980D01*
X147754608Y-89800309D01*
X147760159Y-89797374D01*
X147765284Y-89794176D01*
X147769985Y-89790713D01*
X147774510Y-89786950D01*
X147778743Y-89783051D01*
X147782685Y-89779016D01*
X147786334Y-89774844D01*
X147789691Y-89770536D01*
X147792757Y-89766092D01*
X147795530Y-89761511D01*
X147798012Y-89756793D01*
X147800201Y-89751940D01*
X147802099Y-89746949D01*
X147803705Y-89741823D01*
X147805018Y-89736559D01*
X147806040Y-89731160D01*
X147806770Y-89725624D01*
X147807208Y-89719951D01*
X147807354Y-89714142D01*
X147807238Y-89708868D01*
X147806888Y-89703699D01*
X147806306Y-89698636D01*
X147805492Y-89693679D01*
X147804444Y-89688828D01*
X147803164Y-89684083D01*
X147800807Y-89677164D01*
X147797926Y-89670484D01*
X147794521Y-89664041D01*
X147791961Y-89659878D01*
X147789167Y-89655822D01*
X147786141Y-89651871D01*
X147782882Y-89648026D01*
X147779390Y-89644287D01*
X147777556Y-89642457D01*
X147773753Y-89638940D01*
X147769794Y-89635624D01*
X147765678Y-89632510D01*
X147761406Y-89629596D01*
X147756977Y-89626884D01*
X147752392Y-89624374D01*
X147747650Y-89622064D01*
X147742752Y-89619956D01*
X147737697Y-89618050D01*
X147732486Y-89616344D01*
X147727118Y-89614840D01*
X147721594Y-89613537D01*
X147715914Y-89612436D01*
X147710077Y-89611536D01*
X147704083Y-89610837D01*
X147697933Y-89610339D01*
X147647131Y-89610339D01*
X147647131Y-89606920D01*
X147639895Y-89607453D01*
X147632875Y-89608198D01*
X147626069Y-89609155D01*
X147619478Y-89610324D01*
X147613101Y-89611705D01*
X147606939Y-89613297D01*
X147600992Y-89615101D01*
X147595260Y-89617117D01*
X147589742Y-89619345D01*
X147584439Y-89621784D01*
X147579350Y-89624436D01*
X147574476Y-89627299D01*
X147569817Y-89630374D01*
X147565372Y-89633661D01*
X147561142Y-89637159D01*
X147557127Y-89640870D01*
X147553356Y-89644760D01*
X147549829Y-89648767D01*
X147546544Y-89652892D01*
X147543503Y-89657135D01*
X147540705Y-89661494D01*
X147538151Y-89665971D01*
X147535839Y-89670566D01*
X147533771Y-89675277D01*
X147531947Y-89680106D01*
X147530365Y-89685053D01*
X147529027Y-89690116D01*
X147527933Y-89695298D01*
X147527081Y-89700596D01*
X147526473Y-89706012D01*
X147526108Y-89711545D01*
X147525986Y-89717195D01*
X147526142Y-89723474D01*
X147526609Y-89729579D01*
X147527387Y-89735510D01*
X147528476Y-89741267D01*
X147529877Y-89746850D01*
X147531589Y-89752259D01*
X147533612Y-89757494D01*
X147535947Y-89762556D01*
X147538593Y-89767444D01*
X147541550Y-89772157D01*
X147543694Y-89775203D01*
X147547200Y-89779626D01*
X147551077Y-89783873D01*
X147555326Y-89787944D01*
X147559946Y-89791838D01*
X147564937Y-89795557D01*
X147570300Y-89799100D01*
X147576034Y-89802467D01*
X147582139Y-89805657D01*
X147588616Y-89808672D01*
X147593140Y-89810584D01*
X147597830Y-89812418D01*
X147600236Y-89813305D01*
X147592420Y-89877297D01*
X147585557Y-89875303D01*
X147578888Y-89873108D01*
X147572413Y-89870712D01*
X147566134Y-89868115D01*
X147560049Y-89865316D01*
X147554158Y-89862316D01*
X147548462Y-89859114D01*
X147542961Y-89855712D01*
X147537655Y-89852108D01*
X147532543Y-89848302D01*
X147527625Y-89844296D01*
X147522903Y-89840088D01*
X147518375Y-89835679D01*
X147514041Y-89831068D01*
X147509902Y-89826256D01*
X147505958Y-89821243D01*
X147502232Y-89816041D01*
X147498746Y-89810662D01*
X147495500Y-89805107D01*
X147492494Y-89799376D01*
X147489730Y-89793467D01*
X147487205Y-89787383D01*
X147484921Y-89781122D01*
X147482877Y-89774684D01*
X147481074Y-89768070D01*
X147479511Y-89761279D01*
X147478189Y-89754312D01*
X147477107Y-89747169D01*
X147476266Y-89739849D01*
X147475665Y-89732352D01*
X147475304Y-89724679D01*
X147475184Y-89716829D01*
X147475232Y-89711862D01*
X147475377Y-89706960D01*
X147475957Y-89697349D01*
X147476923Y-89687997D01*
X147478275Y-89678903D01*
X147480014Y-89670068D01*
X147482139Y-89661491D01*
X147484651Y-89653173D01*
X147487549Y-89645113D01*
X147490833Y-89637312D01*
X147494504Y-89629770D01*
X147498561Y-89622486D01*
X147503005Y-89615461D01*
X147507835Y-89608694D01*
X147513051Y-89602186D01*
X147518654Y-89595936D01*
X147524643Y-89589945D01*
X147530996Y-89584266D01*
X147537660Y-89578954D01*
X147544636Y-89574008D01*
X147551922Y-89569429D01*
X147559519Y-89565215D01*
X147567427Y-89561369D01*
X147575647Y-89557888D01*
X147584177Y-89554774D01*
X147593018Y-89552026D01*
X147602171Y-89549645D01*
X147611634Y-89547630D01*
X147616483Y-89546760D01*
X147621409Y-89545981D01*
X147626413Y-89545294D01*
X147631494Y-89544699D01*
X147636654Y-89544195D01*
X147641891Y-89543783D01*
X147647206Y-89543462D01*
X147652598Y-89543234D01*
X147658069Y-89543096D01*
X147663617Y-89543050D01*
X147669355Y-89543097D01*
G37*
G36*
X147483000Y-90054251D02*
G01*
X147850341Y-89915521D01*
X147850341Y-89980856D01*
X147629912Y-90059135D01*
X147623201Y-90061499D01*
X147616441Y-90063825D01*
X147609631Y-90066115D01*
X147602772Y-90068369D01*
X147595864Y-90070586D01*
X147588906Y-90072767D01*
X147581899Y-90074911D01*
X147577200Y-90076320D01*
X147572479Y-90077713D01*
X147567737Y-90079090D01*
X147562972Y-90080450D01*
X147558185Y-90081795D01*
X147555784Y-90082461D01*
X147561338Y-90084074D01*
X147567100Y-90085798D01*
X147573070Y-90087634D01*
X147579248Y-90089582D01*
X147585635Y-90091641D01*
X147592230Y-90093812D01*
X147599033Y-90096095D01*
X147603684Y-90097679D01*
X147608428Y-90099312D01*
X147613264Y-90100995D01*
X147618193Y-90102728D01*
X147623214Y-90104510D01*
X147625759Y-90105419D01*
X147850341Y-90186508D01*
X147850341Y-90250133D01*
X147483000Y-90112014D01*
X147483000Y-90054251D01*
G37*
G36*
X147669355Y-90282175D02*
G01*
X147675011Y-90282314D01*
X147680587Y-90282546D01*
X147686082Y-90282870D01*
X147691496Y-90283286D01*
X147696829Y-90283795D01*
X147702081Y-90284397D01*
X147707253Y-90285091D01*
X147712343Y-90285877D01*
X147717353Y-90286756D01*
X147722282Y-90287728D01*
X147727130Y-90288792D01*
X147731897Y-90289949D01*
X147741189Y-90292541D01*
X147750157Y-90295502D01*
X147758802Y-90298834D01*
X147767123Y-90302535D01*
X147775121Y-90306607D01*
X147782796Y-90311050D01*
X147790147Y-90315862D01*
X147797175Y-90321044D01*
X147803879Y-90326597D01*
X147807110Y-90329512D01*
X147813291Y-90335545D01*
X147819074Y-90341799D01*
X147824458Y-90348273D01*
X147829443Y-90354967D01*
X147834029Y-90361882D01*
X147838216Y-90369017D01*
X147842005Y-90376372D01*
X147845395Y-90383948D01*
X147848386Y-90391744D01*
X147850978Y-90399761D01*
X147853171Y-90407998D01*
X147854966Y-90416455D01*
X147856362Y-90425133D01*
X147857359Y-90434031D01*
X147857957Y-90443150D01*
X147858157Y-90452489D01*
X147857958Y-90461527D01*
X147857361Y-90470356D01*
X147856366Y-90478976D01*
X147854974Y-90487385D01*
X147853183Y-90495584D01*
X147850995Y-90503573D01*
X147848409Y-90511353D01*
X147845425Y-90518923D01*
X147842044Y-90526282D01*
X147838264Y-90533432D01*
X147834087Y-90540372D01*
X147829511Y-90547102D01*
X147824538Y-90553622D01*
X147819167Y-90559933D01*
X147813399Y-90566033D01*
X147807232Y-90571923D01*
X147800705Y-90577543D01*
X147793854Y-90582800D01*
X147786680Y-90587694D01*
X147779182Y-90592226D01*
X147771361Y-90596395D01*
X147763217Y-90600202D01*
X147754749Y-90603646D01*
X147745957Y-90606728D01*
X147736843Y-90609447D01*
X147727405Y-90611804D01*
X147722564Y-90612846D01*
X147717643Y-90613798D01*
X147712641Y-90614659D01*
X147707558Y-90615429D01*
X147702394Y-90616109D01*
X147697149Y-90616698D01*
X147691824Y-90617197D01*
X147686418Y-90617604D01*
X147680930Y-90617922D01*
X147675362Y-90618148D01*
X147669713Y-90618284D01*
X147663983Y-90618329D01*
X147658980Y-90618295D01*
X147653604Y-90618214D01*
X147648513Y-90618115D01*
X147647131Y-90618085D01*
X147647131Y-90349418D01*
X147697933Y-90349418D01*
X147697933Y-90553117D01*
X147703853Y-90552539D01*
X147709584Y-90551844D01*
X147715127Y-90551031D01*
X147720480Y-90550102D01*
X147725644Y-90549055D01*
X147730620Y-90547890D01*
X147735406Y-90546608D01*
X147742232Y-90544466D01*
X147748633Y-90542059D01*
X147754608Y-90539388D01*
X147760159Y-90536453D01*
X147765284Y-90533254D01*
X147769985Y-90529791D01*
X147774510Y-90526029D01*
X147778743Y-90522130D01*
X147782685Y-90518095D01*
X147786334Y-90513923D01*
X147789691Y-90509615D01*
X147792757Y-90505171D01*
X147795530Y-90500590D01*
X147798012Y-90495872D01*
X147800201Y-90491018D01*
X147802099Y-90486028D01*
X147803705Y-90480901D01*
X147805018Y-90475638D01*
X147806040Y-90470239D01*
X147806770Y-90464703D01*
X147807208Y-90459030D01*
X147807354Y-90453221D01*
X147807238Y-90447947D01*
X147806888Y-90442778D01*
X147806306Y-90437715D01*
X147805492Y-90432758D01*
X147804444Y-90427907D01*
X147803164Y-90423162D01*
X147800807Y-90416243D01*
X147797926Y-90409562D01*
X147794521Y-90403120D01*
X147791961Y-90398957D01*
X147789167Y-90394901D01*
X147786141Y-90390950D01*
X147782882Y-90387105D01*
X147779390Y-90383366D01*
X147777556Y-90381536D01*
X147773753Y-90378019D01*
X147769794Y-90374703D01*
X147765678Y-90371588D01*
X147761406Y-90368675D01*
X147756977Y-90365963D01*
X147752392Y-90363453D01*
X147747650Y-90361143D01*
X147742752Y-90359035D01*
X147737697Y-90357128D01*
X147732486Y-90355423D01*
X147727118Y-90353919D01*
X147721594Y-90352616D01*
X147715914Y-90351515D01*
X147710077Y-90350614D01*
X147704083Y-90349916D01*
X147697933Y-90349418D01*
X147647131Y-90349418D01*
X147647131Y-90345999D01*
X147639895Y-90346532D01*
X147632875Y-90347277D01*
X147626069Y-90348234D01*
X147619478Y-90349403D01*
X147613101Y-90350783D01*
X147606939Y-90352376D01*
X147600992Y-90354180D01*
X147595260Y-90356196D01*
X147589742Y-90358424D01*
X147584439Y-90360863D01*
X147579350Y-90363515D01*
X147574476Y-90366378D01*
X147569817Y-90369453D01*
X147565372Y-90372739D01*
X147561142Y-90376238D01*
X147557127Y-90379948D01*
X147553356Y-90383839D01*
X147549829Y-90387846D01*
X147546544Y-90391971D01*
X147543503Y-90396213D01*
X147540705Y-90400573D01*
X147538151Y-90405050D01*
X147535839Y-90409644D01*
X147533771Y-90414356D01*
X147531947Y-90419185D01*
X147530365Y-90424132D01*
X147529027Y-90429195D01*
X147527933Y-90434376D01*
X147527081Y-90439675D01*
X147526473Y-90445091D01*
X147526108Y-90450624D01*
X147525986Y-90456274D01*
X147526142Y-90462553D01*
X147526609Y-90468658D01*
X147527387Y-90474589D01*
X147528476Y-90480346D01*
X147529877Y-90485929D01*
X147531589Y-90491338D01*
X147533612Y-90496573D01*
X147535947Y-90501635D01*
X147538593Y-90506522D01*
X147541550Y-90511236D01*
X147543694Y-90514282D01*
X147547200Y-90518705D01*
X147551077Y-90522952D01*
X147555326Y-90527022D01*
X147559946Y-90530917D01*
X147564937Y-90534636D01*
X147570300Y-90538179D01*
X147576034Y-90541545D01*
X147582139Y-90544736D01*
X147588616Y-90547751D01*
X147593140Y-90549663D01*
X147597830Y-90551496D01*
X147600236Y-90552384D01*
X147592420Y-90616376D01*
X147585557Y-90614382D01*
X147578888Y-90612187D01*
X147572413Y-90609791D01*
X147566134Y-90607194D01*
X147560049Y-90604395D01*
X147554158Y-90601395D01*
X147548462Y-90598193D01*
X147542961Y-90594791D01*
X147537655Y-90591187D01*
X147532543Y-90587381D01*
X147527625Y-90583375D01*
X147522903Y-90579167D01*
X147518375Y-90574757D01*
X147514041Y-90570147D01*
X147509902Y-90565335D01*
X147505958Y-90560322D01*
X147502232Y-90555120D01*
X147498746Y-90549741D01*
X147495500Y-90544186D01*
X147492494Y-90538454D01*
X147489730Y-90532546D01*
X147487205Y-90526462D01*
X147484921Y-90520201D01*
X147482877Y-90513763D01*
X147481074Y-90507149D01*
X147479511Y-90500358D01*
X147478189Y-90493391D01*
X147477107Y-90486248D01*
X147476266Y-90478927D01*
X147475665Y-90471431D01*
X147475304Y-90463758D01*
X147475184Y-90455908D01*
X147475232Y-90450941D01*
X147475377Y-90446039D01*
X147475957Y-90436428D01*
X147476923Y-90427075D01*
X147478275Y-90417982D01*
X147480014Y-90409146D01*
X147482139Y-90400570D01*
X147484651Y-90392252D01*
X147487549Y-90384192D01*
X147490833Y-90376391D01*
X147494504Y-90368849D01*
X147498561Y-90361565D01*
X147503005Y-90354540D01*
X147507835Y-90347773D01*
X147513051Y-90341265D01*
X147518654Y-90335015D01*
X147524643Y-90329024D01*
X147530996Y-90323345D01*
X147537660Y-90318033D01*
X147544636Y-90313087D01*
X147551922Y-90308507D01*
X147559519Y-90304294D01*
X147567427Y-90300447D01*
X147575647Y-90296967D01*
X147584177Y-90293853D01*
X147593018Y-90291105D01*
X147602171Y-90288724D01*
X147611634Y-90286709D01*
X147616483Y-90285839D01*
X147621409Y-90285060D01*
X147626413Y-90284373D01*
X147631494Y-90283778D01*
X147636654Y-90283274D01*
X147641891Y-90282862D01*
X147647206Y-90282541D01*
X147652598Y-90282312D01*
X147658069Y-90282175D01*
X147663617Y-90282129D01*
X147669355Y-90282175D01*
G37*
G36*
X147483000Y-90690625D02*
G01*
X147991025Y-90690625D01*
X147991025Y-90752541D01*
X147483000Y-90752541D01*
X147483000Y-90690625D01*
G37*
G36*
X147672977Y-90824403D02*
G01*
X147679180Y-90824569D01*
X147685281Y-90824844D01*
X147691279Y-90825230D01*
X147697175Y-90825726D01*
X147702967Y-90826332D01*
X147708657Y-90827048D01*
X147714244Y-90827875D01*
X147719728Y-90828811D01*
X147725110Y-90829858D01*
X147730388Y-90831015D01*
X147735564Y-90832282D01*
X147740637Y-90833660D01*
X147745607Y-90835147D01*
X147750474Y-90836745D01*
X147755239Y-90838453D01*
X147759900Y-90840272D01*
X147764459Y-90842200D01*
X147768915Y-90844239D01*
X147777519Y-90848646D01*
X147785712Y-90853495D01*
X147793493Y-90858784D01*
X147800864Y-90864515D01*
X147807823Y-90870686D01*
X147814370Y-90877297D01*
X147817490Y-90880768D01*
X147822415Y-90886726D01*
X147827021Y-90892845D01*
X147831310Y-90899125D01*
X147835282Y-90905567D01*
X147838935Y-90912169D01*
X147842271Y-90918933D01*
X147845289Y-90925858D01*
X147847990Y-90932945D01*
X147850373Y-90940192D01*
X147852438Y-90947601D01*
X147854185Y-90955171D01*
X147855615Y-90962903D01*
X147856727Y-90970795D01*
X147857521Y-90978849D01*
X147857998Y-90987064D01*
X147858157Y-90995440D01*
X147857963Y-91004736D01*
X147857382Y-91013818D01*
X147856413Y-91022684D01*
X147855058Y-91031336D01*
X147853315Y-91039774D01*
X147851184Y-91047997D01*
X147848666Y-91056005D01*
X147845761Y-91063798D01*
X147842469Y-91071377D01*
X147838789Y-91078741D01*
X147834722Y-91085890D01*
X147830267Y-91092825D01*
X147825425Y-91099545D01*
X147820196Y-91106050D01*
X147814579Y-91112341D01*
X147808575Y-91118417D01*
X147802245Y-91124199D01*
X147795619Y-91129608D01*
X147788697Y-91134644D01*
X147781480Y-91139307D01*
X147773966Y-91143597D01*
X147766157Y-91147514D01*
X147758052Y-91151058D01*
X147749652Y-91154229D01*
X147740955Y-91157027D01*
X147731963Y-91159451D01*
X147722675Y-91161503D01*
X147713092Y-91163182D01*
X147708189Y-91163881D01*
X147703212Y-91164487D01*
X147698161Y-91165000D01*
X147693037Y-91165420D01*
X147687838Y-91165746D01*
X147682566Y-91165980D01*
X147677220Y-91166120D01*
X147671799Y-91166166D01*
X147663079Y-91166084D01*
X147654593Y-91165836D01*
X147646344Y-91165423D01*
X147638330Y-91164846D01*
X147630552Y-91164103D01*
X147623010Y-91163195D01*
X147615703Y-91162122D01*
X147608632Y-91160884D01*
X147601796Y-91159481D01*
X147595197Y-91157913D01*
X147588833Y-91156180D01*
X147582704Y-91154282D01*
X147576811Y-91152219D01*
X147571154Y-91149991D01*
X147565732Y-91147598D01*
X147560547Y-91145039D01*
X147555549Y-91142323D01*
X147550693Y-91139456D01*
X147545978Y-91136438D01*
X147541404Y-91133270D01*
X147536971Y-91129950D01*
X147532680Y-91126481D01*
X147528530Y-91122860D01*
X147524521Y-91119088D01*
X147520653Y-91115166D01*
X147516926Y-91111093D01*
X147513341Y-91106870D01*
X147509897Y-91102495D01*
X147506594Y-91097970D01*
X147503432Y-91093294D01*
X147500411Y-91088467D01*
X147497532Y-91083490D01*
X147494826Y-91078423D01*
X147492294Y-91073299D01*
X147489937Y-91068116D01*
X147487755Y-91062874D01*
X147485747Y-91057575D01*
X147483914Y-91052217D01*
X147482255Y-91046802D01*
X147480771Y-91041328D01*
X147479461Y-91035795D01*
X147478326Y-91030205D01*
X147477366Y-91024556D01*
X147476580Y-91018850D01*
X147475969Y-91013085D01*
X147475533Y-91007261D01*
X147475271Y-91001380D01*
X147475184Y-90995440D01*
X147525986Y-90995440D01*
X147526124Y-91001135D01*
X147526538Y-91006708D01*
X147527227Y-91012160D01*
X147528192Y-91017491D01*
X147529433Y-91022701D01*
X147530949Y-91027789D01*
X147532742Y-91032757D01*
X147534810Y-91037603D01*
X147537153Y-91042328D01*
X147539773Y-91046932D01*
X147542668Y-91051414D01*
X147545839Y-91055776D01*
X147549285Y-91060016D01*
X147553008Y-91064136D01*
X147557006Y-91068134D01*
X147561279Y-91072011D01*
X147565836Y-91075708D01*
X147570681Y-91079166D01*
X147575815Y-91082386D01*
X147581239Y-91085368D01*
X147586951Y-91088111D01*
X147592953Y-91090615D01*
X147599243Y-91092881D01*
X147605823Y-91094908D01*
X147612692Y-91096697D01*
X147619850Y-91098248D01*
X147627297Y-91099559D01*
X147635033Y-91100633D01*
X147643058Y-91101468D01*
X147651373Y-91102064D01*
X147659976Y-91102422D01*
X147668868Y-91102541D01*
X147677272Y-91102421D01*
X147685416Y-91102060D01*
X147693300Y-91101459D01*
X147700925Y-91100617D01*
X147708291Y-91099536D01*
X147715397Y-91098213D01*
X147722243Y-91096650D01*
X147728830Y-91094847D01*
X147735157Y-91092804D01*
X147741225Y-91090520D01*
X147747034Y-91087995D01*
X147752583Y-91085230D01*
X147757872Y-91082225D01*
X147762902Y-91078979D01*
X147767672Y-91075493D01*
X147772183Y-91071766D01*
X147776442Y-91067876D01*
X147780426Y-91063868D01*
X147784136Y-91059744D01*
X147787570Y-91055501D01*
X147790730Y-91051142D01*
X147793615Y-91046665D01*
X147796226Y-91042070D01*
X147798561Y-91037359D01*
X147800622Y-91032530D01*
X147802408Y-91027583D01*
X147803919Y-91022519D01*
X147805156Y-91017338D01*
X147806118Y-91012040D01*
X147806804Y-91006624D01*
X147807217Y-91001091D01*
X147807354Y-90995440D01*
X147807218Y-90989702D01*
X147806808Y-90984087D01*
X147806126Y-90978596D01*
X147805171Y-90973230D01*
X147803943Y-90967987D01*
X147802442Y-90962868D01*
X147800669Y-90957874D01*
X147798622Y-90953003D01*
X147796303Y-90948257D01*
X147793711Y-90943634D01*
X147790846Y-90939136D01*
X147787708Y-90934761D01*
X147784297Y-90930511D01*
X147780613Y-90926385D01*
X147776657Y-90922382D01*
X147772427Y-90918504D01*
X147767922Y-90914807D01*
X147763137Y-90911348D01*
X147758072Y-90908128D01*
X147752728Y-90905147D01*
X147747104Y-90902404D01*
X147741200Y-90899899D01*
X147735018Y-90897634D01*
X147728555Y-90895606D01*
X147721813Y-90893817D01*
X147714792Y-90892267D01*
X147707491Y-90890955D01*
X147699910Y-90889882D01*
X147692050Y-90889047D01*
X147683910Y-90888451D01*
X147675491Y-90888093D01*
X147666792Y-90887974D01*
X147658107Y-90888093D01*
X147649699Y-90888451D01*
X147641567Y-90889047D01*
X147633713Y-90889882D01*
X147626134Y-90890955D01*
X147618833Y-90892267D01*
X147611808Y-90893817D01*
X147605060Y-90895606D01*
X147598588Y-90897634D01*
X147592394Y-90899899D01*
X147586475Y-90902404D01*
X147580834Y-90905147D01*
X147575469Y-90908128D01*
X147570381Y-90911348D01*
X147565570Y-90914807D01*
X147561035Y-90918504D01*
X147556791Y-90922382D01*
X147552821Y-90926385D01*
X147549124Y-90930511D01*
X147545701Y-90934761D01*
X147542552Y-90939136D01*
X147539677Y-90943634D01*
X147537076Y-90948257D01*
X147534748Y-90953003D01*
X147532695Y-90957874D01*
X147530915Y-90962868D01*
X147529409Y-90967987D01*
X147528177Y-90973230D01*
X147527218Y-90978596D01*
X147526534Y-90984087D01*
X147526123Y-90989702D01*
X147525986Y-90995440D01*
X147475184Y-90995440D01*
X147475376Y-90985984D01*
X147475955Y-90976756D01*
X147476918Y-90967757D01*
X147478267Y-90958987D01*
X147480002Y-90950446D01*
X147482122Y-90942134D01*
X147484627Y-90934052D01*
X147487518Y-90926198D01*
X147490794Y-90918573D01*
X147494456Y-90911177D01*
X147498503Y-90904010D01*
X147502936Y-90897072D01*
X147507754Y-90890363D01*
X147512957Y-90883882D01*
X147518546Y-90877631D01*
X147524521Y-90871609D01*
X147530858Y-90865886D01*
X147537534Y-90860533D01*
X147544551Y-90855548D01*
X147551907Y-90850933D01*
X147559602Y-90846687D01*
X147567637Y-90842810D01*
X147576012Y-90839302D01*
X147584727Y-90836164D01*
X147593781Y-90833394D01*
X147603175Y-90830994D01*
X147607999Y-90829933D01*
X147612908Y-90828964D01*
X147617902Y-90828087D01*
X147622981Y-90827302D01*
X147628145Y-90826610D01*
X147633394Y-90826010D01*
X147638728Y-90825502D01*
X147644146Y-90825087D01*
X147649650Y-90824764D01*
X147655238Y-90824533D01*
X147660912Y-90824394D01*
X147666670Y-90824348D01*
X147672977Y-90824403D01*
G37*
G36*
X147850341Y-91293050D02*
G01*
X147802103Y-91293050D01*
X147807224Y-91296828D01*
X147812101Y-91300695D01*
X147816732Y-91304653D01*
X147821119Y-91308701D01*
X147825262Y-91312839D01*
X147829159Y-91317067D01*
X147832812Y-91321386D01*
X147836220Y-91325794D01*
X147839384Y-91330293D01*
X147842303Y-91334882D01*
X147844113Y-91337991D01*
X147846622Y-91342800D01*
X147848885Y-91347794D01*
X147850901Y-91352973D01*
X147852671Y-91358336D01*
X147854193Y-91363883D01*
X147855468Y-91369616D01*
X147856497Y-91375533D01*
X147857279Y-91381634D01*
X147857814Y-91387920D01*
X147858102Y-91394391D01*
X147858157Y-91398807D01*
X147858062Y-91404611D01*
X147857779Y-91410327D01*
X147857306Y-91415956D01*
X147856645Y-91421499D01*
X147855795Y-91426955D01*
X147854756Y-91432324D01*
X147853528Y-91437606D01*
X147852112Y-91442802D01*
X147850506Y-91447910D01*
X147848711Y-91452932D01*
X147846728Y-91457867D01*
X147844555Y-91462715D01*
X147842194Y-91467476D01*
X147839644Y-91472151D01*
X147836905Y-91476739D01*
X147833976Y-91481239D01*
X147830877Y-91485643D01*
X147827622Y-91489910D01*
X147824213Y-91494039D01*
X147820650Y-91498031D01*
X147816932Y-91501886D01*
X147813059Y-91505603D01*
X147809032Y-91509182D01*
X147804851Y-91512625D01*
X147800514Y-91515930D01*
X147796023Y-91519097D01*
X147791378Y-91522127D01*
X147786578Y-91525020D01*
X147781624Y-91527775D01*
X147776515Y-91530393D01*
X147771251Y-91532874D01*
X147765833Y-91535217D01*
X147760304Y-91537421D01*
X147754710Y-91539482D01*
X147749050Y-91541401D01*
X147743324Y-91543178D01*
X147737533Y-91544813D01*
X147731675Y-91546305D01*
X147725752Y-91547656D01*
X147719762Y-91548864D01*
X147713707Y-91549930D01*
X147707587Y-91550854D01*
X147701400Y-91551636D01*
X147695147Y-91552276D01*
X147688829Y-91552773D01*
X147682445Y-91553129D01*
X147675995Y-91553342D01*
X147669479Y-91553413D01*
X147662486Y-91553334D01*
X147655580Y-91553098D01*
X147648762Y-91552705D01*
X147642032Y-91552154D01*
X147635390Y-91551445D01*
X147628835Y-91550580D01*
X147622369Y-91549556D01*
X147615990Y-91548376D01*
X147609699Y-91547038D01*
X147603495Y-91545542D01*
X147597380Y-91543889D01*
X147591352Y-91542079D01*
X147585412Y-91540111D01*
X147579559Y-91537986D01*
X147573795Y-91535703D01*
X147568118Y-91533263D01*
X147562582Y-91530688D01*
X147557209Y-91527970D01*
X147552000Y-91525109D01*
X147546953Y-91522104D01*
X147542070Y-91518957D01*
X147537349Y-91515666D01*
X147532792Y-91512233D01*
X147528398Y-91508656D01*
X147524167Y-91504936D01*
X147520100Y-91501073D01*
X147516195Y-91497067D01*
X147512454Y-91492917D01*
X147508875Y-91488625D01*
X147505460Y-91484189D01*
X147502208Y-91479611D01*
X147499120Y-91474889D01*
X147496221Y-91470095D01*
X147493510Y-91465270D01*
X147490985Y-91460413D01*
X147488648Y-91455525D01*
X147486497Y-91450606D01*
X147484534Y-91445654D01*
X147482757Y-91440672D01*
X147481168Y-91435658D01*
X147479765Y-91430612D01*
X147478550Y-91425535D01*
X147477521Y-91420426D01*
X147476680Y-91415286D01*
X147476025Y-91410115D01*
X147475558Y-91404912D01*
X147475277Y-91399677D01*
X147475184Y-91394411D01*
X147475267Y-91390259D01*
X147525986Y-91390259D01*
X147526123Y-91395357D01*
X147526534Y-91400363D01*
X147527218Y-91405276D01*
X147528177Y-91410096D01*
X147529409Y-91414824D01*
X147531771Y-91421742D01*
X147533687Y-91426239D01*
X147535878Y-91430643D01*
X147538342Y-91434954D01*
X147541081Y-91439173D01*
X147544093Y-91443300D01*
X147547378Y-91447333D01*
X147550938Y-91451275D01*
X147554771Y-91455123D01*
X147558879Y-91458880D01*
X147561035Y-91460723D01*
X147565566Y-91464287D01*
X147570398Y-91467621D01*
X147575531Y-91470725D01*
X147580964Y-91473599D01*
X147586697Y-91476243D01*
X147592731Y-91478658D01*
X147599066Y-91480842D01*
X147605701Y-91482796D01*
X147612637Y-91484521D01*
X147619873Y-91486016D01*
X147627410Y-91487280D01*
X147635247Y-91488315D01*
X147643385Y-91489120D01*
X147651823Y-91489694D01*
X147660562Y-91490039D01*
X147669601Y-91490154D01*
X147678211Y-91490042D01*
X147686545Y-91489706D01*
X147694605Y-91489145D01*
X147702391Y-91488361D01*
X147709901Y-91487352D01*
X147717137Y-91486119D01*
X147724098Y-91484661D01*
X147730784Y-91482980D01*
X147737195Y-91481074D01*
X147743332Y-91478944D01*
X147749194Y-91476590D01*
X147754781Y-91474011D01*
X147760093Y-91471209D01*
X147765131Y-91468182D01*
X147769893Y-91464931D01*
X147774381Y-91461456D01*
X147778611Y-91457839D01*
X147782567Y-91454134D01*
X147786251Y-91450340D01*
X147789662Y-91446458D01*
X147792800Y-91442486D01*
X147795665Y-91438426D01*
X147798257Y-91434278D01*
X147801634Y-91427888D01*
X147804396Y-91421299D01*
X147806545Y-91414510D01*
X147808080Y-91407522D01*
X147809001Y-91400333D01*
X147809274Y-91395430D01*
X147809308Y-91392946D01*
X147809163Y-91388050D01*
X147808402Y-91380840D01*
X147806988Y-91373788D01*
X147804921Y-91366895D01*
X147802202Y-91360161D01*
X147800027Y-91355760D01*
X147797561Y-91351429D01*
X147794806Y-91347169D01*
X147791761Y-91342980D01*
X147788425Y-91338861D01*
X147784800Y-91334813D01*
X147780884Y-91330835D01*
X147776679Y-91326929D01*
X147772183Y-91323092D01*
X147767411Y-91319410D01*
X147762377Y-91315965D01*
X147757081Y-91312758D01*
X147751522Y-91309789D01*
X147745700Y-91307057D01*
X147739617Y-91304562D01*
X147733271Y-91302305D01*
X147726662Y-91300286D01*
X147719792Y-91298504D01*
X147712658Y-91296960D01*
X147705263Y-91295654D01*
X147697605Y-91294584D01*
X147689685Y-91293753D01*
X147681502Y-91293159D01*
X147673057Y-91292803D01*
X147664350Y-91292684D01*
X147655655Y-91292795D01*
X147647249Y-91293129D01*
X147639131Y-91293684D01*
X147631301Y-91294462D01*
X147623759Y-91295463D01*
X147616505Y-91296685D01*
X147609539Y-91298130D01*
X147602862Y-91299798D01*
X147596472Y-91301687D01*
X147590371Y-91303799D01*
X147584558Y-91306133D01*
X147579033Y-91308690D01*
X147573796Y-91311468D01*
X147568847Y-91314469D01*
X147564186Y-91317693D01*
X147559814Y-91321138D01*
X147555718Y-91324757D01*
X147551886Y-91328469D01*
X147548318Y-91332275D01*
X147545014Y-91336174D01*
X147541975Y-91340167D01*
X147539200Y-91344254D01*
X147535533Y-91350558D01*
X147532461Y-91357073D01*
X147529983Y-91363799D01*
X147528100Y-91370735D01*
X147526812Y-91377881D01*
X147526284Y-91382762D01*
X147526019Y-91387737D01*
X147525986Y-91390259D01*
X147475267Y-91390259D01*
X147475299Y-91388673D01*
X147475643Y-91383044D01*
X147476217Y-91377524D01*
X147477021Y-91372114D01*
X147478055Y-91366814D01*
X147479318Y-91361623D01*
X147480811Y-91356541D01*
X147482534Y-91351569D01*
X147484486Y-91346707D01*
X147486668Y-91341954D01*
X147488251Y-91338846D01*
X147490761Y-91334321D01*
X147493391Y-91329950D01*
X147496142Y-91325734D01*
X147499013Y-91321673D01*
X147502004Y-91317766D01*
X147506179Y-91312797D01*
X147510567Y-91308103D01*
X147515170Y-91303683D01*
X147519986Y-91299539D01*
X147521224Y-91298546D01*
X147342316Y-91298546D01*
X147342316Y-91236752D01*
X147850341Y-91236752D01*
X147850341Y-91293050D01*
G37*
G36*
X147483000Y-91626075D02*
G01*
X147850341Y-91626075D01*
X147850341Y-91681396D01*
X147799538Y-91681396D01*
X147804394Y-91684702D01*
X147809069Y-91688207D01*
X147813565Y-91691912D01*
X147817879Y-91695816D01*
X147822014Y-91699920D01*
X147825968Y-91704224D01*
X147829742Y-91708727D01*
X147833335Y-91713430D01*
X147836749Y-91718333D01*
X147839981Y-91723435D01*
X147842036Y-91726948D01*
X147844917Y-91732375D01*
X147847515Y-91737939D01*
X147849829Y-91743640D01*
X147851860Y-91749479D01*
X147853607Y-91755455D01*
X147855071Y-91761569D01*
X147856252Y-91767820D01*
X147857149Y-91774209D01*
X147857763Y-91780735D01*
X147858094Y-91787398D01*
X147858157Y-91791916D01*
X147858092Y-91796927D01*
X147857897Y-91801823D01*
X147857362Y-91808953D01*
X147856535Y-91815825D01*
X147855415Y-91822440D01*
X147854004Y-91828797D01*
X147852301Y-91834896D01*
X147850306Y-91840738D01*
X147848019Y-91846322D01*
X147845441Y-91851649D01*
X147842570Y-91856718D01*
X147841548Y-91858350D01*
X147838317Y-91863092D01*
X147834852Y-91867564D01*
X147831153Y-91871765D01*
X147827220Y-91875695D01*
X147823053Y-91879356D01*
X147818652Y-91882745D01*
X147814017Y-91885864D01*
X147809148Y-91888713D01*
X147804045Y-91891291D01*
X147798708Y-91893599D01*
X147795020Y-91894987D01*
X147802665Y-91900493D01*
X147809817Y-91906203D01*
X147816476Y-91912117D01*
X147822642Y-91918236D01*
X147828315Y-91924558D01*
X147833494Y-91931085D01*
X147838180Y-91937816D01*
X147842372Y-91944751D01*
X147846072Y-91951891D01*
X147849278Y-91959234D01*
X147851991Y-91966782D01*
X147854210Y-91974534D01*
X147855937Y-91982490D01*
X147857170Y-91990650D01*
X147857910Y-91999014D01*
X147858157Y-92007583D01*
X147858038Y-92014278D01*
X147857683Y-92020776D01*
X147857092Y-92027077D01*
X147856264Y-92033182D01*
X147855199Y-92039091D01*
X147853898Y-92044803D01*
X147852360Y-92050319D01*
X147850585Y-92055638D01*
X147848574Y-92060760D01*
X147846326Y-92065686D01*
X147843842Y-92070415D01*
X147841121Y-92074948D01*
X147838163Y-92079284D01*
X147834969Y-92083424D01*
X147831538Y-92087367D01*
X147827870Y-92091114D01*
X147823972Y-92094648D01*
X147819818Y-92097955D01*
X147815408Y-92101033D01*
X147810743Y-92103883D01*
X147805822Y-92106505D01*
X147800645Y-92108900D01*
X147795212Y-92111066D01*
X147789524Y-92113004D01*
X147783580Y-92114714D01*
X147777381Y-92116196D01*
X147770926Y-92117451D01*
X147764215Y-92118477D01*
X147757248Y-92119275D01*
X147750026Y-92119845D01*
X147742548Y-92120187D01*
X147734814Y-92120301D01*
X147483000Y-92120301D01*
X147483000Y-92058752D01*
X147714908Y-92058752D01*
X147721752Y-92058699D01*
X147728225Y-92058541D01*
X147734326Y-92058278D01*
X147740056Y-92057910D01*
X147745414Y-92057437D01*
X147750401Y-92056858D01*
X147756473Y-92055923D01*
X147761884Y-92054801D01*
X147766636Y-92053492D01*
X147768764Y-92052768D01*
X147773758Y-92050656D01*
X147778436Y-92048062D01*
X147782797Y-92044984D01*
X147786843Y-92041424D01*
X147790573Y-92037380D01*
X147793987Y-92032854D01*
X147795264Y-92030908D01*
X147798184Y-92025851D01*
X147800609Y-92020525D01*
X147802539Y-92014931D01*
X147803975Y-92009069D01*
X147804767Y-92004186D01*
X147805242Y-91999132D01*
X147805400Y-91993905D01*
X147805173Y-91986807D01*
X147804490Y-91979939D01*
X147803352Y-91973300D01*
X147801759Y-91966892D01*
X147799711Y-91960712D01*
X147797208Y-91954763D01*
X147794250Y-91949043D01*
X147790837Y-91943553D01*
X147786969Y-91938293D01*
X147782645Y-91933262D01*
X147779510Y-91930036D01*
X147774405Y-91925496D01*
X147768753Y-91921403D01*
X147762553Y-91917757D01*
X147758115Y-91915574D01*
X147753435Y-91913589D01*
X147748511Y-91911803D01*
X147743343Y-91910216D01*
X147737933Y-91908827D01*
X147732279Y-91907636D01*
X147726382Y-91906644D01*
X147720241Y-91905850D01*
X147713858Y-91905255D01*
X147707231Y-91904858D01*
X147700360Y-91904659D01*
X147696834Y-91904634D01*
X147483000Y-91904634D01*
X147483000Y-91842719D01*
X147722235Y-91842719D01*
X147727344Y-91842660D01*
X147732291Y-91842482D01*
X147739408Y-91841994D01*
X147746159Y-91841240D01*
X147752545Y-91840220D01*
X147758566Y-91838933D01*
X147764223Y-91837380D01*
X147769514Y-91835561D01*
X147774441Y-91833476D01*
X147779003Y-91831125D01*
X147783199Y-91828507D01*
X147784517Y-91827576D01*
X147789412Y-91823519D01*
X147793654Y-91818859D01*
X147797243Y-91813597D01*
X147799506Y-91809254D01*
X147801403Y-91804572D01*
X147802932Y-91799551D01*
X147804095Y-91794191D01*
X147804890Y-91788491D01*
X147805318Y-91782453D01*
X147805400Y-91778239D01*
X147805183Y-91771766D01*
X147804530Y-91765416D01*
X147803442Y-91759188D01*
X147801920Y-91753082D01*
X147799962Y-91747098D01*
X147797569Y-91741236D01*
X147794741Y-91735496D01*
X147791478Y-91729879D01*
X147787826Y-91724542D01*
X147783769Y-91719582D01*
X147779308Y-91715001D01*
X147774442Y-91710797D01*
X147769172Y-91706971D01*
X147764954Y-91704350D01*
X147760508Y-91701941D01*
X147755835Y-91699745D01*
X147750934Y-91697761D01*
X147745734Y-91695993D01*
X147740118Y-91694399D01*
X147734085Y-91692979D01*
X147727635Y-91691733D01*
X147720770Y-91690661D01*
X147713487Y-91689762D01*
X147708401Y-91689260D01*
X147703130Y-91688835D01*
X147697674Y-91688487D01*
X147692032Y-91688217D01*
X147686206Y-91688023D01*
X147680194Y-91687908D01*
X147673997Y-91687869D01*
X147483000Y-91687869D01*
X147483000Y-91626075D01*
G37*
G36*
X147669355Y-92188247D02*
G01*
X147675011Y-92188385D01*
X147680587Y-92188617D01*
X147686082Y-92188941D01*
X147691496Y-92189357D01*
X147696829Y-92189866D01*
X147702081Y-92190468D01*
X147707253Y-92191162D01*
X147712343Y-92191948D01*
X147717353Y-92192828D01*
X147722282Y-92193799D01*
X147727130Y-92194864D01*
X147731897Y-92196020D01*
X147741189Y-92198612D01*
X147750157Y-92201573D01*
X147758802Y-92204905D01*
X147767123Y-92208607D01*
X147775121Y-92212679D01*
X147782796Y-92217121D01*
X147790147Y-92221933D01*
X147797175Y-92227116D01*
X147803879Y-92232668D01*
X147807110Y-92235583D01*
X147813291Y-92241617D01*
X147819074Y-92247870D01*
X147824458Y-92254344D01*
X147829443Y-92261038D01*
X147834029Y-92267953D01*
X147838216Y-92275088D01*
X147842005Y-92282443D01*
X147845395Y-92290019D01*
X147848386Y-92297815D01*
X147850978Y-92305832D01*
X147853171Y-92314069D01*
X147854966Y-92322526D01*
X147856362Y-92331204D01*
X147857359Y-92340102D01*
X147857957Y-92349221D01*
X147858157Y-92358560D01*
X147857958Y-92367599D01*
X147857361Y-92376428D01*
X147856366Y-92385047D01*
X147854974Y-92393456D01*
X147853183Y-92401655D01*
X147850995Y-92409645D01*
X147848409Y-92417424D01*
X147845425Y-92424994D01*
X147842044Y-92432354D01*
X147838264Y-92439503D01*
X147834087Y-92446443D01*
X147829511Y-92453173D01*
X147824538Y-92459693D01*
X147819167Y-92466004D01*
X147813399Y-92472104D01*
X147807232Y-92477995D01*
X147800705Y-92483614D01*
X147793854Y-92488871D01*
X147786680Y-92493765D01*
X147779182Y-92498297D01*
X147771361Y-92502466D01*
X147763217Y-92506273D01*
X147754749Y-92509717D01*
X147745957Y-92512799D01*
X147736843Y-92515518D01*
X147727405Y-92517875D01*
X147722564Y-92518917D01*
X147717643Y-92519869D01*
X147712641Y-92520730D01*
X147707558Y-92521500D01*
X147702394Y-92522180D01*
X147697149Y-92522769D01*
X147691824Y-92523268D01*
X147686418Y-92523676D01*
X147680930Y-92523993D01*
X147675362Y-92524219D01*
X147669713Y-92524355D01*
X147663983Y-92524401D01*
X147658980Y-92524366D01*
X147653604Y-92524285D01*
X147648513Y-92524186D01*
X147647131Y-92524156D01*
X147647131Y-92255489D01*
X147697933Y-92255489D01*
X147697933Y-92459188D01*
X147703853Y-92458610D01*
X147709584Y-92457915D01*
X147715127Y-92457103D01*
X147720480Y-92456173D01*
X147725644Y-92455126D01*
X147730620Y-92453961D01*
X147735406Y-92452680D01*
X147742232Y-92450537D01*
X147748633Y-92448130D01*
X147754608Y-92445459D01*
X147760159Y-92442524D01*
X147765284Y-92439326D01*
X147769985Y-92435863D01*
X147774510Y-92432100D01*
X147778743Y-92428201D01*
X147782685Y-92424166D01*
X147786334Y-92419994D01*
X147789691Y-92415686D01*
X147792757Y-92411242D01*
X147795530Y-92406661D01*
X147798012Y-92401943D01*
X147800201Y-92397090D01*
X147802099Y-92392099D01*
X147803705Y-92386973D01*
X147805018Y-92381709D01*
X147806040Y-92376310D01*
X147806770Y-92370774D01*
X147807208Y-92365101D01*
X147807354Y-92359292D01*
X147807238Y-92354018D01*
X147806888Y-92348849D01*
X147806306Y-92343786D01*
X147805492Y-92338830D01*
X147804444Y-92333979D01*
X147803164Y-92329233D01*
X147800807Y-92322314D01*
X147797926Y-92315634D01*
X147794521Y-92309191D01*
X147791961Y-92305028D01*
X147789167Y-92300972D01*
X147786141Y-92297021D01*
X147782882Y-92293176D01*
X147779390Y-92289437D01*
X147777556Y-92287607D01*
X147773753Y-92284090D01*
X147769794Y-92280774D01*
X147765678Y-92277660D01*
X147761406Y-92274746D01*
X147756977Y-92272034D01*
X147752392Y-92269524D01*
X147747650Y-92267214D01*
X147742752Y-92265106D01*
X147737697Y-92263200D01*
X147732486Y-92261494D01*
X147727118Y-92259990D01*
X147721594Y-92258687D01*
X147715914Y-92257586D01*
X147710077Y-92256686D01*
X147704083Y-92255987D01*
X147697933Y-92255489D01*
X147647131Y-92255489D01*
X147647131Y-92252070D01*
X147639895Y-92252603D01*
X147632875Y-92253348D01*
X147626069Y-92254305D01*
X147619478Y-92255474D01*
X147613101Y-92256855D01*
X147606939Y-92258447D01*
X147600992Y-92260251D01*
X147595260Y-92262267D01*
X147589742Y-92264495D01*
X147584439Y-92266934D01*
X147579350Y-92269586D01*
X147574476Y-92272449D01*
X147569817Y-92275524D01*
X147565372Y-92278811D01*
X147561142Y-92282309D01*
X147557127Y-92286020D01*
X147553356Y-92289910D01*
X147549829Y-92293917D01*
X147546544Y-92298042D01*
X147543503Y-92302285D01*
X147540705Y-92306644D01*
X147538151Y-92311121D01*
X147535839Y-92315716D01*
X147533771Y-92320427D01*
X147531947Y-92325256D01*
X147530365Y-92330203D01*
X147529027Y-92335267D01*
X147527933Y-92340448D01*
X147527081Y-92345746D01*
X147526473Y-92351162D01*
X147526108Y-92356695D01*
X147525986Y-92362346D01*
X147526142Y-92368624D01*
X147526609Y-92374729D01*
X147527387Y-92380660D01*
X147528476Y-92386417D01*
X147529877Y-92392000D01*
X147531589Y-92397409D01*
X147533612Y-92402645D01*
X147535947Y-92407706D01*
X147538593Y-92412594D01*
X147541550Y-92417307D01*
X147543694Y-92420353D01*
X147547200Y-92424776D01*
X147551077Y-92429023D01*
X147555326Y-92433094D01*
X147559946Y-92436988D01*
X147564937Y-92440707D01*
X147570300Y-92444250D01*
X147576034Y-92447617D01*
X147582139Y-92450807D01*
X147588616Y-92453822D01*
X147593140Y-92455734D01*
X147597830Y-92457568D01*
X147600236Y-92458455D01*
X147592420Y-92522447D01*
X147585557Y-92520453D01*
X147578888Y-92518258D01*
X147572413Y-92515862D01*
X147566134Y-92513265D01*
X147560049Y-92510466D01*
X147554158Y-92507466D01*
X147548462Y-92504264D01*
X147542961Y-92500862D01*
X147537655Y-92497258D01*
X147532543Y-92493452D01*
X147527625Y-92489446D01*
X147522903Y-92485238D01*
X147518375Y-92480829D01*
X147514041Y-92476218D01*
X147509902Y-92471406D01*
X147505958Y-92466393D01*
X147502232Y-92461191D01*
X147498746Y-92455812D01*
X147495500Y-92450257D01*
X147492494Y-92444526D01*
X147489730Y-92438617D01*
X147487205Y-92432533D01*
X147484921Y-92426272D01*
X147482877Y-92419834D01*
X147481074Y-92413220D01*
X147479511Y-92406429D01*
X147478189Y-92399462D01*
X147477107Y-92392319D01*
X147476266Y-92384999D01*
X147475665Y-92377502D01*
X147475304Y-92369829D01*
X147475184Y-92361979D01*
X147475232Y-92357012D01*
X147475377Y-92352110D01*
X147475957Y-92342499D01*
X147476923Y-92333147D01*
X147478275Y-92324053D01*
X147480014Y-92315218D01*
X147482139Y-92306641D01*
X147484651Y-92298323D01*
X147487549Y-92290263D01*
X147490833Y-92282462D01*
X147494504Y-92274920D01*
X147498561Y-92267636D01*
X147503005Y-92260611D01*
X147507835Y-92253844D01*
X147513051Y-92247336D01*
X147518654Y-92241086D01*
X147524643Y-92235095D01*
X147530996Y-92229416D01*
X147537660Y-92224104D01*
X147544636Y-92219158D01*
X147551922Y-92214579D01*
X147559519Y-92210365D01*
X147567427Y-92206519D01*
X147575647Y-92203038D01*
X147584177Y-92199924D01*
X147593018Y-92197176D01*
X147602171Y-92194795D01*
X147611634Y-92192780D01*
X147616483Y-92191910D01*
X147621409Y-92191131D01*
X147626413Y-92190444D01*
X147631494Y-92189849D01*
X147636654Y-92189345D01*
X147641891Y-92188933D01*
X147647206Y-92188613D01*
X147652598Y-92188384D01*
X147658069Y-92188246D01*
X147663617Y-92188200D01*
X147669355Y-92188247D01*
G37*
G36*
X147483000Y-92598162D02*
G01*
X147850341Y-92598162D01*
X147850341Y-92653727D01*
X147798806Y-92653727D01*
X147805993Y-92658889D01*
X147812716Y-92664331D01*
X147818976Y-92670052D01*
X147824772Y-92676053D01*
X147830104Y-92682333D01*
X147834973Y-92688892D01*
X147839377Y-92695732D01*
X147843319Y-92702851D01*
X147846796Y-92710249D01*
X147849810Y-92717927D01*
X147852361Y-92725884D01*
X147854447Y-92734121D01*
X147856070Y-92742638D01*
X147857229Y-92751434D01*
X147857925Y-92760510D01*
X147858157Y-92769865D01*
X147858051Y-92776000D01*
X147857736Y-92782041D01*
X147857210Y-92787987D01*
X147856474Y-92793839D01*
X147855527Y-92799596D01*
X147854370Y-92805259D01*
X147853002Y-92810827D01*
X147851425Y-92816301D01*
X147849636Y-92821681D01*
X147847638Y-92826966D01*
X147846189Y-92830437D01*
X147843901Y-92835511D01*
X147841480Y-92840339D01*
X147838926Y-92844919D01*
X147836240Y-92849253D01*
X147833420Y-92853340D01*
X147829452Y-92858405D01*
X147825249Y-92863032D01*
X147820809Y-92867219D01*
X147816132Y-92870968D01*
X147814926Y-92871836D01*
X147809987Y-92875156D01*
X147804820Y-92878217D01*
X147799424Y-92881018D01*
X147793799Y-92883560D01*
X147787944Y-92885842D01*
X147781861Y-92887865D01*
X147777149Y-92889211D01*
X147772307Y-92890412D01*
X147769008Y-92891131D01*
X147762992Y-92892116D01*
X147757265Y-92892784D01*
X147750724Y-92893345D01*
X147745286Y-92893696D01*
X147739390Y-92893986D01*
X147733037Y-92894217D01*
X147726227Y-92894387D01*
X147718959Y-92894497D01*
X147713860Y-92894537D01*
X147708558Y-92894551D01*
X147483000Y-92894551D01*
X147483000Y-92832757D01*
X147706970Y-92832757D01*
X147713945Y-92832694D01*
X147720580Y-92832504D01*
X147726876Y-92832187D01*
X147732833Y-92831744D01*
X147738451Y-92831174D01*
X147743730Y-92830477D01*
X147748669Y-92829654D01*
X147754728Y-92828360D01*
X147760183Y-92826840D01*
X147763879Y-92825552D01*
X147768491Y-92823575D01*
X147772862Y-92821247D01*
X147776993Y-92818568D01*
X147780884Y-92815538D01*
X147784534Y-92812157D01*
X147787944Y-92808425D01*
X147791114Y-92804341D01*
X147794043Y-92799907D01*
X147796705Y-92795226D01*
X147799012Y-92790343D01*
X147800964Y-92785258D01*
X147802561Y-92779970D01*
X147803803Y-92774481D01*
X147804690Y-92768789D01*
X147805223Y-92762894D01*
X147805400Y-92756798D01*
X147805301Y-92751909D01*
X147804783Y-92744733D01*
X147803820Y-92737747D01*
X147802413Y-92730949D01*
X147800561Y-92724340D01*
X147798266Y-92717920D01*
X147795525Y-92711689D01*
X147792341Y-92705647D01*
X147788712Y-92699794D01*
X147784639Y-92694129D01*
X147780121Y-92688654D01*
X147774981Y-92683525D01*
X147771109Y-92680386D01*
X147766882Y-92677472D01*
X147762298Y-92674781D01*
X147757359Y-92672315D01*
X147752064Y-92670073D01*
X147746413Y-92668055D01*
X147740406Y-92666261D01*
X147734043Y-92664692D01*
X147727325Y-92663347D01*
X147720250Y-92662226D01*
X147712820Y-92661329D01*
X147705034Y-92660656D01*
X147696892Y-92660208D01*
X147688394Y-92659983D01*
X147684011Y-92659955D01*
X147483000Y-92659955D01*
X147483000Y-92598162D01*
G37*
G36*
X147539664Y-93122429D02*
G01*
X147483000Y-93131344D01*
X147481603Y-93126493D01*
X147480343Y-93121741D01*
X147478878Y-93115559D01*
X147477657Y-93109552D01*
X147476680Y-93103721D01*
X147475947Y-93098065D01*
X147475459Y-93092585D01*
X147475214Y-93087280D01*
X147475184Y-93084694D01*
X147475278Y-93078507D01*
X147475562Y-93072587D01*
X147476034Y-93066932D01*
X147476695Y-93061544D01*
X147477545Y-93056422D01*
X147478584Y-93051566D01*
X147480263Y-93045506D01*
X147482278Y-93039919D01*
X147484629Y-93034805D01*
X147485930Y-93032426D01*
X147488753Y-93027957D01*
X147491785Y-93023831D01*
X147495027Y-93020050D01*
X147499374Y-93015805D01*
X147504050Y-93012097D01*
X147509053Y-93008926D01*
X147514385Y-93006292D01*
X147519390Y-93004546D01*
X147525612Y-93003033D01*
X147531078Y-93002051D01*
X147537229Y-93001199D01*
X147544064Y-93000479D01*
X147549001Y-93000072D01*
X147554243Y-92999723D01*
X147559789Y-92999432D01*
X147565639Y-92999199D01*
X147571794Y-92999024D01*
X147578253Y-92998908D01*
X147585017Y-92998850D01*
X147588512Y-92998842D01*
X147801492Y-92998842D01*
X147801492Y-92953413D01*
X147850341Y-92953413D01*
X147850341Y-92998842D01*
X147939001Y-92998842D01*
X147975393Y-93060269D01*
X147850341Y-93060269D01*
X147850341Y-93122429D01*
X147801492Y-93122429D01*
X147801492Y-93060269D01*
X147583505Y-93060269D01*
X147578593Y-93060297D01*
X147572574Y-93060421D01*
X147567161Y-93060645D01*
X147561249Y-93061063D01*
X147556285Y-93061637D01*
X147550928Y-93062700D01*
X147548701Y-93063445D01*
X147544190Y-93065899D01*
X147540276Y-93069140D01*
X147536959Y-93073169D01*
X147536367Y-93074069D01*
X147534182Y-93078762D01*
X147532841Y-93083776D01*
X147532130Y-93088815D01*
X147531852Y-93094462D01*
X147531848Y-93095318D01*
X147532337Y-93100860D01*
X147533565Y-93106384D01*
X147535214Y-93111622D01*
X147537008Y-93116341D01*
X147539183Y-93121382D01*
X147539664Y-93122429D01*
G37*
G36*
X147991025Y-93570371D02*
G01*
X147990965Y-93577487D01*
X147990786Y-93584424D01*
X147990488Y-93591183D01*
X147990071Y-93597764D01*
X147989534Y-93604166D01*
X147988878Y-93610390D01*
X147988103Y-93616436D01*
X147987208Y-93622303D01*
X147986195Y-93627991D01*
X147985062Y-93633502D01*
X147983809Y-93638834D01*
X147982438Y-93643987D01*
X147980947Y-93648962D01*
X147979337Y-93653759D01*
X147977608Y-93658377D01*
X147975759Y-93662817D01*
X147972774Y-93669232D01*
X147969497Y-93675382D01*
X147965928Y-93681265D01*
X147962067Y-93686882D01*
X147957913Y-93692233D01*
X147953468Y-93697318D01*
X147948731Y-93702136D01*
X147943703Y-93706689D01*
X147938382Y-93710975D01*
X147932769Y-93714995D01*
X147928865Y-93717527D01*
X147922909Y-93721063D01*
X147916901Y-93724250D01*
X147910841Y-93727090D01*
X147904731Y-93729583D01*
X147898568Y-93731727D01*
X147892354Y-93733524D01*
X147886089Y-93734973D01*
X147879772Y-93736074D01*
X147873404Y-93736828D01*
X147866984Y-93737233D01*
X147862675Y-93737311D01*
X147856685Y-93737156D01*
X147850760Y-93736692D01*
X147844898Y-93735920D01*
X147839102Y-93734838D01*
X147833369Y-93733447D01*
X147827702Y-93731746D01*
X147822098Y-93729737D01*
X147816559Y-93727419D01*
X147811084Y-93724791D01*
X147805674Y-93721855D01*
X147802103Y-93719725D01*
X147796886Y-93716293D01*
X147791860Y-93712545D01*
X147787026Y-93708482D01*
X147782382Y-93704103D01*
X147777930Y-93699409D01*
X147773668Y-93694399D01*
X147769598Y-93689073D01*
X147765718Y-93683432D01*
X147762030Y-93677476D01*
X147758533Y-93671203D01*
X147756307Y-93666847D01*
X147754522Y-93672473D01*
X147752586Y-93677935D01*
X147750500Y-93683231D01*
X147748262Y-93688363D01*
X147745874Y-93693329D01*
X147743336Y-93698131D01*
X147740646Y-93702767D01*
X147737806Y-93707238D01*
X147734815Y-93711544D01*
X147731673Y-93715686D01*
X147728381Y-93719662D01*
X147724937Y-93723473D01*
X147721343Y-93727119D01*
X147717599Y-93730600D01*
X147713703Y-93733916D01*
X147709657Y-93737066D01*
X147705503Y-93740039D01*
X147701255Y-93742819D01*
X147696913Y-93745408D01*
X147692476Y-93747805D01*
X147687945Y-93750011D01*
X147683319Y-93752024D01*
X147678598Y-93753846D01*
X147673784Y-93755476D01*
X147668875Y-93756914D01*
X147663871Y-93758161D01*
X147658773Y-93759216D01*
X147653580Y-93760079D01*
X147648293Y-93760750D01*
X147642912Y-93761229D01*
X147637436Y-93761517D01*
X147631866Y-93761613D01*
X147625155Y-93761482D01*
X147618532Y-93761089D01*
X147611997Y-93760434D01*
X147605550Y-93759518D01*
X147599191Y-93758339D01*
X147592921Y-93756899D01*
X147586738Y-93755196D01*
X147580643Y-93753232D01*
X147574636Y-93751006D01*
X147568718Y-93748518D01*
X147564821Y-93746714D01*
X147559129Y-93743858D01*
X147553687Y-93740878D01*
X147548493Y-93737773D01*
X147543549Y-93734544D01*
X147538853Y-93731190D01*
X147534407Y-93727712D01*
X147530209Y-93724109D01*
X147526261Y-93720382D01*
X147522562Y-93716530D01*
X147519111Y-93712553D01*
X147516949Y-93709833D01*
X147513883Y-93705613D01*
X147510959Y-93701195D01*
X147508176Y-93696580D01*
X147505535Y-93691767D01*
X147503035Y-93686757D01*
X147500678Y-93681549D01*
X147498461Y-93676144D01*
X147496387Y-93670541D01*
X147494454Y-93664740D01*
X147492663Y-93658743D01*
X147491548Y-93654634D01*
X147490020Y-93648297D01*
X147488643Y-93641696D01*
X147487416Y-93634830D01*
X147486339Y-93627701D01*
X147485704Y-93622801D01*
X147485137Y-93617784D01*
X147484636Y-93612650D01*
X147484202Y-93607398D01*
X147483834Y-93602029D01*
X147483534Y-93596543D01*
X147483300Y-93590939D01*
X147483133Y-93585218D01*
X147483033Y-93579379D01*
X147483000Y-93573424D01*
X147483000Y-93448127D01*
X147541618Y-93448127D01*
X147541618Y-93573424D01*
X147541639Y-93579300D01*
X147541704Y-93584840D01*
X147541811Y-93590042D01*
X147542021Y-93596454D01*
X147542307Y-93602268D01*
X147542670Y-93607482D01*
X147543230Y-93613157D01*
X147544060Y-93618731D01*
X147545218Y-93624381D01*
X147546556Y-93629790D01*
X147548073Y-93634960D01*
X147549769Y-93639888D01*
X147551645Y-93644577D01*
X147553700Y-93649024D01*
X147556521Y-93654246D01*
X147558348Y-93657199D01*
X147561698Y-93661909D01*
X147565490Y-93666344D01*
X147569722Y-93670505D01*
X147574396Y-93674391D01*
X147578453Y-93677303D01*
X147582792Y-93680039D01*
X147587413Y-93682600D01*
X147592296Y-93684947D01*
X147597359Y-93686981D01*
X147602600Y-93688702D01*
X147608021Y-93690111D01*
X147613622Y-93691206D01*
X147619401Y-93691988D01*
X147625361Y-93692458D01*
X147631499Y-93692614D01*
X147636905Y-93692488D01*
X147642178Y-93692108D01*
X147647318Y-93691474D01*
X147652325Y-93690588D01*
X147657198Y-93689448D01*
X147661939Y-93688055D01*
X147666546Y-93686408D01*
X147672483Y-93683819D01*
X147678182Y-93680779D01*
X147682302Y-93678204D01*
X147687503Y-93674426D01*
X147692300Y-93670296D01*
X147696693Y-93665816D01*
X147700681Y-93660985D01*
X147704264Y-93655802D01*
X147707443Y-93650269D01*
X147710218Y-93644384D01*
X147712033Y-93639740D01*
X147712588Y-93638148D01*
X147714159Y-93633164D01*
X147715576Y-93627782D01*
X147716838Y-93622004D01*
X147717946Y-93615828D01*
X147718899Y-93609256D01*
X147719698Y-93602286D01*
X147720144Y-93597419D01*
X147720522Y-93592375D01*
X147720831Y-93587155D01*
X147721071Y-93581758D01*
X147721243Y-93576185D01*
X147721346Y-93570435D01*
X147721381Y-93564509D01*
X147721381Y-93448127D01*
X147779999Y-93448127D01*
X147779999Y-93556937D01*
X147780022Y-93562380D01*
X147780090Y-93567627D01*
X147780205Y-93572677D01*
X147780462Y-93579883D01*
X147780823Y-93586647D01*
X147781287Y-93592969D01*
X147781854Y-93598849D01*
X147782523Y-93604286D01*
X147783296Y-93609282D01*
X147784487Y-93615254D01*
X147785861Y-93620440D01*
X147787367Y-93625114D01*
X147789647Y-93630999D01*
X147792235Y-93636487D01*
X147795132Y-93641578D01*
X147798339Y-93646272D01*
X147801855Y-93650569D01*
X147805680Y-93654469D01*
X147809814Y-93657973D01*
X147810896Y-93658787D01*
X147815431Y-93661792D01*
X147820245Y-93664396D01*
X147825338Y-93666600D01*
X147830710Y-93668404D01*
X147836360Y-93669806D01*
X147842288Y-93670808D01*
X147848496Y-93671409D01*
X147854981Y-93671609D01*
X147861175Y-93671422D01*
X147867178Y-93670861D01*
X147872990Y-93669926D01*
X147878612Y-93668617D01*
X147884042Y-93666934D01*
X147889282Y-93664877D01*
X147894331Y-93662446D01*
X147899189Y-93659641D01*
X147903765Y-93656487D01*
X147907967Y-93653009D01*
X147911795Y-93649206D01*
X147915248Y-93645078D01*
X147918328Y-93640627D01*
X147921034Y-93635851D01*
X147923366Y-93630750D01*
X147925323Y-93625325D01*
X147926983Y-93619240D01*
X147928083Y-93614023D01*
X147929058Y-93608245D01*
X147929909Y-93601907D01*
X147930636Y-93595009D01*
X147931051Y-93590098D01*
X147931410Y-93584939D01*
X147931715Y-93579531D01*
X147931964Y-93573874D01*
X147932157Y-93567968D01*
X147932296Y-93561813D01*
X147932379Y-93555408D01*
X147932406Y-93548755D01*
X147932406Y-93448127D01*
X147779999Y-93448127D01*
X147721381Y-93448127D01*
X147541618Y-93448127D01*
X147483000Y-93448127D01*
X147483000Y-93381449D01*
X147991025Y-93381449D01*
X147991025Y-93570371D01*
G37*
G36*
X147672977Y-93819798D02*
G01*
X147679180Y-93819963D01*
X147685281Y-93820238D01*
X147691279Y-93820624D01*
X147697175Y-93821120D01*
X147702967Y-93821726D01*
X147708657Y-93822442D01*
X147714244Y-93823269D01*
X147719728Y-93824206D01*
X147725110Y-93825252D01*
X147730388Y-93826409D01*
X147735564Y-93827677D01*
X147740637Y-93829054D01*
X147745607Y-93830542D01*
X147750474Y-93832140D01*
X147755239Y-93833848D01*
X147759900Y-93835666D01*
X147764459Y-93837594D01*
X147768915Y-93839633D01*
X147777519Y-93844041D01*
X147785712Y-93848889D01*
X147793493Y-93854179D01*
X147800864Y-93859909D01*
X147807823Y-93866080D01*
X147814370Y-93872692D01*
X147817490Y-93876163D01*
X147822415Y-93882120D01*
X147827021Y-93888239D01*
X147831310Y-93894520D01*
X147835282Y-93900961D01*
X147838935Y-93907564D01*
X147842271Y-93914328D01*
X147845289Y-93921253D01*
X147847990Y-93928339D01*
X147850373Y-93935587D01*
X147852438Y-93942996D01*
X147854185Y-93950566D01*
X147855615Y-93958297D01*
X147856727Y-93966190D01*
X147857521Y-93974243D01*
X147857998Y-93982458D01*
X147858157Y-93990835D01*
X147857963Y-94000131D01*
X147857382Y-94009212D01*
X147856413Y-94018079D01*
X147855058Y-94026731D01*
X147853315Y-94035168D01*
X147851184Y-94043391D01*
X147848666Y-94051399D01*
X147845761Y-94059192D01*
X147842469Y-94066771D01*
X147838789Y-94074135D01*
X147834722Y-94081284D01*
X147830267Y-94088219D01*
X147825425Y-94094939D01*
X147820196Y-94101444D01*
X147814579Y-94107735D01*
X147808575Y-94113811D01*
X147802245Y-94119593D01*
X147795619Y-94125002D01*
X147788697Y-94130038D01*
X147781480Y-94134701D01*
X147773966Y-94138991D01*
X147766157Y-94142908D01*
X147758052Y-94146452D01*
X147749652Y-94149623D01*
X147740955Y-94152421D01*
X147731963Y-94154846D01*
X147722675Y-94156897D01*
X147713092Y-94158576D01*
X147708189Y-94159276D01*
X147703212Y-94159882D01*
X147698161Y-94160395D01*
X147693037Y-94160814D01*
X147687838Y-94161141D01*
X147682566Y-94161374D01*
X147677220Y-94161514D01*
X147671799Y-94161560D01*
X147663079Y-94161478D01*
X147654593Y-94161230D01*
X147646344Y-94160818D01*
X147638330Y-94160240D01*
X147630552Y-94159497D01*
X147623010Y-94158589D01*
X147615703Y-94157517D01*
X147608632Y-94156279D01*
X147601796Y-94154876D01*
X147595197Y-94153308D01*
X147588833Y-94151575D01*
X147582704Y-94149677D01*
X147576811Y-94147613D01*
X147571154Y-94145385D01*
X147565732Y-94142992D01*
X147560547Y-94140433D01*
X147555549Y-94137717D01*
X147550693Y-94134850D01*
X147545978Y-94131832D01*
X147541404Y-94128664D01*
X147536971Y-94125345D01*
X147532680Y-94121875D01*
X147528530Y-94118254D01*
X147524521Y-94114483D01*
X147520653Y-94110560D01*
X147516926Y-94106488D01*
X147513341Y-94102264D01*
X147509897Y-94097889D01*
X147506594Y-94093364D01*
X147503432Y-94088688D01*
X147500411Y-94083862D01*
X147497532Y-94078884D01*
X147494826Y-94073818D01*
X147492294Y-94068693D01*
X147489937Y-94063510D01*
X147487755Y-94058269D01*
X147485747Y-94052969D01*
X147483914Y-94047612D01*
X147482255Y-94042196D01*
X147480771Y-94036722D01*
X147479461Y-94031190D01*
X147478326Y-94025599D01*
X147477366Y-94019951D01*
X147476580Y-94014244D01*
X147475969Y-94008479D01*
X147475533Y-94002656D01*
X147475271Y-93996774D01*
X147475184Y-93990835D01*
X147525986Y-93990835D01*
X147526124Y-93996529D01*
X147526538Y-94002102D01*
X147527227Y-94007554D01*
X147528192Y-94012885D01*
X147529433Y-94018095D01*
X147530949Y-94023184D01*
X147532742Y-94028151D01*
X147534810Y-94032997D01*
X147537153Y-94037722D01*
X147539773Y-94042326D01*
X147542668Y-94046809D01*
X147545839Y-94051170D01*
X147549285Y-94055411D01*
X147553008Y-94059530D01*
X147557006Y-94063528D01*
X147561279Y-94067405D01*
X147565836Y-94071102D01*
X147570681Y-94074560D01*
X147575815Y-94077780D01*
X147581239Y-94080762D01*
X147586951Y-94083505D01*
X147592953Y-94086009D01*
X147599243Y-94088275D01*
X147605823Y-94090303D01*
X147612692Y-94092091D01*
X147619850Y-94093642D01*
X147627297Y-94094954D01*
X147635033Y-94096027D01*
X147643058Y-94096862D01*
X147651373Y-94097458D01*
X147659976Y-94097816D01*
X147668868Y-94097935D01*
X147677272Y-94097815D01*
X147685416Y-94097454D01*
X147693300Y-94096853D01*
X147700925Y-94096012D01*
X147708291Y-94094930D01*
X147715397Y-94093608D01*
X147722243Y-94092045D01*
X147728830Y-94090242D01*
X147735157Y-94088198D01*
X147741225Y-94085914D01*
X147747034Y-94083389D01*
X147752583Y-94080624D01*
X147757872Y-94077619D01*
X147762902Y-94074373D01*
X147767672Y-94070887D01*
X147772183Y-94067161D01*
X147776442Y-94063270D01*
X147780426Y-94059263D01*
X147784136Y-94055138D01*
X147787570Y-94050896D01*
X147790730Y-94046536D01*
X147793615Y-94042059D01*
X147796226Y-94037465D01*
X147798561Y-94032753D01*
X147800622Y-94027924D01*
X147802408Y-94022977D01*
X147803919Y-94017914D01*
X147805156Y-94012733D01*
X147806118Y-94007434D01*
X147806804Y-94002018D01*
X147807217Y-93996485D01*
X147807354Y-93990835D01*
X147807218Y-93985096D01*
X147806808Y-93979481D01*
X147806126Y-93973991D01*
X147805171Y-93968624D01*
X147803943Y-93963381D01*
X147802442Y-93958263D01*
X147800669Y-93953268D01*
X147798622Y-93948398D01*
X147796303Y-93943651D01*
X147793711Y-93939028D01*
X147790846Y-93934530D01*
X147787708Y-93930156D01*
X147784297Y-93925905D01*
X147780613Y-93921779D01*
X147776657Y-93917777D01*
X147772427Y-93913898D01*
X147767922Y-93910201D01*
X147763137Y-93906743D01*
X147758072Y-93903523D01*
X147752728Y-93900541D01*
X147747104Y-93897798D01*
X147741200Y-93895294D01*
X147735018Y-93893028D01*
X147728555Y-93891000D01*
X147721813Y-93889212D01*
X147714792Y-93887661D01*
X147707491Y-93886349D01*
X147699910Y-93885276D01*
X147692050Y-93884441D01*
X147683910Y-93883845D01*
X147675491Y-93883487D01*
X147666792Y-93883368D01*
X147658107Y-93883487D01*
X147649699Y-93883845D01*
X147641567Y-93884441D01*
X147633713Y-93885276D01*
X147626134Y-93886349D01*
X147618833Y-93887661D01*
X147611808Y-93889212D01*
X147605060Y-93891000D01*
X147598588Y-93893028D01*
X147592394Y-93895294D01*
X147586475Y-93897798D01*
X147580834Y-93900541D01*
X147575469Y-93903523D01*
X147570381Y-93906743D01*
X147565570Y-93910201D01*
X147561035Y-93913898D01*
X147556791Y-93917777D01*
X147552821Y-93921779D01*
X147549124Y-93925905D01*
X147545701Y-93930156D01*
X147542552Y-93934530D01*
X147539677Y-93939028D01*
X147537076Y-93943651D01*
X147534748Y-93948398D01*
X147532695Y-93953268D01*
X147530915Y-93958263D01*
X147529409Y-93963381D01*
X147528177Y-93968624D01*
X147527218Y-93973991D01*
X147526534Y-93979481D01*
X147526123Y-93985096D01*
X147525986Y-93990835D01*
X147475184Y-93990835D01*
X147475376Y-93981378D01*
X147475955Y-93972150D01*
X147476918Y-93963151D01*
X147478267Y-93954381D01*
X147480002Y-93945841D01*
X147482122Y-93937529D01*
X147484627Y-93929446D01*
X147487518Y-93921592D01*
X147490794Y-93913967D01*
X147494456Y-93906571D01*
X147498503Y-93899404D01*
X147502936Y-93892466D01*
X147507754Y-93885757D01*
X147512957Y-93879277D01*
X147518546Y-93873026D01*
X147524521Y-93867004D01*
X147530858Y-93861281D01*
X147537534Y-93855927D01*
X147544551Y-93850942D01*
X147551907Y-93846327D01*
X147559602Y-93842081D01*
X147567637Y-93838204D01*
X147576012Y-93834696D01*
X147584727Y-93831558D01*
X147593781Y-93828789D01*
X147603175Y-93826389D01*
X147607999Y-93825327D01*
X147612908Y-93824358D01*
X147617902Y-93823481D01*
X147622981Y-93822696D01*
X147628145Y-93822004D01*
X147633394Y-93821404D01*
X147638728Y-93820896D01*
X147644146Y-93820481D01*
X147649650Y-93820158D01*
X147655238Y-93819927D01*
X147660912Y-93819789D01*
X147666670Y-93819743D01*
X147672977Y-93819798D01*
G37*
G36*
X147585738Y-94211249D02*
G01*
X147590696Y-94211571D01*
X147595570Y-94212108D01*
X147601938Y-94213157D01*
X147608158Y-94214588D01*
X147614229Y-94216401D01*
X147620151Y-94218595D01*
X147625924Y-94221171D01*
X147630156Y-94223354D01*
X147635632Y-94226523D01*
X147640826Y-94229926D01*
X147645738Y-94233561D01*
X147650367Y-94237428D01*
X147654714Y-94241529D01*
X147658778Y-94245862D01*
X147662560Y-94250429D01*
X147666060Y-94255228D01*
X147669345Y-94260252D01*
X147672425Y-94265432D01*
X147675299Y-94270769D01*
X147677966Y-94276263D01*
X147680428Y-94281913D01*
X147682683Y-94287720D01*
X147684733Y-94293682D01*
X147686576Y-94299802D01*
X147687791Y-94304641D01*
X147688995Y-94310060D01*
X147690188Y-94316059D01*
X147691075Y-94320939D01*
X147691955Y-94326146D01*
X147692830Y-94331678D01*
X147693697Y-94337537D01*
X147694558Y-94343723D01*
X147695413Y-94350234D01*
X147695979Y-94354757D01*
X147697122Y-94363960D01*
X147698292Y-94372855D01*
X147699488Y-94381442D01*
X147700711Y-94389721D01*
X147701961Y-94397692D01*
X147703238Y-94405355D01*
X147704541Y-94412709D01*
X147705871Y-94419756D01*
X147707228Y-94426494D01*
X147708611Y-94432924D01*
X147710021Y-94439046D01*
X147711458Y-94444859D01*
X147712922Y-94450365D01*
X147714412Y-94455562D01*
X147715929Y-94460451D01*
X147717473Y-94465032D01*
X147722585Y-94465127D01*
X147727853Y-94465215D01*
X147732870Y-94465274D01*
X147733593Y-94465276D01*
X147740428Y-94465123D01*
X147746875Y-94464662D01*
X147752933Y-94463895D01*
X147758603Y-94462821D01*
X147763884Y-94461439D01*
X147768777Y-94459751D01*
X147773281Y-94457756D01*
X147778682Y-94454618D01*
X147783392Y-94450934D01*
X147786471Y-94447813D01*
X147790203Y-94443168D01*
X147793568Y-94438117D01*
X147796566Y-94432661D01*
X147799197Y-94426799D01*
X147801460Y-94420531D01*
X147803357Y-94413857D01*
X147804886Y-94406778D01*
X147805702Y-94401833D01*
X147806355Y-94396708D01*
X147806844Y-94391402D01*
X147807170Y-94385916D01*
X147807334Y-94380250D01*
X147807354Y-94377349D01*
X147807297Y-94371989D01*
X147807125Y-94366806D01*
X147806839Y-94361803D01*
X147806195Y-94354632D01*
X147805293Y-94347862D01*
X147804134Y-94341494D01*
X147802717Y-94335528D01*
X147801043Y-94329962D01*
X147799111Y-94324799D01*
X147796921Y-94320036D01*
X147794474Y-94315675D01*
X147792699Y-94312991D01*
X147788685Y-94307969D01*
X147785213Y-94304422D01*
X147781346Y-94301065D01*
X147777084Y-94297897D01*
X147772427Y-94294917D01*
X147767375Y-94292126D01*
X147761929Y-94289525D01*
X147756087Y-94287112D01*
X147749850Y-94284888D01*
X147743218Y-94282853D01*
X147740920Y-94282216D01*
X147749224Y-94221766D01*
X147756149Y-94223416D01*
X147762818Y-94225250D01*
X147769232Y-94227268D01*
X147775391Y-94229471D01*
X147781294Y-94231859D01*
X147786941Y-94234432D01*
X147792333Y-94237189D01*
X147797470Y-94240130D01*
X147802351Y-94243257D01*
X147806977Y-94246567D01*
X147809919Y-94248877D01*
X147814175Y-94252573D01*
X147818242Y-94256564D01*
X147822120Y-94260848D01*
X147825810Y-94265427D01*
X147829310Y-94270299D01*
X147832622Y-94275466D01*
X147835744Y-94280927D01*
X147838678Y-94286681D01*
X147841423Y-94292730D01*
X147843979Y-94299073D01*
X147845578Y-94303466D01*
X147847826Y-94310274D01*
X147849853Y-94317283D01*
X147851081Y-94322066D01*
X147852211Y-94326938D01*
X147853243Y-94331899D01*
X147854177Y-94336948D01*
X147855012Y-94342086D01*
X147855749Y-94347313D01*
X147856388Y-94352629D01*
X147856928Y-94358033D01*
X147857370Y-94363526D01*
X147857714Y-94369108D01*
X147857960Y-94374779D01*
X147858107Y-94380538D01*
X147858157Y-94386386D01*
X147858113Y-94392149D01*
X147857983Y-94397776D01*
X147857766Y-94403266D01*
X147857462Y-94408620D01*
X147857071Y-94413837D01*
X147856594Y-94418918D01*
X147856029Y-94423862D01*
X147855020Y-94431023D01*
X147853815Y-94437877D01*
X147852415Y-94444424D01*
X147850820Y-94450664D01*
X147849029Y-94456597D01*
X147847043Y-94462223D01*
X147844932Y-94467560D01*
X147842720Y-94472623D01*
X147840407Y-94477414D01*
X147837993Y-94481933D01*
X147835478Y-94486178D01*
X147831968Y-94491415D01*
X147828279Y-94496168D01*
X147824410Y-94500435D01*
X147820362Y-94504218D01*
X147819322Y-94505088D01*
X147815000Y-94508408D01*
X147810399Y-94511469D01*
X147805520Y-94514270D01*
X147800363Y-94516812D01*
X147794926Y-94519094D01*
X147789211Y-94521116D01*
X147783218Y-94522880D01*
X147776946Y-94524383D01*
X147771361Y-94525263D01*
X147765997Y-94525859D01*
X147759834Y-94526360D01*
X147754689Y-94526673D01*
X147749095Y-94526932D01*
X147743053Y-94527138D01*
X147736562Y-94527290D01*
X147729622Y-94527389D01*
X147722233Y-94527433D01*
X147719671Y-94527436D01*
X147636750Y-94527436D01*
X147631393Y-94527440D01*
X147626161Y-94527451D01*
X147621053Y-94527471D01*
X147616070Y-94527497D01*
X147606477Y-94527574D01*
X147597381Y-94527680D01*
X147588784Y-94527818D01*
X147580685Y-94527986D01*
X147573084Y-94528184D01*
X147565981Y-94528413D01*
X147559376Y-94528673D01*
X147553269Y-94528963D01*
X147547660Y-94529283D01*
X147542549Y-94529634D01*
X147535816Y-94530218D01*
X147530204Y-94530871D01*
X147527085Y-94531344D01*
X147521374Y-94532472D01*
X147515720Y-94533840D01*
X147510124Y-94535449D01*
X147504584Y-94537298D01*
X147499102Y-94539387D01*
X147493677Y-94541717D01*
X147488310Y-94544287D01*
X147483000Y-94547098D01*
X147483000Y-94482496D01*
X147488048Y-94480192D01*
X147493303Y-94478107D01*
X147498765Y-94476239D01*
X147504432Y-94474588D01*
X147510305Y-94473155D01*
X147516384Y-94471940D01*
X147522670Y-94470942D01*
X147527519Y-94470336D01*
X147529161Y-94470161D01*
X147525535Y-94465881D01*
X147522044Y-94461620D01*
X147518689Y-94457379D01*
X147515469Y-94453156D01*
X147512384Y-94448952D01*
X147509435Y-94444768D01*
X147506621Y-94440602D01*
X147503943Y-94436456D01*
X147500180Y-94430272D01*
X147496722Y-94424131D01*
X147493568Y-94418033D01*
X147490720Y-94411978D01*
X147488176Y-94405966D01*
X147487396Y-94403971D01*
X147485213Y-94397977D01*
X147483246Y-94391901D01*
X147481493Y-94385744D01*
X147479954Y-94379505D01*
X147478630Y-94373185D01*
X147477521Y-94366783D01*
X147476627Y-94360299D01*
X147475947Y-94353734D01*
X147475728Y-94350604D01*
X147524032Y-94350604D01*
X147524171Y-94357243D01*
X147524586Y-94363739D01*
X147525278Y-94370094D01*
X147526248Y-94376307D01*
X147527494Y-94382379D01*
X147529017Y-94388308D01*
X147530817Y-94394097D01*
X147532894Y-94399743D01*
X147535248Y-94405248D01*
X147537878Y-94410611D01*
X147539786Y-94414108D01*
X147542865Y-94419198D01*
X147546147Y-94424029D01*
X147549634Y-94428601D01*
X147553324Y-94432912D01*
X147557219Y-94436964D01*
X147561317Y-94440756D01*
X147565619Y-94444289D01*
X147570126Y-94447561D01*
X147574836Y-94450574D01*
X147579750Y-94453327D01*
X147583139Y-94455018D01*
X147588738Y-94457365D01*
X147594970Y-94459399D01*
X147600059Y-94460720D01*
X147605505Y-94461864D01*
X147611308Y-94462832D01*
X147617467Y-94463624D01*
X147623982Y-94464240D01*
X147630853Y-94464680D01*
X147638081Y-94464944D01*
X147643098Y-94465022D01*
X147645665Y-94465032D01*
X147668624Y-94465032D01*
X147666118Y-94458417D01*
X147664486Y-94453679D01*
X147662886Y-94448679D01*
X147661318Y-94443416D01*
X147659781Y-94437891D01*
X147658275Y-94432104D01*
X147656801Y-94426054D01*
X147655359Y-94419742D01*
X147653948Y-94413167D01*
X147652568Y-94406331D01*
X147651220Y-94399231D01*
X147649903Y-94391870D01*
X147648618Y-94384246D01*
X147647365Y-94376359D01*
X147646142Y-94368211D01*
X147645543Y-94364038D01*
X147644478Y-94357089D01*
X147643389Y-94350531D01*
X147642277Y-94344364D01*
X147641141Y-94338587D01*
X147639981Y-94333201D01*
X147638798Y-94328206D01*
X147637184Y-94322153D01*
X147635528Y-94316795D01*
X147633829Y-94312131D01*
X147632965Y-94310060D01*
X147630631Y-94305310D01*
X147627982Y-94300906D01*
X147625017Y-94296847D01*
X147621735Y-94293135D01*
X147618138Y-94289768D01*
X147614224Y-94286747D01*
X147612570Y-94285636D01*
X147608298Y-94283173D01*
X147602974Y-94280769D01*
X147597436Y-94278966D01*
X147592656Y-94277922D01*
X147587728Y-94277296D01*
X147582651Y-94277087D01*
X147576493Y-94277379D01*
X147570599Y-94278255D01*
X147564968Y-94279715D01*
X147559600Y-94281758D01*
X147554496Y-94284386D01*
X147549655Y-94287597D01*
X147545077Y-94291393D01*
X147540763Y-94295772D01*
X147536842Y-94300743D01*
X147533443Y-94306251D01*
X147531238Y-94310736D01*
X147529326Y-94315524D01*
X147527708Y-94320614D01*
X147526385Y-94326006D01*
X147525356Y-94331702D01*
X147524620Y-94337700D01*
X147524179Y-94344001D01*
X147524032Y-94350604D01*
X147475728Y-94350604D01*
X147475482Y-94347087D01*
X147475231Y-94340359D01*
X147475184Y-94335828D01*
X147475300Y-94328426D01*
X147475647Y-94321240D01*
X147476227Y-94314271D01*
X147477038Y-94307518D01*
X147478082Y-94300983D01*
X147479357Y-94294663D01*
X147480864Y-94288561D01*
X147482603Y-94282674D01*
X147484573Y-94277005D01*
X147486776Y-94271552D01*
X147489210Y-94266315D01*
X147491876Y-94261295D01*
X147494774Y-94256492D01*
X147497904Y-94251905D01*
X147501266Y-94247535D01*
X147504859Y-94243382D01*
X147508633Y-94239478D01*
X147512536Y-94235826D01*
X147516567Y-94232425D01*
X147520727Y-94229277D01*
X147525016Y-94226380D01*
X147529434Y-94223736D01*
X147533981Y-94221343D01*
X147538656Y-94219202D01*
X147543461Y-94217313D01*
X147548394Y-94215676D01*
X147553455Y-94214290D01*
X147558646Y-94213157D01*
X147563966Y-94212275D01*
X147569414Y-94211645D01*
X147574991Y-94211268D01*
X147580697Y-94211142D01*
X147585738Y-94211249D01*
G37*
G36*
X147483000Y-94620737D02*
G01*
X147850341Y-94620737D01*
X147850341Y-94676424D01*
X147794043Y-94676424D01*
X147798838Y-94679068D01*
X147803425Y-94681685D01*
X147807803Y-94684277D01*
X147811972Y-94686843D01*
X147817833Y-94690644D01*
X147823225Y-94694386D01*
X147828146Y-94698071D01*
X147832597Y-94701698D01*
X147836578Y-94705267D01*
X147840089Y-94708777D01*
X147844039Y-94713368D01*
X147845700Y-94715625D01*
X147848620Y-94720201D01*
X147851150Y-94724891D01*
X147853291Y-94729696D01*
X147855042Y-94734615D01*
X147856405Y-94739649D01*
X147857378Y-94744797D01*
X147857962Y-94750060D01*
X147858157Y-94755437D01*
X147857980Y-94761307D01*
X147857452Y-94767195D01*
X147856572Y-94773100D01*
X147855340Y-94779022D01*
X147853756Y-94784961D01*
X147851820Y-94790917D01*
X147849531Y-94796890D01*
X147846891Y-94802881D01*
X147843898Y-94808889D01*
X147840554Y-94814914D01*
X147838129Y-94818940D01*
X147780365Y-94797691D01*
X147783485Y-94792012D01*
X147786189Y-94786334D01*
X147788477Y-94780655D01*
X147790349Y-94774976D01*
X147791805Y-94769298D01*
X147792844Y-94763619D01*
X147793468Y-94757940D01*
X147793676Y-94752262D01*
X147793484Y-94747259D01*
X147792906Y-94742385D01*
X147791641Y-94736476D01*
X147789774Y-94730769D01*
X147787305Y-94725266D01*
X147784895Y-94721008D01*
X147782101Y-94716881D01*
X147781342Y-94715870D01*
X147778140Y-94711985D01*
X147774641Y-94708390D01*
X147770844Y-94705085D01*
X147766749Y-94702070D01*
X147762356Y-94699345D01*
X147757666Y-94696910D01*
X147752678Y-94694765D01*
X147747392Y-94692911D01*
X147741132Y-94691056D01*
X147734763Y-94689383D01*
X147728284Y-94687893D01*
X147721695Y-94686585D01*
X147714997Y-94685460D01*
X147708190Y-94684517D01*
X147701273Y-94683757D01*
X147694247Y-94683179D01*
X147687111Y-94682784D01*
X147679865Y-94682571D01*
X147674974Y-94682530D01*
X147483000Y-94682530D01*
X147483000Y-94620737D01*
G37*
G36*
X147673118Y-94832200D02*
G01*
X147679854Y-94832413D01*
X147686510Y-94832769D01*
X147693087Y-94833266D01*
X147699584Y-94833906D01*
X147706003Y-94834688D01*
X147712342Y-94835612D01*
X147718602Y-94836678D01*
X147724783Y-94837887D01*
X147730885Y-94839237D01*
X147736908Y-94840730D01*
X147742851Y-94842364D01*
X147748715Y-94844141D01*
X147754500Y-94846061D01*
X147760206Y-94848122D01*
X147765833Y-94850325D01*
X147771338Y-94852671D01*
X147776681Y-94855159D01*
X147781860Y-94857789D01*
X147786876Y-94860561D01*
X147791729Y-94863475D01*
X147796418Y-94866531D01*
X147800945Y-94869730D01*
X147805308Y-94873070D01*
X147809509Y-94876553D01*
X147813546Y-94880178D01*
X147817420Y-94883945D01*
X147821131Y-94887855D01*
X147824679Y-94891906D01*
X147828063Y-94896100D01*
X147831285Y-94900436D01*
X147834343Y-94904914D01*
X147837227Y-94909496D01*
X147839924Y-94914147D01*
X147842436Y-94918865D01*
X147844761Y-94923652D01*
X147846901Y-94928505D01*
X147848854Y-94933427D01*
X147850622Y-94938416D01*
X147852203Y-94943473D01*
X147853598Y-94948598D01*
X147854808Y-94953791D01*
X147855831Y-94959051D01*
X147856668Y-94964379D01*
X147857319Y-94969775D01*
X147857784Y-94975238D01*
X147858063Y-94980770D01*
X147858157Y-94986369D01*
X147858029Y-94992488D01*
X147857646Y-94998480D01*
X147857007Y-95004346D01*
X147856113Y-95010085D01*
X147854963Y-95015697D01*
X147853558Y-95021183D01*
X147851898Y-95026542D01*
X147849982Y-95031775D01*
X147847811Y-95036881D01*
X147845384Y-95041860D01*
X147843624Y-95045109D01*
X147840844Y-95049856D01*
X147837907Y-95054433D01*
X147834813Y-95058840D01*
X147831563Y-95063078D01*
X147828156Y-95067146D01*
X147824592Y-95071045D01*
X147820871Y-95074774D01*
X147816994Y-95078334D01*
X147812960Y-95081724D01*
X147808769Y-95084944D01*
X147805889Y-95086997D01*
X147991025Y-95086997D01*
X147991025Y-95148424D01*
X147483000Y-95148424D01*
X147483000Y-95091149D01*
X147529039Y-95091149D01*
X147522518Y-95086671D01*
X147516417Y-95081940D01*
X147510737Y-95076955D01*
X147505477Y-95071716D01*
X147500639Y-95066224D01*
X147496221Y-95060477D01*
X147492224Y-95054477D01*
X147488648Y-95048223D01*
X147485492Y-95041715D01*
X147482757Y-95034954D01*
X147480443Y-95027938D01*
X147478550Y-95020669D01*
X147477077Y-95013147D01*
X147476025Y-95005370D01*
X147475394Y-94997339D01*
X147475333Y-94994917D01*
X147525986Y-94994917D01*
X147526116Y-94999937D01*
X147526507Y-95004862D01*
X147527582Y-95012071D01*
X147529242Y-95019065D01*
X147531489Y-95025844D01*
X147534321Y-95032408D01*
X147537740Y-95038758D01*
X147541744Y-95044893D01*
X147544740Y-95048864D01*
X147547995Y-95052740D01*
X147551512Y-95056520D01*
X147555288Y-95060204D01*
X147559325Y-95063794D01*
X147563645Y-95067224D01*
X147568238Y-95070434D01*
X147573106Y-95073422D01*
X147578247Y-95076189D01*
X147583661Y-95078734D01*
X147589350Y-95081058D01*
X147595313Y-95083161D01*
X147601549Y-95085043D01*
X147608059Y-95086703D01*
X147614843Y-95088141D01*
X147621901Y-95089359D01*
X147629232Y-95090355D01*
X147636838Y-95091130D01*
X147644717Y-95091683D01*
X147652870Y-95092015D01*
X147661297Y-95092126D01*
X147670574Y-95092013D01*
X147679537Y-95091673D01*
X147688186Y-95091108D01*
X147696521Y-95090317D01*
X147704543Y-95089299D01*
X147712250Y-95088056D01*
X147719644Y-95086586D01*
X147726723Y-95084890D01*
X147733489Y-95082968D01*
X147739941Y-95080820D01*
X147746079Y-95078446D01*
X147751903Y-95075845D01*
X147757413Y-95073019D01*
X147762610Y-95069966D01*
X147767492Y-95066688D01*
X147772061Y-95063183D01*
X147776335Y-95059528D01*
X147780333Y-95055770D01*
X147784055Y-95051907D01*
X147787502Y-95047941D01*
X147790673Y-95043870D01*
X147793568Y-95039696D01*
X147796187Y-95035417D01*
X147798531Y-95031034D01*
X147800599Y-95026548D01*
X147802391Y-95021957D01*
X147803907Y-95017263D01*
X147805148Y-95012464D01*
X147806113Y-95007562D01*
X147806803Y-95002555D01*
X147807216Y-94997445D01*
X147807354Y-94992230D01*
X147807221Y-94987124D01*
X147806824Y-94982123D01*
X147806160Y-94977228D01*
X147804669Y-94970084D01*
X147802580Y-94963179D01*
X147799894Y-94956512D01*
X147796612Y-94950083D01*
X147792733Y-94943892D01*
X147789816Y-94939897D01*
X147786633Y-94936009D01*
X147783185Y-94932226D01*
X147779471Y-94928549D01*
X147775493Y-94924978D01*
X147773404Y-94923232D01*
X147769023Y-94919890D01*
X147764335Y-94916763D01*
X147759341Y-94913852D01*
X147754040Y-94911157D01*
X147748434Y-94908677D01*
X147742521Y-94906413D01*
X147736302Y-94904365D01*
X147729776Y-94902532D01*
X147722945Y-94900915D01*
X147715807Y-94899513D01*
X147708363Y-94898328D01*
X147700612Y-94897357D01*
X147692556Y-94896603D01*
X147684193Y-94896064D01*
X147675523Y-94895740D01*
X147666548Y-94895632D01*
X147657849Y-94895748D01*
X147649430Y-94896094D01*
X147641290Y-94896671D01*
X147633430Y-94897479D01*
X147625850Y-94898518D01*
X147618549Y-94899788D01*
X147611527Y-94901289D01*
X147604785Y-94903021D01*
X147598323Y-94904983D01*
X147592140Y-94907177D01*
X147586236Y-94909601D01*
X147580613Y-94912256D01*
X147575268Y-94915142D01*
X147570204Y-94918259D01*
X147565419Y-94921607D01*
X147560913Y-94925186D01*
X147556684Y-94928921D01*
X147552727Y-94932740D01*
X147549043Y-94936642D01*
X147545633Y-94940626D01*
X147542495Y-94944694D01*
X147539629Y-94948845D01*
X147537037Y-94953079D01*
X147534718Y-94957395D01*
X147531751Y-94964026D01*
X147529397Y-94970843D01*
X147527658Y-94977848D01*
X147526532Y-94985039D01*
X147526123Y-94989936D01*
X147525986Y-94994917D01*
X147475333Y-94994917D01*
X147475184Y-94989055D01*
X147475278Y-94983633D01*
X147475562Y-94978265D01*
X147476034Y-94972951D01*
X147476695Y-94967692D01*
X147477545Y-94962487D01*
X147478584Y-94957336D01*
X147479812Y-94952240D01*
X147481229Y-94947198D01*
X147482834Y-94942211D01*
X147484629Y-94937278D01*
X147486613Y-94932399D01*
X147488785Y-94927575D01*
X147491146Y-94922805D01*
X147493697Y-94918089D01*
X147496436Y-94913428D01*
X147499364Y-94908821D01*
X147502461Y-94904321D01*
X147505706Y-94899949D01*
X147509101Y-94895704D01*
X147512644Y-94891587D01*
X147516337Y-94887598D01*
X147520178Y-94883737D01*
X147524168Y-94880004D01*
X147528307Y-94876398D01*
X147532594Y-94872921D01*
X147537031Y-94869571D01*
X147541616Y-94866349D01*
X147546350Y-94863255D01*
X147551233Y-94860289D01*
X147556265Y-94857450D01*
X147561445Y-94854740D01*
X147566775Y-94852157D01*
X147572244Y-94849732D01*
X147577813Y-94847463D01*
X147583483Y-94845351D01*
X147589253Y-94843395D01*
X147595123Y-94841596D01*
X147601093Y-94839953D01*
X147607163Y-94838466D01*
X147613334Y-94837136D01*
X147619604Y-94835963D01*
X147625975Y-94834946D01*
X147632446Y-94834085D01*
X147639017Y-94833381D01*
X147645689Y-94832833D01*
X147652460Y-94832442D01*
X147659332Y-94832207D01*
X147666304Y-94832129D01*
X147673118Y-94832200D01*
G37*
G36*
X146643000Y-90857199D02*
G01*
X147151025Y-90857199D01*
X147151025Y-91221243D01*
X147092406Y-91221243D01*
X147092406Y-90923755D01*
X146932183Y-90923755D01*
X146932183Y-91202314D01*
X146873565Y-91202314D01*
X146873565Y-90923755D01*
X146701618Y-90923755D01*
X146701618Y-91232966D01*
X146643000Y-91232966D01*
X146643000Y-90857199D01*
G37*
G36*
X146643000Y-91273144D02*
G01*
X146833875Y-91406379D01*
X147010341Y-91283158D01*
X147010341Y-91360461D01*
X146924245Y-91416393D01*
X146919712Y-91419293D01*
X146915319Y-91422086D01*
X146911066Y-91424771D01*
X146905611Y-91428185D01*
X146900405Y-91431408D01*
X146895447Y-91434440D01*
X146890736Y-91437281D01*
X146886274Y-91439932D01*
X146883090Y-91441794D01*
X146887326Y-91444612D01*
X146891469Y-91447387D01*
X146895520Y-91450119D01*
X146900778Y-91453695D01*
X146905872Y-91457194D01*
X146910802Y-91460618D01*
X146915567Y-91463964D01*
X146920169Y-91467235D01*
X146923512Y-91469638D01*
X147010341Y-91531065D01*
X147010341Y-91604948D01*
X146837417Y-91478919D01*
X146643000Y-91614596D01*
X146643000Y-91538636D01*
X146757183Y-91463776D01*
X146787958Y-91443870D01*
X146643000Y-91348005D01*
X146643000Y-91273144D01*
G37*
G36*
X146699664Y-91799121D02*
G01*
X146643000Y-91808036D01*
X146641603Y-91803186D01*
X146640343Y-91798434D01*
X146638878Y-91792251D01*
X146637657Y-91786244D01*
X146636680Y-91780413D01*
X146635947Y-91774757D01*
X146635459Y-91769277D01*
X146635214Y-91763972D01*
X146635184Y-91761386D01*
X146635278Y-91755199D01*
X146635562Y-91749279D01*
X146636034Y-91743624D01*
X146636695Y-91738236D01*
X146637545Y-91733114D01*
X146638584Y-91728259D01*
X146640263Y-91722198D01*
X146642278Y-91716611D01*
X146644629Y-91711497D01*
X146645930Y-91709118D01*
X146648753Y-91704649D01*
X146651785Y-91700524D01*
X146655027Y-91696742D01*
X146659374Y-91692497D01*
X146664050Y-91688789D01*
X146669053Y-91685618D01*
X146674385Y-91682984D01*
X146679390Y-91681238D01*
X146685612Y-91679725D01*
X146691078Y-91678743D01*
X146697229Y-91677892D01*
X146704064Y-91677171D01*
X146709001Y-91676764D01*
X146714243Y-91676415D01*
X146719789Y-91676124D01*
X146725639Y-91675891D01*
X146731794Y-91675716D01*
X146738253Y-91675600D01*
X146745017Y-91675542D01*
X146748512Y-91675535D01*
X146961492Y-91675535D01*
X146961492Y-91630105D01*
X147010341Y-91630105D01*
X147010341Y-91675535D01*
X147099001Y-91675535D01*
X147135393Y-91736962D01*
X147010341Y-91736962D01*
X147010341Y-91799121D01*
X146961492Y-91799121D01*
X146961492Y-91736962D01*
X146743505Y-91736962D01*
X146738593Y-91736990D01*
X146732574Y-91737114D01*
X146727161Y-91737337D01*
X146721249Y-91737755D01*
X146716285Y-91738329D01*
X146710928Y-91739393D01*
X146708701Y-91740137D01*
X146704190Y-91742591D01*
X146700276Y-91745833D01*
X146696959Y-91749861D01*
X146696367Y-91750761D01*
X146694182Y-91755454D01*
X146692841Y-91760469D01*
X146692130Y-91765507D01*
X146691852Y-91771154D01*
X146691848Y-91772010D01*
X146692337Y-91777552D01*
X146693565Y-91783077D01*
X146695214Y-91788314D01*
X146697008Y-91793033D01*
X146699183Y-91798075D01*
X146699664Y-91799121D01*
G37*
G36*
X146829355Y-91838002D02*
G01*
X146835011Y-91838141D01*
X146840587Y-91838372D01*
X146846082Y-91838696D01*
X146851496Y-91839113D01*
X146856829Y-91839622D01*
X146862081Y-91840223D01*
X146867253Y-91840917D01*
X146872343Y-91841704D01*
X146877353Y-91842583D01*
X146882282Y-91843555D01*
X146887130Y-91844619D01*
X146891897Y-91845776D01*
X146901189Y-91848367D01*
X146910157Y-91851329D01*
X146918802Y-91854660D01*
X146927123Y-91858362D01*
X146935121Y-91862434D01*
X146942796Y-91866876D01*
X146950147Y-91871689D01*
X146957175Y-91876871D01*
X146963879Y-91882424D01*
X146967110Y-91885339D01*
X146973291Y-91891372D01*
X146979074Y-91897626D01*
X146984458Y-91904100D01*
X146989443Y-91910794D01*
X146994029Y-91917708D01*
X146998216Y-91924844D01*
X147002005Y-91932199D01*
X147005395Y-91939775D01*
X147008386Y-91947571D01*
X147010978Y-91955588D01*
X147013171Y-91963825D01*
X147014966Y-91972282D01*
X147016362Y-91980960D01*
X147017359Y-91989858D01*
X147017957Y-91998976D01*
X147018157Y-92008315D01*
X147017958Y-92017354D01*
X147017361Y-92026183D01*
X147016366Y-92034802D01*
X147014974Y-92043212D01*
X147013183Y-92051411D01*
X147010995Y-92059400D01*
X147008409Y-92067180D01*
X147005425Y-92074749D01*
X147002044Y-92082109D01*
X146998264Y-92089259D01*
X146994087Y-92096199D01*
X146989511Y-92102929D01*
X146984538Y-92109449D01*
X146979167Y-92115759D01*
X146973399Y-92121860D01*
X146967232Y-92127750D01*
X146960705Y-92133370D01*
X146953854Y-92138627D01*
X146946680Y-92143521D01*
X146939182Y-92148053D01*
X146931361Y-92152222D01*
X146923217Y-92156029D01*
X146914749Y-92159473D01*
X146905957Y-92162555D01*
X146896843Y-92165274D01*
X146887405Y-92167630D01*
X146882564Y-92168673D01*
X146877643Y-92169624D01*
X146872641Y-92170486D01*
X146867558Y-92171256D01*
X146862394Y-92171936D01*
X146857149Y-92172525D01*
X146851824Y-92173023D01*
X146846418Y-92173431D01*
X146840930Y-92173748D01*
X146835362Y-92173975D01*
X146829713Y-92174111D01*
X146823983Y-92174156D01*
X146818980Y-92174122D01*
X146813604Y-92174041D01*
X146808513Y-92173942D01*
X146807131Y-92173912D01*
X146807131Y-91905245D01*
X146857933Y-91905245D01*
X146857933Y-92108943D01*
X146863853Y-92108366D01*
X146869584Y-92107671D01*
X146875127Y-92106858D01*
X146880480Y-92105929D01*
X146885644Y-92104881D01*
X146890620Y-92103717D01*
X146895406Y-92102435D01*
X146902232Y-92100293D01*
X146908633Y-92097886D01*
X146914608Y-92095215D01*
X146920159Y-92092280D01*
X146925284Y-92089081D01*
X146929985Y-92085618D01*
X146934510Y-92081856D01*
X146938743Y-92077957D01*
X146942685Y-92073922D01*
X146946334Y-92069750D01*
X146949691Y-92065442D01*
X146952757Y-92060997D01*
X146955530Y-92056416D01*
X146958012Y-92051699D01*
X146960201Y-92046845D01*
X146962099Y-92041855D01*
X146963705Y-92036728D01*
X146965018Y-92031465D01*
X146966040Y-92026065D01*
X146966770Y-92020529D01*
X146967208Y-92014857D01*
X146967354Y-92009048D01*
X146967238Y-92003774D01*
X146966888Y-91998605D01*
X146966306Y-91993542D01*
X146965492Y-91988585D01*
X146964444Y-91983734D01*
X146963164Y-91978989D01*
X146960807Y-91972070D01*
X146957926Y-91965389D01*
X146954521Y-91958947D01*
X146951961Y-91954784D01*
X146949167Y-91950727D01*
X146946141Y-91946777D01*
X146942882Y-91942932D01*
X146939390Y-91939193D01*
X146937556Y-91937363D01*
X146933753Y-91933846D01*
X146929794Y-91930530D01*
X146925678Y-91927415D01*
X146921406Y-91924502D01*
X146916977Y-91921790D01*
X146912392Y-91919279D01*
X146907650Y-91916970D01*
X146902752Y-91914862D01*
X146897697Y-91912955D01*
X146892486Y-91911250D01*
X146887118Y-91909746D01*
X146881594Y-91908443D01*
X146875914Y-91907342D01*
X146870077Y-91906441D01*
X146864083Y-91905742D01*
X146857933Y-91905245D01*
X146807131Y-91905245D01*
X146807131Y-91901826D01*
X146799895Y-91902359D01*
X146792875Y-91903104D01*
X146786069Y-91904061D01*
X146779478Y-91905230D01*
X146773101Y-91906610D01*
X146766939Y-91908203D01*
X146760992Y-91910007D01*
X146755260Y-91912023D01*
X146749742Y-91914250D01*
X146744439Y-91916690D01*
X146739350Y-91919341D01*
X146734476Y-91922205D01*
X146729817Y-91925280D01*
X146725372Y-91928566D01*
X146721142Y-91932065D01*
X146717127Y-91935775D01*
X146713356Y-91939666D01*
X146709829Y-91943673D01*
X146706544Y-91947798D01*
X146703503Y-91952040D01*
X146700705Y-91956400D01*
X146698151Y-91960877D01*
X146695839Y-91965471D01*
X146693771Y-91970183D01*
X146691947Y-91975012D01*
X146690365Y-91979958D01*
X146689027Y-91985022D01*
X146687933Y-91990203D01*
X146687081Y-91995502D01*
X146686473Y-92000918D01*
X146686108Y-92006451D01*
X146685986Y-92012101D01*
X146686142Y-92018380D01*
X146686609Y-92024485D01*
X146687387Y-92030415D01*
X146688476Y-92036172D01*
X146689877Y-92041756D01*
X146691589Y-92047165D01*
X146693612Y-92052400D01*
X146695947Y-92057462D01*
X146698593Y-92062349D01*
X146701550Y-92067063D01*
X146703694Y-92070109D01*
X146707200Y-92074532D01*
X146711077Y-92078779D01*
X146715326Y-92082849D01*
X146719946Y-92086744D01*
X146724937Y-92090463D01*
X146730300Y-92094006D01*
X146736034Y-92097372D01*
X146742139Y-92100563D01*
X146748616Y-92103578D01*
X146753140Y-92105489D01*
X146757830Y-92107323D01*
X146760236Y-92108211D01*
X146752420Y-92172202D01*
X146745557Y-92170209D01*
X146738888Y-92168014D01*
X146732413Y-92165618D01*
X146726134Y-92163020D01*
X146720049Y-92160222D01*
X146714158Y-92157221D01*
X146708462Y-92154020D01*
X146702961Y-92150617D01*
X146697655Y-92147013D01*
X146692543Y-92143208D01*
X146687625Y-92139201D01*
X146682903Y-92134993D01*
X146678375Y-92130584D01*
X146674041Y-92125974D01*
X146669902Y-92121162D01*
X146665958Y-92116149D01*
X146662232Y-92110947D01*
X146658746Y-92105568D01*
X146655500Y-92100013D01*
X146652494Y-92094281D01*
X146649730Y-92088373D01*
X146647205Y-92082289D01*
X146644921Y-92076027D01*
X146642877Y-92069590D01*
X146641074Y-92062976D01*
X146639511Y-92056185D01*
X146638189Y-92049218D01*
X146637107Y-92042074D01*
X146636266Y-92034754D01*
X146635665Y-92027258D01*
X146635304Y-92019584D01*
X146635184Y-92011735D01*
X146635232Y-92006768D01*
X146635377Y-92001865D01*
X146635957Y-91992255D01*
X146636923Y-91982902D01*
X146638275Y-91973808D01*
X146640014Y-91964973D01*
X146642139Y-91956397D01*
X146644651Y-91948079D01*
X146647549Y-91940019D01*
X146650833Y-91932218D01*
X146654504Y-91924676D01*
X146658561Y-91917392D01*
X146663005Y-91910366D01*
X146667835Y-91903600D01*
X146673051Y-91897091D01*
X146678654Y-91890842D01*
X146684643Y-91884851D01*
X146690996Y-91879172D01*
X146697660Y-91873860D01*
X146704636Y-91868914D01*
X146711922Y-91864334D01*
X146719519Y-91860121D01*
X146727427Y-91856274D01*
X146735647Y-91852794D01*
X146744177Y-91849680D01*
X146753018Y-91846932D01*
X146762171Y-91844551D01*
X146771634Y-91842536D01*
X146776483Y-91841665D01*
X146781409Y-91840887D01*
X146786413Y-91840200D01*
X146791494Y-91839605D01*
X146796654Y-91839101D01*
X146801891Y-91838689D01*
X146807206Y-91838368D01*
X146812598Y-91838139D01*
X146818069Y-91838002D01*
X146823617Y-91837956D01*
X146829355Y-91838002D01*
G37*
G36*
X146643000Y-92247918D02*
G01*
X147010341Y-92247918D01*
X147010341Y-92303483D01*
X146958806Y-92303483D01*
X146965993Y-92308645D01*
X146972716Y-92314086D01*
X146978976Y-92319808D01*
X146984772Y-92325808D01*
X146990104Y-92332088D01*
X146994973Y-92338648D01*
X146999377Y-92345487D01*
X147003319Y-92352606D01*
X147006796Y-92360005D01*
X147009810Y-92367683D01*
X147012361Y-92375640D01*
X147014447Y-92383877D01*
X147016070Y-92392393D01*
X147017229Y-92401190D01*
X147017925Y-92410265D01*
X147018157Y-92419620D01*
X147018051Y-92425756D01*
X147017736Y-92431796D01*
X147017210Y-92437743D01*
X147016474Y-92443594D01*
X147015527Y-92449352D01*
X147014370Y-92455015D01*
X147013002Y-92460583D01*
X147011425Y-92466057D01*
X147009636Y-92471437D01*
X147007638Y-92476722D01*
X147006189Y-92480193D01*
X147003901Y-92485267D01*
X147001480Y-92490094D01*
X146998926Y-92494675D01*
X146996240Y-92499009D01*
X146993420Y-92503096D01*
X146989452Y-92508161D01*
X146985249Y-92512787D01*
X146980809Y-92516975D01*
X146976132Y-92520723D01*
X146974926Y-92521592D01*
X146969987Y-92524912D01*
X146964820Y-92527973D01*
X146959424Y-92530774D01*
X146953799Y-92533315D01*
X146947944Y-92535598D01*
X146941861Y-92537620D01*
X146937149Y-92538967D01*
X146932307Y-92540168D01*
X146929008Y-92540887D01*
X146922992Y-92541872D01*
X146917265Y-92542540D01*
X146910724Y-92543101D01*
X146905286Y-92543451D01*
X146899390Y-92543742D01*
X146893037Y-92543972D01*
X146886227Y-92544143D01*
X146878959Y-92544253D01*
X146873860Y-92544293D01*
X146868558Y-92544306D01*
X146643000Y-92544306D01*
X146643000Y-92482513D01*
X146866970Y-92482513D01*
X146873945Y-92482450D01*
X146880580Y-92482260D01*
X146886876Y-92481943D01*
X146892833Y-92481500D01*
X146898451Y-92480930D01*
X146903730Y-92480233D01*
X146908669Y-92479410D01*
X146914728Y-92478115D01*
X146920183Y-92476595D01*
X146923879Y-92475308D01*
X146928491Y-92473331D01*
X146932862Y-92471003D01*
X146936993Y-92468324D01*
X146940884Y-92465294D01*
X146944534Y-92461913D01*
X146947944Y-92458180D01*
X146951114Y-92454097D01*
X146954043Y-92449662D01*
X146956705Y-92444982D01*
X146959012Y-92440099D01*
X146960964Y-92435013D01*
X146962561Y-92429726D01*
X146963803Y-92424236D01*
X146964690Y-92418544D01*
X146965223Y-92412650D01*
X146965400Y-92406553D01*
X146965301Y-92401665D01*
X146964783Y-92394489D01*
X146963820Y-92387502D01*
X146962413Y-92380705D01*
X146960561Y-92374096D01*
X146958266Y-92367676D01*
X146955525Y-92361445D01*
X146952341Y-92355403D01*
X146948712Y-92349549D01*
X146944639Y-92343885D01*
X146940121Y-92338410D01*
X146934981Y-92333281D01*
X146931109Y-92330142D01*
X146926882Y-92327227D01*
X146922298Y-92324537D01*
X146917359Y-92322071D01*
X146912064Y-92319828D01*
X146906413Y-92317811D01*
X146900406Y-92316017D01*
X146894043Y-92314447D01*
X146887325Y-92313102D01*
X146880250Y-92311981D01*
X146872820Y-92311084D01*
X146865034Y-92310412D01*
X146856892Y-92309963D01*
X146848394Y-92309739D01*
X146844011Y-92309711D01*
X146643000Y-92309711D01*
X146643000Y-92247918D01*
G37*
G36*
X146833118Y-92614964D02*
G01*
X146839854Y-92615177D01*
X146846510Y-92615532D01*
X146853087Y-92616030D01*
X146859584Y-92616669D01*
X146866003Y-92617451D01*
X146872342Y-92618375D01*
X146878602Y-92619442D01*
X146884783Y-92620650D01*
X146890885Y-92622000D01*
X146896908Y-92623493D01*
X146902851Y-92625128D01*
X146908715Y-92626905D01*
X146914500Y-92628824D01*
X146920206Y-92630885D01*
X146925833Y-92633089D01*
X146931338Y-92635434D01*
X146936681Y-92637922D01*
X146941860Y-92640552D01*
X146946876Y-92643324D01*
X146951729Y-92646238D01*
X146956418Y-92649295D01*
X146960945Y-92652493D01*
X146965308Y-92655834D01*
X146969509Y-92659317D01*
X146973546Y-92662942D01*
X146977420Y-92666709D01*
X146981131Y-92670618D01*
X146984679Y-92674670D01*
X146988063Y-92678863D01*
X146991285Y-92683199D01*
X146994343Y-92687677D01*
X146997227Y-92692260D01*
X146999924Y-92696910D01*
X147002436Y-92701629D01*
X147004761Y-92706415D01*
X147006901Y-92711269D01*
X147008854Y-92716190D01*
X147010622Y-92721180D01*
X147012203Y-92726237D01*
X147013598Y-92731362D01*
X147014808Y-92736554D01*
X147015831Y-92741814D01*
X147016668Y-92747142D01*
X147017319Y-92752538D01*
X147017784Y-92758002D01*
X147018063Y-92763533D01*
X147018157Y-92769132D01*
X147018029Y-92775251D01*
X147017646Y-92781243D01*
X147017007Y-92787109D01*
X147016113Y-92792848D01*
X147014963Y-92798461D01*
X147013558Y-92803947D01*
X147011898Y-92809306D01*
X147009982Y-92814538D01*
X147007811Y-92819644D01*
X147005384Y-92824623D01*
X147003624Y-92827872D01*
X147000844Y-92832619D01*
X146997907Y-92837196D01*
X146994813Y-92841603D01*
X146991563Y-92845841D01*
X146988156Y-92849910D01*
X146984592Y-92853808D01*
X146980871Y-92857537D01*
X146976994Y-92861097D01*
X146972960Y-92864487D01*
X146968769Y-92867707D01*
X146965889Y-92869760D01*
X147151025Y-92869760D01*
X147151025Y-92931187D01*
X146643000Y-92931187D01*
X146643000Y-92873912D01*
X146689039Y-92873912D01*
X146682518Y-92869435D01*
X146676417Y-92864703D01*
X146670737Y-92859718D01*
X146665477Y-92854479D01*
X146660639Y-92848987D01*
X146656221Y-92843240D01*
X146652224Y-92837240D01*
X146648648Y-92830986D01*
X146645492Y-92824479D01*
X146642757Y-92817717D01*
X146640443Y-92810702D01*
X146638550Y-92803433D01*
X146637077Y-92795910D01*
X146636025Y-92788133D01*
X146635394Y-92780103D01*
X146635333Y-92777680D01*
X146685986Y-92777680D01*
X146686116Y-92782701D01*
X146686507Y-92787626D01*
X146687582Y-92794834D01*
X146689242Y-92801828D01*
X146691489Y-92808607D01*
X146694321Y-92815172D01*
X146697740Y-92821521D01*
X146701744Y-92827657D01*
X146704740Y-92831628D01*
X146707995Y-92835503D01*
X146711512Y-92839283D01*
X146715288Y-92842968D01*
X146719325Y-92846557D01*
X146723645Y-92849988D01*
X146728238Y-92853197D01*
X146733106Y-92856185D01*
X146738247Y-92858952D01*
X146743661Y-92861498D01*
X146749350Y-92863822D01*
X146755313Y-92865925D01*
X146761549Y-92867806D01*
X146768059Y-92869466D01*
X146774843Y-92870905D01*
X146781901Y-92872122D01*
X146789232Y-92873118D01*
X146796838Y-92873893D01*
X146804717Y-92874446D01*
X146812870Y-92874778D01*
X146821297Y-92874889D01*
X146830574Y-92874776D01*
X146839537Y-92874437D01*
X146848186Y-92873872D01*
X146856521Y-92873080D01*
X146864543Y-92872063D01*
X146872250Y-92870819D01*
X146879644Y-92869349D01*
X146886723Y-92867653D01*
X146893489Y-92865731D01*
X146899941Y-92863583D01*
X146906079Y-92861209D01*
X146911903Y-92858609D01*
X146917413Y-92855782D01*
X146922610Y-92852730D01*
X146927492Y-92849451D01*
X146932061Y-92845946D01*
X146936335Y-92842292D01*
X146940333Y-92838533D01*
X146944055Y-92834671D01*
X146947502Y-92830704D01*
X146950673Y-92826633D01*
X146953568Y-92822459D01*
X146956187Y-92818180D01*
X146958531Y-92813798D01*
X146960599Y-92809311D01*
X146962391Y-92804721D01*
X146963907Y-92800026D01*
X146965148Y-92795228D01*
X146966113Y-92790325D01*
X146966803Y-92785319D01*
X146967216Y-92780208D01*
X146967354Y-92774994D01*
X146967221Y-92769887D01*
X146966824Y-92764886D01*
X146966160Y-92759991D01*
X146964669Y-92752848D01*
X146962580Y-92745942D01*
X146959894Y-92739275D01*
X146956612Y-92732846D01*
X146952733Y-92726655D01*
X146949816Y-92722661D01*
X146946633Y-92718772D01*
X146943185Y-92714989D01*
X146939471Y-92711312D01*
X146935493Y-92707741D01*
X146933404Y-92705995D01*
X146929023Y-92702653D01*
X146924335Y-92699526D01*
X146919341Y-92696616D01*
X146914040Y-92693920D01*
X146908434Y-92691441D01*
X146902521Y-92689177D01*
X146896302Y-92687128D01*
X146889776Y-92685296D01*
X146882945Y-92683678D01*
X146875807Y-92682277D01*
X146868363Y-92681091D01*
X146860612Y-92680121D01*
X146852556Y-92679366D01*
X146844193Y-92678827D01*
X146835523Y-92678503D01*
X146826548Y-92678396D01*
X146817849Y-92678511D01*
X146809430Y-92678857D01*
X146801290Y-92679435D01*
X146793430Y-92680243D01*
X146785850Y-92681282D01*
X146778549Y-92682552D01*
X146771527Y-92684052D01*
X146764785Y-92685784D01*
X146758323Y-92687747D01*
X146752140Y-92689940D01*
X146746236Y-92692364D01*
X146740613Y-92695019D01*
X146735268Y-92697906D01*
X146730204Y-92701022D01*
X146725419Y-92704370D01*
X146720913Y-92707949D01*
X146716684Y-92711685D01*
X146712727Y-92715503D01*
X146709043Y-92719405D01*
X146705633Y-92723390D01*
X146702495Y-92727457D01*
X146699629Y-92731608D01*
X146697037Y-92735842D01*
X146694718Y-92740159D01*
X146691751Y-92746789D01*
X146689397Y-92753607D01*
X146687658Y-92760611D01*
X146686532Y-92767802D01*
X146686123Y-92772700D01*
X146685986Y-92777680D01*
X146635333Y-92777680D01*
X146635184Y-92771819D01*
X146635278Y-92766396D01*
X146635562Y-92761028D01*
X146636034Y-92755714D01*
X146636695Y-92750455D01*
X146637545Y-92745250D01*
X146638584Y-92740099D01*
X146639812Y-92735003D01*
X146641229Y-92729961D01*
X146642834Y-92724974D01*
X146644629Y-92720041D01*
X146646613Y-92715162D01*
X146648785Y-92710338D01*
X146651146Y-92705568D01*
X146653697Y-92700853D01*
X146656436Y-92696192D01*
X146659364Y-92691585D01*
X146662461Y-92687084D01*
X146665706Y-92682712D01*
X146669101Y-92678467D01*
X146672644Y-92674350D01*
X146676337Y-92670361D01*
X146680178Y-92666500D01*
X146684168Y-92662767D01*
X146688307Y-92659162D01*
X146692594Y-92655684D01*
X146697031Y-92652334D01*
X146701616Y-92649112D01*
X146706350Y-92646018D01*
X146711233Y-92643052D01*
X146716265Y-92640214D01*
X146721445Y-92637503D01*
X146726775Y-92634920D01*
X146732244Y-92632495D01*
X146737813Y-92630226D01*
X146743483Y-92628114D01*
X146749253Y-92626158D01*
X146755123Y-92624359D01*
X146761093Y-92622716D01*
X146767163Y-92621229D01*
X146773334Y-92619899D01*
X146779604Y-92618726D01*
X146785975Y-92617709D01*
X146792446Y-92616848D01*
X146799017Y-92616144D01*
X146805689Y-92615597D01*
X146812460Y-92615205D01*
X146819332Y-92614971D01*
X146826304Y-92614893D01*
X146833118Y-92614964D01*
G37*
G36*
X146829355Y-93005972D02*
G01*
X146835011Y-93006110D01*
X146840587Y-93006342D01*
X146846082Y-93006666D01*
X146851496Y-93007082D01*
X146856829Y-93007591D01*
X146862081Y-93008193D01*
X146867253Y-93008887D01*
X146872343Y-93009673D01*
X146877353Y-93010553D01*
X146882282Y-93011524D01*
X146887130Y-93012589D01*
X146891897Y-93013745D01*
X146901189Y-93016337D01*
X146910157Y-93019298D01*
X146918802Y-93022630D01*
X146927123Y-93026332D01*
X146935121Y-93030404D01*
X146942796Y-93034846D01*
X146950147Y-93039658D01*
X146957175Y-93044841D01*
X146963879Y-93050393D01*
X146967110Y-93053308D01*
X146973291Y-93059342D01*
X146979074Y-93065595D01*
X146984458Y-93072069D01*
X146989443Y-93078763D01*
X146994029Y-93085678D01*
X146998216Y-93092813D01*
X147002005Y-93100168D01*
X147005395Y-93107744D01*
X147008386Y-93115540D01*
X147010978Y-93123557D01*
X147013171Y-93131794D01*
X147014966Y-93140251D01*
X147016362Y-93148929D01*
X147017359Y-93157827D01*
X147017957Y-93166946D01*
X147018157Y-93176285D01*
X147017958Y-93185324D01*
X147017361Y-93194153D01*
X147016366Y-93202772D01*
X147014974Y-93211181D01*
X147013183Y-93219380D01*
X147010995Y-93227370D01*
X147008409Y-93235149D01*
X147005425Y-93242719D01*
X147002044Y-93250078D01*
X146998264Y-93257228D01*
X146994087Y-93264168D01*
X146989511Y-93270898D01*
X146984538Y-93277418D01*
X146979167Y-93283729D01*
X146973399Y-93289829D01*
X146967232Y-93295719D01*
X146960705Y-93301339D01*
X146953854Y-93306596D01*
X146946680Y-93311490D01*
X146939182Y-93316022D01*
X146931361Y-93320191D01*
X146923217Y-93323998D01*
X146914749Y-93327442D01*
X146905957Y-93330524D01*
X146896843Y-93333243D01*
X146887405Y-93335600D01*
X146882564Y-93336642D01*
X146877643Y-93337594D01*
X146872641Y-93338455D01*
X146867558Y-93339225D01*
X146862394Y-93339905D01*
X146857149Y-93340494D01*
X146851824Y-93340993D01*
X146846418Y-93341401D01*
X146840930Y-93341718D01*
X146835362Y-93341944D01*
X146829713Y-93342080D01*
X146823983Y-93342126D01*
X146818980Y-93342091D01*
X146813604Y-93342010D01*
X146808513Y-93341911D01*
X146807131Y-93341881D01*
X146807131Y-93073214D01*
X146857933Y-93073214D01*
X146857933Y-93276913D01*
X146863853Y-93276335D01*
X146869584Y-93275640D01*
X146875127Y-93274828D01*
X146880480Y-93273898D01*
X146885644Y-93272851D01*
X146890620Y-93271686D01*
X146895406Y-93270405D01*
X146902232Y-93268262D01*
X146908633Y-93265855D01*
X146914608Y-93263184D01*
X146920159Y-93260249D01*
X146925284Y-93257050D01*
X146929985Y-93253588D01*
X146934510Y-93249825D01*
X146938743Y-93245926D01*
X146942685Y-93241891D01*
X146946334Y-93237719D01*
X146949691Y-93233411D01*
X146952757Y-93228967D01*
X146955530Y-93224386D01*
X146958012Y-93219668D01*
X146960201Y-93214814D01*
X146962099Y-93209824D01*
X146963705Y-93204697D01*
X146965018Y-93199434D01*
X146966040Y-93194035D01*
X146966770Y-93188499D01*
X146967208Y-93182826D01*
X146967354Y-93177017D01*
X146967238Y-93171743D01*
X146966888Y-93166574D01*
X146966306Y-93161511D01*
X146965492Y-93156554D01*
X146964444Y-93151703D01*
X146963164Y-93146958D01*
X146960807Y-93140039D01*
X146957926Y-93133359D01*
X146954521Y-93126916D01*
X146951961Y-93122753D01*
X146949167Y-93118697D01*
X146946141Y-93114746D01*
X146942882Y-93110901D01*
X146939390Y-93107162D01*
X146937556Y-93105332D01*
X146933753Y-93101815D01*
X146929794Y-93098499D01*
X146925678Y-93095385D01*
X146921406Y-93092471D01*
X146916977Y-93089759D01*
X146912392Y-93087249D01*
X146907650Y-93084939D01*
X146902752Y-93082831D01*
X146897697Y-93080925D01*
X146892486Y-93079219D01*
X146887118Y-93077715D01*
X146881594Y-93076412D01*
X146875914Y-93075311D01*
X146870077Y-93074411D01*
X146864083Y-93073712D01*
X146857933Y-93073214D01*
X146807131Y-93073214D01*
X146807131Y-93069795D01*
X146799895Y-93070328D01*
X146792875Y-93071073D01*
X146786069Y-93072030D01*
X146779478Y-93073199D01*
X146773101Y-93074580D01*
X146766939Y-93076172D01*
X146760992Y-93077976D01*
X146755260Y-93079992D01*
X146749742Y-93082220D01*
X146744439Y-93084659D01*
X146739350Y-93087311D01*
X146734476Y-93090174D01*
X146729817Y-93093249D01*
X146725372Y-93096536D01*
X146721142Y-93100034D01*
X146717127Y-93103745D01*
X146713356Y-93107635D01*
X146709829Y-93111642D01*
X146706544Y-93115767D01*
X146703503Y-93120010D01*
X146700705Y-93124369D01*
X146698151Y-93128846D01*
X146695839Y-93133441D01*
X146693771Y-93138152D01*
X146691947Y-93142981D01*
X146690365Y-93147928D01*
X146689027Y-93152991D01*
X146687933Y-93158173D01*
X146687081Y-93163471D01*
X146686473Y-93168887D01*
X146686108Y-93174420D01*
X146685986Y-93180070D01*
X146686142Y-93186349D01*
X146686609Y-93192454D01*
X146687387Y-93198385D01*
X146688476Y-93204142D01*
X146689877Y-93209725D01*
X146691589Y-93215134D01*
X146693612Y-93220369D01*
X146695947Y-93225431D01*
X146698593Y-93230319D01*
X146701550Y-93235032D01*
X146703694Y-93238078D01*
X146707200Y-93242501D01*
X146711077Y-93246748D01*
X146715326Y-93250819D01*
X146719946Y-93254713D01*
X146724937Y-93258432D01*
X146730300Y-93261975D01*
X146736034Y-93265342D01*
X146742139Y-93268532D01*
X146748616Y-93271547D01*
X146753140Y-93273459D01*
X146757830Y-93275293D01*
X146760236Y-93276180D01*
X146752420Y-93340172D01*
X146745557Y-93338178D01*
X146738888Y-93335983D01*
X146732413Y-93333587D01*
X146726134Y-93330990D01*
X146720049Y-93328191D01*
X146714158Y-93325191D01*
X146708462Y-93321989D01*
X146702961Y-93318587D01*
X146697655Y-93314983D01*
X146692543Y-93311177D01*
X146687625Y-93307171D01*
X146682903Y-93302963D01*
X146678375Y-93298554D01*
X146674041Y-93293943D01*
X146669902Y-93289131D01*
X146665958Y-93284118D01*
X146662232Y-93278916D01*
X146658746Y-93273537D01*
X146655500Y-93267982D01*
X146652494Y-93262251D01*
X146649730Y-93256342D01*
X146647205Y-93250258D01*
X146644921Y-93243997D01*
X146642877Y-93237559D01*
X146641074Y-93230945D01*
X146639511Y-93224154D01*
X146638189Y-93217187D01*
X146637107Y-93210044D01*
X146636266Y-93202724D01*
X146635665Y-93195227D01*
X146635304Y-93187554D01*
X146635184Y-93179704D01*
X146635232Y-93174737D01*
X146635377Y-93169835D01*
X146635957Y-93160224D01*
X146636923Y-93150872D01*
X146638275Y-93141778D01*
X146640014Y-93132943D01*
X146642139Y-93124366D01*
X146644651Y-93116048D01*
X146647549Y-93107988D01*
X146650833Y-93100187D01*
X146654504Y-93092645D01*
X146658561Y-93085361D01*
X146663005Y-93078336D01*
X146667835Y-93071569D01*
X146673051Y-93065061D01*
X146678654Y-93058811D01*
X146684643Y-93052820D01*
X146690996Y-93047141D01*
X146697660Y-93041829D01*
X146704636Y-93036883D01*
X146711922Y-93032304D01*
X146719519Y-93028090D01*
X146727427Y-93024244D01*
X146735647Y-93020763D01*
X146744177Y-93017649D01*
X146753018Y-93014901D01*
X146762171Y-93012520D01*
X146771634Y-93010505D01*
X146776483Y-93009635D01*
X146781409Y-93008856D01*
X146786413Y-93008169D01*
X146791494Y-93007574D01*
X146796654Y-93007070D01*
X146801891Y-93006658D01*
X146807206Y-93006337D01*
X146812598Y-93006108D01*
X146818069Y-93005971D01*
X146823617Y-93005925D01*
X146829355Y-93005972D01*
G37*
G36*
X146643000Y-93415154D02*
G01*
X147010341Y-93415154D01*
X147010341Y-93470842D01*
X146954043Y-93470842D01*
X146958838Y-93473485D01*
X146963425Y-93476102D01*
X146967803Y-93478694D01*
X146971972Y-93481260D01*
X146977833Y-93485061D01*
X146983225Y-93488803D01*
X146988146Y-93492488D01*
X146992597Y-93496115D01*
X146996578Y-93499684D01*
X147000089Y-93503195D01*
X147004039Y-93507786D01*
X147005700Y-93510043D01*
X147008620Y-93514618D01*
X147011150Y-93519309D01*
X147013291Y-93524113D01*
X147015042Y-93529032D01*
X147016405Y-93534066D01*
X147017378Y-93539214D01*
X147017962Y-93544477D01*
X147018157Y-93549854D01*
X147017980Y-93555725D01*
X147017452Y-93561612D01*
X147016572Y-93567517D01*
X147015340Y-93573439D01*
X147013756Y-93579378D01*
X147011820Y-93585334D01*
X147009531Y-93591308D01*
X147006891Y-93597298D01*
X147003898Y-93603306D01*
X147000554Y-93609331D01*
X146998129Y-93613357D01*
X146940365Y-93592108D01*
X146943485Y-93586430D01*
X146946189Y-93580751D01*
X146948477Y-93575072D01*
X146950349Y-93569394D01*
X146951805Y-93563715D01*
X146952844Y-93558036D01*
X146953468Y-93552358D01*
X146953676Y-93546679D01*
X146953484Y-93541676D01*
X146952906Y-93536802D01*
X146951641Y-93530893D01*
X146949774Y-93525187D01*
X146947305Y-93519683D01*
X146944895Y-93515426D01*
X146942101Y-93511298D01*
X146941342Y-93510287D01*
X146938140Y-93506402D01*
X146934641Y-93502807D01*
X146930844Y-93499502D01*
X146926749Y-93496487D01*
X146922356Y-93493762D01*
X146917666Y-93491327D01*
X146912678Y-93489183D01*
X146907392Y-93487328D01*
X146901132Y-93485473D01*
X146894763Y-93483800D01*
X146888284Y-93482310D01*
X146881695Y-93481002D01*
X146874997Y-93479877D01*
X146868190Y-93478935D01*
X146861273Y-93478174D01*
X146854247Y-93477596D01*
X146847111Y-93477201D01*
X146839865Y-93476988D01*
X146834974Y-93476948D01*
X146643000Y-93476948D01*
X146643000Y-93415154D01*
G37*
D10*
G36*
X146314045Y-92142274D02*
G01*
X146314045Y-92142906D01*
X145984975Y-92251333D01*
X145984975Y-92034058D01*
X146314045Y-92142274D01*
G37*
G36*
X146335309Y-90442817D02*
G01*
X146335293Y-90447691D01*
X146335159Y-90456840D01*
X146334835Y-90466503D01*
X146334330Y-90475077D01*
X146333414Y-90484503D01*
X146333308Y-90485448D01*
X146332107Y-90494527D01*
X146330660Y-90502949D01*
X146328783Y-90511452D01*
X146328110Y-90513878D01*
X146325118Y-90523150D01*
X146321645Y-90531731D01*
X146317693Y-90539621D01*
X146313260Y-90546821D01*
X146307044Y-90554848D01*
X146300077Y-90561797D01*
X146292360Y-90567666D01*
X146284040Y-90572639D01*
X146275134Y-90576770D01*
X146265643Y-90580057D01*
X146255565Y-90582502D01*
X146247081Y-90583851D01*
X146238222Y-90584660D01*
X146228988Y-90584930D01*
X146219913Y-90584634D01*
X146211165Y-90583746D01*
X146202741Y-90582265D01*
X146193326Y-90579790D01*
X146184354Y-90576508D01*
X146179439Y-90574324D01*
X146171250Y-90569868D01*
X146163585Y-90564606D01*
X146156443Y-90558539D01*
X146149826Y-90551665D01*
X146148937Y-90550630D01*
X146143062Y-90542914D01*
X146138508Y-90535643D01*
X146134397Y-90527766D01*
X146130731Y-90519281D01*
X146127509Y-90510189D01*
X146127030Y-90508628D01*
X146124474Y-90498927D01*
X146122762Y-90490402D01*
X146121431Y-90481476D01*
X146120480Y-90472148D01*
X146119909Y-90462420D01*
X146119719Y-90452291D01*
X146119719Y-90372919D01*
X146335309Y-90372919D01*
X146335309Y-90442817D01*
G37*
G36*
X146314045Y-89258755D02*
G01*
X146314045Y-89259387D01*
X145984975Y-89367813D01*
X145984975Y-89150539D01*
X146314045Y-89258755D01*
G37*
G36*
X146579722Y-92626713D02*
G01*
X145565396Y-92626713D01*
X145565396Y-92430079D01*
X145688539Y-92430079D01*
X145688574Y-92438855D01*
X145688713Y-92448586D01*
X145688954Y-92457443D01*
X145689367Y-92466673D01*
X145690012Y-92475766D01*
X145690879Y-92482549D01*
X145693136Y-92491213D01*
X145697592Y-92498714D01*
X145699263Y-92500218D01*
X145707170Y-92503570D01*
X145716119Y-92503557D01*
X145722869Y-92502372D01*
X145731753Y-92500222D01*
X145740796Y-92497584D01*
X145749594Y-92494714D01*
X146424156Y-92257859D01*
X146426207Y-92257175D01*
X146434156Y-92253912D01*
X146441841Y-92249227D01*
X146443420Y-92247862D01*
X146448404Y-92240926D01*
X146451526Y-92232595D01*
X146453052Y-92226318D01*
X146454392Y-92217842D01*
X146455247Y-92209048D01*
X146455737Y-92200383D01*
X146456065Y-92190671D01*
X146456282Y-92181256D01*
X146456418Y-92172641D01*
X146456512Y-92163327D01*
X146456566Y-92153314D01*
X146456579Y-92144801D01*
X146456578Y-92142931D01*
X146456549Y-92133918D01*
X146456460Y-92123849D01*
X146456312Y-92114595D01*
X146456065Y-92104827D01*
X146455737Y-92096167D01*
X146455621Y-92093908D01*
X146454963Y-92085500D01*
X146453697Y-92076396D01*
X146451526Y-92067534D01*
X146451325Y-92066894D01*
X146447871Y-92059065D01*
X146442052Y-92052375D01*
X146441274Y-92051800D01*
X146433984Y-92047497D01*
X146426051Y-92044164D01*
X145750858Y-91807941D01*
X145744610Y-91805833D01*
X145735449Y-91802994D01*
X145726369Y-91800586D01*
X145717803Y-91798888D01*
X145714836Y-91798585D01*
X145706374Y-91799238D01*
X145698855Y-91803099D01*
X145695117Y-91807708D01*
X145691880Y-91815683D01*
X145690223Y-91824363D01*
X145689738Y-91829514D01*
X145689132Y-91838933D01*
X145688775Y-91848361D01*
X145688598Y-91857325D01*
X145688539Y-91867102D01*
X145688548Y-91871792D01*
X145688622Y-91880649D01*
X145688802Y-91890103D01*
X145689082Y-91898611D01*
X145689591Y-91908157D01*
X145690235Y-91914713D01*
X145691612Y-91923589D01*
X145694012Y-91932369D01*
X145697097Y-91938583D01*
X145702855Y-91944790D01*
X145708739Y-91948171D01*
X145716751Y-91951107D01*
X145863706Y-91999741D01*
X145863706Y-92034058D01*
X145863706Y-92287335D01*
X145712750Y-92338916D01*
X145707863Y-92340658D01*
X145700329Y-92344811D01*
X145696403Y-92349323D01*
X145692960Y-92357233D01*
X145691174Y-92364990D01*
X145690004Y-92374077D01*
X145689381Y-92382919D01*
X145689279Y-92385101D01*
X145688974Y-92393544D01*
X145688749Y-92403235D01*
X145688621Y-92412537D01*
X145688559Y-92420989D01*
X145688539Y-92430079D01*
X145565396Y-92430079D01*
X145565396Y-91500914D01*
X145688539Y-91500914D01*
X145688568Y-91509744D01*
X145688657Y-91519620D01*
X145688805Y-91528712D01*
X145689053Y-91538327D01*
X145689381Y-91546875D01*
X145689495Y-91549160D01*
X145690133Y-91557673D01*
X145691338Y-91566909D01*
X145693381Y-91575929D01*
X145693594Y-91576594D01*
X145697140Y-91584654D01*
X145702855Y-91591298D01*
X145703659Y-91591896D01*
X145711093Y-91596146D01*
X145719066Y-91599088D01*
X146394260Y-91827521D01*
X146400502Y-91829635D01*
X146409634Y-91832503D01*
X146418649Y-91834975D01*
X146427103Y-91836785D01*
X146429383Y-91837111D01*
X146438104Y-91836943D01*
X146446262Y-91833206D01*
X146449980Y-91828728D01*
X146453138Y-91820911D01*
X146454684Y-91812362D01*
X146455230Y-91807388D01*
X146455911Y-91798167D01*
X146456312Y-91788825D01*
X146456512Y-91779871D01*
X146456579Y-91770044D01*
X146456548Y-91761648D01*
X146456429Y-91752331D01*
X146456222Y-91743844D01*
X146455868Y-91734990D01*
X146455315Y-91726253D01*
X146454631Y-91718713D01*
X146453175Y-91709849D01*
X146450684Y-91701620D01*
X146447359Y-91695577D01*
X146440999Y-91689619D01*
X146433383Y-91686173D01*
X146424788Y-91683724D01*
X145840757Y-91500767D01*
X145840757Y-91500136D01*
X146427735Y-91313600D01*
X146434433Y-91311135D01*
X146442473Y-91307283D01*
X146447352Y-91303166D01*
X146451315Y-91295704D01*
X146452972Y-91289873D01*
X146454472Y-91281030D01*
X146455315Y-91272124D01*
X146455679Y-91267033D01*
X146456133Y-91257690D01*
X146456401Y-91248307D01*
X146456534Y-91239365D01*
X146456579Y-91229595D01*
X146456573Y-91225650D01*
X146456508Y-91216269D01*
X146456371Y-91207578D01*
X146456112Y-91198056D01*
X146455679Y-91188202D01*
X146455105Y-91179698D01*
X146453893Y-91170566D01*
X146451648Y-91162334D01*
X146447315Y-91154644D01*
X146445253Y-91152557D01*
X146437216Y-91148887D01*
X146428788Y-91148749D01*
X146422116Y-91149841D01*
X146413258Y-91151919D01*
X146404182Y-91154521D01*
X146395312Y-91157381D01*
X145720961Y-91385393D01*
X145715929Y-91387035D01*
X145708118Y-91390446D01*
X145705776Y-91391946D01*
X145699697Y-91398025D01*
X145696997Y-91402513D01*
X145693802Y-91410447D01*
X145693239Y-91412407D01*
X145691423Y-91420932D01*
X145690223Y-91429816D01*
X145690094Y-91431310D01*
X145689472Y-91440229D01*
X145689036Y-91449375D01*
X145688749Y-91458449D01*
X145688700Y-91462768D01*
X145688621Y-91472058D01*
X145688573Y-91480900D01*
X145688546Y-91490406D01*
X145688539Y-91499083D01*
X145688539Y-91500914D01*
X145565396Y-91500914D01*
X145565396Y-90974213D01*
X145688539Y-90974213D01*
X145688540Y-90975653D01*
X145688644Y-90985267D01*
X145688909Y-90994075D01*
X145689409Y-91003154D01*
X145690223Y-91012110D01*
X145691236Y-91019110D01*
X145692844Y-91027533D01*
X145695065Y-91035690D01*
X145697513Y-91041612D01*
X145702645Y-91048322D01*
X145705039Y-91050073D01*
X145713171Y-91052323D01*
X146431946Y-91052323D01*
X146434814Y-91052073D01*
X146442473Y-91048322D01*
X146446445Y-91043659D01*
X146450052Y-91035690D01*
X146451771Y-91029588D01*
X146453508Y-91020745D01*
X146454684Y-91012110D01*
X146454800Y-91011181D01*
X146455683Y-91002077D01*
X146456216Y-90992866D01*
X146456488Y-90983942D01*
X146456579Y-90974213D01*
X146456577Y-90972813D01*
X146456460Y-90963436D01*
X146456162Y-90954805D01*
X146455600Y-90945854D01*
X146454684Y-90936948D01*
X146453763Y-90929922D01*
X146452238Y-90921377D01*
X146450052Y-90912947D01*
X146447605Y-90906868D01*
X146442473Y-90899894D01*
X146440386Y-90898417D01*
X146431946Y-90896104D01*
X145713171Y-90896104D01*
X145710303Y-90896341D01*
X145702645Y-90899894D01*
X145698672Y-90904708D01*
X145695065Y-90912736D01*
X145693326Y-90918859D01*
X145691510Y-90927781D01*
X145690223Y-90936527D01*
X145690119Y-90937482D01*
X145689335Y-90946721D01*
X145688861Y-90955912D01*
X145688619Y-90964710D01*
X145688539Y-90974213D01*
X145565396Y-90974213D01*
X145565396Y-90699252D01*
X145688539Y-90699252D01*
X145688564Y-90708220D01*
X145688663Y-90718168D01*
X145688836Y-90727228D01*
X145689131Y-90736675D01*
X145689591Y-90745991D01*
X145690435Y-90755036D01*
X145691685Y-90763523D01*
X145693802Y-90772097D01*
X145695560Y-90776555D01*
X145700960Y-90783256D01*
X145703302Y-90784361D01*
X145711908Y-90785782D01*
X145719360Y-90784951D01*
X145727909Y-90782835D01*
X145735508Y-90780417D01*
X145744316Y-90777256D01*
X145752456Y-90774154D01*
X145760332Y-90771045D01*
X145909182Y-90706410D01*
X145915781Y-90703561D01*
X145923789Y-90699981D01*
X145931530Y-90696381D01*
X145940466Y-90692034D01*
X145949018Y-90687657D01*
X145957184Y-90683251D01*
X145964995Y-90678770D01*
X145972481Y-90674171D01*
X145979641Y-90669454D01*
X145987583Y-90663801D01*
X145995081Y-90657986D01*
X145999160Y-90654641D01*
X146005919Y-90648643D01*
X146012194Y-90642465D01*
X146017985Y-90636105D01*
X146023293Y-90629564D01*
X146028964Y-90621945D01*
X146034188Y-90614037D01*
X146038965Y-90605839D01*
X146043294Y-90597351D01*
X146045489Y-90603954D01*
X146048610Y-90612545D01*
X146051956Y-90620893D01*
X146055525Y-90628997D01*
X146059318Y-90636857D01*
X146063335Y-90644475D01*
X146067575Y-90651848D01*
X146073190Y-90660723D01*
X146075532Y-90664163D01*
X146081608Y-90672459D01*
X146088003Y-90680323D01*
X146094717Y-90687755D01*
X146101750Y-90694756D01*
X146109101Y-90701325D01*
X146116771Y-90707463D01*
X146119930Y-90709795D01*
X146128065Y-90715309D01*
X146136539Y-90720371D01*
X146145352Y-90724981D01*
X146154504Y-90729138D01*
X146163996Y-90732843D01*
X146173827Y-90736096D01*
X146181933Y-90738415D01*
X146190249Y-90740425D01*
X146198776Y-90742126D01*
X146207513Y-90743517D01*
X146216461Y-90744599D01*
X146225619Y-90745372D01*
X146234988Y-90745836D01*
X146244568Y-90745991D01*
X146247426Y-90745977D01*
X146255881Y-90745777D01*
X146266871Y-90745136D01*
X146277540Y-90744066D01*
X146287886Y-90742570D01*
X146297909Y-90740645D01*
X146307610Y-90738293D01*
X146316989Y-90735513D01*
X146326046Y-90732306D01*
X146334789Y-90728743D01*
X146343231Y-90724792D01*
X146351369Y-90720453D01*
X146359205Y-90715726D01*
X146366738Y-90710611D01*
X146373969Y-90705107D01*
X146380897Y-90699215D01*
X146387522Y-90692935D01*
X146393891Y-90686336D01*
X146399944Y-90679382D01*
X146405681Y-90672073D01*
X146411103Y-90664408D01*
X146416208Y-90656387D01*
X146420998Y-90648012D01*
X146425472Y-90639281D01*
X146429630Y-90630195D01*
X146432584Y-90623204D01*
X146436259Y-90613623D01*
X146439631Y-90603746D01*
X146442700Y-90593572D01*
X146445467Y-90583103D01*
X146447931Y-90572338D01*
X146449580Y-90564069D01*
X146451059Y-90555634D01*
X146452368Y-90547033D01*
X146453263Y-90538809D01*
X146454052Y-90530137D01*
X146454736Y-90521019D01*
X146455315Y-90511452D01*
X146455541Y-90507724D01*
X146455982Y-90498277D01*
X146456263Y-90489346D01*
X146456455Y-90479645D01*
X146456548Y-90470972D01*
X146456579Y-90461765D01*
X146456579Y-90263439D01*
X146455855Y-90254123D01*
X146453684Y-90245544D01*
X146450065Y-90237701D01*
X146444999Y-90230595D01*
X146441927Y-90227487D01*
X146434400Y-90222513D01*
X146426303Y-90219521D01*
X146416795Y-90217798D01*
X146407523Y-90217332D01*
X145713382Y-90217332D01*
X145710500Y-90217555D01*
X145702645Y-90220911D01*
X145698672Y-90225423D01*
X145695065Y-90233332D01*
X145693326Y-90239455D01*
X145691510Y-90248377D01*
X145690223Y-90257123D01*
X145690119Y-90258078D01*
X145689335Y-90267317D01*
X145688861Y-90276508D01*
X145688619Y-90285306D01*
X145688539Y-90294809D01*
X145688540Y-90296249D01*
X145688644Y-90305863D01*
X145688909Y-90314671D01*
X145689409Y-90323750D01*
X145690223Y-90332706D01*
X145691092Y-90338872D01*
X145692621Y-90347421D01*
X145694855Y-90356286D01*
X145697302Y-90362208D01*
X145702434Y-90368918D01*
X145704829Y-90370669D01*
X145712961Y-90372919D01*
X145998449Y-90372919D01*
X145998449Y-90421553D01*
X145998264Y-90429172D01*
X145997554Y-90437936D01*
X145996051Y-90447636D01*
X145993823Y-90456773D01*
X145990870Y-90465345D01*
X145988863Y-90470013D01*
X145984813Y-90477849D01*
X145980078Y-90485263D01*
X145974658Y-90492253D01*
X145968553Y-90498820D01*
X145961753Y-90505045D01*
X145954247Y-90511007D01*
X145947253Y-90515910D01*
X145939740Y-90520620D01*
X145931709Y-90525137D01*
X145923269Y-90529652D01*
X145914369Y-90534197D01*
X145906603Y-90538007D01*
X145898517Y-90541837D01*
X145890113Y-90545688D01*
X145881391Y-90549560D01*
X145714014Y-90618195D01*
X145709461Y-90619936D01*
X145702013Y-90624090D01*
X145697843Y-90628555D01*
X145694012Y-90636301D01*
X145692224Y-90642292D01*
X145690566Y-90651056D01*
X145689591Y-90659671D01*
X145689344Y-90663513D01*
X145688950Y-90672145D01*
X145688712Y-90680734D01*
X145688576Y-90690291D01*
X145688539Y-90699252D01*
X145565396Y-90699252D01*
X145565396Y-89836891D01*
X145688539Y-89836891D01*
X145688540Y-89838291D01*
X145688644Y-89847681D01*
X145688909Y-89856345D01*
X145689409Y-89865358D01*
X145690223Y-89874366D01*
X145691236Y-89881551D01*
X145692844Y-89890141D01*
X145695065Y-89898368D01*
X145697542Y-89904289D01*
X145702855Y-89911000D01*
X145705342Y-89912750D01*
X145713592Y-89915000D01*
X146335309Y-89915000D01*
X146335309Y-90106800D01*
X146335428Y-90108815D01*
X146338678Y-90116695D01*
X146341708Y-90119803D01*
X146348994Y-90124064D01*
X146350853Y-90124777D01*
X146359053Y-90127044D01*
X146367732Y-90128485D01*
X146369198Y-90128663D01*
X146377940Y-90129439D01*
X146386879Y-90129842D01*
X146395733Y-90129959D01*
X146397819Y-90129953D01*
X146406716Y-90129784D01*
X146415664Y-90129324D01*
X146424366Y-90128485D01*
X146426572Y-90128196D01*
X146435104Y-90126643D01*
X146443315Y-90124064D01*
X146447008Y-90122289D01*
X146453421Y-90116695D01*
X146454494Y-90115000D01*
X146456579Y-90106800D01*
X146456579Y-89566982D01*
X146456468Y-89564830D01*
X146453421Y-89556876D01*
X146450897Y-89554130D01*
X146443315Y-89549718D01*
X146441499Y-89549004D01*
X146433283Y-89546737D01*
X146424366Y-89545296D01*
X146422873Y-89545118D01*
X146413953Y-89544342D01*
X146404808Y-89543939D01*
X146395733Y-89543823D01*
X146393700Y-89543828D01*
X146385016Y-89543997D01*
X146376265Y-89544457D01*
X146367732Y-89545296D01*
X146365600Y-89545586D01*
X146357258Y-89547139D01*
X146348994Y-89549718D01*
X146345369Y-89551476D01*
X146338678Y-89556876D01*
X146337365Y-89558799D01*
X146335309Y-89566982D01*
X146335309Y-89758781D01*
X145713592Y-89758781D01*
X145710711Y-89759018D01*
X145702855Y-89762571D01*
X145698732Y-89767385D01*
X145695065Y-89775414D01*
X145693326Y-89781537D01*
X145691510Y-89790458D01*
X145690223Y-89799204D01*
X145690119Y-89800159D01*
X145689335Y-89809398D01*
X145688861Y-89818590D01*
X145688619Y-89827387D01*
X145688539Y-89836891D01*
X145565396Y-89836891D01*
X145565396Y-89546560D01*
X145688539Y-89546560D01*
X145688574Y-89555336D01*
X145688713Y-89565067D01*
X145688954Y-89573924D01*
X145689367Y-89583154D01*
X145690012Y-89592246D01*
X145690879Y-89599029D01*
X145693136Y-89607694D01*
X145697592Y-89615195D01*
X145699263Y-89616698D01*
X145707170Y-89620051D01*
X145716119Y-89620037D01*
X145722869Y-89618853D01*
X145731753Y-89616703D01*
X145740796Y-89614064D01*
X145749594Y-89611195D01*
X146424156Y-89374340D01*
X146426207Y-89373656D01*
X146434156Y-89370393D01*
X146441841Y-89365708D01*
X146443420Y-89364343D01*
X146448404Y-89357407D01*
X146451526Y-89349076D01*
X146453052Y-89342799D01*
X146454392Y-89334322D01*
X146455247Y-89325529D01*
X146455737Y-89316863D01*
X146456065Y-89307152D01*
X146456282Y-89297737D01*
X146456418Y-89289122D01*
X146456512Y-89279808D01*
X146456566Y-89269795D01*
X146456579Y-89261282D01*
X146456578Y-89259411D01*
X146456549Y-89250399D01*
X146456460Y-89240330D01*
X146456312Y-89231075D01*
X146456065Y-89221307D01*
X146455737Y-89212647D01*
X146455621Y-89210389D01*
X146454963Y-89201981D01*
X146453697Y-89192877D01*
X146451526Y-89184014D01*
X146451325Y-89183375D01*
X146447871Y-89175546D01*
X146442052Y-89168856D01*
X146441274Y-89168281D01*
X146433984Y-89163978D01*
X146426051Y-89160645D01*
X145750858Y-88924422D01*
X145744610Y-88922313D01*
X145735449Y-88919474D01*
X145726369Y-88917067D01*
X145717803Y-88915369D01*
X145714836Y-88915066D01*
X145706374Y-88915718D01*
X145698855Y-88919579D01*
X145695117Y-88924189D01*
X145691880Y-88932163D01*
X145690223Y-88940844D01*
X145689738Y-88945995D01*
X145689132Y-88955413D01*
X145688775Y-88964842D01*
X145688598Y-88973805D01*
X145688539Y-88983583D01*
X145688548Y-88988272D01*
X145688622Y-88997130D01*
X145688802Y-89006584D01*
X145689082Y-89015091D01*
X145689591Y-89024638D01*
X145690235Y-89031193D01*
X145691612Y-89040070D01*
X145694012Y-89048849D01*
X145697097Y-89055064D01*
X145702855Y-89061271D01*
X145708739Y-89064651D01*
X145716751Y-89067587D01*
X145863706Y-89116221D01*
X145863706Y-89150539D01*
X145863706Y-89403815D01*
X145712750Y-89455397D01*
X145707863Y-89457138D01*
X145700329Y-89461292D01*
X145696403Y-89465804D01*
X145692960Y-89473714D01*
X145691174Y-89481471D01*
X145690004Y-89490558D01*
X145689381Y-89499399D01*
X145689279Y-89501582D01*
X145688974Y-89510024D01*
X145688749Y-89519716D01*
X145688621Y-89529018D01*
X145688559Y-89537470D01*
X145688539Y-89546560D01*
X145565396Y-89546560D01*
X145565396Y-88791923D01*
X146579722Y-88791923D01*
X146579722Y-92626713D01*
G37*
D13*
%TO.C,J3*%
X167072000Y-73600000D02*
X168402000Y-73600000D01*
X167072000Y-74930000D02*
X167072000Y-73600000D01*
X167072000Y-76200000D02*
X167072000Y-104200000D01*
X167072000Y-76200000D02*
X169732000Y-76200000D01*
X167072000Y-104200000D02*
X169732000Y-104200000D01*
X169732000Y-76200000D02*
X169732000Y-104200000D01*
%TO.C,J6*%
X150816000Y-95818000D02*
X150816000Y-94488000D01*
X152146000Y-95818000D02*
X150816000Y-95818000D01*
X153416000Y-95818000D02*
X161096000Y-95818000D01*
X153416000Y-95818000D02*
X153416000Y-93158000D01*
X161096000Y-95818000D02*
X161096000Y-93158000D01*
X153416000Y-93158000D02*
X161096000Y-93158000D01*
%TO.C,J1*%
X141672000Y-73660000D02*
X143002000Y-73660000D01*
X141672000Y-74990000D02*
X141672000Y-73660000D01*
X141672000Y-76260000D02*
X141672000Y-104260000D01*
X141672000Y-76260000D02*
X144332000Y-76260000D01*
X141672000Y-104260000D02*
X144332000Y-104260000D01*
X144332000Y-76260000D02*
X144332000Y-104260000D01*
%TD*%
M02*
