%TF.GenerationSoftware,KiCad,Pcbnew,7.0.10*%
%TF.CreationDate,2024-05-25T00:15:14+05:30*%
%TF.ProjectId,bb-adaptor-V1,62622d61-6461-4707-946f-722d56312e6b,rev?*%
%TF.SameCoordinates,Original*%
%TF.FileFunction,Drillmap*%
%TF.FilePolarity,Positive*%
%FSLAX45Y45*%
G04 Gerber Fmt 4.5, Leading zero omitted, Abs format (unit mm)*
G04 Created by KiCad (PCBNEW 7.0.10) date 2024-05-25 00:15:14*
%MOMM*%
%LPD*%
G01*
G04 APERTURE LIST*
%ADD10C,0.100000*%
%ADD11C,0.200000*%
G04 APERTURE END LIST*
D10*
X14071600Y-10541000D02*
X14071600Y-7289800D01*
X14605000Y-10541000D02*
X14071600Y-10541000D01*
X17043400Y-7289800D02*
X17043400Y-10515600D01*
X16510000Y-9626600D02*
X14605000Y-9626600D01*
X15011400Y-8686800D02*
X16129000Y-8686800D01*
X14605000Y-9626600D02*
X14605000Y-10541000D01*
X16510000Y-10515600D02*
X16510000Y-9626600D01*
X17043400Y-10515600D02*
X16510000Y-10515600D01*
X16129000Y-8686800D02*
X16129000Y-7289800D01*
X16129000Y-7289800D02*
X17043400Y-7289800D01*
X14071600Y-7289800D02*
X15011400Y-7289800D01*
X15011400Y-7289800D02*
X15011400Y-8686800D01*
D11*
D10*
X14803600Y-7873400D02*
X14863600Y-7933400D01*
X14863600Y-7873400D02*
X14803600Y-7933400D01*
X14803600Y-8000400D02*
X14863600Y-8060400D01*
X14863600Y-8000400D02*
X14803600Y-8060400D01*
X14803600Y-8127400D02*
X14863600Y-8187400D01*
X14863600Y-8127400D02*
X14803600Y-8187400D01*
X14803600Y-8254400D02*
X14863600Y-8314400D01*
X14863600Y-8254400D02*
X14803600Y-8314400D01*
X14803600Y-8381400D02*
X14863600Y-8441400D01*
X14863600Y-8381400D02*
X14803600Y-8441400D01*
X14803600Y-8508400D02*
X14863600Y-8568400D01*
X14863600Y-8508400D02*
X14803600Y-8568400D01*
X14803600Y-8635400D02*
X14863600Y-8695400D01*
X14863600Y-8635400D02*
X14803600Y-8695400D01*
X14803600Y-8762400D02*
X14863600Y-8822400D01*
X14863600Y-8762400D02*
X14803600Y-8822400D01*
X14804600Y-7357400D02*
X14864600Y-7417400D01*
X14864600Y-7357400D02*
X14804600Y-7417400D01*
X14806600Y-7488400D02*
X14866600Y-7548400D01*
X14866600Y-7488400D02*
X14806600Y-7548400D01*
X14806600Y-7615400D02*
X14866600Y-7675400D01*
X14866600Y-7615400D02*
X14806600Y-7675400D01*
X14806600Y-7742400D02*
X14866600Y-7802400D01*
X14866600Y-7742400D02*
X14806600Y-7802400D01*
X15337000Y-8910800D02*
X15397000Y-8970800D01*
X15397000Y-8910800D02*
X15337000Y-8970800D01*
X15464000Y-8910800D02*
X15524000Y-8970800D01*
X15524000Y-8910800D02*
X15464000Y-8970800D01*
X15591000Y-8910800D02*
X15651000Y-8970800D01*
X15651000Y-8910800D02*
X15591000Y-8970800D01*
X15718000Y-8910800D02*
X15778000Y-8970800D01*
X15778000Y-8910800D02*
X15718000Y-8970800D01*
X16276800Y-7869400D02*
X16336800Y-7929400D01*
X16336800Y-7869400D02*
X16276800Y-7929400D01*
X16276800Y-7996400D02*
X16336800Y-8056400D01*
X16336800Y-7996400D02*
X16276800Y-8056400D01*
X16276800Y-8123400D02*
X16336800Y-8183400D01*
X16336800Y-8123400D02*
X16276800Y-8183400D01*
X16276800Y-8250400D02*
X16336800Y-8310400D01*
X16336800Y-8250400D02*
X16276800Y-8310400D01*
X16276800Y-8377400D02*
X16336800Y-8437400D01*
X16336800Y-8377400D02*
X16276800Y-8437400D01*
X16276800Y-8504400D02*
X16336800Y-8564400D01*
X16336800Y-8504400D02*
X16276800Y-8564400D01*
X16276800Y-8631400D02*
X16336800Y-8691400D01*
X16336800Y-8631400D02*
X16276800Y-8691400D01*
X16276800Y-8758400D02*
X16336800Y-8818400D01*
X16336800Y-8758400D02*
X16276800Y-8818400D01*
X16277800Y-7353400D02*
X16337800Y-7413400D01*
X16337800Y-7353400D02*
X16277800Y-7413400D01*
X16279800Y-7484400D02*
X16339800Y-7544400D01*
X16339800Y-7484400D02*
X16279800Y-7544400D01*
X16279800Y-7611400D02*
X16339800Y-7671400D01*
X16339800Y-7611400D02*
X16279800Y-7671400D01*
X16279800Y-7738400D02*
X16339800Y-7798400D01*
X16339800Y-7738400D02*
X16279800Y-7798400D01*
X14350200Y-7499000D02*
G75*
G03*
X14250200Y-7499000I-50000J0D01*
G01*
X14250200Y-7499000D02*
G75*
G03*
X14350200Y-7499000I50000J0D01*
G01*
X14350200Y-7753000D02*
G75*
G03*
X14250200Y-7753000I-50000J0D01*
G01*
X14250200Y-7753000D02*
G75*
G03*
X14350200Y-7753000I50000J0D01*
G01*
X14350200Y-8007000D02*
G75*
G03*
X14250200Y-8007000I-50000J0D01*
G01*
X14250200Y-8007000D02*
G75*
G03*
X14350200Y-8007000I50000J0D01*
G01*
X14350200Y-8261000D02*
G75*
G03*
X14250200Y-8261000I-50000J0D01*
G01*
X14250200Y-8261000D02*
G75*
G03*
X14350200Y-8261000I50000J0D01*
G01*
X14350200Y-8515000D02*
G75*
G03*
X14250200Y-8515000I-50000J0D01*
G01*
X14250200Y-8515000D02*
G75*
G03*
X14350200Y-8515000I50000J0D01*
G01*
X14350200Y-8769000D02*
G75*
G03*
X14250200Y-8769000I-50000J0D01*
G01*
X14250200Y-8769000D02*
G75*
G03*
X14350200Y-8769000I50000J0D01*
G01*
X14350200Y-9023000D02*
G75*
G03*
X14250200Y-9023000I-50000J0D01*
G01*
X14250200Y-9023000D02*
G75*
G03*
X14350200Y-9023000I50000J0D01*
G01*
X14350200Y-9277000D02*
G75*
G03*
X14250200Y-9277000I-50000J0D01*
G01*
X14250200Y-9277000D02*
G75*
G03*
X14350200Y-9277000I50000J0D01*
G01*
X14350200Y-9531000D02*
G75*
G03*
X14250200Y-9531000I-50000J0D01*
G01*
X14250200Y-9531000D02*
G75*
G03*
X14350200Y-9531000I50000J0D01*
G01*
X14350200Y-9785000D02*
G75*
G03*
X14250200Y-9785000I-50000J0D01*
G01*
X14250200Y-9785000D02*
G75*
G03*
X14350200Y-9785000I50000J0D01*
G01*
X14350200Y-10039000D02*
G75*
G03*
X14250200Y-10039000I-50000J0D01*
G01*
X14250200Y-10039000D02*
G75*
G03*
X14350200Y-10039000I50000J0D01*
G01*
X14350200Y-10293000D02*
G75*
G03*
X14250200Y-10293000I-50000J0D01*
G01*
X14250200Y-10293000D02*
G75*
G03*
X14350200Y-10293000I50000J0D01*
G01*
X15264600Y-9448800D02*
G75*
G03*
X15164600Y-9448800I-50000J0D01*
G01*
X15164600Y-9448800D02*
G75*
G03*
X15264600Y-9448800I50000J0D01*
G01*
X15518600Y-9448800D02*
G75*
G03*
X15418600Y-9448800I-50000J0D01*
G01*
X15418600Y-9448800D02*
G75*
G03*
X15518600Y-9448800I50000J0D01*
G01*
X15772600Y-9448800D02*
G75*
G03*
X15672600Y-9448800I-50000J0D01*
G01*
X15672600Y-9448800D02*
G75*
G03*
X15772600Y-9448800I50000J0D01*
G01*
X16026600Y-9448800D02*
G75*
G03*
X15926600Y-9448800I-50000J0D01*
G01*
X15926600Y-9448800D02*
G75*
G03*
X16026600Y-9448800I50000J0D01*
G01*
X16890200Y-7493000D02*
G75*
G03*
X16790200Y-7493000I-50000J0D01*
G01*
X16790200Y-7493000D02*
G75*
G03*
X16890200Y-7493000I50000J0D01*
G01*
X16890200Y-7747000D02*
G75*
G03*
X16790200Y-7747000I-50000J0D01*
G01*
X16790200Y-7747000D02*
G75*
G03*
X16890200Y-7747000I50000J0D01*
G01*
X16890200Y-8001000D02*
G75*
G03*
X16790200Y-8001000I-50000J0D01*
G01*
X16790200Y-8001000D02*
G75*
G03*
X16890200Y-8001000I50000J0D01*
G01*
X16890200Y-8255000D02*
G75*
G03*
X16790200Y-8255000I-50000J0D01*
G01*
X16790200Y-8255000D02*
G75*
G03*
X16890200Y-8255000I50000J0D01*
G01*
X16890200Y-8509000D02*
G75*
G03*
X16790200Y-8509000I-50000J0D01*
G01*
X16790200Y-8509000D02*
G75*
G03*
X16890200Y-8509000I50000J0D01*
G01*
X16890200Y-8763000D02*
G75*
G03*
X16790200Y-8763000I-50000J0D01*
G01*
X16790200Y-8763000D02*
G75*
G03*
X16890200Y-8763000I50000J0D01*
G01*
X16890200Y-9017000D02*
G75*
G03*
X16790200Y-9017000I-50000J0D01*
G01*
X16790200Y-9017000D02*
G75*
G03*
X16890200Y-9017000I50000J0D01*
G01*
X16890200Y-9271000D02*
G75*
G03*
X16790200Y-9271000I-50000J0D01*
G01*
X16790200Y-9271000D02*
G75*
G03*
X16890200Y-9271000I50000J0D01*
G01*
X16890200Y-9525000D02*
G75*
G03*
X16790200Y-9525000I-50000J0D01*
G01*
X16790200Y-9525000D02*
G75*
G03*
X16890200Y-9525000I50000J0D01*
G01*
X16890200Y-9779000D02*
G75*
G03*
X16790200Y-9779000I-50000J0D01*
G01*
X16790200Y-9779000D02*
G75*
G03*
X16890200Y-9779000I50000J0D01*
G01*
X16890200Y-10033000D02*
G75*
G03*
X16790200Y-10033000I-50000J0D01*
G01*
X16790200Y-10033000D02*
G75*
G03*
X16890200Y-10033000I50000J0D01*
G01*
X16890200Y-10287000D02*
G75*
G03*
X16790200Y-10287000I-50000J0D01*
G01*
X16790200Y-10287000D02*
G75*
G03*
X16890200Y-10287000I50000J0D01*
G01*
D11*
X14327377Y-10857484D02*
X14327377Y-10657484D01*
X14327377Y-10657484D02*
X14374996Y-10657484D01*
X14374996Y-10657484D02*
X14403567Y-10667008D01*
X14403567Y-10667008D02*
X14422615Y-10686055D01*
X14422615Y-10686055D02*
X14432139Y-10705103D01*
X14432139Y-10705103D02*
X14441662Y-10743198D01*
X14441662Y-10743198D02*
X14441662Y-10771770D01*
X14441662Y-10771770D02*
X14432139Y-10809865D01*
X14432139Y-10809865D02*
X14422615Y-10828912D01*
X14422615Y-10828912D02*
X14403567Y-10847960D01*
X14403567Y-10847960D02*
X14374996Y-10857484D01*
X14374996Y-10857484D02*
X14327377Y-10857484D01*
X14527377Y-10857484D02*
X14527377Y-10724150D01*
X14527377Y-10762246D02*
X14536901Y-10743198D01*
X14536901Y-10743198D02*
X14546424Y-10733674D01*
X14546424Y-10733674D02*
X14565472Y-10724150D01*
X14565472Y-10724150D02*
X14584520Y-10724150D01*
X14651186Y-10857484D02*
X14651186Y-10724150D01*
X14651186Y-10657484D02*
X14641662Y-10667008D01*
X14641662Y-10667008D02*
X14651186Y-10676531D01*
X14651186Y-10676531D02*
X14660710Y-10667008D01*
X14660710Y-10667008D02*
X14651186Y-10657484D01*
X14651186Y-10657484D02*
X14651186Y-10676531D01*
X14774996Y-10857484D02*
X14755948Y-10847960D01*
X14755948Y-10847960D02*
X14746424Y-10828912D01*
X14746424Y-10828912D02*
X14746424Y-10657484D01*
X14879758Y-10857484D02*
X14860710Y-10847960D01*
X14860710Y-10847960D02*
X14851186Y-10828912D01*
X14851186Y-10828912D02*
X14851186Y-10657484D01*
X15108329Y-10857484D02*
X15108329Y-10657484D01*
X15108329Y-10657484D02*
X15174996Y-10800341D01*
X15174996Y-10800341D02*
X15241662Y-10657484D01*
X15241662Y-10657484D02*
X15241662Y-10857484D01*
X15422615Y-10857484D02*
X15422615Y-10752722D01*
X15422615Y-10752722D02*
X15413091Y-10733674D01*
X15413091Y-10733674D02*
X15394043Y-10724150D01*
X15394043Y-10724150D02*
X15355948Y-10724150D01*
X15355948Y-10724150D02*
X15336901Y-10733674D01*
X15422615Y-10847960D02*
X15403567Y-10857484D01*
X15403567Y-10857484D02*
X15355948Y-10857484D01*
X15355948Y-10857484D02*
X15336901Y-10847960D01*
X15336901Y-10847960D02*
X15327377Y-10828912D01*
X15327377Y-10828912D02*
X15327377Y-10809865D01*
X15327377Y-10809865D02*
X15336901Y-10790817D01*
X15336901Y-10790817D02*
X15355948Y-10781293D01*
X15355948Y-10781293D02*
X15403567Y-10781293D01*
X15403567Y-10781293D02*
X15422615Y-10771770D01*
X15517853Y-10724150D02*
X15517853Y-10924150D01*
X15517853Y-10733674D02*
X15536901Y-10724150D01*
X15536901Y-10724150D02*
X15574996Y-10724150D01*
X15574996Y-10724150D02*
X15594043Y-10733674D01*
X15594043Y-10733674D02*
X15603567Y-10743198D01*
X15603567Y-10743198D02*
X15613091Y-10762246D01*
X15613091Y-10762246D02*
X15613091Y-10819389D01*
X15613091Y-10819389D02*
X15603567Y-10838436D01*
X15603567Y-10838436D02*
X15594043Y-10847960D01*
X15594043Y-10847960D02*
X15574996Y-10857484D01*
X15574996Y-10857484D02*
X15536901Y-10857484D01*
X15536901Y-10857484D02*
X15517853Y-10847960D01*
X15698805Y-10838436D02*
X15708329Y-10847960D01*
X15708329Y-10847960D02*
X15698805Y-10857484D01*
X15698805Y-10857484D02*
X15689282Y-10847960D01*
X15689282Y-10847960D02*
X15698805Y-10838436D01*
X15698805Y-10838436D02*
X15698805Y-10857484D01*
X15698805Y-10733674D02*
X15708329Y-10743198D01*
X15708329Y-10743198D02*
X15698805Y-10752722D01*
X15698805Y-10752722D02*
X15689282Y-10743198D01*
X15689282Y-10743198D02*
X15698805Y-10733674D01*
X15698805Y-10733674D02*
X15698805Y-10752722D01*
D10*
X14006600Y-11156000D02*
X14066600Y-11216000D01*
X14066600Y-11156000D02*
X14006600Y-11216000D01*
D11*
X14365472Y-11077484D02*
X14384520Y-11077484D01*
X14384520Y-11077484D02*
X14403567Y-11087008D01*
X14403567Y-11087008D02*
X14413091Y-11096531D01*
X14413091Y-11096531D02*
X14422615Y-11115579D01*
X14422615Y-11115579D02*
X14432139Y-11153674D01*
X14432139Y-11153674D02*
X14432139Y-11201293D01*
X14432139Y-11201293D02*
X14422615Y-11239388D01*
X14422615Y-11239388D02*
X14413091Y-11258436D01*
X14413091Y-11258436D02*
X14403567Y-11267960D01*
X14403567Y-11267960D02*
X14384520Y-11277484D01*
X14384520Y-11277484D02*
X14365472Y-11277484D01*
X14365472Y-11277484D02*
X14346424Y-11267960D01*
X14346424Y-11267960D02*
X14336901Y-11258436D01*
X14336901Y-11258436D02*
X14327377Y-11239388D01*
X14327377Y-11239388D02*
X14317853Y-11201293D01*
X14317853Y-11201293D02*
X14317853Y-11153674D01*
X14317853Y-11153674D02*
X14327377Y-11115579D01*
X14327377Y-11115579D02*
X14336901Y-11096531D01*
X14336901Y-11096531D02*
X14346424Y-11087008D01*
X14346424Y-11087008D02*
X14365472Y-11077484D01*
X14517853Y-11258436D02*
X14527377Y-11267960D01*
X14527377Y-11267960D02*
X14517853Y-11277484D01*
X14517853Y-11277484D02*
X14508329Y-11267960D01*
X14508329Y-11267960D02*
X14517853Y-11258436D01*
X14517853Y-11258436D02*
X14517853Y-11277484D01*
X14698805Y-11077484D02*
X14660710Y-11077484D01*
X14660710Y-11077484D02*
X14641662Y-11087008D01*
X14641662Y-11087008D02*
X14632139Y-11096531D01*
X14632139Y-11096531D02*
X14613091Y-11125103D01*
X14613091Y-11125103D02*
X14603567Y-11163198D01*
X14603567Y-11163198D02*
X14603567Y-11239388D01*
X14603567Y-11239388D02*
X14613091Y-11258436D01*
X14613091Y-11258436D02*
X14622615Y-11267960D01*
X14622615Y-11267960D02*
X14641662Y-11277484D01*
X14641662Y-11277484D02*
X14679758Y-11277484D01*
X14679758Y-11277484D02*
X14698805Y-11267960D01*
X14698805Y-11267960D02*
X14708329Y-11258436D01*
X14708329Y-11258436D02*
X14717853Y-11239388D01*
X14717853Y-11239388D02*
X14717853Y-11191769D01*
X14717853Y-11191769D02*
X14708329Y-11172722D01*
X14708329Y-11172722D02*
X14698805Y-11163198D01*
X14698805Y-11163198D02*
X14679758Y-11153674D01*
X14679758Y-11153674D02*
X14641662Y-11153674D01*
X14641662Y-11153674D02*
X14622615Y-11163198D01*
X14622615Y-11163198D02*
X14613091Y-11172722D01*
X14613091Y-11172722D02*
X14603567Y-11191769D01*
X14841662Y-11077484D02*
X14860710Y-11077484D01*
X14860710Y-11077484D02*
X14879758Y-11087008D01*
X14879758Y-11087008D02*
X14889282Y-11096531D01*
X14889282Y-11096531D02*
X14898805Y-11115579D01*
X14898805Y-11115579D02*
X14908329Y-11153674D01*
X14908329Y-11153674D02*
X14908329Y-11201293D01*
X14908329Y-11201293D02*
X14898805Y-11239388D01*
X14898805Y-11239388D02*
X14889282Y-11258436D01*
X14889282Y-11258436D02*
X14879758Y-11267960D01*
X14879758Y-11267960D02*
X14860710Y-11277484D01*
X14860710Y-11277484D02*
X14841662Y-11277484D01*
X14841662Y-11277484D02*
X14822615Y-11267960D01*
X14822615Y-11267960D02*
X14813091Y-11258436D01*
X14813091Y-11258436D02*
X14803567Y-11239388D01*
X14803567Y-11239388D02*
X14794043Y-11201293D01*
X14794043Y-11201293D02*
X14794043Y-11153674D01*
X14794043Y-11153674D02*
X14803567Y-11115579D01*
X14803567Y-11115579D02*
X14813091Y-11096531D01*
X14813091Y-11096531D02*
X14822615Y-11087008D01*
X14822615Y-11087008D02*
X14841662Y-11077484D01*
X15032139Y-11077484D02*
X15051186Y-11077484D01*
X15051186Y-11077484D02*
X15070234Y-11087008D01*
X15070234Y-11087008D02*
X15079758Y-11096531D01*
X15079758Y-11096531D02*
X15089282Y-11115579D01*
X15089282Y-11115579D02*
X15098805Y-11153674D01*
X15098805Y-11153674D02*
X15098805Y-11201293D01*
X15098805Y-11201293D02*
X15089282Y-11239388D01*
X15089282Y-11239388D02*
X15079758Y-11258436D01*
X15079758Y-11258436D02*
X15070234Y-11267960D01*
X15070234Y-11267960D02*
X15051186Y-11277484D01*
X15051186Y-11277484D02*
X15032139Y-11277484D01*
X15032139Y-11277484D02*
X15013091Y-11267960D01*
X15013091Y-11267960D02*
X15003567Y-11258436D01*
X15003567Y-11258436D02*
X14994043Y-11239388D01*
X14994043Y-11239388D02*
X14984520Y-11201293D01*
X14984520Y-11201293D02*
X14984520Y-11153674D01*
X14984520Y-11153674D02*
X14994043Y-11115579D01*
X14994043Y-11115579D02*
X15003567Y-11096531D01*
X15003567Y-11096531D02*
X15013091Y-11087008D01*
X15013091Y-11087008D02*
X15032139Y-11077484D01*
X15184520Y-11277484D02*
X15184520Y-11144150D01*
X15184520Y-11163198D02*
X15194043Y-11153674D01*
X15194043Y-11153674D02*
X15213091Y-11144150D01*
X15213091Y-11144150D02*
X15241663Y-11144150D01*
X15241663Y-11144150D02*
X15260710Y-11153674D01*
X15260710Y-11153674D02*
X15270234Y-11172722D01*
X15270234Y-11172722D02*
X15270234Y-11277484D01*
X15270234Y-11172722D02*
X15279758Y-11153674D01*
X15279758Y-11153674D02*
X15298805Y-11144150D01*
X15298805Y-11144150D02*
X15327377Y-11144150D01*
X15327377Y-11144150D02*
X15346424Y-11153674D01*
X15346424Y-11153674D02*
X15355948Y-11172722D01*
X15355948Y-11172722D02*
X15355948Y-11277484D01*
X15451186Y-11277484D02*
X15451186Y-11144150D01*
X15451186Y-11163198D02*
X15460710Y-11153674D01*
X15460710Y-11153674D02*
X15479758Y-11144150D01*
X15479758Y-11144150D02*
X15508329Y-11144150D01*
X15508329Y-11144150D02*
X15527377Y-11153674D01*
X15527377Y-11153674D02*
X15536901Y-11172722D01*
X15536901Y-11172722D02*
X15536901Y-11277484D01*
X15536901Y-11172722D02*
X15546424Y-11153674D01*
X15546424Y-11153674D02*
X15565472Y-11144150D01*
X15565472Y-11144150D02*
X15594043Y-11144150D01*
X15594043Y-11144150D02*
X15613091Y-11153674D01*
X15613091Y-11153674D02*
X15622615Y-11172722D01*
X15622615Y-11172722D02*
X15622615Y-11277484D01*
X16013091Y-11067960D02*
X15841663Y-11325103D01*
X16270234Y-11077484D02*
X16289282Y-11077484D01*
X16289282Y-11077484D02*
X16308329Y-11087008D01*
X16308329Y-11087008D02*
X16317853Y-11096531D01*
X16317853Y-11096531D02*
X16327377Y-11115579D01*
X16327377Y-11115579D02*
X16336901Y-11153674D01*
X16336901Y-11153674D02*
X16336901Y-11201293D01*
X16336901Y-11201293D02*
X16327377Y-11239388D01*
X16327377Y-11239388D02*
X16317853Y-11258436D01*
X16317853Y-11258436D02*
X16308329Y-11267960D01*
X16308329Y-11267960D02*
X16289282Y-11277484D01*
X16289282Y-11277484D02*
X16270234Y-11277484D01*
X16270234Y-11277484D02*
X16251186Y-11267960D01*
X16251186Y-11267960D02*
X16241663Y-11258436D01*
X16241663Y-11258436D02*
X16232139Y-11239388D01*
X16232139Y-11239388D02*
X16222615Y-11201293D01*
X16222615Y-11201293D02*
X16222615Y-11153674D01*
X16222615Y-11153674D02*
X16232139Y-11115579D01*
X16232139Y-11115579D02*
X16241663Y-11096531D01*
X16241663Y-11096531D02*
X16251186Y-11087008D01*
X16251186Y-11087008D02*
X16270234Y-11077484D01*
X16422615Y-11258436D02*
X16432139Y-11267960D01*
X16432139Y-11267960D02*
X16422615Y-11277484D01*
X16422615Y-11277484D02*
X16413091Y-11267960D01*
X16413091Y-11267960D02*
X16422615Y-11258436D01*
X16422615Y-11258436D02*
X16422615Y-11277484D01*
X16555948Y-11077484D02*
X16574996Y-11077484D01*
X16574996Y-11077484D02*
X16594044Y-11087008D01*
X16594044Y-11087008D02*
X16603567Y-11096531D01*
X16603567Y-11096531D02*
X16613091Y-11115579D01*
X16613091Y-11115579D02*
X16622615Y-11153674D01*
X16622615Y-11153674D02*
X16622615Y-11201293D01*
X16622615Y-11201293D02*
X16613091Y-11239388D01*
X16613091Y-11239388D02*
X16603567Y-11258436D01*
X16603567Y-11258436D02*
X16594044Y-11267960D01*
X16594044Y-11267960D02*
X16574996Y-11277484D01*
X16574996Y-11277484D02*
X16555948Y-11277484D01*
X16555948Y-11277484D02*
X16536901Y-11267960D01*
X16536901Y-11267960D02*
X16527377Y-11258436D01*
X16527377Y-11258436D02*
X16517853Y-11239388D01*
X16517853Y-11239388D02*
X16508329Y-11201293D01*
X16508329Y-11201293D02*
X16508329Y-11153674D01*
X16508329Y-11153674D02*
X16517853Y-11115579D01*
X16517853Y-11115579D02*
X16527377Y-11096531D01*
X16527377Y-11096531D02*
X16536901Y-11087008D01*
X16536901Y-11087008D02*
X16555948Y-11077484D01*
X16698806Y-11096531D02*
X16708329Y-11087008D01*
X16708329Y-11087008D02*
X16727377Y-11077484D01*
X16727377Y-11077484D02*
X16774996Y-11077484D01*
X16774996Y-11077484D02*
X16794044Y-11087008D01*
X16794044Y-11087008D02*
X16803568Y-11096531D01*
X16803568Y-11096531D02*
X16813091Y-11115579D01*
X16813091Y-11115579D02*
X16813091Y-11134627D01*
X16813091Y-11134627D02*
X16803568Y-11163198D01*
X16803568Y-11163198D02*
X16689282Y-11277484D01*
X16689282Y-11277484D02*
X16813091Y-11277484D01*
X16879758Y-11077484D02*
X17003568Y-11077484D01*
X17003568Y-11077484D02*
X16936901Y-11153674D01*
X16936901Y-11153674D02*
X16965472Y-11153674D01*
X16965472Y-11153674D02*
X16984520Y-11163198D01*
X16984520Y-11163198D02*
X16994044Y-11172722D01*
X16994044Y-11172722D02*
X17003568Y-11191769D01*
X17003568Y-11191769D02*
X17003568Y-11239388D01*
X17003568Y-11239388D02*
X16994044Y-11258436D01*
X16994044Y-11258436D02*
X16984520Y-11267960D01*
X16984520Y-11267960D02*
X16965472Y-11277484D01*
X16965472Y-11277484D02*
X16908329Y-11277484D01*
X16908329Y-11277484D02*
X16889282Y-11267960D01*
X16889282Y-11267960D02*
X16879758Y-11258436D01*
X17174996Y-11077484D02*
X17136901Y-11077484D01*
X17136901Y-11077484D02*
X17117853Y-11087008D01*
X17117853Y-11087008D02*
X17108329Y-11096531D01*
X17108329Y-11096531D02*
X17089282Y-11125103D01*
X17089282Y-11125103D02*
X17079758Y-11163198D01*
X17079758Y-11163198D02*
X17079758Y-11239388D01*
X17079758Y-11239388D02*
X17089282Y-11258436D01*
X17089282Y-11258436D02*
X17098806Y-11267960D01*
X17098806Y-11267960D02*
X17117853Y-11277484D01*
X17117853Y-11277484D02*
X17155949Y-11277484D01*
X17155949Y-11277484D02*
X17174996Y-11267960D01*
X17174996Y-11267960D02*
X17184520Y-11258436D01*
X17184520Y-11258436D02*
X17194044Y-11239388D01*
X17194044Y-11239388D02*
X17194044Y-11191769D01*
X17194044Y-11191769D02*
X17184520Y-11172722D01*
X17184520Y-11172722D02*
X17174996Y-11163198D01*
X17174996Y-11163198D02*
X17155949Y-11153674D01*
X17155949Y-11153674D02*
X17117853Y-11153674D01*
X17117853Y-11153674D02*
X17098806Y-11163198D01*
X17098806Y-11163198D02*
X17089282Y-11172722D01*
X17089282Y-11172722D02*
X17079758Y-11191769D01*
X17270234Y-11077484D02*
X17270234Y-11115579D01*
X17346425Y-11077484D02*
X17346425Y-11115579D01*
X17641663Y-11353674D02*
X17632139Y-11344150D01*
X17632139Y-11344150D02*
X17613091Y-11315579D01*
X17613091Y-11315579D02*
X17603568Y-11296531D01*
X17603568Y-11296531D02*
X17594044Y-11267960D01*
X17594044Y-11267960D02*
X17584520Y-11220341D01*
X17584520Y-11220341D02*
X17584520Y-11182246D01*
X17584520Y-11182246D02*
X17594044Y-11134627D01*
X17594044Y-11134627D02*
X17603568Y-11106055D01*
X17603568Y-11106055D02*
X17613091Y-11087008D01*
X17613091Y-11087008D02*
X17632139Y-11058436D01*
X17632139Y-11058436D02*
X17641663Y-11048912D01*
X17708330Y-11096531D02*
X17717853Y-11087008D01*
X17717853Y-11087008D02*
X17736901Y-11077484D01*
X17736901Y-11077484D02*
X17784520Y-11077484D01*
X17784520Y-11077484D02*
X17803568Y-11087008D01*
X17803568Y-11087008D02*
X17813091Y-11096531D01*
X17813091Y-11096531D02*
X17822615Y-11115579D01*
X17822615Y-11115579D02*
X17822615Y-11134627D01*
X17822615Y-11134627D02*
X17813091Y-11163198D01*
X17813091Y-11163198D02*
X17698806Y-11277484D01*
X17698806Y-11277484D02*
X17822615Y-11277484D01*
X17936901Y-11163198D02*
X17917853Y-11153674D01*
X17917853Y-11153674D02*
X17908330Y-11144150D01*
X17908330Y-11144150D02*
X17898806Y-11125103D01*
X17898806Y-11125103D02*
X17898806Y-11115579D01*
X17898806Y-11115579D02*
X17908330Y-11096531D01*
X17908330Y-11096531D02*
X17917853Y-11087008D01*
X17917853Y-11087008D02*
X17936901Y-11077484D01*
X17936901Y-11077484D02*
X17974996Y-11077484D01*
X17974996Y-11077484D02*
X17994044Y-11087008D01*
X17994044Y-11087008D02*
X18003568Y-11096531D01*
X18003568Y-11096531D02*
X18013091Y-11115579D01*
X18013091Y-11115579D02*
X18013091Y-11125103D01*
X18013091Y-11125103D02*
X18003568Y-11144150D01*
X18003568Y-11144150D02*
X17994044Y-11153674D01*
X17994044Y-11153674D02*
X17974996Y-11163198D01*
X17974996Y-11163198D02*
X17936901Y-11163198D01*
X17936901Y-11163198D02*
X17917853Y-11172722D01*
X17917853Y-11172722D02*
X17908330Y-11182246D01*
X17908330Y-11182246D02*
X17898806Y-11201293D01*
X17898806Y-11201293D02*
X17898806Y-11239388D01*
X17898806Y-11239388D02*
X17908330Y-11258436D01*
X17908330Y-11258436D02*
X17917853Y-11267960D01*
X17917853Y-11267960D02*
X17936901Y-11277484D01*
X17936901Y-11277484D02*
X17974996Y-11277484D01*
X17974996Y-11277484D02*
X17994044Y-11267960D01*
X17994044Y-11267960D02*
X18003568Y-11258436D01*
X18003568Y-11258436D02*
X18013091Y-11239388D01*
X18013091Y-11239388D02*
X18013091Y-11201293D01*
X18013091Y-11201293D02*
X18003568Y-11182246D01*
X18003568Y-11182246D02*
X17994044Y-11172722D01*
X17994044Y-11172722D02*
X17974996Y-11163198D01*
X18251187Y-11277484D02*
X18251187Y-11077484D01*
X18336901Y-11277484D02*
X18336901Y-11172722D01*
X18336901Y-11172722D02*
X18327377Y-11153674D01*
X18327377Y-11153674D02*
X18308330Y-11144150D01*
X18308330Y-11144150D02*
X18279758Y-11144150D01*
X18279758Y-11144150D02*
X18260711Y-11153674D01*
X18260711Y-11153674D02*
X18251187Y-11163198D01*
X18460711Y-11277484D02*
X18441663Y-11267960D01*
X18441663Y-11267960D02*
X18432139Y-11258436D01*
X18432139Y-11258436D02*
X18422615Y-11239388D01*
X18422615Y-11239388D02*
X18422615Y-11182246D01*
X18422615Y-11182246D02*
X18432139Y-11163198D01*
X18432139Y-11163198D02*
X18441663Y-11153674D01*
X18441663Y-11153674D02*
X18460711Y-11144150D01*
X18460711Y-11144150D02*
X18489282Y-11144150D01*
X18489282Y-11144150D02*
X18508330Y-11153674D01*
X18508330Y-11153674D02*
X18517853Y-11163198D01*
X18517853Y-11163198D02*
X18527377Y-11182246D01*
X18527377Y-11182246D02*
X18527377Y-11239388D01*
X18527377Y-11239388D02*
X18517853Y-11258436D01*
X18517853Y-11258436D02*
X18508330Y-11267960D01*
X18508330Y-11267960D02*
X18489282Y-11277484D01*
X18489282Y-11277484D02*
X18460711Y-11277484D01*
X18641663Y-11277484D02*
X18622615Y-11267960D01*
X18622615Y-11267960D02*
X18613092Y-11248912D01*
X18613092Y-11248912D02*
X18613092Y-11077484D01*
X18794044Y-11267960D02*
X18774996Y-11277484D01*
X18774996Y-11277484D02*
X18736901Y-11277484D01*
X18736901Y-11277484D02*
X18717853Y-11267960D01*
X18717853Y-11267960D02*
X18708330Y-11248912D01*
X18708330Y-11248912D02*
X18708330Y-11172722D01*
X18708330Y-11172722D02*
X18717853Y-11153674D01*
X18717853Y-11153674D02*
X18736901Y-11144150D01*
X18736901Y-11144150D02*
X18774996Y-11144150D01*
X18774996Y-11144150D02*
X18794044Y-11153674D01*
X18794044Y-11153674D02*
X18803568Y-11172722D01*
X18803568Y-11172722D02*
X18803568Y-11191769D01*
X18803568Y-11191769D02*
X18708330Y-11210817D01*
X18879758Y-11267960D02*
X18898806Y-11277484D01*
X18898806Y-11277484D02*
X18936901Y-11277484D01*
X18936901Y-11277484D02*
X18955949Y-11267960D01*
X18955949Y-11267960D02*
X18965473Y-11248912D01*
X18965473Y-11248912D02*
X18965473Y-11239388D01*
X18965473Y-11239388D02*
X18955949Y-11220341D01*
X18955949Y-11220341D02*
X18936901Y-11210817D01*
X18936901Y-11210817D02*
X18908330Y-11210817D01*
X18908330Y-11210817D02*
X18889282Y-11201293D01*
X18889282Y-11201293D02*
X18879758Y-11182246D01*
X18879758Y-11182246D02*
X18879758Y-11172722D01*
X18879758Y-11172722D02*
X18889282Y-11153674D01*
X18889282Y-11153674D02*
X18908330Y-11144150D01*
X18908330Y-11144150D02*
X18936901Y-11144150D01*
X18936901Y-11144150D02*
X18955949Y-11153674D01*
X19032139Y-11353674D02*
X19041663Y-11344150D01*
X19041663Y-11344150D02*
X19060711Y-11315579D01*
X19060711Y-11315579D02*
X19070234Y-11296531D01*
X19070234Y-11296531D02*
X19079758Y-11267960D01*
X19079758Y-11267960D02*
X19089282Y-11220341D01*
X19089282Y-11220341D02*
X19089282Y-11182246D01*
X19089282Y-11182246D02*
X19079758Y-11134627D01*
X19079758Y-11134627D02*
X19070234Y-11106055D01*
X19070234Y-11106055D02*
X19060711Y-11087008D01*
X19060711Y-11087008D02*
X19041663Y-11058436D01*
X19041663Y-11058436D02*
X19032139Y-11048912D01*
D10*
X14066600Y-11450000D02*
G75*
G03*
X13966600Y-11450000I-50000J0D01*
G01*
X13966600Y-11450000D02*
G75*
G03*
X14066600Y-11450000I50000J0D01*
G01*
D11*
X14432139Y-11541484D02*
X14317853Y-11541484D01*
X14374996Y-11541484D02*
X14374996Y-11341484D01*
X14374996Y-11341484D02*
X14355948Y-11370055D01*
X14355948Y-11370055D02*
X14336901Y-11389103D01*
X14336901Y-11389103D02*
X14317853Y-11398627D01*
X14517853Y-11522436D02*
X14527377Y-11531960D01*
X14527377Y-11531960D02*
X14517853Y-11541484D01*
X14517853Y-11541484D02*
X14508329Y-11531960D01*
X14508329Y-11531960D02*
X14517853Y-11522436D01*
X14517853Y-11522436D02*
X14517853Y-11541484D01*
X14651186Y-11341484D02*
X14670234Y-11341484D01*
X14670234Y-11341484D02*
X14689282Y-11351008D01*
X14689282Y-11351008D02*
X14698805Y-11360531D01*
X14698805Y-11360531D02*
X14708329Y-11379579D01*
X14708329Y-11379579D02*
X14717853Y-11417674D01*
X14717853Y-11417674D02*
X14717853Y-11465293D01*
X14717853Y-11465293D02*
X14708329Y-11503388D01*
X14708329Y-11503388D02*
X14698805Y-11522436D01*
X14698805Y-11522436D02*
X14689282Y-11531960D01*
X14689282Y-11531960D02*
X14670234Y-11541484D01*
X14670234Y-11541484D02*
X14651186Y-11541484D01*
X14651186Y-11541484D02*
X14632139Y-11531960D01*
X14632139Y-11531960D02*
X14622615Y-11522436D01*
X14622615Y-11522436D02*
X14613091Y-11503388D01*
X14613091Y-11503388D02*
X14603567Y-11465293D01*
X14603567Y-11465293D02*
X14603567Y-11417674D01*
X14603567Y-11417674D02*
X14613091Y-11379579D01*
X14613091Y-11379579D02*
X14622615Y-11360531D01*
X14622615Y-11360531D02*
X14632139Y-11351008D01*
X14632139Y-11351008D02*
X14651186Y-11341484D01*
X14841662Y-11341484D02*
X14860710Y-11341484D01*
X14860710Y-11341484D02*
X14879758Y-11351008D01*
X14879758Y-11351008D02*
X14889282Y-11360531D01*
X14889282Y-11360531D02*
X14898805Y-11379579D01*
X14898805Y-11379579D02*
X14908329Y-11417674D01*
X14908329Y-11417674D02*
X14908329Y-11465293D01*
X14908329Y-11465293D02*
X14898805Y-11503388D01*
X14898805Y-11503388D02*
X14889282Y-11522436D01*
X14889282Y-11522436D02*
X14879758Y-11531960D01*
X14879758Y-11531960D02*
X14860710Y-11541484D01*
X14860710Y-11541484D02*
X14841662Y-11541484D01*
X14841662Y-11541484D02*
X14822615Y-11531960D01*
X14822615Y-11531960D02*
X14813091Y-11522436D01*
X14813091Y-11522436D02*
X14803567Y-11503388D01*
X14803567Y-11503388D02*
X14794043Y-11465293D01*
X14794043Y-11465293D02*
X14794043Y-11417674D01*
X14794043Y-11417674D02*
X14803567Y-11379579D01*
X14803567Y-11379579D02*
X14813091Y-11360531D01*
X14813091Y-11360531D02*
X14822615Y-11351008D01*
X14822615Y-11351008D02*
X14841662Y-11341484D01*
X15032139Y-11341484D02*
X15051186Y-11341484D01*
X15051186Y-11341484D02*
X15070234Y-11351008D01*
X15070234Y-11351008D02*
X15079758Y-11360531D01*
X15079758Y-11360531D02*
X15089282Y-11379579D01*
X15089282Y-11379579D02*
X15098805Y-11417674D01*
X15098805Y-11417674D02*
X15098805Y-11465293D01*
X15098805Y-11465293D02*
X15089282Y-11503388D01*
X15089282Y-11503388D02*
X15079758Y-11522436D01*
X15079758Y-11522436D02*
X15070234Y-11531960D01*
X15070234Y-11531960D02*
X15051186Y-11541484D01*
X15051186Y-11541484D02*
X15032139Y-11541484D01*
X15032139Y-11541484D02*
X15013091Y-11531960D01*
X15013091Y-11531960D02*
X15003567Y-11522436D01*
X15003567Y-11522436D02*
X14994043Y-11503388D01*
X14994043Y-11503388D02*
X14984520Y-11465293D01*
X14984520Y-11465293D02*
X14984520Y-11417674D01*
X14984520Y-11417674D02*
X14994043Y-11379579D01*
X14994043Y-11379579D02*
X15003567Y-11360531D01*
X15003567Y-11360531D02*
X15013091Y-11351008D01*
X15013091Y-11351008D02*
X15032139Y-11341484D01*
X15184520Y-11541484D02*
X15184520Y-11408150D01*
X15184520Y-11427198D02*
X15194043Y-11417674D01*
X15194043Y-11417674D02*
X15213091Y-11408150D01*
X15213091Y-11408150D02*
X15241663Y-11408150D01*
X15241663Y-11408150D02*
X15260710Y-11417674D01*
X15260710Y-11417674D02*
X15270234Y-11436722D01*
X15270234Y-11436722D02*
X15270234Y-11541484D01*
X15270234Y-11436722D02*
X15279758Y-11417674D01*
X15279758Y-11417674D02*
X15298805Y-11408150D01*
X15298805Y-11408150D02*
X15327377Y-11408150D01*
X15327377Y-11408150D02*
X15346424Y-11417674D01*
X15346424Y-11417674D02*
X15355948Y-11436722D01*
X15355948Y-11436722D02*
X15355948Y-11541484D01*
X15451186Y-11541484D02*
X15451186Y-11408150D01*
X15451186Y-11427198D02*
X15460710Y-11417674D01*
X15460710Y-11417674D02*
X15479758Y-11408150D01*
X15479758Y-11408150D02*
X15508329Y-11408150D01*
X15508329Y-11408150D02*
X15527377Y-11417674D01*
X15527377Y-11417674D02*
X15536901Y-11436722D01*
X15536901Y-11436722D02*
X15536901Y-11541484D01*
X15536901Y-11436722D02*
X15546424Y-11417674D01*
X15546424Y-11417674D02*
X15565472Y-11408150D01*
X15565472Y-11408150D02*
X15594043Y-11408150D01*
X15594043Y-11408150D02*
X15613091Y-11417674D01*
X15613091Y-11417674D02*
X15622615Y-11436722D01*
X15622615Y-11436722D02*
X15622615Y-11541484D01*
X16013091Y-11331960D02*
X15841663Y-11589103D01*
X16270234Y-11341484D02*
X16289282Y-11341484D01*
X16289282Y-11341484D02*
X16308329Y-11351008D01*
X16308329Y-11351008D02*
X16317853Y-11360531D01*
X16317853Y-11360531D02*
X16327377Y-11379579D01*
X16327377Y-11379579D02*
X16336901Y-11417674D01*
X16336901Y-11417674D02*
X16336901Y-11465293D01*
X16336901Y-11465293D02*
X16327377Y-11503388D01*
X16327377Y-11503388D02*
X16317853Y-11522436D01*
X16317853Y-11522436D02*
X16308329Y-11531960D01*
X16308329Y-11531960D02*
X16289282Y-11541484D01*
X16289282Y-11541484D02*
X16270234Y-11541484D01*
X16270234Y-11541484D02*
X16251186Y-11531960D01*
X16251186Y-11531960D02*
X16241663Y-11522436D01*
X16241663Y-11522436D02*
X16232139Y-11503388D01*
X16232139Y-11503388D02*
X16222615Y-11465293D01*
X16222615Y-11465293D02*
X16222615Y-11417674D01*
X16222615Y-11417674D02*
X16232139Y-11379579D01*
X16232139Y-11379579D02*
X16241663Y-11360531D01*
X16241663Y-11360531D02*
X16251186Y-11351008D01*
X16251186Y-11351008D02*
X16270234Y-11341484D01*
X16422615Y-11522436D02*
X16432139Y-11531960D01*
X16432139Y-11531960D02*
X16422615Y-11541484D01*
X16422615Y-11541484D02*
X16413091Y-11531960D01*
X16413091Y-11531960D02*
X16422615Y-11522436D01*
X16422615Y-11522436D02*
X16422615Y-11541484D01*
X16555948Y-11341484D02*
X16574996Y-11341484D01*
X16574996Y-11341484D02*
X16594044Y-11351008D01*
X16594044Y-11351008D02*
X16603567Y-11360531D01*
X16603567Y-11360531D02*
X16613091Y-11379579D01*
X16613091Y-11379579D02*
X16622615Y-11417674D01*
X16622615Y-11417674D02*
X16622615Y-11465293D01*
X16622615Y-11465293D02*
X16613091Y-11503388D01*
X16613091Y-11503388D02*
X16603567Y-11522436D01*
X16603567Y-11522436D02*
X16594044Y-11531960D01*
X16594044Y-11531960D02*
X16574996Y-11541484D01*
X16574996Y-11541484D02*
X16555948Y-11541484D01*
X16555948Y-11541484D02*
X16536901Y-11531960D01*
X16536901Y-11531960D02*
X16527377Y-11522436D01*
X16527377Y-11522436D02*
X16517853Y-11503388D01*
X16517853Y-11503388D02*
X16508329Y-11465293D01*
X16508329Y-11465293D02*
X16508329Y-11417674D01*
X16508329Y-11417674D02*
X16517853Y-11379579D01*
X16517853Y-11379579D02*
X16527377Y-11360531D01*
X16527377Y-11360531D02*
X16536901Y-11351008D01*
X16536901Y-11351008D02*
X16555948Y-11341484D01*
X16689282Y-11341484D02*
X16813091Y-11341484D01*
X16813091Y-11341484D02*
X16746425Y-11417674D01*
X16746425Y-11417674D02*
X16774996Y-11417674D01*
X16774996Y-11417674D02*
X16794044Y-11427198D01*
X16794044Y-11427198D02*
X16803568Y-11436722D01*
X16803568Y-11436722D02*
X16813091Y-11455769D01*
X16813091Y-11455769D02*
X16813091Y-11503388D01*
X16813091Y-11503388D02*
X16803568Y-11522436D01*
X16803568Y-11522436D02*
X16794044Y-11531960D01*
X16794044Y-11531960D02*
X16774996Y-11541484D01*
X16774996Y-11541484D02*
X16717853Y-11541484D01*
X16717853Y-11541484D02*
X16698806Y-11531960D01*
X16698806Y-11531960D02*
X16689282Y-11522436D01*
X16908329Y-11541484D02*
X16946425Y-11541484D01*
X16946425Y-11541484D02*
X16965472Y-11531960D01*
X16965472Y-11531960D02*
X16974996Y-11522436D01*
X16974996Y-11522436D02*
X16994044Y-11493865D01*
X16994044Y-11493865D02*
X17003568Y-11455769D01*
X17003568Y-11455769D02*
X17003568Y-11379579D01*
X17003568Y-11379579D02*
X16994044Y-11360531D01*
X16994044Y-11360531D02*
X16984520Y-11351008D01*
X16984520Y-11351008D02*
X16965472Y-11341484D01*
X16965472Y-11341484D02*
X16927377Y-11341484D01*
X16927377Y-11341484D02*
X16908329Y-11351008D01*
X16908329Y-11351008D02*
X16898806Y-11360531D01*
X16898806Y-11360531D02*
X16889282Y-11379579D01*
X16889282Y-11379579D02*
X16889282Y-11427198D01*
X16889282Y-11427198D02*
X16898806Y-11446246D01*
X16898806Y-11446246D02*
X16908329Y-11455769D01*
X16908329Y-11455769D02*
X16927377Y-11465293D01*
X16927377Y-11465293D02*
X16965472Y-11465293D01*
X16965472Y-11465293D02*
X16984520Y-11455769D01*
X16984520Y-11455769D02*
X16994044Y-11446246D01*
X16994044Y-11446246D02*
X17003568Y-11427198D01*
X17174996Y-11408150D02*
X17174996Y-11541484D01*
X17127377Y-11331960D02*
X17079758Y-11474817D01*
X17079758Y-11474817D02*
X17203568Y-11474817D01*
X17270234Y-11341484D02*
X17270234Y-11379579D01*
X17346425Y-11341484D02*
X17346425Y-11379579D01*
X17641663Y-11617674D02*
X17632139Y-11608150D01*
X17632139Y-11608150D02*
X17613091Y-11579579D01*
X17613091Y-11579579D02*
X17603568Y-11560531D01*
X17603568Y-11560531D02*
X17594044Y-11531960D01*
X17594044Y-11531960D02*
X17584520Y-11484341D01*
X17584520Y-11484341D02*
X17584520Y-11446246D01*
X17584520Y-11446246D02*
X17594044Y-11398627D01*
X17594044Y-11398627D02*
X17603568Y-11370055D01*
X17603568Y-11370055D02*
X17613091Y-11351008D01*
X17613091Y-11351008D02*
X17632139Y-11322436D01*
X17632139Y-11322436D02*
X17641663Y-11312912D01*
X17708330Y-11360531D02*
X17717853Y-11351008D01*
X17717853Y-11351008D02*
X17736901Y-11341484D01*
X17736901Y-11341484D02*
X17784520Y-11341484D01*
X17784520Y-11341484D02*
X17803568Y-11351008D01*
X17803568Y-11351008D02*
X17813091Y-11360531D01*
X17813091Y-11360531D02*
X17822615Y-11379579D01*
X17822615Y-11379579D02*
X17822615Y-11398627D01*
X17822615Y-11398627D02*
X17813091Y-11427198D01*
X17813091Y-11427198D02*
X17698806Y-11541484D01*
X17698806Y-11541484D02*
X17822615Y-11541484D01*
X17936901Y-11427198D02*
X17917853Y-11417674D01*
X17917853Y-11417674D02*
X17908330Y-11408150D01*
X17908330Y-11408150D02*
X17898806Y-11389103D01*
X17898806Y-11389103D02*
X17898806Y-11379579D01*
X17898806Y-11379579D02*
X17908330Y-11360531D01*
X17908330Y-11360531D02*
X17917853Y-11351008D01*
X17917853Y-11351008D02*
X17936901Y-11341484D01*
X17936901Y-11341484D02*
X17974996Y-11341484D01*
X17974996Y-11341484D02*
X17994044Y-11351008D01*
X17994044Y-11351008D02*
X18003568Y-11360531D01*
X18003568Y-11360531D02*
X18013091Y-11379579D01*
X18013091Y-11379579D02*
X18013091Y-11389103D01*
X18013091Y-11389103D02*
X18003568Y-11408150D01*
X18003568Y-11408150D02*
X17994044Y-11417674D01*
X17994044Y-11417674D02*
X17974996Y-11427198D01*
X17974996Y-11427198D02*
X17936901Y-11427198D01*
X17936901Y-11427198D02*
X17917853Y-11436722D01*
X17917853Y-11436722D02*
X17908330Y-11446246D01*
X17908330Y-11446246D02*
X17898806Y-11465293D01*
X17898806Y-11465293D02*
X17898806Y-11503388D01*
X17898806Y-11503388D02*
X17908330Y-11522436D01*
X17908330Y-11522436D02*
X17917853Y-11531960D01*
X17917853Y-11531960D02*
X17936901Y-11541484D01*
X17936901Y-11541484D02*
X17974996Y-11541484D01*
X17974996Y-11541484D02*
X17994044Y-11531960D01*
X17994044Y-11531960D02*
X18003568Y-11522436D01*
X18003568Y-11522436D02*
X18013091Y-11503388D01*
X18013091Y-11503388D02*
X18013091Y-11465293D01*
X18013091Y-11465293D02*
X18003568Y-11446246D01*
X18003568Y-11446246D02*
X17994044Y-11436722D01*
X17994044Y-11436722D02*
X17974996Y-11427198D01*
X18251187Y-11541484D02*
X18251187Y-11341484D01*
X18336901Y-11541484D02*
X18336901Y-11436722D01*
X18336901Y-11436722D02*
X18327377Y-11417674D01*
X18327377Y-11417674D02*
X18308330Y-11408150D01*
X18308330Y-11408150D02*
X18279758Y-11408150D01*
X18279758Y-11408150D02*
X18260711Y-11417674D01*
X18260711Y-11417674D02*
X18251187Y-11427198D01*
X18460711Y-11541484D02*
X18441663Y-11531960D01*
X18441663Y-11531960D02*
X18432139Y-11522436D01*
X18432139Y-11522436D02*
X18422615Y-11503388D01*
X18422615Y-11503388D02*
X18422615Y-11446246D01*
X18422615Y-11446246D02*
X18432139Y-11427198D01*
X18432139Y-11427198D02*
X18441663Y-11417674D01*
X18441663Y-11417674D02*
X18460711Y-11408150D01*
X18460711Y-11408150D02*
X18489282Y-11408150D01*
X18489282Y-11408150D02*
X18508330Y-11417674D01*
X18508330Y-11417674D02*
X18517853Y-11427198D01*
X18517853Y-11427198D02*
X18527377Y-11446246D01*
X18527377Y-11446246D02*
X18527377Y-11503388D01*
X18527377Y-11503388D02*
X18517853Y-11522436D01*
X18517853Y-11522436D02*
X18508330Y-11531960D01*
X18508330Y-11531960D02*
X18489282Y-11541484D01*
X18489282Y-11541484D02*
X18460711Y-11541484D01*
X18641663Y-11541484D02*
X18622615Y-11531960D01*
X18622615Y-11531960D02*
X18613092Y-11512912D01*
X18613092Y-11512912D02*
X18613092Y-11341484D01*
X18794044Y-11531960D02*
X18774996Y-11541484D01*
X18774996Y-11541484D02*
X18736901Y-11541484D01*
X18736901Y-11541484D02*
X18717853Y-11531960D01*
X18717853Y-11531960D02*
X18708330Y-11512912D01*
X18708330Y-11512912D02*
X18708330Y-11436722D01*
X18708330Y-11436722D02*
X18717853Y-11417674D01*
X18717853Y-11417674D02*
X18736901Y-11408150D01*
X18736901Y-11408150D02*
X18774996Y-11408150D01*
X18774996Y-11408150D02*
X18794044Y-11417674D01*
X18794044Y-11417674D02*
X18803568Y-11436722D01*
X18803568Y-11436722D02*
X18803568Y-11455769D01*
X18803568Y-11455769D02*
X18708330Y-11474817D01*
X18879758Y-11531960D02*
X18898806Y-11541484D01*
X18898806Y-11541484D02*
X18936901Y-11541484D01*
X18936901Y-11541484D02*
X18955949Y-11531960D01*
X18955949Y-11531960D02*
X18965473Y-11512912D01*
X18965473Y-11512912D02*
X18965473Y-11503388D01*
X18965473Y-11503388D02*
X18955949Y-11484341D01*
X18955949Y-11484341D02*
X18936901Y-11474817D01*
X18936901Y-11474817D02*
X18908330Y-11474817D01*
X18908330Y-11474817D02*
X18889282Y-11465293D01*
X18889282Y-11465293D02*
X18879758Y-11446246D01*
X18879758Y-11446246D02*
X18879758Y-11436722D01*
X18879758Y-11436722D02*
X18889282Y-11417674D01*
X18889282Y-11417674D02*
X18908330Y-11408150D01*
X18908330Y-11408150D02*
X18936901Y-11408150D01*
X18936901Y-11408150D02*
X18955949Y-11417674D01*
X19032139Y-11617674D02*
X19041663Y-11608150D01*
X19041663Y-11608150D02*
X19060711Y-11579579D01*
X19060711Y-11579579D02*
X19070234Y-11560531D01*
X19070234Y-11560531D02*
X19079758Y-11531960D01*
X19079758Y-11531960D02*
X19089282Y-11484341D01*
X19089282Y-11484341D02*
X19089282Y-11446246D01*
X19089282Y-11446246D02*
X19079758Y-11398627D01*
X19079758Y-11398627D02*
X19070234Y-11370055D01*
X19070234Y-11370055D02*
X19060711Y-11351008D01*
X19060711Y-11351008D02*
X19041663Y-11322436D01*
X19041663Y-11322436D02*
X19032139Y-11312912D01*
M02*
