M48
; DRILL file {KiCad 7.0.10} date Mon May 20 02:41:21 2024
; FORMAT={-:-/ absolute / inch / decimal}
; #@! TF.CreationDate,2024-05-20T02:41:21+05:30
; #@! TF.GenerationSoftware,Kicad,Pcbnew,7.0.10
; #@! TF.FileFunction,Plated,1,2,PTH
FMAT,2
INCH
; #@! TA.AperFunction,Plated,PTH,ViaDrill
T1C0.0157
; #@! TA.AperFunction,Plated,PTH,ComponentDrill
T2C0.0236
%
G90
G05
T1
X3.7984Y-2.623
X3.8204Y-2.197
X3.8232Y-2.961
X3.8764Y-2.299
X3.8864Y-2.829
X3.9218Y-2.5004
X3.9284Y-2.695
X3.9415Y-2.851
X4.0084Y-2.7644
X4.0644Y-2.301
X4.1004Y-2.825
X4.1324Y-2.199
X4.1504Y-2.4205
X4.1504Y-2.9713
X4.1811Y-2.524
T2
X3.6884Y-2.8335
X3.6884Y-2.8835
X3.6884Y-2.9335
X3.6892Y-2.985
X3.6896Y-2.4319
X3.6896Y-2.4819
X3.6896Y-2.5319
X3.6896Y-2.5819
X3.6896Y-2.6319
X3.6896Y-2.6819
X3.6896Y-2.7319
X3.6896Y-2.7819
X3.9004Y-3.0138
X3.9504Y-3.0138
X4.0004Y-3.0138
X4.0504Y-3.0138
X4.2648Y-2.6331
X4.2648Y-2.6831
X4.2648Y-2.7331
X4.2648Y-2.7831
X4.2648Y-2.8331
X4.2648Y-2.8831
X4.2648Y-2.9331
X4.2648Y-2.9831
X4.2652Y-2.4299
X4.266Y-2.4815
X4.266Y-2.5315
X4.266Y-2.5815
M30
