%TF.GenerationSoftware,KiCad,Pcbnew,7.0.10*%
%TF.CreationDate,2024-05-20T02:41:22+05:30*%
%TF.ProjectId,nico-ch32v003-v1,6e69636f-2d63-4683-9332-763030332d76,rev?*%
%TF.SameCoordinates,Original*%
%TF.FileFunction,Drillmap*%
%TF.FilePolarity,Positive*%
%FSLAX45Y45*%
G04 Gerber Fmt 4.5, Leading zero omitted, Abs format (unit mm)*
G04 Created by KiCad (PCBNEW 7.0.10) date 2024-05-20 02:41:22*
%MOMM*%
%LPD*%
G01*
G04 APERTURE LIST*
%ADD10C,0.150000*%
%ADD11C,0.200000*%
%ADD12C,0.100000*%
G04 APERTURE END LIST*
D10*
X9497600Y-4605000D02*
X10702600Y-4603000D01*
X10703600Y-5803000D02*
X10846920Y-6027520D01*
X9496600Y-5802000D02*
X9497600Y-4605000D01*
X10846920Y-6027520D02*
X10846600Y-7663000D01*
X10846600Y-7663000D02*
X9372540Y-7662000D01*
X9373720Y-6032600D02*
X9372540Y-7662000D01*
X9496600Y-5802000D02*
X9373720Y-6032600D01*
X10702600Y-4603000D02*
X10703600Y-5803000D01*
D11*
D12*
X9628040Y-6642520D02*
X9668040Y-6682520D01*
X9668040Y-6642520D02*
X9628040Y-6682520D01*
X9683920Y-5560480D02*
X9723920Y-5600480D01*
X9723920Y-5560480D02*
X9683920Y-5600480D01*
X9691000Y-7501000D02*
X9731000Y-7541000D01*
X9731000Y-7501000D02*
X9691000Y-7541000D01*
X9826160Y-5819560D02*
X9866160Y-5859560D01*
X9866160Y-5819560D02*
X9826160Y-5859560D01*
X9851560Y-7165760D02*
X9891560Y-7205760D01*
X9891560Y-7165760D02*
X9851560Y-7205760D01*
X9941439Y-6330926D02*
X9981439Y-6370926D01*
X9981439Y-6330926D02*
X9941439Y-6370926D01*
X9958240Y-6825400D02*
X9998240Y-6865400D01*
X9998240Y-6825400D02*
X9958240Y-6865400D01*
X9991440Y-7221640D02*
X10031440Y-7261640D01*
X10031440Y-7221640D02*
X9991440Y-7261640D01*
X10161440Y-7001640D02*
X10201440Y-7041640D01*
X10201440Y-7001640D02*
X10161440Y-7041640D01*
X10303680Y-5824640D02*
X10343680Y-5864640D01*
X10343680Y-5824640D02*
X10303680Y-5864640D01*
X10395120Y-7155600D02*
X10435120Y-7195600D01*
X10435120Y-7155600D02*
X10395120Y-7195600D01*
X10476400Y-5565560D02*
X10516400Y-5605560D01*
X10516400Y-5565560D02*
X10476400Y-5605560D01*
X10522000Y-6128000D02*
X10562000Y-6168000D01*
X10562000Y-6128000D02*
X10522000Y-6168000D01*
X10522000Y-7527000D02*
X10562000Y-7567000D01*
X10562000Y-7527000D02*
X10522000Y-7567000D01*
X10600000Y-6391000D02*
X10640000Y-6431000D01*
X10640000Y-6391000D02*
X10600000Y-6431000D01*
X9398600Y-7197000D02*
G75*
G03*
X9338600Y-7197000I-30000J0D01*
G01*
X9338600Y-7197000D02*
G75*
G03*
X9398600Y-7197000I30000J0D01*
G01*
X9398600Y-7324000D02*
G75*
G03*
X9338600Y-7324000I-30000J0D01*
G01*
X9338600Y-7324000D02*
G75*
G03*
X9398600Y-7324000I30000J0D01*
G01*
X9398600Y-7451000D02*
G75*
G03*
X9338600Y-7451000I-30000J0D01*
G01*
X9338600Y-7451000D02*
G75*
G03*
X9398600Y-7451000I30000J0D01*
G01*
X9400600Y-7582000D02*
G75*
G03*
X9340600Y-7582000I-30000J0D01*
G01*
X9340600Y-7582000D02*
G75*
G03*
X9400600Y-7582000I30000J0D01*
G01*
X9401600Y-6177000D02*
G75*
G03*
X9341600Y-6177000I-30000J0D01*
G01*
X9341600Y-6177000D02*
G75*
G03*
X9401600Y-6177000I30000J0D01*
G01*
X9401600Y-6304000D02*
G75*
G03*
X9341600Y-6304000I-30000J0D01*
G01*
X9341600Y-6304000D02*
G75*
G03*
X9401600Y-6304000I30000J0D01*
G01*
X9401600Y-6431000D02*
G75*
G03*
X9341600Y-6431000I-30000J0D01*
G01*
X9341600Y-6431000D02*
G75*
G03*
X9401600Y-6431000I30000J0D01*
G01*
X9401600Y-6558000D02*
G75*
G03*
X9341600Y-6558000I-30000J0D01*
G01*
X9341600Y-6558000D02*
G75*
G03*
X9401600Y-6558000I30000J0D01*
G01*
X9401600Y-6685000D02*
G75*
G03*
X9341600Y-6685000I-30000J0D01*
G01*
X9341600Y-6685000D02*
G75*
G03*
X9401600Y-6685000I30000J0D01*
G01*
X9401600Y-6812000D02*
G75*
G03*
X9341600Y-6812000I-30000J0D01*
G01*
X9341600Y-6812000D02*
G75*
G03*
X9401600Y-6812000I30000J0D01*
G01*
X9401600Y-6939000D02*
G75*
G03*
X9341600Y-6939000I-30000J0D01*
G01*
X9341600Y-6939000D02*
G75*
G03*
X9401600Y-6939000I30000J0D01*
G01*
X9401600Y-7066000D02*
G75*
G03*
X9341600Y-7066000I-30000J0D01*
G01*
X9341600Y-7066000D02*
G75*
G03*
X9401600Y-7066000I30000J0D01*
G01*
X9937000Y-7655000D02*
G75*
G03*
X9877000Y-7655000I-30000J0D01*
G01*
X9877000Y-7655000D02*
G75*
G03*
X9937000Y-7655000I30000J0D01*
G01*
X10064000Y-7655000D02*
G75*
G03*
X10004000Y-7655000I-30000J0D01*
G01*
X10004000Y-7655000D02*
G75*
G03*
X10064000Y-7655000I30000J0D01*
G01*
X10191000Y-7655000D02*
G75*
G03*
X10131000Y-7655000I-30000J0D01*
G01*
X10131000Y-7655000D02*
G75*
G03*
X10191000Y-7655000I30000J0D01*
G01*
X10318000Y-7655000D02*
G75*
G03*
X10258000Y-7655000I-30000J0D01*
G01*
X10258000Y-7655000D02*
G75*
G03*
X10318000Y-7655000I30000J0D01*
G01*
X10862600Y-6688000D02*
G75*
G03*
X10802600Y-6688000I-30000J0D01*
G01*
X10802600Y-6688000D02*
G75*
G03*
X10862600Y-6688000I30000J0D01*
G01*
X10862600Y-6815000D02*
G75*
G03*
X10802600Y-6815000I-30000J0D01*
G01*
X10802600Y-6815000D02*
G75*
G03*
X10862600Y-6815000I30000J0D01*
G01*
X10862600Y-6942000D02*
G75*
G03*
X10802600Y-6942000I-30000J0D01*
G01*
X10802600Y-6942000D02*
G75*
G03*
X10862600Y-6942000I30000J0D01*
G01*
X10862600Y-7069000D02*
G75*
G03*
X10802600Y-7069000I-30000J0D01*
G01*
X10802600Y-7069000D02*
G75*
G03*
X10862600Y-7069000I30000J0D01*
G01*
X10862600Y-7196000D02*
G75*
G03*
X10802600Y-7196000I-30000J0D01*
G01*
X10802600Y-7196000D02*
G75*
G03*
X10862600Y-7196000I30000J0D01*
G01*
X10862600Y-7323000D02*
G75*
G03*
X10802600Y-7323000I-30000J0D01*
G01*
X10802600Y-7323000D02*
G75*
G03*
X10862600Y-7323000I30000J0D01*
G01*
X10862600Y-7450000D02*
G75*
G03*
X10802600Y-7450000I-30000J0D01*
G01*
X10802600Y-7450000D02*
G75*
G03*
X10862600Y-7450000I30000J0D01*
G01*
X10862600Y-7577000D02*
G75*
G03*
X10802600Y-7577000I-30000J0D01*
G01*
X10802600Y-7577000D02*
G75*
G03*
X10862600Y-7577000I30000J0D01*
G01*
X10863600Y-6172000D02*
G75*
G03*
X10803600Y-6172000I-30000J0D01*
G01*
X10803600Y-6172000D02*
G75*
G03*
X10863600Y-6172000I30000J0D01*
G01*
X10865600Y-6303000D02*
G75*
G03*
X10805600Y-6303000I-30000J0D01*
G01*
X10805600Y-6303000D02*
G75*
G03*
X10865600Y-6303000I30000J0D01*
G01*
X10865600Y-6430000D02*
G75*
G03*
X10805600Y-6430000I-30000J0D01*
G01*
X10805600Y-6430000D02*
G75*
G03*
X10865600Y-6430000I30000J0D01*
G01*
X10865600Y-6557000D02*
G75*
G03*
X10805600Y-6557000I-30000J0D01*
G01*
X10805600Y-6557000D02*
G75*
G03*
X10865600Y-6557000I30000J0D01*
G01*
D11*
X9625817Y-7981984D02*
X9625817Y-7781984D01*
X9625817Y-7781984D02*
X9673436Y-7781984D01*
X9673436Y-7781984D02*
X9702007Y-7791508D01*
X9702007Y-7791508D02*
X9721055Y-7810555D01*
X9721055Y-7810555D02*
X9730579Y-7829603D01*
X9730579Y-7829603D02*
X9740103Y-7867698D01*
X9740103Y-7867698D02*
X9740103Y-7896269D01*
X9740103Y-7896269D02*
X9730579Y-7934365D01*
X9730579Y-7934365D02*
X9721055Y-7953412D01*
X9721055Y-7953412D02*
X9702007Y-7972460D01*
X9702007Y-7972460D02*
X9673436Y-7981984D01*
X9673436Y-7981984D02*
X9625817Y-7981984D01*
X9825817Y-7981984D02*
X9825817Y-7848650D01*
X9825817Y-7886746D02*
X9835341Y-7867698D01*
X9835341Y-7867698D02*
X9844864Y-7858174D01*
X9844864Y-7858174D02*
X9863912Y-7848650D01*
X9863912Y-7848650D02*
X9882960Y-7848650D01*
X9949626Y-7981984D02*
X9949626Y-7848650D01*
X9949626Y-7781984D02*
X9940103Y-7791508D01*
X9940103Y-7791508D02*
X9949626Y-7801031D01*
X9949626Y-7801031D02*
X9959150Y-7791508D01*
X9959150Y-7791508D02*
X9949626Y-7781984D01*
X9949626Y-7781984D02*
X9949626Y-7801031D01*
X10073436Y-7981984D02*
X10054388Y-7972460D01*
X10054388Y-7972460D02*
X10044864Y-7953412D01*
X10044864Y-7953412D02*
X10044864Y-7781984D01*
X10178198Y-7981984D02*
X10159150Y-7972460D01*
X10159150Y-7972460D02*
X10149626Y-7953412D01*
X10149626Y-7953412D02*
X10149626Y-7781984D01*
X10406769Y-7981984D02*
X10406769Y-7781984D01*
X10406769Y-7781984D02*
X10473436Y-7924841D01*
X10473436Y-7924841D02*
X10540103Y-7781984D01*
X10540103Y-7781984D02*
X10540103Y-7981984D01*
X10721055Y-7981984D02*
X10721055Y-7877222D01*
X10721055Y-7877222D02*
X10711531Y-7858174D01*
X10711531Y-7858174D02*
X10692484Y-7848650D01*
X10692484Y-7848650D02*
X10654388Y-7848650D01*
X10654388Y-7848650D02*
X10635341Y-7858174D01*
X10721055Y-7972460D02*
X10702007Y-7981984D01*
X10702007Y-7981984D02*
X10654388Y-7981984D01*
X10654388Y-7981984D02*
X10635341Y-7972460D01*
X10635341Y-7972460D02*
X10625817Y-7953412D01*
X10625817Y-7953412D02*
X10625817Y-7934365D01*
X10625817Y-7934365D02*
X10635341Y-7915317D01*
X10635341Y-7915317D02*
X10654388Y-7905793D01*
X10654388Y-7905793D02*
X10702007Y-7905793D01*
X10702007Y-7905793D02*
X10721055Y-7896269D01*
X10816293Y-7848650D02*
X10816293Y-8048650D01*
X10816293Y-7858174D02*
X10835341Y-7848650D01*
X10835341Y-7848650D02*
X10873436Y-7848650D01*
X10873436Y-7848650D02*
X10892484Y-7858174D01*
X10892484Y-7858174D02*
X10902007Y-7867698D01*
X10902007Y-7867698D02*
X10911531Y-7886746D01*
X10911531Y-7886746D02*
X10911531Y-7943888D01*
X10911531Y-7943888D02*
X10902007Y-7962936D01*
X10902007Y-7962936D02*
X10892484Y-7972460D01*
X10892484Y-7972460D02*
X10873436Y-7981984D01*
X10873436Y-7981984D02*
X10835341Y-7981984D01*
X10835341Y-7981984D02*
X10816293Y-7972460D01*
X10997245Y-7962936D02*
X11006769Y-7972460D01*
X11006769Y-7972460D02*
X10997245Y-7981984D01*
X10997245Y-7981984D02*
X10987722Y-7972460D01*
X10987722Y-7972460D02*
X10997245Y-7962936D01*
X10997245Y-7962936D02*
X10997245Y-7981984D01*
X10997245Y-7858174D02*
X11006769Y-7867698D01*
X11006769Y-7867698D02*
X10997245Y-7877222D01*
X10997245Y-7877222D02*
X10987722Y-7867698D01*
X10987722Y-7867698D02*
X10997245Y-7858174D01*
X10997245Y-7858174D02*
X10997245Y-7877222D01*
D12*
X9325040Y-8290500D02*
X9365040Y-8330500D01*
X9365040Y-8290500D02*
X9325040Y-8330500D01*
D11*
X9663912Y-8201984D02*
X9682960Y-8201984D01*
X9682960Y-8201984D02*
X9702007Y-8211508D01*
X9702007Y-8211508D02*
X9711531Y-8221031D01*
X9711531Y-8221031D02*
X9721055Y-8240079D01*
X9721055Y-8240079D02*
X9730579Y-8278174D01*
X9730579Y-8278174D02*
X9730579Y-8325793D01*
X9730579Y-8325793D02*
X9721055Y-8363888D01*
X9721055Y-8363888D02*
X9711531Y-8382936D01*
X9711531Y-8382936D02*
X9702007Y-8392460D01*
X9702007Y-8392460D02*
X9682960Y-8401984D01*
X9682960Y-8401984D02*
X9663912Y-8401984D01*
X9663912Y-8401984D02*
X9644864Y-8392460D01*
X9644864Y-8392460D02*
X9635341Y-8382936D01*
X9635341Y-8382936D02*
X9625817Y-8363888D01*
X9625817Y-8363888D02*
X9616293Y-8325793D01*
X9616293Y-8325793D02*
X9616293Y-8278174D01*
X9616293Y-8278174D02*
X9625817Y-8240079D01*
X9625817Y-8240079D02*
X9635341Y-8221031D01*
X9635341Y-8221031D02*
X9644864Y-8211508D01*
X9644864Y-8211508D02*
X9663912Y-8201984D01*
X9816293Y-8382936D02*
X9825817Y-8392460D01*
X9825817Y-8392460D02*
X9816293Y-8401984D01*
X9816293Y-8401984D02*
X9806769Y-8392460D01*
X9806769Y-8392460D02*
X9816293Y-8382936D01*
X9816293Y-8382936D02*
X9816293Y-8401984D01*
X9997245Y-8268650D02*
X9997245Y-8401984D01*
X9949626Y-8192460D02*
X9902007Y-8335317D01*
X9902007Y-8335317D02*
X10025817Y-8335317D01*
X10140103Y-8201984D02*
X10159150Y-8201984D01*
X10159150Y-8201984D02*
X10178198Y-8211508D01*
X10178198Y-8211508D02*
X10187722Y-8221031D01*
X10187722Y-8221031D02*
X10197245Y-8240079D01*
X10197245Y-8240079D02*
X10206769Y-8278174D01*
X10206769Y-8278174D02*
X10206769Y-8325793D01*
X10206769Y-8325793D02*
X10197245Y-8363888D01*
X10197245Y-8363888D02*
X10187722Y-8382936D01*
X10187722Y-8382936D02*
X10178198Y-8392460D01*
X10178198Y-8392460D02*
X10159150Y-8401984D01*
X10159150Y-8401984D02*
X10140103Y-8401984D01*
X10140103Y-8401984D02*
X10121055Y-8392460D01*
X10121055Y-8392460D02*
X10111531Y-8382936D01*
X10111531Y-8382936D02*
X10102007Y-8363888D01*
X10102007Y-8363888D02*
X10092484Y-8325793D01*
X10092484Y-8325793D02*
X10092484Y-8278174D01*
X10092484Y-8278174D02*
X10102007Y-8240079D01*
X10102007Y-8240079D02*
X10111531Y-8221031D01*
X10111531Y-8221031D02*
X10121055Y-8211508D01*
X10121055Y-8211508D02*
X10140103Y-8201984D01*
X10330579Y-8201984D02*
X10349626Y-8201984D01*
X10349626Y-8201984D02*
X10368674Y-8211508D01*
X10368674Y-8211508D02*
X10378198Y-8221031D01*
X10378198Y-8221031D02*
X10387722Y-8240079D01*
X10387722Y-8240079D02*
X10397245Y-8278174D01*
X10397245Y-8278174D02*
X10397245Y-8325793D01*
X10397245Y-8325793D02*
X10387722Y-8363888D01*
X10387722Y-8363888D02*
X10378198Y-8382936D01*
X10378198Y-8382936D02*
X10368674Y-8392460D01*
X10368674Y-8392460D02*
X10349626Y-8401984D01*
X10349626Y-8401984D02*
X10330579Y-8401984D01*
X10330579Y-8401984D02*
X10311531Y-8392460D01*
X10311531Y-8392460D02*
X10302007Y-8382936D01*
X10302007Y-8382936D02*
X10292484Y-8363888D01*
X10292484Y-8363888D02*
X10282960Y-8325793D01*
X10282960Y-8325793D02*
X10282960Y-8278174D01*
X10282960Y-8278174D02*
X10292484Y-8240079D01*
X10292484Y-8240079D02*
X10302007Y-8221031D01*
X10302007Y-8221031D02*
X10311531Y-8211508D01*
X10311531Y-8211508D02*
X10330579Y-8201984D01*
X10482960Y-8401984D02*
X10482960Y-8268650D01*
X10482960Y-8287698D02*
X10492484Y-8278174D01*
X10492484Y-8278174D02*
X10511531Y-8268650D01*
X10511531Y-8268650D02*
X10540103Y-8268650D01*
X10540103Y-8268650D02*
X10559150Y-8278174D01*
X10559150Y-8278174D02*
X10568674Y-8297222D01*
X10568674Y-8297222D02*
X10568674Y-8401984D01*
X10568674Y-8297222D02*
X10578198Y-8278174D01*
X10578198Y-8278174D02*
X10597245Y-8268650D01*
X10597245Y-8268650D02*
X10625817Y-8268650D01*
X10625817Y-8268650D02*
X10644865Y-8278174D01*
X10644865Y-8278174D02*
X10654388Y-8297222D01*
X10654388Y-8297222D02*
X10654388Y-8401984D01*
X10749626Y-8401984D02*
X10749626Y-8268650D01*
X10749626Y-8287698D02*
X10759150Y-8278174D01*
X10759150Y-8278174D02*
X10778198Y-8268650D01*
X10778198Y-8268650D02*
X10806769Y-8268650D01*
X10806769Y-8268650D02*
X10825817Y-8278174D01*
X10825817Y-8278174D02*
X10835341Y-8297222D01*
X10835341Y-8297222D02*
X10835341Y-8401984D01*
X10835341Y-8297222D02*
X10844865Y-8278174D01*
X10844865Y-8278174D02*
X10863912Y-8268650D01*
X10863912Y-8268650D02*
X10892484Y-8268650D01*
X10892484Y-8268650D02*
X10911531Y-8278174D01*
X10911531Y-8278174D02*
X10921055Y-8297222D01*
X10921055Y-8297222D02*
X10921055Y-8401984D01*
X11311531Y-8192460D02*
X11140103Y-8449603D01*
X11568674Y-8201984D02*
X11587722Y-8201984D01*
X11587722Y-8201984D02*
X11606769Y-8211508D01*
X11606769Y-8211508D02*
X11616293Y-8221031D01*
X11616293Y-8221031D02*
X11625817Y-8240079D01*
X11625817Y-8240079D02*
X11635341Y-8278174D01*
X11635341Y-8278174D02*
X11635341Y-8325793D01*
X11635341Y-8325793D02*
X11625817Y-8363888D01*
X11625817Y-8363888D02*
X11616293Y-8382936D01*
X11616293Y-8382936D02*
X11606769Y-8392460D01*
X11606769Y-8392460D02*
X11587722Y-8401984D01*
X11587722Y-8401984D02*
X11568674Y-8401984D01*
X11568674Y-8401984D02*
X11549626Y-8392460D01*
X11549626Y-8392460D02*
X11540103Y-8382936D01*
X11540103Y-8382936D02*
X11530579Y-8363888D01*
X11530579Y-8363888D02*
X11521055Y-8325793D01*
X11521055Y-8325793D02*
X11521055Y-8278174D01*
X11521055Y-8278174D02*
X11530579Y-8240079D01*
X11530579Y-8240079D02*
X11540103Y-8221031D01*
X11540103Y-8221031D02*
X11549626Y-8211508D01*
X11549626Y-8211508D02*
X11568674Y-8201984D01*
X11721055Y-8382936D02*
X11730579Y-8392460D01*
X11730579Y-8392460D02*
X11721055Y-8401984D01*
X11721055Y-8401984D02*
X11711531Y-8392460D01*
X11711531Y-8392460D02*
X11721055Y-8382936D01*
X11721055Y-8382936D02*
X11721055Y-8401984D01*
X11854388Y-8201984D02*
X11873436Y-8201984D01*
X11873436Y-8201984D02*
X11892484Y-8211508D01*
X11892484Y-8211508D02*
X11902007Y-8221031D01*
X11902007Y-8221031D02*
X11911531Y-8240079D01*
X11911531Y-8240079D02*
X11921055Y-8278174D01*
X11921055Y-8278174D02*
X11921055Y-8325793D01*
X11921055Y-8325793D02*
X11911531Y-8363888D01*
X11911531Y-8363888D02*
X11902007Y-8382936D01*
X11902007Y-8382936D02*
X11892484Y-8392460D01*
X11892484Y-8392460D02*
X11873436Y-8401984D01*
X11873436Y-8401984D02*
X11854388Y-8401984D01*
X11854388Y-8401984D02*
X11835341Y-8392460D01*
X11835341Y-8392460D02*
X11825817Y-8382936D01*
X11825817Y-8382936D02*
X11816293Y-8363888D01*
X11816293Y-8363888D02*
X11806769Y-8325793D01*
X11806769Y-8325793D02*
X11806769Y-8278174D01*
X11806769Y-8278174D02*
X11816293Y-8240079D01*
X11816293Y-8240079D02*
X11825817Y-8221031D01*
X11825817Y-8221031D02*
X11835341Y-8211508D01*
X11835341Y-8211508D02*
X11854388Y-8201984D01*
X12111531Y-8401984D02*
X11997246Y-8401984D01*
X12054388Y-8401984D02*
X12054388Y-8201984D01*
X12054388Y-8201984D02*
X12035341Y-8230555D01*
X12035341Y-8230555D02*
X12016293Y-8249603D01*
X12016293Y-8249603D02*
X11997246Y-8259127D01*
X12292484Y-8201984D02*
X12197246Y-8201984D01*
X12197246Y-8201984D02*
X12187722Y-8297222D01*
X12187722Y-8297222D02*
X12197246Y-8287698D01*
X12197246Y-8287698D02*
X12216293Y-8278174D01*
X12216293Y-8278174D02*
X12263912Y-8278174D01*
X12263912Y-8278174D02*
X12282960Y-8287698D01*
X12282960Y-8287698D02*
X12292484Y-8297222D01*
X12292484Y-8297222D02*
X12302007Y-8316269D01*
X12302007Y-8316269D02*
X12302007Y-8363888D01*
X12302007Y-8363888D02*
X12292484Y-8382936D01*
X12292484Y-8382936D02*
X12282960Y-8392460D01*
X12282960Y-8392460D02*
X12263912Y-8401984D01*
X12263912Y-8401984D02*
X12216293Y-8401984D01*
X12216293Y-8401984D02*
X12197246Y-8392460D01*
X12197246Y-8392460D02*
X12187722Y-8382936D01*
X12368674Y-8201984D02*
X12502007Y-8201984D01*
X12502007Y-8201984D02*
X12416293Y-8401984D01*
X12568674Y-8201984D02*
X12568674Y-8240079D01*
X12644865Y-8201984D02*
X12644865Y-8240079D01*
X12940103Y-8478174D02*
X12930579Y-8468650D01*
X12930579Y-8468650D02*
X12911531Y-8440079D01*
X12911531Y-8440079D02*
X12902008Y-8421031D01*
X12902008Y-8421031D02*
X12892484Y-8392460D01*
X12892484Y-8392460D02*
X12882960Y-8344841D01*
X12882960Y-8344841D02*
X12882960Y-8306746D01*
X12882960Y-8306746D02*
X12892484Y-8259127D01*
X12892484Y-8259127D02*
X12902008Y-8230555D01*
X12902008Y-8230555D02*
X12911531Y-8211508D01*
X12911531Y-8211508D02*
X12930579Y-8182936D01*
X12930579Y-8182936D02*
X12940103Y-8173412D01*
X13121055Y-8401984D02*
X13006769Y-8401984D01*
X13063912Y-8401984D02*
X13063912Y-8201984D01*
X13063912Y-8201984D02*
X13044865Y-8230555D01*
X13044865Y-8230555D02*
X13025817Y-8249603D01*
X13025817Y-8249603D02*
X13006769Y-8259127D01*
X13302008Y-8201984D02*
X13206769Y-8201984D01*
X13206769Y-8201984D02*
X13197246Y-8297222D01*
X13197246Y-8297222D02*
X13206769Y-8287698D01*
X13206769Y-8287698D02*
X13225817Y-8278174D01*
X13225817Y-8278174D02*
X13273436Y-8278174D01*
X13273436Y-8278174D02*
X13292484Y-8287698D01*
X13292484Y-8287698D02*
X13302008Y-8297222D01*
X13302008Y-8297222D02*
X13311531Y-8316269D01*
X13311531Y-8316269D02*
X13311531Y-8363888D01*
X13311531Y-8363888D02*
X13302008Y-8382936D01*
X13302008Y-8382936D02*
X13292484Y-8392460D01*
X13292484Y-8392460D02*
X13273436Y-8401984D01*
X13273436Y-8401984D02*
X13225817Y-8401984D01*
X13225817Y-8401984D02*
X13206769Y-8392460D01*
X13206769Y-8392460D02*
X13197246Y-8382936D01*
X13549627Y-8401984D02*
X13549627Y-8201984D01*
X13635341Y-8401984D02*
X13635341Y-8297222D01*
X13635341Y-8297222D02*
X13625817Y-8278174D01*
X13625817Y-8278174D02*
X13606770Y-8268650D01*
X13606770Y-8268650D02*
X13578198Y-8268650D01*
X13578198Y-8268650D02*
X13559150Y-8278174D01*
X13559150Y-8278174D02*
X13549627Y-8287698D01*
X13759150Y-8401984D02*
X13740103Y-8392460D01*
X13740103Y-8392460D02*
X13730579Y-8382936D01*
X13730579Y-8382936D02*
X13721055Y-8363888D01*
X13721055Y-8363888D02*
X13721055Y-8306746D01*
X13721055Y-8306746D02*
X13730579Y-8287698D01*
X13730579Y-8287698D02*
X13740103Y-8278174D01*
X13740103Y-8278174D02*
X13759150Y-8268650D01*
X13759150Y-8268650D02*
X13787722Y-8268650D01*
X13787722Y-8268650D02*
X13806770Y-8278174D01*
X13806770Y-8278174D02*
X13816293Y-8287698D01*
X13816293Y-8287698D02*
X13825817Y-8306746D01*
X13825817Y-8306746D02*
X13825817Y-8363888D01*
X13825817Y-8363888D02*
X13816293Y-8382936D01*
X13816293Y-8382936D02*
X13806770Y-8392460D01*
X13806770Y-8392460D02*
X13787722Y-8401984D01*
X13787722Y-8401984D02*
X13759150Y-8401984D01*
X13940103Y-8401984D02*
X13921055Y-8392460D01*
X13921055Y-8392460D02*
X13911531Y-8373412D01*
X13911531Y-8373412D02*
X13911531Y-8201984D01*
X14092484Y-8392460D02*
X14073436Y-8401984D01*
X14073436Y-8401984D02*
X14035341Y-8401984D01*
X14035341Y-8401984D02*
X14016293Y-8392460D01*
X14016293Y-8392460D02*
X14006770Y-8373412D01*
X14006770Y-8373412D02*
X14006770Y-8297222D01*
X14006770Y-8297222D02*
X14016293Y-8278174D01*
X14016293Y-8278174D02*
X14035341Y-8268650D01*
X14035341Y-8268650D02*
X14073436Y-8268650D01*
X14073436Y-8268650D02*
X14092484Y-8278174D01*
X14092484Y-8278174D02*
X14102008Y-8297222D01*
X14102008Y-8297222D02*
X14102008Y-8316269D01*
X14102008Y-8316269D02*
X14006770Y-8335317D01*
X14178198Y-8392460D02*
X14197246Y-8401984D01*
X14197246Y-8401984D02*
X14235341Y-8401984D01*
X14235341Y-8401984D02*
X14254389Y-8392460D01*
X14254389Y-8392460D02*
X14263912Y-8373412D01*
X14263912Y-8373412D02*
X14263912Y-8363888D01*
X14263912Y-8363888D02*
X14254389Y-8344841D01*
X14254389Y-8344841D02*
X14235341Y-8335317D01*
X14235341Y-8335317D02*
X14206770Y-8335317D01*
X14206770Y-8335317D02*
X14187722Y-8325793D01*
X14187722Y-8325793D02*
X14178198Y-8306746D01*
X14178198Y-8306746D02*
X14178198Y-8297222D01*
X14178198Y-8297222D02*
X14187722Y-8278174D01*
X14187722Y-8278174D02*
X14206770Y-8268650D01*
X14206770Y-8268650D02*
X14235341Y-8268650D01*
X14235341Y-8268650D02*
X14254389Y-8278174D01*
X14330579Y-8478174D02*
X14340103Y-8468650D01*
X14340103Y-8468650D02*
X14359151Y-8440079D01*
X14359151Y-8440079D02*
X14368674Y-8421031D01*
X14368674Y-8421031D02*
X14378198Y-8392460D01*
X14378198Y-8392460D02*
X14387722Y-8344841D01*
X14387722Y-8344841D02*
X14387722Y-8306746D01*
X14387722Y-8306746D02*
X14378198Y-8259127D01*
X14378198Y-8259127D02*
X14368674Y-8230555D01*
X14368674Y-8230555D02*
X14359151Y-8211508D01*
X14359151Y-8211508D02*
X14340103Y-8182936D01*
X14340103Y-8182936D02*
X14330579Y-8173412D01*
D12*
X9365040Y-8574500D02*
G75*
G03*
X9305040Y-8574500I-30000J0D01*
G01*
X9305040Y-8574500D02*
G75*
G03*
X9365040Y-8574500I30000J0D01*
G01*
D11*
X9663912Y-8465984D02*
X9682960Y-8465984D01*
X9682960Y-8465984D02*
X9702007Y-8475508D01*
X9702007Y-8475508D02*
X9711531Y-8485031D01*
X9711531Y-8485031D02*
X9721055Y-8504079D01*
X9721055Y-8504079D02*
X9730579Y-8542174D01*
X9730579Y-8542174D02*
X9730579Y-8589793D01*
X9730579Y-8589793D02*
X9721055Y-8627889D01*
X9721055Y-8627889D02*
X9711531Y-8646936D01*
X9711531Y-8646936D02*
X9702007Y-8656460D01*
X9702007Y-8656460D02*
X9682960Y-8665984D01*
X9682960Y-8665984D02*
X9663912Y-8665984D01*
X9663912Y-8665984D02*
X9644864Y-8656460D01*
X9644864Y-8656460D02*
X9635341Y-8646936D01*
X9635341Y-8646936D02*
X9625817Y-8627889D01*
X9625817Y-8627889D02*
X9616293Y-8589793D01*
X9616293Y-8589793D02*
X9616293Y-8542174D01*
X9616293Y-8542174D02*
X9625817Y-8504079D01*
X9625817Y-8504079D02*
X9635341Y-8485031D01*
X9635341Y-8485031D02*
X9644864Y-8475508D01*
X9644864Y-8475508D02*
X9663912Y-8465984D01*
X9816293Y-8646936D02*
X9825817Y-8656460D01*
X9825817Y-8656460D02*
X9816293Y-8665984D01*
X9816293Y-8665984D02*
X9806769Y-8656460D01*
X9806769Y-8656460D02*
X9816293Y-8646936D01*
X9816293Y-8646936D02*
X9816293Y-8665984D01*
X9997245Y-8465984D02*
X9959150Y-8465984D01*
X9959150Y-8465984D02*
X9940103Y-8475508D01*
X9940103Y-8475508D02*
X9930579Y-8485031D01*
X9930579Y-8485031D02*
X9911531Y-8513603D01*
X9911531Y-8513603D02*
X9902007Y-8551698D01*
X9902007Y-8551698D02*
X9902007Y-8627889D01*
X9902007Y-8627889D02*
X9911531Y-8646936D01*
X9911531Y-8646936D02*
X9921055Y-8656460D01*
X9921055Y-8656460D02*
X9940103Y-8665984D01*
X9940103Y-8665984D02*
X9978198Y-8665984D01*
X9978198Y-8665984D02*
X9997245Y-8656460D01*
X9997245Y-8656460D02*
X10006769Y-8646936D01*
X10006769Y-8646936D02*
X10016293Y-8627889D01*
X10016293Y-8627889D02*
X10016293Y-8580270D01*
X10016293Y-8580270D02*
X10006769Y-8561222D01*
X10006769Y-8561222D02*
X9997245Y-8551698D01*
X9997245Y-8551698D02*
X9978198Y-8542174D01*
X9978198Y-8542174D02*
X9940103Y-8542174D01*
X9940103Y-8542174D02*
X9921055Y-8551698D01*
X9921055Y-8551698D02*
X9911531Y-8561222D01*
X9911531Y-8561222D02*
X9902007Y-8580270D01*
X10140103Y-8465984D02*
X10159150Y-8465984D01*
X10159150Y-8465984D02*
X10178198Y-8475508D01*
X10178198Y-8475508D02*
X10187722Y-8485031D01*
X10187722Y-8485031D02*
X10197245Y-8504079D01*
X10197245Y-8504079D02*
X10206769Y-8542174D01*
X10206769Y-8542174D02*
X10206769Y-8589793D01*
X10206769Y-8589793D02*
X10197245Y-8627889D01*
X10197245Y-8627889D02*
X10187722Y-8646936D01*
X10187722Y-8646936D02*
X10178198Y-8656460D01*
X10178198Y-8656460D02*
X10159150Y-8665984D01*
X10159150Y-8665984D02*
X10140103Y-8665984D01*
X10140103Y-8665984D02*
X10121055Y-8656460D01*
X10121055Y-8656460D02*
X10111531Y-8646936D01*
X10111531Y-8646936D02*
X10102007Y-8627889D01*
X10102007Y-8627889D02*
X10092484Y-8589793D01*
X10092484Y-8589793D02*
X10092484Y-8542174D01*
X10092484Y-8542174D02*
X10102007Y-8504079D01*
X10102007Y-8504079D02*
X10111531Y-8485031D01*
X10111531Y-8485031D02*
X10121055Y-8475508D01*
X10121055Y-8475508D02*
X10140103Y-8465984D01*
X10330579Y-8465984D02*
X10349626Y-8465984D01*
X10349626Y-8465984D02*
X10368674Y-8475508D01*
X10368674Y-8475508D02*
X10378198Y-8485031D01*
X10378198Y-8485031D02*
X10387722Y-8504079D01*
X10387722Y-8504079D02*
X10397245Y-8542174D01*
X10397245Y-8542174D02*
X10397245Y-8589793D01*
X10397245Y-8589793D02*
X10387722Y-8627889D01*
X10387722Y-8627889D02*
X10378198Y-8646936D01*
X10378198Y-8646936D02*
X10368674Y-8656460D01*
X10368674Y-8656460D02*
X10349626Y-8665984D01*
X10349626Y-8665984D02*
X10330579Y-8665984D01*
X10330579Y-8665984D02*
X10311531Y-8656460D01*
X10311531Y-8656460D02*
X10302007Y-8646936D01*
X10302007Y-8646936D02*
X10292484Y-8627889D01*
X10292484Y-8627889D02*
X10282960Y-8589793D01*
X10282960Y-8589793D02*
X10282960Y-8542174D01*
X10282960Y-8542174D02*
X10292484Y-8504079D01*
X10292484Y-8504079D02*
X10302007Y-8485031D01*
X10302007Y-8485031D02*
X10311531Y-8475508D01*
X10311531Y-8475508D02*
X10330579Y-8465984D01*
X10482960Y-8665984D02*
X10482960Y-8532650D01*
X10482960Y-8551698D02*
X10492484Y-8542174D01*
X10492484Y-8542174D02*
X10511531Y-8532650D01*
X10511531Y-8532650D02*
X10540103Y-8532650D01*
X10540103Y-8532650D02*
X10559150Y-8542174D01*
X10559150Y-8542174D02*
X10568674Y-8561222D01*
X10568674Y-8561222D02*
X10568674Y-8665984D01*
X10568674Y-8561222D02*
X10578198Y-8542174D01*
X10578198Y-8542174D02*
X10597245Y-8532650D01*
X10597245Y-8532650D02*
X10625817Y-8532650D01*
X10625817Y-8532650D02*
X10644865Y-8542174D01*
X10644865Y-8542174D02*
X10654388Y-8561222D01*
X10654388Y-8561222D02*
X10654388Y-8665984D01*
X10749626Y-8665984D02*
X10749626Y-8532650D01*
X10749626Y-8551698D02*
X10759150Y-8542174D01*
X10759150Y-8542174D02*
X10778198Y-8532650D01*
X10778198Y-8532650D02*
X10806769Y-8532650D01*
X10806769Y-8532650D02*
X10825817Y-8542174D01*
X10825817Y-8542174D02*
X10835341Y-8561222D01*
X10835341Y-8561222D02*
X10835341Y-8665984D01*
X10835341Y-8561222D02*
X10844865Y-8542174D01*
X10844865Y-8542174D02*
X10863912Y-8532650D01*
X10863912Y-8532650D02*
X10892484Y-8532650D01*
X10892484Y-8532650D02*
X10911531Y-8542174D01*
X10911531Y-8542174D02*
X10921055Y-8561222D01*
X10921055Y-8561222D02*
X10921055Y-8665984D01*
X11311531Y-8456460D02*
X11140103Y-8713603D01*
X11568674Y-8465984D02*
X11587722Y-8465984D01*
X11587722Y-8465984D02*
X11606769Y-8475508D01*
X11606769Y-8475508D02*
X11616293Y-8485031D01*
X11616293Y-8485031D02*
X11625817Y-8504079D01*
X11625817Y-8504079D02*
X11635341Y-8542174D01*
X11635341Y-8542174D02*
X11635341Y-8589793D01*
X11635341Y-8589793D02*
X11625817Y-8627889D01*
X11625817Y-8627889D02*
X11616293Y-8646936D01*
X11616293Y-8646936D02*
X11606769Y-8656460D01*
X11606769Y-8656460D02*
X11587722Y-8665984D01*
X11587722Y-8665984D02*
X11568674Y-8665984D01*
X11568674Y-8665984D02*
X11549626Y-8656460D01*
X11549626Y-8656460D02*
X11540103Y-8646936D01*
X11540103Y-8646936D02*
X11530579Y-8627889D01*
X11530579Y-8627889D02*
X11521055Y-8589793D01*
X11521055Y-8589793D02*
X11521055Y-8542174D01*
X11521055Y-8542174D02*
X11530579Y-8504079D01*
X11530579Y-8504079D02*
X11540103Y-8485031D01*
X11540103Y-8485031D02*
X11549626Y-8475508D01*
X11549626Y-8475508D02*
X11568674Y-8465984D01*
X11721055Y-8646936D02*
X11730579Y-8656460D01*
X11730579Y-8656460D02*
X11721055Y-8665984D01*
X11721055Y-8665984D02*
X11711531Y-8656460D01*
X11711531Y-8656460D02*
X11721055Y-8646936D01*
X11721055Y-8646936D02*
X11721055Y-8665984D01*
X11854388Y-8465984D02*
X11873436Y-8465984D01*
X11873436Y-8465984D02*
X11892484Y-8475508D01*
X11892484Y-8475508D02*
X11902007Y-8485031D01*
X11902007Y-8485031D02*
X11911531Y-8504079D01*
X11911531Y-8504079D02*
X11921055Y-8542174D01*
X11921055Y-8542174D02*
X11921055Y-8589793D01*
X11921055Y-8589793D02*
X11911531Y-8627889D01*
X11911531Y-8627889D02*
X11902007Y-8646936D01*
X11902007Y-8646936D02*
X11892484Y-8656460D01*
X11892484Y-8656460D02*
X11873436Y-8665984D01*
X11873436Y-8665984D02*
X11854388Y-8665984D01*
X11854388Y-8665984D02*
X11835341Y-8656460D01*
X11835341Y-8656460D02*
X11825817Y-8646936D01*
X11825817Y-8646936D02*
X11816293Y-8627889D01*
X11816293Y-8627889D02*
X11806769Y-8589793D01*
X11806769Y-8589793D02*
X11806769Y-8542174D01*
X11806769Y-8542174D02*
X11816293Y-8504079D01*
X11816293Y-8504079D02*
X11825817Y-8485031D01*
X11825817Y-8485031D02*
X11835341Y-8475508D01*
X11835341Y-8475508D02*
X11854388Y-8465984D01*
X11997246Y-8485031D02*
X12006769Y-8475508D01*
X12006769Y-8475508D02*
X12025817Y-8465984D01*
X12025817Y-8465984D02*
X12073436Y-8465984D01*
X12073436Y-8465984D02*
X12092484Y-8475508D01*
X12092484Y-8475508D02*
X12102007Y-8485031D01*
X12102007Y-8485031D02*
X12111531Y-8504079D01*
X12111531Y-8504079D02*
X12111531Y-8523127D01*
X12111531Y-8523127D02*
X12102007Y-8551698D01*
X12102007Y-8551698D02*
X11987722Y-8665984D01*
X11987722Y-8665984D02*
X12111531Y-8665984D01*
X12178198Y-8465984D02*
X12302007Y-8465984D01*
X12302007Y-8465984D02*
X12235341Y-8542174D01*
X12235341Y-8542174D02*
X12263912Y-8542174D01*
X12263912Y-8542174D02*
X12282960Y-8551698D01*
X12282960Y-8551698D02*
X12292484Y-8561222D01*
X12292484Y-8561222D02*
X12302007Y-8580270D01*
X12302007Y-8580270D02*
X12302007Y-8627889D01*
X12302007Y-8627889D02*
X12292484Y-8646936D01*
X12292484Y-8646936D02*
X12282960Y-8656460D01*
X12282960Y-8656460D02*
X12263912Y-8665984D01*
X12263912Y-8665984D02*
X12206769Y-8665984D01*
X12206769Y-8665984D02*
X12187722Y-8656460D01*
X12187722Y-8656460D02*
X12178198Y-8646936D01*
X12473436Y-8465984D02*
X12435341Y-8465984D01*
X12435341Y-8465984D02*
X12416293Y-8475508D01*
X12416293Y-8475508D02*
X12406769Y-8485031D01*
X12406769Y-8485031D02*
X12387722Y-8513603D01*
X12387722Y-8513603D02*
X12378198Y-8551698D01*
X12378198Y-8551698D02*
X12378198Y-8627889D01*
X12378198Y-8627889D02*
X12387722Y-8646936D01*
X12387722Y-8646936D02*
X12397246Y-8656460D01*
X12397246Y-8656460D02*
X12416293Y-8665984D01*
X12416293Y-8665984D02*
X12454388Y-8665984D01*
X12454388Y-8665984D02*
X12473436Y-8656460D01*
X12473436Y-8656460D02*
X12482960Y-8646936D01*
X12482960Y-8646936D02*
X12492484Y-8627889D01*
X12492484Y-8627889D02*
X12492484Y-8580270D01*
X12492484Y-8580270D02*
X12482960Y-8561222D01*
X12482960Y-8561222D02*
X12473436Y-8551698D01*
X12473436Y-8551698D02*
X12454388Y-8542174D01*
X12454388Y-8542174D02*
X12416293Y-8542174D01*
X12416293Y-8542174D02*
X12397246Y-8551698D01*
X12397246Y-8551698D02*
X12387722Y-8561222D01*
X12387722Y-8561222D02*
X12378198Y-8580270D01*
X12568674Y-8465984D02*
X12568674Y-8504079D01*
X12644865Y-8465984D02*
X12644865Y-8504079D01*
X12940103Y-8742174D02*
X12930579Y-8732650D01*
X12930579Y-8732650D02*
X12911531Y-8704079D01*
X12911531Y-8704079D02*
X12902008Y-8685031D01*
X12902008Y-8685031D02*
X12892484Y-8656460D01*
X12892484Y-8656460D02*
X12882960Y-8608841D01*
X12882960Y-8608841D02*
X12882960Y-8570746D01*
X12882960Y-8570746D02*
X12892484Y-8523127D01*
X12892484Y-8523127D02*
X12902008Y-8494555D01*
X12902008Y-8494555D02*
X12911531Y-8475508D01*
X12911531Y-8475508D02*
X12930579Y-8446936D01*
X12930579Y-8446936D02*
X12940103Y-8437412D01*
X13006769Y-8485031D02*
X13016293Y-8475508D01*
X13016293Y-8475508D02*
X13035341Y-8465984D01*
X13035341Y-8465984D02*
X13082960Y-8465984D01*
X13082960Y-8465984D02*
X13102008Y-8475508D01*
X13102008Y-8475508D02*
X13111531Y-8485031D01*
X13111531Y-8485031D02*
X13121055Y-8504079D01*
X13121055Y-8504079D02*
X13121055Y-8523127D01*
X13121055Y-8523127D02*
X13111531Y-8551698D01*
X13111531Y-8551698D02*
X12997246Y-8665984D01*
X12997246Y-8665984D02*
X13121055Y-8665984D01*
X13235341Y-8551698D02*
X13216293Y-8542174D01*
X13216293Y-8542174D02*
X13206769Y-8532650D01*
X13206769Y-8532650D02*
X13197246Y-8513603D01*
X13197246Y-8513603D02*
X13197246Y-8504079D01*
X13197246Y-8504079D02*
X13206769Y-8485031D01*
X13206769Y-8485031D02*
X13216293Y-8475508D01*
X13216293Y-8475508D02*
X13235341Y-8465984D01*
X13235341Y-8465984D02*
X13273436Y-8465984D01*
X13273436Y-8465984D02*
X13292484Y-8475508D01*
X13292484Y-8475508D02*
X13302008Y-8485031D01*
X13302008Y-8485031D02*
X13311531Y-8504079D01*
X13311531Y-8504079D02*
X13311531Y-8513603D01*
X13311531Y-8513603D02*
X13302008Y-8532650D01*
X13302008Y-8532650D02*
X13292484Y-8542174D01*
X13292484Y-8542174D02*
X13273436Y-8551698D01*
X13273436Y-8551698D02*
X13235341Y-8551698D01*
X13235341Y-8551698D02*
X13216293Y-8561222D01*
X13216293Y-8561222D02*
X13206769Y-8570746D01*
X13206769Y-8570746D02*
X13197246Y-8589793D01*
X13197246Y-8589793D02*
X13197246Y-8627889D01*
X13197246Y-8627889D02*
X13206769Y-8646936D01*
X13206769Y-8646936D02*
X13216293Y-8656460D01*
X13216293Y-8656460D02*
X13235341Y-8665984D01*
X13235341Y-8665984D02*
X13273436Y-8665984D01*
X13273436Y-8665984D02*
X13292484Y-8656460D01*
X13292484Y-8656460D02*
X13302008Y-8646936D01*
X13302008Y-8646936D02*
X13311531Y-8627889D01*
X13311531Y-8627889D02*
X13311531Y-8589793D01*
X13311531Y-8589793D02*
X13302008Y-8570746D01*
X13302008Y-8570746D02*
X13292484Y-8561222D01*
X13292484Y-8561222D02*
X13273436Y-8551698D01*
X13549627Y-8665984D02*
X13549627Y-8465984D01*
X13635341Y-8665984D02*
X13635341Y-8561222D01*
X13635341Y-8561222D02*
X13625817Y-8542174D01*
X13625817Y-8542174D02*
X13606770Y-8532650D01*
X13606770Y-8532650D02*
X13578198Y-8532650D01*
X13578198Y-8532650D02*
X13559150Y-8542174D01*
X13559150Y-8542174D02*
X13549627Y-8551698D01*
X13759150Y-8665984D02*
X13740103Y-8656460D01*
X13740103Y-8656460D02*
X13730579Y-8646936D01*
X13730579Y-8646936D02*
X13721055Y-8627889D01*
X13721055Y-8627889D02*
X13721055Y-8570746D01*
X13721055Y-8570746D02*
X13730579Y-8551698D01*
X13730579Y-8551698D02*
X13740103Y-8542174D01*
X13740103Y-8542174D02*
X13759150Y-8532650D01*
X13759150Y-8532650D02*
X13787722Y-8532650D01*
X13787722Y-8532650D02*
X13806770Y-8542174D01*
X13806770Y-8542174D02*
X13816293Y-8551698D01*
X13816293Y-8551698D02*
X13825817Y-8570746D01*
X13825817Y-8570746D02*
X13825817Y-8627889D01*
X13825817Y-8627889D02*
X13816293Y-8646936D01*
X13816293Y-8646936D02*
X13806770Y-8656460D01*
X13806770Y-8656460D02*
X13787722Y-8665984D01*
X13787722Y-8665984D02*
X13759150Y-8665984D01*
X13940103Y-8665984D02*
X13921055Y-8656460D01*
X13921055Y-8656460D02*
X13911531Y-8637412D01*
X13911531Y-8637412D02*
X13911531Y-8465984D01*
X14092484Y-8656460D02*
X14073436Y-8665984D01*
X14073436Y-8665984D02*
X14035341Y-8665984D01*
X14035341Y-8665984D02*
X14016293Y-8656460D01*
X14016293Y-8656460D02*
X14006770Y-8637412D01*
X14006770Y-8637412D02*
X14006770Y-8561222D01*
X14006770Y-8561222D02*
X14016293Y-8542174D01*
X14016293Y-8542174D02*
X14035341Y-8532650D01*
X14035341Y-8532650D02*
X14073436Y-8532650D01*
X14073436Y-8532650D02*
X14092484Y-8542174D01*
X14092484Y-8542174D02*
X14102008Y-8561222D01*
X14102008Y-8561222D02*
X14102008Y-8580270D01*
X14102008Y-8580270D02*
X14006770Y-8599317D01*
X14178198Y-8656460D02*
X14197246Y-8665984D01*
X14197246Y-8665984D02*
X14235341Y-8665984D01*
X14235341Y-8665984D02*
X14254389Y-8656460D01*
X14254389Y-8656460D02*
X14263912Y-8637412D01*
X14263912Y-8637412D02*
X14263912Y-8627889D01*
X14263912Y-8627889D02*
X14254389Y-8608841D01*
X14254389Y-8608841D02*
X14235341Y-8599317D01*
X14235341Y-8599317D02*
X14206770Y-8599317D01*
X14206770Y-8599317D02*
X14187722Y-8589793D01*
X14187722Y-8589793D02*
X14178198Y-8570746D01*
X14178198Y-8570746D02*
X14178198Y-8561222D01*
X14178198Y-8561222D02*
X14187722Y-8542174D01*
X14187722Y-8542174D02*
X14206770Y-8532650D01*
X14206770Y-8532650D02*
X14235341Y-8532650D01*
X14235341Y-8532650D02*
X14254389Y-8542174D01*
X14330579Y-8742174D02*
X14340103Y-8732650D01*
X14340103Y-8732650D02*
X14359151Y-8704079D01*
X14359151Y-8704079D02*
X14368674Y-8685031D01*
X14368674Y-8685031D02*
X14378198Y-8656460D01*
X14378198Y-8656460D02*
X14387722Y-8608841D01*
X14387722Y-8608841D02*
X14387722Y-8570746D01*
X14387722Y-8570746D02*
X14378198Y-8523127D01*
X14378198Y-8523127D02*
X14368674Y-8494555D01*
X14368674Y-8494555D02*
X14359151Y-8475508D01*
X14359151Y-8475508D02*
X14340103Y-8446936D01*
X14340103Y-8446936D02*
X14330579Y-8437412D01*
M02*
